<svg width="2660" height="2660" viewBox="0 0 2660 2660" fill="none" xmlns="http://www.w3.org/2000/svg">
<circle cx="1330" cy="1330" r="1330" fill="url(#paint0_radial_3_65)"/>
<path d="M578.341 1548.94C579.341 1543.81 580.681 1538.72 581.461 1533.55C584.074 1516.33 586.574 1499.08 588.961 1481.82C589.961 1474.2 590.561 1466.52 591.391 1458.82C593.241 1441.93 594.751 1424.99 597.081 1408.16C601.689 1375.51 609.356 1343.36 619.981 1312.15C626.391 1293.15 628.411 1273.77 631.231 1254.28C632.421 1246.09 636.491 1238.35 637.981 1230.16C640.151 1218.16 640.801 1205.95 642.771 1193.94C644.771 1182.11 647.531 1170.44 649.921 1158.68C651.861 1149.13 653.161 1139.41 655.761 1130.04C660.261 1113.83 665.391 1097.79 670.551 1081.78C674.311 1070.11 678.151 1058.44 682.651 1047.05C689.411 1029.97 697.591 1013.41 703.651 996.106C710.551 976.476 715.921 956.296 721.721 936.276C724.151 927.886 726.901 919.996 733.341 913.486C740.621 906.126 746.441 897.246 754.081 890.336C759.757 885.196 766.467 881.329 773.761 878.996C798.981 871.276 824.511 864.556 849.981 857.666C867.411 852.996 884.821 847.996 902.461 844.136C923.694 839.486 945.735 840.014 966.721 845.676C977.811 848.596 989.721 848.986 1001.24 849.676C1023.11 851.009 1045.01 851.969 1066.92 852.556C1074.6 852.766 1082.32 851.286 1090.03 850.956C1098.45 850.606 1106.89 850.566 1115.32 850.606C1128.48 850.666 1141.63 851.046 1154.79 851.006C1161.84 851.006 1168.89 850.186 1175.95 850.006C1201.5 849.346 1227.06 848.916 1252.61 848.136C1258.5 847.956 1264.34 846.446 1270.24 846.076C1283.24 845.276 1296.18 844.396 1309.15 844.296C1354.39 843.966 1399.63 843.606 1444.86 843.986C1463.28 844.146 1481.68 846.176 1500.09 847.336C1505.76 847.696 1511.44 848.106 1517.09 848.276C1535.09 848.796 1553.09 849.706 1571.09 849.516C1584.48 849.376 1597.84 847.426 1611.23 846.906C1627.23 846.276 1643.23 846.176 1659.15 846.076C1697.29 845.836 1735.43 845.676 1773.57 845.596C1789.57 845.596 1802.84 852.646 1814.95 862.486C1828.15 873.196 1842.69 881.256 1859.34 885.586C1866.08 887.336 1872.34 890.816 1878.88 893.486C1884.97 895.976 1890.88 899.406 1897.21 900.736C1913.42 904.136 1927.08 912.416 1941.21 920.496C1961.78 932.286 1972.21 951.286 1980.21 971.916C1988.36 992.916 1995.8 1014.19 2002.1 1035.77C2006.52 1050.92 2008.46 1066.77 2011.6 1082.32C2012.45 1086.53 2013.97 1090.63 2014.6 1094.87C2016.6 1109.23 2017.54 1123.78 2020.37 1137.97C2022.66 1149.46 2027.26 1160.48 2030.53 1171.79C2034.28 1184.79 2038.53 1197.79 2041.08 1211C2044.92 1230.78 2047.2 1250.86 2050.69 1270.72C2054.13 1290.32 2058.35 1309.78 2062.03 1329.33C2063.42 1336.67 2063.41 1344.33 2065.54 1351.44C2068.92 1362.97 2073.08 1374.25 2077.98 1385.23C2085.38 1401.43 2088.09 1418.61 2090.66 1435.91C2092.72 1449.82 2094.84 1463.72 2097.03 1477.61C2098.11 1484.55 2099.5 1491.45 2100.54 1498.4C2102.93 1514.32 2105.25 1530.25 2107.48 1546.19C2108.2 1551.42 2110.68 1554.61 2116.17 1554.75C2124.17 1554.96 2132.17 1555.67 2140.1 1554.9C2143.05 1554.62 2145.7 1550.9 2148.41 1548.58C2154.06 1543.82 2159.68 1539.02 2165.27 1534.2C2169.7 1530.36 2174.5 1526.82 2178.35 1522.45C2196.15 1502.27 2218.43 1498.02 2243.6 1503.33L2260.3 1506.89C2274.65 1509.09 2280.89 1515.29 2283.46 1518.51C2296.84 1535.29 2289.73 1570.43 2260.3 1601.51V1586.45C2273.87 1570.36 2277.98 1555.56 2279.45 1547.62C2281.6 1536.03 2279.63 1530.95 2278.07 1528.17C2273.14 1519.4 2263.07 1517.04 2260.3 1516.5C2249.74 1512.95 2240.64 1512.17 2234.35 1511.25C2215.15 1508.45 2198.25 1512.7 2184.9 1527.95C2180.61 1532.85 2175.78 1537.88 2170.14 1540.83C2162.91 1544.6 2158.32 1550.17 2153.82 1556.46C2150.21 1561.46 2145.82 1565.32 2138.48 1564.67C2130.22 1563.93 2121.84 1564.5 2113.97 1564.5L2121.1 1608.78C2124.95 1608.39 2128.73 1608.15 2132.47 1607.62C2146.62 1605.62 2160.36 1596.78 2175.14 1605.23C2176.21 1605.84 2177.9 1605.23 2179.14 1605.68C2182.71 1606.83 2186.14 1608.34 2189.75 1609.46C2198.27 1612.12 2206.75 1615.77 2215.44 1616.78C2221.08 1617.44 2227.44 1614.68 2232.99 1612.42C2237.86 1610.42 2242.86 1607.76 2246.5 1604.09C2251.71 1598.83 2255.74 1592.39 2260.27 1586.45V1601.54C2258.09 1604.13 2256.27 1607.14 2253.66 1609.2C2248.46 1613.35 2243.23 1617.85 2237.27 1620.57C2230.98 1623.44 2223.86 1624.57 2217.02 1626.14C2214.46 1626.82 2211.77 1626.86 2209.2 1626.23C2195.66 1621.96 2182.04 1617.84 2168.85 1612.63C2162.85 1610.27 2157.85 1610.63 2152.04 1612.33C2143.85 1614.65 2135.37 1615.97 2126.6 1617.8C2127.71 1620.27 2128.08 1622.25 2129.24 1623.52C2142.87 1638.38 2152.24 1656.83 2168.41 1669.58C2170.27 1671.25 2171.96 1673.1 2173.48 1675.09C2179.48 1681.95 2185.34 1688.87 2191.32 1695.7C2201.97 1707.84 2213.23 1719.49 2223.19 1732.17C2236.08 1748.56 2247.95 1765.76 2260.27 1782.61V1796.32C2252.49 1786.23 2244.66 1776.17 2236.94 1766.03C2225.78 1751.39 2215.05 1736.41 2203.47 1722.12C2193.47 1709.75 2182.68 1697.98 2171.91 1686.26C2165.18 1678.92 2157.03 1672.78 2150.91 1665.01C2138.29 1649.01 2125.7 1632.82 2114.97 1615.55C2110.48 1608.33 2110.65 1598.18 2108.87 1589.32C2107.67 1583.32 2107.06 1577.24 2105.71 1571.32C2101.41 1552.32 2096.08 1533.59 2092.71 1514.47C2089.46 1496.23 2088.71 1477.56 2085.79 1459.25C2082.46 1438.25 2078.47 1417.25 2073.72 1396.56C2071.82 1388.29 2066.54 1380.86 2063.88 1372.69C2060.1 1361.32 2056.95 1349.75 2054.44 1338.04C2050.32 1318.32 2046.88 1298.45 2043.44 1278.6C2041.33 1266.6 2039.79 1254.43 2037.84 1242.36C2036.03 1231.21 2033.23 1220.15 2032.26 1208.93C2030.45 1188.06 2018.82 1170.48 2014.01 1150.72C2011.77 1141.5 2011.15 1131.91 2009.57 1122.52C2007.92 1112.75 2005.93 1103.03 2004.22 1093.26C2003.22 1087.47 2001.62 1081.62 2001.69 1075.81C2001.9 1058.73 1994.62 1043.63 1990.22 1027.73C1983.94 1005.08 1976.47 982.886 1966.28 961.726C1960.72 950.166 1953.28 939.496 1942.45 932.486C1933.6 926.736 1923.25 923.846 1912.27 925.716C1906.89 926.636 1901.45 927.336 1896.17 928.646C1891.5 929.796 1887.17 929.436 1886.66 924.206C1886.15 919.306 1891.09 920.206 1894.29 919.736C1900.99 918.636 1907.68 917.516 1916.42 916.066C1913.01 914.476 1911.42 913.196 1909.69 912.996C1892.69 910.996 1878.57 901.636 1863.08 895.766C1857.39 893.616 1851.55 891.836 1845.81 889.816C1832.38 885.116 1821.04 877.006 1809.42 868.946C1795.58 859.356 1780.76 851.826 1762.28 854.876C1750.7 856.776 1738.57 855.356 1726.69 855.376C1709.82 855.376 1692.87 856.456 1676.09 855.186C1636.96 852.246 1598.2 859.876 1559.2 858.486C1531.65 857.486 1504.01 858.486 1476.62 853.276C1466.02 851.276 1454.74 852.826 1443.77 852.906C1400.14 853.186 1356.5 854.286 1312.9 853.486C1295.61 853.015 1278.31 853.971 1261.18 856.346C1253.99 857.406 1246.64 857.506 1239.35 857.696C1213.55 858.386 1187.75 858.886 1161.95 859.576C1157.87 859.686 1153.81 860.806 1149.74 860.756C1137.51 860.576 1125.28 859.826 1113.04 859.756C1105.09 859.696 1097.13 860.536 1089.17 860.696C1077.17 860.946 1065.08 861.576 1053.09 860.936C1024.87 859.443 996.671 857.553 968.491 855.266C956.061 854.266 943.641 849.576 931.431 850.266C912.061 851.366 892.601 852.876 874.001 860.836C861.841 865.996 847.981 866.906 834.981 870.486C817.461 875.326 800.411 882.266 782.651 885.716C763.761 889.396 752.651 901.046 743.401 916.086C739.271 922.796 734.981 929.416 730.881 936.146C730.351 937.006 730.461 938.266 730.771 939.856C738.171 929.396 750.161 926.566 760.471 921.106C770.121 915.996 780.231 911.856 789.981 906.996C793.201 905.406 795.871 902.736 799.051 901.066C801.532 899.74 804.251 898.921 807.051 898.656C808.121 898.586 809.961 900.786 810.341 902.236C810.611 903.236 809.341 905.236 808.201 905.996C791.856 916.697 774.334 925.481 755.981 932.176C740.611 937.756 732.611 951.176 725.181 964.246C720.551 972.426 719.121 982.366 715.091 990.966C707.401 1007.4 703.821 1025.33 694.691 1041.38C687.971 1053.21 684.841 1067.08 680.141 1080.05C677.901 1086.24 675.231 1092.32 673.611 1098.67C669.091 1116.46 665.091 1134.38 660.721 1152.2C658.721 1160.57 655.721 1168.75 654.111 1177.2C652.111 1187.63 651.251 1198.29 649.531 1208.78C647.411 1221.68 645.001 1234.53 642.531 1247.38C640.531 1257.81 637.021 1268.14 636.531 1278.63C635.721 1295.63 628.201 1310.53 624.481 1326.57C618.991 1350.22 612.351 1373.66 608.151 1397.57C604.091 1420.71 602.921 1444.35 599.661 1467.66C597.221 1485.11 593.191 1502.34 590.411 1519.75C589.031 1528.46 588.701 1537.35 588.211 1546.17C587.861 1552.49 585.521 1558.45 588.851 1565.36C590.381 1568.54 585.661 1574.99 583.271 1579.7C581.201 1583.77 577.871 1587.25 576.071 1591.42C571.791 1601.31 566.561 1610.1 558.211 1617.42C551.321 1623.5 545.971 1631.42 540.411 1638.9C529.411 1653.64 519.201 1668.98 507.831 1683.41C493.031 1702.17 478.121 1720.93 461.921 1738.41C450.211 1751.08 436.131 1761.53 423.491 1773.41C417.921 1778.65 413.491 1785.03 408.241 1790.69C404.241 1795 399.611 1798.69 395.841 1803.19C391.491 1808.38 387.781 1814.11 383.791 1819.61H374.251C378.981 1809.57 383.981 1799.87 393.981 1793.59C396.881 1791.75 398.551 1788.04 400.911 1785.3C415.301 1768.63 430.711 1753.09 448.181 1739.49C462.091 1728.66 472.371 1714.38 482.571 1700.03C492.941 1685.44 504.751 1671.88 515.571 1657.61C524.291 1646.13 532.301 1634.11 541.071 1622.67C544.501 1618.19 549.291 1614.78 553.191 1610.67C556.681 1606.95 559.781 1602.88 564.381 1597.38C556.081 1597.79 550.041 1598 544.021 1598.38C524.701 1599.7 505.361 1602.52 486.081 1602.09C465.231 1601.63 445.761 1606.84 425.981 1611.56C422.931 1612.28 419.511 1612.85 416.511 1612.25C400.711 1609.07 386.921 1603.09 378.511 1587.72C372.221 1576.25 368.131 1564.34 370.861 1551.72C373.121 1541.27 373.751 1529.42 383.861 1522.05C385.451 1520.88 386.281 1518.71 387.761 1517.31C396.921 1508.59 405.501 1499.04 415.661 1491.66C420.991 1487.79 429.071 1487.5 436.011 1486.18C439.291 1485.55 442.851 1486.56 446.261 1486.38C468.181 1485.23 487.061 1492.87 503.261 1506.97C514.831 1516.97 525.591 1527.97 536.801 1538.43C538.371 1539.9 540.421 1541.61 542.381 1541.79C551.641 1542.67 560.951 1543.47 570.251 1543.44C574.891 1543.44 576.821 1545.6 578.471 1549.08C576.121 1550.44 573.771 1552.92 571.411 1552.92C561.611 1552.92 551.791 1552.46 542.021 1551.63C538.856 1551.32 535.848 1550.1 533.361 1548.12C528.426 1543.85 523.751 1539.29 519.361 1534.47C512.761 1527.47 507.591 1519.29 498.991 1513.92C486.991 1506.44 475.901 1497.44 461.111 1496.33C453.831 1495.78 446.231 1497.03 439.251 1495.42C428.831 1493.01 421.471 1497.35 414.581 1503.67C406.911 1510.67 399.851 1518.4 392.051 1525.29C382.761 1533.56 380.411 1544.88 378.981 1556C377.101 1570.48 383.981 1583.23 393.741 1593C402.241 1601.42 413.671 1605.37 426.491 1602.07C440.131 1598.57 453.911 1595.62 467.651 1592.53C469.459 1592.27 471.288 1592.19 473.111 1592.31C482.411 1592.23 491.721 1592.48 501.001 1592.04C521.948 1591.04 542.891 1589.81 563.831 1588.36C565.931 1588.22 568.971 1586.58 569.751 1584.83C574.781 1573.41 580.041 1562 578.341 1548.94Z" fill="#194B3F"/>
<path d="M2020.51 1609.89L2025.68 1617.48C2023.24 1618.56 2020.82 1619.72 2018.33 1620.68C2017.07 1621.17 2015.38 1620.89 2014.38 1621.68C2002.08 1630.75 1986.58 1630.23 1972.91 1635.42C1961.2 1639.86 1948.04 1641.04 1935.39 1642.28C1919.99 1643.76 1904.53 1644.48 1889.06 1644.42C1865.17 1644.42 1841.28 1643.34 1817.38 1642.91C1798.71 1642.57 1780.03 1642.65 1761.38 1642.29C1739.47 1641.88 1717.54 1641.58 1695.66 1640.48C1685.49 1639.97 1675.45 1637.12 1665.26 1636.34C1645.97 1634.84 1626.64 1633.55 1607.26 1633.17C1591.54 1632.87 1575.78 1633.75 1560.07 1634.58C1530.07 1636.16 1500.07 1638.07 1470.07 1639.86C1468.7 1639.94 1467.07 1639.72 1466.07 1640.34C1452.82 1647.76 1438.63 1645.02 1424.57 1644.63C1406.98 1644.14 1389.36 1643.79 1371.78 1644.21C1356.9 1644.56 1342.38 1642.47 1328.95 1636.78C1309.68 1628.63 1289.07 1627.78 1269.17 1623.19C1248.64 1618.49 1228.76 1625.43 1208.5 1624.78C1200.5 1624.52 1192.33 1626.78 1184.22 1627.78C1172.92 1629.09 1161.58 1630.09 1150.29 1631.46C1139.29 1632.79 1128.36 1635.07 1117.29 1635.77C1102.74 1636.85 1088.14 1637.1 1073.56 1636.54C1054.92 1635.73 1036.33 1633.97 1017.86 1631.26C991.531 1627.26 965.461 1632.15 939.261 1631.8C934.801 1631.74 930.351 1633.72 925.841 1634.16C918.867 1634.91 911.856 1635.27 904.841 1635.24C897.161 1635.11 889.481 1634.31 881.841 1633.6C874.841 1632.95 867.601 1632.93 860.911 1631.05C843.092 1626.07 824.42 1624.94 806.131 1627.73C796.191 1629.16 786.001 1628.84 775.951 1629.73C771.241 1630.12 766.621 1631.96 761.951 1632.14C746.821 1632.7 731.891 1631.32 717.511 1626.14C716.021 1625.6 714.271 1625.27 713.151 1624.28C698.541 1611.33 684.481 1597.82 680.801 1577.48C679.391 1569.68 679.141 1561.61 678.971 1553.65C678.671 1539.72 678.231 1525.74 678.971 1511.83C680.031 1491.69 682.041 1471.59 683.731 1451.47C684.791 1438.85 685.981 1426.23 687.221 1413.62C687.387 1411.56 687.866 1409.53 688.641 1407.62C696.771 1388.19 698.061 1367.42 700.441 1346.91C702.341 1330.46 703.551 1313.91 705.351 1297.48C705.741 1293.92 707.771 1290.55 708.281 1286.98C710.131 1273.98 711.601 1260.98 713.281 1247.93C715.381 1232.01 717.534 1216.09 719.741 1200.19C720.941 1191.45 721.651 1182.59 723.651 1174.04C726.331 1162.63 730.361 1151.53 733.251 1140.15C736.871 1125.9 739.601 1111.42 743.321 1097.15C747.321 1081.82 751.931 1066.64 756.481 1051.45C757.651 1047.54 759.961 1043.97 761.041 1040.04C762.971 1032.96 765.251 1026.58 773.761 1025.11C780.311 1023.98 786.761 1022.23 793.311 1021.22C806.071 1019.22 818.881 1017.66 831.651 1015.82C833.421 1015.57 835.081 1014.6 836.851 1014.3C854.621 1011.3 872.521 1009.5 890.471 1007.75C913.001 1005.55 935.391 1005.8 957.891 1006.19C977.481 1006.52 997.081 1006.58 1016.66 1006.19C1035.49 1005.78 1054.3 1004.31 1073.13 1003.87C1082.9 1003.65 1092.69 1004.78 1102.47 1005.07C1111.09 1005.32 1119.73 1005.02 1128.35 1005.36C1141.79 1005.88 1155.22 1007 1168.66 1007.36C1178.66 1007.63 1188.66 1007.02 1198.73 1006.93C1211.44 1006.8 1224.16 1006.85 1236.88 1006.74C1250.52 1006.62 1264.17 1006.36 1277.82 1006.22C1283.7 1006.22 1289.58 1006.39 1295.46 1006.28C1307.32 1006.04 1319.17 1005.49 1331.03 1005.42C1337.39 1005.42 1343.74 1006.16 1350.1 1006.42C1357.8 1006.71 1365.52 1006.96 1373.23 1007C1393.53 1007.12 1413.84 1006.94 1434.14 1007.27C1439.08 1007.35 1443.96 1009.27 1448.92 1009.74C1457.53 1010.5 1466.18 1010.74 1474.81 1011.24C1481.1 1011.61 1487.38 1012.24 1493.67 1012.45C1505.62 1012.82 1517.58 1013.06 1529.54 1013.16C1538.59 1013.24 1547.64 1013.22 1556.68 1012.95C1575.82 1012.37 1594.95 1011.72 1614.07 1010.83C1620.64 1010.52 1627.19 1009.54 1633.72 1008.66C1664.13 1004.57 1694.83 1006.6 1725.24 1004.39C1746.04 1002.89 1765.47 1006.51 1785.24 1010.76C1806.42 1015.32 1827.8 1014.55 1849.24 1013.53C1850.67 1013.46 1852.73 1012.94 1853.35 1011.92C1857.22 1005.63 1862.67 1006.66 1868.5 1007.92C1872.27 1008.62 1876.08 1009.08 1879.91 1009.3C1890.91 1010.3 1902.21 1010.18 1912.91 1012.61C1917.62 1013.68 1921.91 1019.32 1925.07 1023.82C1930.73 1031.7 1935.7 1040.07 1939.91 1048.82C1942.91 1055.31 1943.52 1062.87 1945.91 1069.68C1948.15 1075.97 1951.43 1081.87 1954.17 1087.98C1954.87 1089.39 1955.34 1090.9 1955.56 1092.46C1956.67 1103.51 1957.21 1114.64 1958.86 1125.6C1960.09 1133.85 1962.73 1141.88 1964.65 1150.02C1965.26 1151.95 1965.49 1153.99 1965.34 1156.02C1963.02 1169.84 1966.78 1182.85 1969.99 1196.02C1972.73 1207.22 1974.99 1218.58 1976.74 1229.97C1979.85 1249.6 1980.74 1269.44 1987.52 1288.63C1992.52 1302.84 1993.93 1318.29 1996.94 1333.19C1999.36 1345.19 2001.78 1357.19 2004.19 1369.19C2008.24 1389.39 2012.27 1409.59 2016.27 1429.81C2016.63 1431.83 2016.74 1433.89 2016.59 1435.95C2015.59 1455.12 2019.15 1473.45 2025.78 1491.39C2027.54 1496.31 2028.38 1501.51 2028.26 1506.74C2027.98 1521.03 2026.78 1535.29 2026.42 1549.57C2026.31 1553.78 2027.61 1558.06 2028.53 1562.25C2032.32 1579.7 2029.22 1596 2020.51 1609.89ZM943.981 1388.45C944.901 1393.45 943.351 1396.55 937.821 1397.38C929.321 1398.67 920.921 1400.6 912.411 1401.82C898.611 1403.82 884.031 1401.06 871.271 1409.42C868.891 1410.98 865.001 1411.2 862.001 1410.74C840.431 1407.46 831.201 1415.86 820.901 1432.74C815.631 1441.38 813.901 1452.22 810.831 1462.16C808.781 1468.88 808.411 1476.33 805.311 1482.47C797.171 1498.58 795.581 1515.8 794.311 1533.27C793.771 1540.91 792.311 1548.47 791.541 1556.09C790.591 1565.22 789.911 1574.38 789.091 1583.73L811.341 1585.11C812.521 1567.55 813.151 1551.19 814.821 1534.93C816.881 1514.82 828.431 1498.66 838.551 1482.02C840.12 1479.54 842.063 1477.33 844.311 1475.45C854.401 1466.7 866.991 1463.63 879.451 1460.19C894.311 1456.08 910.451 1458.66 924.711 1451.31C926.641 1450.31 929.651 1450.9 932.041 1451.38C946.131 1454.23 956.101 1446.19 965.731 1438.22C970.391 1434.36 968.121 1413.06 962.991 1407.63C956.811 1401.07 950.221 1394.9 943.801 1388.57C941.151 1386.09 938.37 1383.75 935.471 1381.57C930.551 1378.21 925.681 1373.34 920.241 1372.46C907.071 1370.32 895.181 1366.93 885.681 1356.77C876.181 1346.61 879.061 1333.07 892.341 1328.77L901.011 1325.93L901.161 1323.39C896.321 1322.15 891.531 1320.14 886.631 1319.79C873.381 1318.87 860.091 1324.44 846.781 1319.68C845.781 1319.34 844.521 1319.81 843.401 1320.01C834.201 1321.68 825.021 1323.38 814.081 1325.4C817.211 1351.4 820.581 1378.88 823.641 1406.4C823.841 1408.25 821.731 1410.35 820.691 1412.34C818.981 1411.23 816.751 1410.48 815.691 1408.93C814.631 1407.38 814.691 1405.07 814.411 1403.06C812.871 1392.17 811.411 1381.27 809.671 1368.8C799.301 1378.1 789.081 1386.07 780.331 1395.4C768.331 1408.19 767.761 1408.65 758.461 1393.98C751.921 1383.67 742.111 1376.06 740.371 1361.98C737.491 1338.56 731.461 1315.52 726.661 1292.33C725.161 1285.1 723.331 1277.93 721.661 1270.73C720.297 1274.02 719.33 1277.47 718.781 1281C716.481 1293.46 713.561 1305.85 712.111 1318.42C711.111 1327.3 711.011 1335.54 717.051 1344.6C724.941 1356.44 728.631 1371.15 733.561 1384.83C738.341 1398.09 742.381 1411.62 746.781 1425.02C749.481 1433.2 752.381 1441.32 754.901 1449.55C755.641 1451.95 756.351 1455.18 755.311 1457.04C754.501 1458.47 750.551 1459.44 748.681 1458.76C740.811 1455.91 735.681 1459.28 730.931 1464.95C728.631 1467.68 725.501 1469.72 722.741 1472.06C716.211 1477.6 710.831 1483.79 708.691 1492.5C707.729 1496.25 705.9 1499.73 703.351 1502.65C701.991 1504.19 698.121 1505.01 696.211 1504.2C694.301 1503.39 692.371 1500.15 692.351 1497.96C692.351 1496.05 694.831 1493.96 696.471 1492.23C697.721 1490.89 700.001 1490.23 700.721 1488.73C710.121 1469.21 725.621 1456 744.721 1444.84C733.631 1413.54 722.201 1381.33 710.781 1349.11C708.967 1352.84 707.836 1356.87 707.441 1361C705.441 1378.38 702.941 1395.66 696.511 1412.11C695.978 1413.57 695.641 1415.09 695.511 1416.65C693.251 1438.97 690.341 1461.25 689.011 1483.65C687.621 1507.07 687.351 1530.59 687.471 1554.06C687.471 1563.06 689.811 1572.06 691.471 1580.94C692.401 1586.04 695.151 1588.26 700.791 1586.03C704.235 1584.83 707.867 1584.27 711.511 1584.38C726.811 1584.24 742.121 1584.38 757.421 1584.38H780.551C781.651 1572.9 782.551 1562.76 783.641 1552.64C784.331 1546.37 785.441 1540.14 786.221 1533.88C787.771 1521.29 788.531 1508.55 790.961 1496.13C792.541 1488.03 796.761 1480.48 799.301 1472.53C803.421 1459.62 807.091 1446.53 811.041 1433.6C816.691 1415.11 839.231 1396.94 861.981 1401.51C863.801 1401.87 865.761 1401.51 869.541 1401.51C867.131 1399.66 866.411 1398.72 865.481 1398.45C853.741 1395.05 850.611 1384.55 849.481 1375.07C847.791 1360.32 848.861 1345.23 849.111 1330.29C849.111 1328.8 851.601 1327.36 852.941 1325.89C854.361 1327.38 856.751 1328.72 857.011 1330.39C857.481 1333.45 856.841 1336.72 856.401 1339.86C854.202 1355.2 856.114 1370.86 861.941 1385.23C862.941 1387.76 868.051 1389.98 871.281 1390C876.201 1390 881.861 1385.34 884.161 1394C884.271 1394.42 886.721 1394.38 888.061 1394.27C904.121 1392.98 920.481 1394.51 936.061 1388.91C938.451 1388 941.341 1388.53 943.981 1388.45ZM1533.42 1191.45L1533.3 1191.31C1535.93 1208.06 1525.82 1220.6 1518.36 1234.7L1529.67 1241.76C1533.87 1238.43 1537.31 1234.94 1541.45 1232.76C1543.25 1231.82 1546.45 1233.61 1549.06 1234.16C1547.96 1236.36 1547.29 1238.99 1545.65 1240.68C1543.15 1243.25 1539.98 1245.16 1537.12 1247.34C1540.3 1251.13 1542.7 1254 1545.12 1256.87L1545.42 1255.23H1555.49C1554.23 1258.71 1552.97 1262.23 1551.11 1267.32C1554.11 1271.44 1559.01 1276.2 1566.11 1276.27V1216.12C1560.11 1216.78 1554.94 1217.84 1549.78 1217.69C1547.55 1217.63 1545.4 1215.08 1543.21 1213.69C1545.13 1211.98 1546.89 1209.06 1549 1208.79C1554.52 1208.1 1560.19 1208.56 1565.77 1208.56V1163.56C1556.31 1170.9 1546.96 1168.3 1537.87 1164.97C1535.95 1164.26 1534.98 1160.97 1533.57 1158.87C1535.87 1158.08 1538.2 1156.58 1540.47 1156.65C1546.09 1156.82 1551.67 1157.89 1557.29 1158.26C1560.08 1158.44 1562.91 1157.89 1566.29 1157.63C1566.29 1143.28 1566.29 1128.21 1566.29 1113.15C1566.29 1112.25 1565.97 1111.36 1565.88 1110.46C1565 1101.46 1563.21 1092.39 1563.62 1083.46C1563.87 1077.97 1567.18 1072.46 1569.87 1067.39C1570.45 1066.31 1575.71 1065.98 1576.47 1067.02C1581.54 1074.02 1586.76 1081.02 1590.47 1088.78C1597.89 1104.36 1604.14 1120.49 1611.3 1136.2C1615.04 1144.4 1618.98 1145.83 1627.71 1144.81C1637.2 1143.69 1646.72 1142.82 1656.27 1142.22C1667.64 1141.51 1679.03 1140.84 1690.4 1140.84C1701.77 1140.84 1713.16 1141.95 1724.54 1142.12C1734.47 1142.26 1735.43 1140.99 1738.15 1131.63C1739.4 1127.32 1741.73 1123.33 1743.59 1119.2C1745.93 1114.02 1749.04 1109.05 1750.51 1103.63C1754.79 1087.8 1760.3 1072.63 1770.1 1059.28C1771.29 1057.66 1773.92 1055.66 1775.36 1056.01C1777.36 1056.48 1779.42 1058.76 1780.26 1060.77C1781.18 1062.95 1780.74 1065.71 1780.85 1068.21C1781.42 1081.21 1781.64 1094.21 1782.64 1107.12C1783.82 1122.45 1786.08 1137.69 1787.11 1153.02C1787.85 1164.09 1787.28 1175.25 1787.41 1186.37C1787.47 1191.7 1789.29 1195.57 1795.65 1195.21C1800.45 1194.94 1804.65 1195.87 1807.18 1200.72C1807.92 1202.09 1810.07 1202.91 1811.74 1203.57C1820.1 1206.85 1824.67 1213.28 1827.24 1221.57C1827.82 1223.43 1828.73 1225.19 1830.37 1229.09C1832.37 1222.92 1834.18 1218.83 1834.94 1214.54C1836.37 1206.54 1837.51 1198.45 1838.2 1190.35C1840.09 1168.41 1841.58 1146.43 1843.49 1124.48C1843.86 1120.26 1845.43 1116.14 1846.43 1111.97C1848.69 1102.56 1851.61 1093.25 1853.06 1083.71C1855.51 1067.57 1857.06 1051.28 1858.94 1035.05C1859.39 1031.12 1859.64 1027.17 1859.94 1023.95H1813.88C1816.05 1048.56 1818.16 1072.01 1820.12 1095.46C1820.38 1098.42 1820.16 1101.4 1819.47 1104.29C1815.09 1121.7 1810.96 1139.09 1811.8 1157.29C1812.13 1164.22 1805.93 1168.62 1799.32 1166.79C1797.98 1166.33 1795.98 1165 1795.98 1164C1795.92 1162.5 1796.98 1159.88 1798.09 1159.61C1804.61 1157.98 1804.09 1153.99 1802.47 1149.08C1801.95 1147.47 1802.35 1145.45 1802.7 1143.7C1805.7 1129.04 1808.7 1114.41 1811.7 1099.75C1811.98 1097.94 1812.03 1096.1 1811.85 1094.29C1811.48 1087.73 1810.76 1081.18 1810.62 1074.62C1810.15 1057.33 1807.25 1040.19 1802 1023.72C1801.73 1023.14 1801.33 1022.63 1800.84 1022.23C1800.34 1021.83 1799.77 1021.54 1799.15 1021.39C1786.41 1018.92 1773.72 1015.77 1760.85 1014.51C1748.48 1013.3 1735.92 1014 1723.45 1014.05C1692.68 1014.15 1661.83 1013.43 1631.27 1017.78C1608.24 1021.1 1584.97 1022.47 1561.71 1021.9C1551.25 1021.62 1540.71 1021.77 1530.3 1022.03C1520.3 1022.29 1509.91 1024.89 1500.41 1022.96C1486.31 1020.11 1472.35 1020.4 1458.25 1019.96C1446.07 1019.55 1434.41 1015.53 1421.73 1016.66C1406.38 1018.02 1390.73 1016.23 1375.24 1016C1370.74 1015.94 1366.24 1017 1361.72 1016.76C1352.87 1016.28 1344.07 1014.76 1335.24 1014.56C1318.15 1014.2 1301.05 1014.44 1283.95 1014.49C1281.95 1014.49 1279.95 1015.04 1277.88 1015.1C1265.41 1015.45 1252.95 1015.91 1240.48 1016.01C1226.86 1016.12 1213.23 1015.73 1199.61 1015.86C1190.27 1015.95 1180.93 1017.06 1171.61 1016.86C1155.91 1016.46 1140.23 1015.2 1124.54 1014.57C1114.08 1014.15 1103.61 1014.26 1093.14 1014C1085.87 1013.81 1078.58 1012.94 1071.33 1013.17C1055.22 1013.68 1039.13 1015.26 1023.02 1015.36C996.611 1015.53 970.191 1014.3 943.791 1014.74C920.861 1015.12 897.951 1016.96 875.041 1018.25C867.241 1018.68 859.111 1017.33 852.041 1022.25C851.401 1022.7 850.251 1022.37 849.361 1022.53C838.271 1024.48 827.181 1026.46 817.521 1028.17C817.521 1038.67 817.741 1047.92 817.471 1057.17C817.141 1068.08 816.391 1078.97 815.821 1089.87C814.951 1106.25 819.721 1120.87 829.661 1133.87C831.381 1136.12 834.171 1139.32 830.051 1141.12C828.051 1142.02 823.531 1140.78 822.051 1138.97C818.66 1134.39 815.789 1129.46 813.491 1124.25C803.811 1103.87 807.351 1082.1 808.161 1060.9C808.551 1050.65 809.581 1040.7 806.891 1030.79C786.141 1028.88 780.131 1029.91 776.501 1035.91C782.961 1038.8 782.841 1038.75 780.121 1045.27C779.596 1046.98 779.596 1048.81 780.121 1050.52C785.551 1070.92 793.121 1090.82 793.401 1112.36C793.401 1116.05 796.451 1120.77 790.791 1121.85C785.131 1122.93 786.441 1116.67 784.611 1113.72C784.301 1113.2 784.551 1112.36 784.441 1111.72C782.611 1100.07 781.281 1088.31 778.771 1076.81C776.451 1066.24 772.851 1055.95 769.351 1043.91C767.491 1049.5 766.991 1054.82 764.261 1058.49C754.881 1071.09 755.431 1086.49 751.571 1100.54C747.821 1114.23 745.401 1128.29 741.851 1142.04C738.791 1153.87 734.451 1165.37 731.641 1177.24C729.301 1187.15 728.131 1197.37 726.861 1207.5C725.591 1217.63 723.811 1227.8 724.191 1237.88C724.541 1247.19 727.421 1256.42 729.191 1265.67C734.331 1291.8 739.371 1317.95 744.711 1344.05C746.581 1353.18 747.791 1362.85 751.861 1371.05C756.101 1379.54 763.421 1386.5 768.781 1393.34C774.341 1388.39 779.421 1383.84 784.531 1379.34C791.711 1373.02 798.991 1366.82 806.041 1360.34C807.421 1359.07 808.831 1356.85 808.761 1355.13C808.341 1344.55 807.501 1333.99 806.761 1323.44C800.761 1322.92 794.301 1322.72 788.011 1321.73C781.721 1320.74 775.721 1318.92 769.571 1317.52C766.866 1317 764.366 1315.71 762.365 1313.82C760.363 1311.93 758.943 1309.51 758.271 1306.84C756.681 1301.12 759.421 1296.12 764.021 1293.23C768.621 1290.34 773.881 1288.72 779.021 1287.1C786.921 1284.62 788.071 1283.1 786.711 1276.01C778.611 1274.01 770.891 1272.37 763.411 1270.01C761.841 1269.51 761.151 1266.24 760.051 1264.25C762.391 1263.77 764.781 1262.72 767.051 1262.92C772.871 1263.45 778.651 1265.17 784.421 1265.08C786.501 1265.08 789.081 1261.5 790.301 1259C790.771 1258 788.421 1255.12 786.791 1253.81C781.291 1249.41 775.371 1245.52 769.991 1240.98C768.831 1239.98 769.301 1237.09 768.991 1235.08C771.201 1235.19 773.921 1234.52 775.511 1235.56C781.901 1239.77 787.941 1244.56 794.041 1249.01C798.861 1244.01 797.581 1241.92 792.571 1235.01C786.671 1226.87 780.571 1218.06 777.901 1208.59C774.551 1196.77 774.701 1183.97 773.111 1171.59C771.631 1160.14 780.441 1154.08 785.931 1146.27C792.591 1136.81 814.541 1133.59 824.931 1145.55C831.091 1152.65 837.451 1159.55 843.031 1167.15C848.611 1174.75 851.511 1183.15 848.941 1192.68C845.701 1204.68 842.521 1216.8 839.271 1228.85C838.421 1231.98 837.771 1234.85 842.421 1235.24C846.041 1235.57 849.651 1236.03 854.591 1236.57C855.991 1234.99 858.081 1231.92 860.841 1229.68C862.921 1227.99 865.841 1227.37 868.391 1226.27C868.171 1228.94 868.791 1232.14 867.531 1234.15C864.821 1238.5 861.131 1242.24 857.861 1246.21C861.751 1251.12 865.211 1253.1 869.741 1247.74C870.921 1246.34 873.741 1244.89 875.141 1245.35C880.571 1247.11 882.681 1243.17 885.801 1240.43C887.801 1238.72 890.481 1236.92 892.801 1236.97C894.491 1236.97 896.111 1240.03 897.801 1241.72C893.561 1244.93 888.851 1251.25 885.171 1250.72C877.891 1249.63 876.491 1255.72 871.671 1257.19C876.611 1263.29 881.401 1268.73 885.671 1274.58C889.041 1279.25 893.851 1278.76 898.011 1277.9C899.861 1277.53 901.251 1273.32 902.201 1270.63C903.036 1268.26 903.333 1265.73 903.071 1263.24C899.141 1231.48 909.701 1201.06 911.551 1169.85C912.421 1155.13 914.221 1140.44 914.431 1125.72C914.691 1108.64 913.581 1091.54 913.281 1074.45C913.286 1071.3 913.841 1068.18 914.921 1065.23C915.322 1064.47 915.903 1063.83 916.614 1063.36C917.325 1062.89 918.142 1062.6 918.991 1062.53C920.321 1062.62 922.051 1064.33 922.711 1065.75C928.571 1078.28 934.471 1090.75 939.861 1103.53C944.132 1113.23 947.845 1123.18 950.981 1133.31C953.121 1140.65 953.531 1141.15 961.031 1139.97C979.181 1137.13 997.371 1134.23 1015.65 1132.63C1029.65 1131.4 1043.95 1132.63 1056.89 1125.19C1058 1124.64 1059.2 1124.32 1060.44 1124.25C1061.67 1124.17 1062.9 1124.34 1064.07 1124.75C1068.87 1126.69 1070.16 1124.15 1071.24 1120.47C1071.92 1117.6 1072.85 1114.8 1074.02 1112.11C1082.92 1094.23 1091.87 1076.37 1101.13 1058.68C1101.93 1057.14 1105.65 1055.5 1106.94 1056.13C1111.38 1058.27 1115.3 1060.96 1116.12 1066.96C1117.56 1077.5 1120.02 1087.9 1121.9 1098.4C1122.44 1101.77 1122.77 1105.18 1122.9 1108.6C1123.9 1126.77 1124.82 1144.96 1125.9 1163.13C1126.48 1172.86 1129.19 1175.33 1139.01 1176.69C1141.8 1177.07 1144.44 1178.63 1145.8 1179.15C1149.37 1178.15 1151.9 1176.71 1154.38 1176.79C1178.77 1177.58 1203.15 1178.92 1227.55 1179.41C1237.08 1179.6 1246.36 1185.05 1256.19 1180.65C1257.54 1180.04 1259.96 1181.77 1261.88 1182.46C1263.55 1183.05 1265.2 1184.23 1266.88 1184.23C1288.13 1184.23 1309.39 1184.43 1330.64 1184C1350.25 1183.61 1369.85 1182.44 1389.46 1181.89C1395.59 1181.71 1401.83 1183.25 1407.85 1182.53C1416.49 1181.53 1424.6 1180.46 1432.8 1185.15C1435.72 1186.82 1440.36 1185.54 1444.22 1185.51C1445.79 1185.51 1447.64 1184.67 1448.87 1185.25C1450.69 1186.12 1452.08 1187.92 1453.65 1189.32C1452.37 1190.67 1451.26 1192.93 1449.77 1193.21C1443.4 1194.43 1436.91 1195.07 1431.43 1195.79C1433.58 1199.27 1436.57 1203.48 1438.9 1208.04C1443.46 1216.93 1446.32 1226.04 1442.9 1236.29C1439.72 1245.76 1437.38 1255.52 1434.5 1265.1C1429.25 1282.49 1424.18 1299.94 1418.42 1317.16C1415.42 1326.16 1409.64 1334.41 1407.67 1343.55C1403.61 1362.32 1401.28 1381.46 1398.29 1400.13C1409.13 1405.01 1418.96 1410.87 1430.86 1407.96C1436.86 1406.5 1442.86 1405.18 1448.86 1403.96C1451.72 1403.38 1454.77 1402.45 1457.54 1402.89C1470.27 1404.95 1482.88 1407.59 1495.19 1400.89C1496.5 1400.18 1499.53 1401.23 1500.81 1402.45C1501.5 1403.11 1500.65 1407.12 1499.66 1407.5C1493.26 1409.99 1486.73 1413.17 1480.05 1413.69C1470.44 1414.43 1460.33 1411.32 1451.05 1413.04C1435.45 1415.93 1420.32 1421.46 1404.94 1413.04C1412.6 1424.04 1420.49 1434.2 1427.11 1445.16C1432.44 1453.99 1436.48 1463.65 1440.47 1473.16C1441.15 1474.77 1438.71 1477.68 1437.72 1480C1435.94 1478.69 1433.45 1477.77 1432.54 1476C1430.3 1471.7 1429.22 1466.8 1426.9 1462.57C1423.76 1456.87 1419.9 1451.57 1416.33 1446.1C1408.6 1434.31 1400.84 1422.55 1392.98 1410.58C1383.15 1417.11 1373.83 1414.81 1366.66 1409.14C1362.94 1406.2 1360.1 1405.39 1356.18 1405.46C1334.29 1405.88 1312.41 1406.52 1290.52 1406.65C1285.23 1406.65 1281.92 1408.18 1279.84 1413.04C1274.57 1425.38 1268.7 1437.49 1263.84 1450.04C1259.21 1462.04 1255.5 1474.42 1251.69 1486.73C1251.28 1488.07 1252.6 1491.25 1253.69 1491.55C1262.31 1493.96 1270.59 1497.89 1280.21 1494.91C1285.21 1493.37 1290.94 1494.29 1296.35 1494.19C1303.42 1494.07 1310.55 1494.56 1317.55 1493.81C1324.76 1493.04 1331.48 1491.56 1339 1494.02C1344.55 1495.84 1351.26 1494.25 1357.43 1493.96C1363.01 1493.7 1368.56 1493.02 1374.14 1492.78C1376.81 1492.67 1380.38 1494.35 1382.03 1493.15C1387.82 1488.93 1393.74 1490.65 1399.83 1491.15C1402.41 1491.35 1405.59 1491.15 1407.6 1489.85C1412.24 1486.77 1416.43 1487.73 1421.27 1489.02C1424.44 1489.86 1428.94 1490.02 1431.41 1488.32C1437.01 1484.54 1442.07 1484 1448.41 1488.32C1456.67 1438.51 1485.68 1409.7 1534.93 1401.26C1532.08 1397.73 1529.93 1394.92 1527.61 1392.26C1521.61 1385.26 1521.39 1377.05 1521.73 1368.41C1522.13 1358.33 1521.73 1348.21 1521.67 1338.1C1521.67 1333.65 1521.67 1329.2 1521.67 1324.51C1518.62 1324.91 1515.91 1325.68 1513.24 1325.51C1493.65 1324.51 1474.04 1323.61 1454.5 1321.93C1451.5 1321.66 1447.56 1318.17 1446.13 1315.17C1442.47 1307.54 1447.69 1295.58 1455.02 1291.17C1461.09 1287.5 1466.71 1283.07 1472.57 1278.96C1467.19 1277.34 1461.97 1276.71 1457.91 1274.21C1455.28 1272.59 1453.08 1268.26 1452.99 1265.08C1452.9 1261.53 1457.42 1259.94 1459.24 1263.08C1463.43 1270.39 1469.31 1268.42 1477.53 1267.77C1474.94 1264.86 1473.76 1262.59 1471.9 1261.62C1466.85 1259 1461.23 1257.41 1456.39 1254.5C1451.18 1251.37 1445.83 1247.6 1445.94 1240.5C1445.94 1238.78 1448.15 1237.09 1449.35 1235.39C1450.84 1236.47 1453.01 1237.23 1453.71 1238.69C1458.31 1248.34 1466.33 1252.21 1475.81 1253.37L1482.23 1241.07C1481.03 1239.67 1479.7 1238.15 1478.38 1236.61C1465.71 1221.92 1459.16 1204.68 1459.43 1185.49C1459.54 1178.19 1461.22 1169.23 1465.68 1164.01C1477.45 1150.23 1502.02 1148.09 1517.19 1158.01C1520.36 1160.17 1522.86 1163.17 1524.42 1166.67C1527.85 1174.68 1530.45 1183.14 1533.4 1191.45H1533.42ZM2021.33 1572.17C2021.21 1570.54 2021.19 1569.23 2021.01 1567.94C2020.01 1560.77 2018.01 1553.6 2018.1 1546.45C2018.17 1533.29 2019.57 1520.15 2020.1 1506.99C2020.08 1503.59 2019.46 1500.23 2018.28 1497.06C2012.22 1478.85 2007.46 1460.55 2008.11 1441C2008.41 1432.07 2008.36 1421.79 2004.26 1414.49C2001.44 1409.65 1999.91 1404.17 1999.82 1398.57C1999.61 1393.67 1997.82 1388.86 1996.92 1383.97C1993.15 1362.97 1989.52 1341.97 1985.74 1321.03C1984.06 1311.67 1982.47 1302.28 1980.23 1293.03C1978.49 1285.89 1975.81 1278.98 1973.14 1270.71C1969.9 1287.94 1967.23 1303.71 1963.91 1319.38C1961.55 1330.44 1957.8 1341.21 1955.6 1352.29C1952.9 1365.85 1950.6 1379.55 1949.15 1393.29C1947.64 1407.4 1940.71 1422.37 1953.7 1435C1953.85 1435.14 1953.81 1435.45 1953.93 1435.64C1958.65 1443.49 1962.36 1452.26 1968.38 1458.94C1975.56 1466.94 1984.69 1473.14 1993.03 1480.05C1998.65 1484.71 2005.03 1488.88 2005.36 1497.17C2005.46 1499.66 2004.36 1502.17 2003.8 1504.72C2001.55 1502.93 1998.92 1501.46 1997.13 1499.29C1993.94 1495.43 1991.72 1490.69 1988.25 1487.15C1982.75 1481.53 1976.56 1476.59 1970.64 1471.39C1969.86 1470.57 1968.91 1469.94 1967.86 1469.53C1962.06 1468.04 1959.64 1463.63 1957.73 1458.53C1957.06 1456.72 1955.61 1455.2 1954.52 1453.53C1948.99 1445.17 1943.35 1436.87 1938.03 1428.38C1937.18 1427.03 1937.43 1424.78 1937.63 1423C1939.14 1409.72 1939.83 1396.26 1942.63 1383.25C1945.98 1367.6 1946.44 1351.64 1951.4 1336C1957.68 1316.23 1960.14 1295.18 1963.4 1274.55C1964.33 1268.66 1965.19 1265.04 1972.58 1266.84C1971.16 1255.9 1970.22 1245.74 1968.45 1235.72C1965.74 1220.35 1962.28 1205.11 1959.45 1189.72C1957.76 1180.45 1955.45 1171 1955.82 1161.72C1956.09 1154.66 1954.76 1148.46 1952.9 1141.97C1951.77 1137.57 1950.97 1133.1 1950.49 1128.59C1949.49 1120.77 1949.41 1112.72 1947.49 1105.12C1944.4 1092.61 1939.24 1080.56 1936.67 1067.97C1933.99 1055.06 1928.36 1042.96 1920.23 1032.59C1916.23 1027.36 1913.23 1021.78 1905.11 1019.35C1891.71 1015.35 1880.83 1022.73 1868.11 1022.59C1868.11 1027.51 1868.52 1031.65 1868.04 1035.68C1865.92 1053.49 1863.8 1071.31 1861.15 1089.05C1859.95 1097.05 1857.55 1104.94 1855.64 1112.86C1854.33 1118.3 1852.23 1123.64 1851.72 1129.14C1850.72 1140.22 1850.8 1151.4 1849.94 1162.5C1849.29 1170.82 1847.8 1179.08 1846.78 1187.38C1845.58 1197.03 1845.29 1206.89 1843.1 1216.3C1841.15 1224.9 1838 1233.18 1833.74 1240.91C1830.4 1246.85 1824.55 1251.38 1818.85 1257.58C1823.79 1259.79 1827.14 1261.04 1830.26 1262.72C1840.63 1268.29 1852.26 1272.91 1854.26 1286.62C1856.46 1301.44 1859.68 1316.36 1859.51 1331.2C1859.37 1343.5 1865.04 1349.2 1874.71 1353.01C1883.25 1356.42 1891.02 1360.65 1897.71 1367.24C1903.44 1372.92 1912.38 1371.73 1915.34 1365.16C1917.15 1360.78 1918.38 1356.19 1918.99 1351.5C1920.19 1343.89 1920.86 1336.19 1921.7 1328.5C1923.07 1316.12 1924.26 1303.71 1925.81 1291.34C1926.51 1285.08 1927.65 1278.87 1929.22 1272.78C1933.31 1257.89 1939.04 1243.33 1941.88 1228.22C1944.96 1211.88 1945.38 1195.05 1947.31 1178.47C1947.56 1176.34 1949.9 1174.47 1951.31 1172.47C1952.68 1174.47 1955.23 1176.47 1955.25 1178.47C1955.34 1189.31 1957.25 1200.47 1951.13 1210.59C1950.39 1211.81 1950.45 1213.73 1950.62 1215.27C1952.33 1230.22 1946.96 1243.98 1943.42 1258.02C1940.87 1268.13 1937.2 1277.97 1934.9 1288.12C1933.51 1294.25 1934.06 1300.79 1933.25 1307.12C1931.4 1321.49 1928.05 1335.79 1927.6 1350.19C1927.22 1362.6 1922.7 1371.99 1914.48 1380.44C1911.78 1383.22 1909.48 1383.79 1906.28 1381.12C1904.45 1379.62 1901.84 1379.12 1899.58 1378.12C1897.1 1377.12 1893.58 1376.73 1892.28 1374.86C1883.98 1363.28 1869.43 1362.76 1857.7 1353.32C1858.07 1366.79 1860.12 1378.83 1850.98 1388.56C1853.92 1390.25 1855.98 1392.43 1858.21 1392.56C1865.31 1392.93 1868.64 1397.28 1871.21 1403.02C1871.82 1403.97 1872.55 1404.85 1873.38 1405.63C1884.26 1419.13 1897.66 1430.53 1903.32 1448.11C1907.72 1461.77 1915.32 1474.38 1920.32 1487.88C1923.1 1495.39 1923.98 1503.72 1924.91 1511.78C1926.6 1526.37 1929.02 1541.07 1928.47 1555.63C1928.22 1562.09 1929.22 1568.54 1931.42 1574.63L2021.33 1572.17ZM698.331 1594.27C707.861 1613.89 737.021 1627.09 758.801 1623.13C766.541 1621.72 774.531 1621.7 782.401 1621.06C787.821 1620.62 793.331 1620.69 798.641 1619.68C815.141 1616.54 831.571 1615.57 848.191 1618.8C859.541 1621.01 870.951 1623 882.411 1624.52C889.62 1625.39 896.88 1625.77 904.141 1625.67C912.051 1625.67 919.971 1625.13 927.861 1624.46C931.461 1624.15 934.961 1622.38 938.541 1622.23C956.101 1621.49 973.681 1620.43 991.231 1620.7C1008.78 1620.97 1026.23 1622.7 1043.73 1623.8C1048.29 1624.1 1052.97 1623.97 1057.35 1625.06C1075.62 1629.61 1094.16 1627.65 1112.61 1627.76C1115.26 1627.76 1117.9 1626.44 1120.61 1625.86C1126.61 1624.57 1132.51 1622.5 1138.52 1622.29C1156.75 1621.64 1174.73 1619.43 1192.83 1617.36C1220.83 1614.15 1249.35 1608.92 1277.78 1615.36C1293.03 1618.83 1308.48 1621.79 1323.39 1626.41C1339.21 1631.33 1354.95 1634.98 1371.65 1634.7C1385.56 1634.48 1399.51 1635.81 1413.42 1635.54C1431.2 1635.19 1449.53 1639.9 1466.5 1630.54C1467.38 1630.27 1468.3 1630.19 1469.21 1630.3C1508.58 1628.47 1547.94 1626.5 1587.32 1624.88C1600.72 1624.33 1614.23 1623.81 1627.58 1624.77C1650.49 1626.4 1673.26 1630.37 1696.18 1631.26C1735.81 1632.82 1775.51 1632.66 1815.18 1633.44C1843.85 1634.01 1872.51 1634.93 1901.18 1635.69C1904.6 1635.78 1908.06 1636.26 1911.42 1635.86C1927.92 1633.86 1944.54 1632.45 1960.83 1629.3C1972.75 1626.99 1984.08 1621.73 1995.94 1618.9C2004.25 1616.9 2010.04 1612.9 2013.1 1605.17C2016.44 1596.71 2022.92 1589.17 2021.35 1580.41C2009.09 1581.16 1997.35 1582.1 1985.66 1582.54C1971.31 1583.07 1956.93 1583.02 1942.58 1583.54C1937.46 1583.74 1931.51 1583 1929.58 1590.3C1929.31 1591.3 1924.58 1592.53 1923.76 1591.73C1917.93 1586.18 1912.26 1590.91 1906.55 1591.37C1904.17 1591.57 1900.34 1592.29 1899.55 1591.16C1896.55 1586.7 1892.47 1587.75 1888.55 1587.77C1878.95 1587.77 1869.35 1588.02 1859.76 1588.17C1851.12 1588.31 1842.48 1588.53 1833.84 1588.57C1829.58 1588.57 1825.32 1588.27 1821.06 1588.14C1810.06 1587.8 1799.11 1587.14 1788.15 1587.32C1784.25 1587.39 1778.15 1588.4 1776.94 1590.9C1773.72 1597.35 1768.67 1600.3 1764.4 1595.07C1758.27 1587.55 1751.82 1590.19 1744.75 1592.24C1739.1 1593.8 1733.38 1595.06 1727.6 1596.03C1724.03 1596.68 1720.1 1596.03 1716.77 1597.21C1704.23 1601.62 1690.84 1600.66 1677.96 1603.09C1663.71 1605.77 1647.48 1605.71 1633.27 1597.74C1630.89 1596.41 1627.52 1596.59 1624.6 1596.56C1599.39 1596.25 1574.18 1596.05 1548.97 1595.8C1547.83 1595.85 1546.69 1595.69 1545.61 1595.33C1533.53 1590.42 1520.95 1591.46 1508.41 1592.1C1497.61 1592.66 1486.81 1593.52 1475.99 1593.85C1466.32 1594.15 1456.64 1593.91 1446.99 1593.91L1448.1 1595.91C1446.71 1598.01 1445.5 1601.7 1443.89 1601.91C1440.31 1602.32 1436.89 1600.97 1437.29 1595.71C1437.39 1594.24 1434.75 1592.11 1432.92 1591.12C1430.37 1589.75 1427.42 1589.12 1424.61 1588.28C1422.13 1587.55 1419.46 1586.11 1417.11 1586.49C1406.8 1588.14 1396.57 1590.28 1386.33 1592.34C1381.25 1593.34 1376.21 1595.47 1371.14 1595.49C1366.23 1595.49 1361.35 1592.81 1356.38 1592.49C1340.46 1591.49 1324.51 1590.49 1308.56 1590.34C1293.33 1590.19 1278.08 1591.04 1262.84 1591.53C1249 1591.98 1235.13 1592.24 1221.33 1593.27C1217.52 1593.55 1213.98 1596.56 1210.14 1597.76C1208.42 1598.29 1204.64 1597.69 1204.57 1597.18C1203.9 1592.88 1200.91 1593.26 1197.93 1593.18C1185.18 1592.75 1172.43 1592.08 1159.67 1591.88C1155.67 1591.81 1151.55 1592.95 1147.49 1593.47C1144.11 1593.9 1140.71 1594.6 1137.34 1594.53C1133.28 1594.44 1129.24 1593.23 1125.2 1593.27C1117.2 1593.35 1109.26 1594.27 1101.3 1594.27C1086.48 1594.19 1071.66 1593.5 1056.84 1593.35C1039.53 1593.17 1022.22 1593.07 1004.92 1593.35C982.801 1593.73 960.691 1594.53 938.581 1595.14C935.891 1595.21 933.191 1595.35 930.511 1595.14C926.151 1594.86 921.801 1593.96 917.441 1593.99C902.231 1594.09 887.011 1594.92 871.811 1594.62C859.341 1594.38 846.901 1592.35 834.441 1592.18C824.711 1592.04 814.961 1593.5 805.231 1594.29C799.781 1594.74 794.331 1595.29 788.881 1595.73C787.748 1595.72 786.619 1595.58 785.521 1595.3C781.791 1594.63 778.081 1593.39 774.341 1593.3C754.691 1593.1 735.031 1593.14 715.341 1593.3C709.981 1593.38 704.541 1593.92 698.351 1594.27H698.331ZM970.981 1445.9C968.471 1447.75 965.86 1449.45 963.161 1451.02C956.771 1454.26 950.491 1459.02 943.731 1459.94C933.271 1461.37 922.311 1459.22 912.651 1465.43C911.981 1465.86 910.851 1465.53 909.941 1465.65C899.561 1467.03 888.941 1467.41 878.891 1470.09C868.841 1472.77 857.571 1475.55 850.661 1482.25C841.991 1490.65 836.941 1502.92 830.871 1513.82C824.111 1525.97 822.561 1539.74 821.021 1553.19C819.821 1563.64 820.781 1574.33 820.781 1583.8C833.631 1583.8 844.931 1583.43 856.181 1583.93C864.111 1584.28 871.971 1586.65 879.871 1586.68C902.081 1586.77 924.291 1586.22 946.491 1585.68C964.731 1585.26 982.971 1584.11 1001.21 1584.1C1027.63 1584.1 1054.05 1584.77 1080.47 1585.17C1099.47 1585.45 1118.57 1585.78 1137.62 1586C1139.43 1585.87 1141.23 1585.56 1142.98 1585.08C1159.33 1581.91 1176.07 1581.38 1192.59 1583.49C1195.83 1583.88 1199.15 1583.55 1202.74 1583.55C1201.23 1575.28 1198.92 1567.74 1198.65 1560.12C1198.07 1543.74 1199.25 1527.26 1195.01 1511.17C1192.54 1501.79 1190.46 1492.26 1187.12 1483.17C1185.89 1479.82 1182 1476.41 1178.53 1475.11C1166.88 1470.73 1155.09 1466.23 1142.94 1463.74C1125.85 1460.24 1108.34 1458.83 1091.13 1455.82C1084.61 1454.68 1078.38 1451.73 1072.13 1449.29C1068.55 1447.89 1065.21 1445.85 1060.87 1443.64C1059.87 1449.33 1059.46 1453.64 1058.26 1457.7C1057.48 1460.31 1056.04 1463.91 1054 1464.7C1051.59 1465.6 1047.54 1464.81 1045.39 1463.18C1040.3 1459.32 1035.91 1454.54 1030.77 1449.68C1029.85 1453.18 1029.34 1457.03 1027.77 1460.41C1026.59 1463.02 1024.12 1465.04 1022.23 1467.32C1020.13 1465.52 1017.41 1464.11 1016.04 1461.87C1010.94 1453.57 1010.15 1453.39 1004.29 1460.87C1003.51 1461.99 1002.53 1462.96 1001.38 1463.72C999.151 1464.98 996.021 1467.36 994.571 1466.64C992.151 1465.42 990.161 1462.39 989.101 1459.64C988.211 1457.39 988.921 1454.52 988.921 1451.57C977.271 1455.79 977.271 1455.79 970.981 1445.9ZM1576.88 1276.21C1578.71 1276.33 1580.27 1276.53 1581.83 1276.53C1590.95 1276.53 1600.24 1275.24 1609.13 1276.62C1622.23 1278.62 1636.13 1276.62 1648.37 1283.37C1648.73 1283.56 1649.29 1283.37 1649.73 1283.45L1670.37 1287.87C1674.37 1288.72 1678.44 1289.18 1682.26 1290.47C1690.16 1293.15 1698.6 1295.16 1705.53 1299.47C1712.46 1303.78 1718.23 1310.15 1716.53 1319.94C1716.44 1321.71 1717.02 1323.46 1718.16 1324.83C1723.91 1331.97 1722.31 1345.59 1714.22 1349.97C1706.64 1354.07 1698.86 1358.84 1689.36 1356.37C1687.79 1356.13 1686.19 1356.16 1684.62 1356.45C1666.49 1358.1 1648.39 1360.1 1630.23 1361.33C1620.13 1362.02 1609.94 1361.46 1597.64 1361.46L1635.19 1399.61C1636.19 1399.23 1636.85 1399.02 1637.46 1398.76C1645.2 1395.48 1646.68 1396.41 1646.67 1404.52V1420.2C1653 1418.14 1654.97 1421.04 1655.54 1426.78C1656.27 1432.39 1657.45 1437.94 1659.08 1443.36C1659.52 1444.99 1661.19 1446.29 1662.3 1447.75C1663.84 1446.69 1665.3 1445.52 1666.66 1444.25C1667.55 1443.25 1667.92 1441.85 1668.57 1440.64C1674.06 1430.38 1677.57 1429.98 1684.66 1438.9C1685.1 1438.13 1685.61 1437.42 1686.2 1436.77C1688.29 1434.88 1690.46 1433.09 1692.6 1431.25C1694.31 1433.43 1695.87 1435.72 1697.27 1438.11C1698.98 1441.43 1700.27 1444.99 1701.68 1448.45L1703.79 1448.22C1705.6 1436.52 1707.42 1424.82 1708.91 1415.22C1706.31 1411.92 1703.58 1409.96 1703.73 1408.22C1703.9 1406.17 1706.27 1404 1708.16 1402.46C1710.05 1400.92 1712.84 1400.46 1714.67 1398.91C1727.58 1387.76 1740.8 1377.18 1756.76 1370.43C1763.76 1367.43 1770.37 1363.43 1776.97 1359.61C1777.83 1359.09 1778.57 1358.41 1779.15 1357.59C1779.74 1356.78 1780.15 1355.86 1780.37 1354.89C1781.22 1346.8 1781.94 1338.65 1781.99 1330.53C1781.99 1323.04 1780.93 1315.53 1780.77 1308.06C1780.54 1297.62 1780.71 1287.18 1780.71 1276.44C1778.71 1276.24 1777.16 1275.78 1775.71 1275.96C1758.23 1278.11 1752.82 1262.78 1743.21 1253.55C1742.84 1252.95 1742.69 1252.24 1742.78 1251.55C1742.78 1240.19 1740.98 1228.4 1746.11 1217.85C1752.11 1205.49 1759.11 1193.55 1774.78 1190.96C1776.41 1190.69 1778.62 1187.34 1778.7 1185.35C1779.27 1174.97 1779.3 1164.58 1778.79 1154.21C1777.54 1135.21 1775.57 1116.28 1773.79 1097.33C1773.11 1089.83 1772.26 1082.33 1771.49 1074.87L1769.83 1074.46C1767.95 1078.94 1765.83 1083.33 1764.26 1087.93C1761.9 1095 1760.75 1102.58 1757.66 1109.29C1752.26 1121.04 1745.94 1132.29 1744.33 1145.5C1744.11 1147.25 1741.9 1149.84 1740.26 1150.13C1734.73 1151.14 1729.12 1151.66 1723.5 1151.67C1701.15 1151.67 1678.8 1150.98 1656.5 1151.28C1643.33 1151.46 1630.17 1152.99 1617 1153.95C1613 1154.24 1610.38 1153.24 1608.51 1149C1600.09 1129.86 1591.4 1110.84 1582.44 1091.95C1580.44 1087.77 1577.26 1084.18 1574.62 1080.32L1572.87 1080.59C1572.4 1083.07 1571.35 1085.59 1571.57 1088.01C1572.31 1096.34 1574.21 1104.62 1574.37 1112.95C1574.79 1134.42 1574.52 1155.95 1574.51 1177.39C1574.51 1192.47 1575.51 1207.65 1574.2 1222.61C1572.57 1240.5 1572.05 1258 1576.88 1276.21ZM1416.28 1192.05C1395.19 1192.05 1373.8 1191.92 1352.4 1192.05C1322.27 1192.27 1292.13 1192.77 1261.99 1193.05C1254.99 1193.11 1247.9 1194.18 1245.58 1201.4C1241.71 1213.4 1236.88 1225.9 1236.74 1238.23C1236.54 1255.97 1239.43 1273.88 1242.43 1291.47C1244.75 1305.05 1248.65 1318.47 1253.02 1331.56C1255.94 1340.33 1258.57 1349.09 1265.69 1356.56C1272.96 1364.22 1275.81 1375.31 1274.26 1386.56C1273.43 1392.56 1276.62 1395.56 1281.72 1396.91C1284.83 1397.67 1288.03 1398.01 1291.23 1397.91C1314 1397.48 1336.76 1396.83 1359.53 1396.45C1362.64 1396.45 1365.77 1397.45 1368.9 1397.96C1375.5 1399.04 1382.1 1400.09 1388.62 1401.14C1391.37 1388.03 1395.09 1376.46 1395.97 1364.67C1397.12 1349.22 1399.97 1334.67 1407.46 1321C1409.68 1317.09 1411.48 1312.96 1412.85 1308.68C1419.51 1286.77 1426.08 1264.82 1432.36 1242.79C1434.08 1236.74 1436.81 1229.79 1435.36 1224.29C1433.23 1216.29 1427.86 1209.05 1423.56 1201.68C1421.57 1198.3 1418.84 1195.39 1416.28 1192.05V1192.05ZM1920.42 1579.5C1920.42 1569.5 1920.42 1561.63 1920.42 1553.71C1920.42 1553.26 1920.26 1552.82 1920.22 1552.37C1918.81 1538.19 1917.74 1523.98 1915.89 1509.86C1914.76 1502.28 1913.04 1494.81 1910.76 1487.51C1909.02 1482.1 1906.88 1476.84 1904.37 1471.75C1898.87 1459.84 1894.11 1447.45 1887.25 1436.36C1881.25 1426.61 1872.82 1418.36 1865.35 1409.49C1863.08 1406.8 1860.57 1402.42 1857.97 1402.27C1849.97 1401.81 1841.14 1401.27 1833.83 1403.94C1817.36 1410.01 1799.67 1412.02 1782.26 1409.8C1775.95 1409.05 1769.52 1409.36 1763.19 1408.8C1760.89 1408.59 1758.71 1407.22 1756.47 1406.37C1758.16 1404.31 1759.62 1400.78 1761.58 1400.48C1767.2 1399.49 1772.93 1399.4 1778.58 1400.2C1797.5 1403.41 1815.66 1402.01 1833.27 1393.93C1840.34 1390.69 1850.21 1376.21 1850.01 1368.66C1849.84 1362.21 1849.88 1355.74 1850.16 1349.3C1850.38 1344.3 1851.89 1339.3 1851.45 1334.47C1850.1 1319.86 1848.2 1305.3 1846.26 1290.75C1845.45 1284.67 1842.78 1279.62 1836.77 1276.75C1829.48 1273.29 1822.35 1269.49 1817.12 1266.84C1809.07 1269.84 1802.43 1271.9 1796.12 1274.77C1793.42 1276 1789.55 1278.83 1789.5 1281.01C1789.16 1295.58 1790.04 1310.17 1789.89 1324.74C1789.76 1336.98 1789.15 1349.24 1787.89 1361.41C1787.5 1365.34 1784.33 1368.17 1779.3 1368.84C1775.25 1369.38 1771.39 1371.84 1767.64 1373.84C1762.88 1376.35 1758.56 1379.84 1753.64 1381.84C1741.52 1386.69 1732.23 1394.84 1722.64 1405.63C1728.23 1405.15 1732.06 1404.55 1735.89 1404.63C1739.28 1404.5 1742.67 1404.97 1745.89 1406.03C1747.3 1406.57 1748.21 1409.62 1748.36 1411.61C1748.42 1412.4 1745.85 1414.13 1744.44 1414.17C1735.85 1414.41 1727.24 1414.29 1717.44 1414.29C1716.44 1421.6 1715.57 1429.21 1714.5 1436.79C1713.58 1443.26 1716.9 1444.87 1722.72 1445.44C1734.49 1446.58 1746.18 1448.54 1757.92 1450.04C1763.08 1450.7 1768.28 1450.97 1773.45 1451.57C1778.62 1452.17 1784.04 1452.74 1789.24 1453.81C1793.24 1454.63 1796.94 1456.81 1800.92 1457.38C1814.92 1459.33 1825.37 1468.38 1835.85 1476.26C1843.6 1482.07 1848.93 1491.26 1854.78 1499.4C1858.52 1504.51 1861.65 1510.05 1864.11 1515.89C1870.23 1530.72 1873.61 1546.15 1873.24 1562.37C1873.11 1567.89 1874.64 1573.44 1875.49 1579.55L1920.42 1579.5ZM1243.17 1189.94C1233.94 1189.11 1226.25 1188.17 1218.53 1187.79C1208.53 1187.29 1198.39 1187.74 1188.39 1186.88C1176.39 1185.88 1164.56 1184.08 1153.12 1189.41C1162.55 1219.62 1165.35 1225.22 1148.02 1252.36C1172.47 1255.61 1183.46 1265.82 1186.39 1289.36C1187.84 1301.78 1188.63 1314.27 1188.75 1326.78C1188.89 1334.88 1187.11 1343 1187.05 1351.11C1186.94 1364.68 1183.16 1376.61 1172.79 1387.11C1176.26 1389.32 1179.35 1391.48 1182.61 1393.33C1188.15 1396.47 1194.95 1398.33 1199.19 1402.66C1212.95 1416.77 1222.82 1433.43 1224.66 1453.5C1225.81 1466.08 1231.34 1476.74 1237.14 1488.41C1241.29 1484.07 1245.45 1479.73 1247.42 1474.57C1251.36 1464.21 1253.68 1453.25 1257.42 1442.82C1261.42 1431.82 1266.42 1421.1 1271.34 1409.24C1266.7 1409.86 1262.74 1410.41 1258.77 1410.93C1253.83 1411.58 1248.9 1412.56 1243.95 1412.74C1235.95 1413.02 1227.95 1413.34 1220.03 1412.39C1217.64 1412.1 1215.76 1407.65 1213.65 1405.1C1215.47 1403.89 1217.34 1401.56 1219.11 1401.63C1229.05 1402.03 1238.97 1403.63 1248.89 1403.58C1255.55 1403.58 1262.2 1401.58 1268.3 1400.52C1267.3 1395.96 1265.81 1392.46 1265.99 1389.05C1266.64 1376.54 1263.42 1365.66 1254.22 1356.84C1253.36 1356.09 1252.67 1355.16 1252.22 1354.12C1246.88 1338.25 1240.94 1322.54 1236.58 1306.41C1233.53 1295.09 1232.69 1283.19 1230.84 1271.55C1228.46 1256.55 1225.91 1241.55 1230.16 1226.55C1233.59 1214.56 1233.34 1201.25 1243.17 1189.94ZM1596.55 1378.72C1596.81 1378.19 1597.55 1377.43 1597.43 1376.81C1596.15 1369.38 1583.54 1357.55 1575.88 1356.02C1570.54 1355.05 1565.28 1353.65 1560.15 1351.85C1547.95 1347.3 1545.49 1340.96 1550.73 1329.08C1552.84 1324.3 1551.07 1321.33 1545.98 1321.86C1540.21 1322.45 1534.5 1323.64 1530.61 1324.28C1530.61 1329.18 1530.89 1333.47 1530.55 1337.7C1530.02 1344.22 1528.65 1350.7 1528.46 1357.22C1528.33 1361.69 1529.96 1366.22 1530.14 1370.69C1530.71 1385.1 1536.32 1392.21 1550.45 1395.83C1554.63 1396.9 1559.74 1396.91 1562.76 1399.41C1572.3 1407.33 1582.24 1405.9 1593.02 1403.41C1598.66 1402.11 1604.83 1402.56 1610.7 1403.04C1612.42 1403.18 1613.91 1406.12 1615.51 1407.79C1613.75 1408.84 1612.09 1410.54 1610.21 1410.79C1602.11 1412.04 1593.96 1412.9 1585.82 1413.86C1577.29 1414.86 1569.27 1414.64 1561.82 1408.86C1554.19 1402.97 1547.21 1403.42 1539.3 1408.62C1538.02 1409.57 1536.55 1410.25 1535 1410.62C1521.32 1412.88 1508.92 1417 1496.63 1424.62C1481.29 1434.1 1470.51 1446.23 1465.06 1462.42C1458.63 1481.52 1454.36 1501.35 1449.37 1520.92C1448.35 1525.34 1447.73 1529.84 1447.51 1534.38C1446.71 1545.49 1446.22 1556.61 1445.51 1567.72C1445.27 1571.21 1441.96 1574.97 1447.51 1577.56C1450.83 1579.1 1453.51 1583.31 1456.68 1583.63C1465.43 1584.5 1474.32 1583.93 1483.96 1583.93C1483.57 1580.69 1483.33 1578.75 1483.11 1576.82C1482.29 1569.82 1480.17 1562.72 1480.95 1555.93C1482.42 1543.18 1485.67 1530.65 1487.95 1517.99C1489.34 1510.34 1491.33 1503.31 1496.1 1496.68C1504.36 1485.23 1516.18 1478.42 1527.1 1470.49C1533.3 1466 1539.93 1461.71 1547 1458.93C1558.94 1454.24 1571.31 1450.58 1583.65 1446.99C1588.42 1445.6 1593.65 1445.73 1598.57 1444.85C1601.37 1444.4 1604.1 1443.53 1606.64 1442.28C1611.22 1439.88 1615.24 1436.01 1620.05 1434.52C1635.44 1429.76 1637.79 1427.25 1637.97 1412.58C1634.18 1409.85 1629.79 1408.06 1627.54 1404.8C1619.59 1393.34 1608.55 1385.74 1596.55 1378.72V1378.72ZM1864.79 1575.85C1864.79 1567.95 1865.62 1560.85 1864.62 1554.02C1862.54 1539.68 1860.62 1525.1 1852.41 1512.55C1842.41 1497.27 1832.21 1482.05 1815.49 1473.04C1811.36 1470.8 1807.07 1468.85 1802.67 1467.21C1797.78 1465.4 1792.67 1464.1 1787.67 1462.61C1784.67 1461.69 1781.67 1460.33 1778.53 1460.01C1756.45 1457.75 1734.35 1455.7 1711.26 1453.49C1709.45 1455.83 1710.14 1463.98 1703.06 1461.75C1698.82 1460.42 1695.64 1455.75 1693.21 1453.59C1690.14 1454.68 1686.4 1457.39 1684.27 1456.45C1680.94 1454.97 1678.7 1451.03 1675.97 1448.09C1667.7 1459.34 1664.97 1461.43 1659.84 1457.54C1654.71 1453.65 1651.16 1447.74 1647.16 1443C1645.98 1443.5 1643.16 1445.82 1641.23 1445.21C1638.99 1444.49 1637.58 1441.21 1635.78 1439.01C1629.08 1441.76 1621.96 1444.46 1615.05 1447.63C1611.47 1449.27 1608.21 1453.57 1604.89 1453.49C1595.07 1453.23 1586.19 1456.13 1576.89 1458.49C1561.47 1462.49 1546.81 1467.88 1533.61 1476.85C1516.21 1488.67 1498.48 1500.06 1495.53 1523.85C1494.03 1535.95 1490.11 1547.85 1489.28 1559.9C1488.56 1568.63 1491.33 1577.29 1496.98 1583.98C1499.92 1580.42 1503.15 1578.04 1504.28 1574.89C1509.28 1560.95 1516.28 1548.68 1529.47 1540.89C1532.35 1539.19 1534.99 1537.06 1537.85 1535.06C1528.66 1531.01 1526.61 1529.69 1528.45 1523.17C1531.04 1514 1534.57 1504.64 1539.83 1496.79C1547.07 1485.99 1558.44 1480.53 1571.46 1478.3C1578.07 1477.16 1584.46 1473.19 1589.87 1479.97C1592.19 1478.46 1594.63 1475.78 1595.87 1476.25C1602.76 1478.91 1607.56 1474.12 1613.06 1472.14C1619.2 1469.93 1624.5 1470.27 1629.42 1475.03C1634.34 1479.79 1635.48 1485.2 1631.75 1490.88C1668.54 1483.76 1704.6 1486.52 1739.75 1496.43C1741.22 1491.83 1741.85 1488.13 1743.51 1484.99C1749.41 1473.88 1757.15 1473.16 1766.33 1481.61C1770 1484.99 1775.02 1487.98 1779.84 1488.84C1791.67 1490.97 1798.41 1503.25 1810.9 1503.56C1811.6 1503.56 1812.27 1504.68 1812.9 1505.29C1816.46 1508.49 1820.51 1511.29 1823.46 1514.98C1828.7 1521.52 1835.26 1527.46 1832.28 1537.85C1831.43 1540.85 1834.58 1547.15 1837.51 1548.54C1848.1 1553.54 1854.29 1562.1 1859.9 1571.61C1861.03 1573.31 1863.06 1574.36 1864.79 1575.85V1575.85ZM1656.39 1316.85C1656.39 1317.12 1656.46 1317.38 1656.5 1317.65C1668.06 1316.65 1679.62 1315.43 1691.21 1314.73C1693.88 1314.58 1696.65 1316.19 1699.38 1316.99C1697.38 1318.99 1695.66 1322.49 1693.48 1322.78C1679.48 1324.61 1665.48 1327.18 1651.48 1326.78C1629.17 1326.11 1606.95 1322.57 1584.64 1321.78C1576.05 1321.47 1565.17 1318.44 1559.78 1330.78C1556.9 1337.35 1555.97 1340.28 1562.61 1342.53C1573.25 1346.13 1584.25 1349.26 1595.34 1350.8C1622.4 1354.55 1649.66 1353.25 1676.41 1348.72C1686.11 1347.08 1696.54 1350.56 1705.86 1343.92C1712.19 1339.41 1714.25 1334.54 1709.06 1328.81C1707.9 1327.53 1706.35 1325.21 1706.8 1324.1C1708.95 1318.81 1708.8 1314.38 1703.92 1310.76C1699.92 1307.76 1696.4 1303.69 1691.92 1302.2C1682.92 1299.2 1673.47 1297.62 1664.18 1295.52C1660 1294.58 1655.71 1294.02 1651.58 1292.89C1638.26 1289.26 1624.9 1286.34 1610.92 1286.67C1604.17 1286.83 1597.4 1285.18 1590.63 1285.07C1582.91 1284.94 1575.14 1286.2 1567.44 1285.77C1561.51 1285.44 1555.85 1284.21 1550.61 1279.69C1546.13 1275.82 1543.07 1267.78 1534.44 1270.2C1534.24 1270.26 1532.31 1266.75 1532.56 1265.12C1532.81 1263.49 1534.73 1261.9 1536.15 1259.98L1530.78 1254.93C1528.94 1257.63 1527.83 1260.44 1525.78 1261.93C1523.95 1263.24 1521.05 1263.07 1518.62 1263.55C1518.38 1261.55 1517.37 1259.15 1518.08 1257.55C1519.4 1254.55 1521.72 1252.03 1523.46 1249.55C1518.09 1245.22 1513.17 1240.94 1507.88 1237.18C1505.93 1236.04 1503.65 1235.62 1501.43 1235.99C1495.43 1236.84 1485.84 1247.41 1485.79 1253.36C1485.79 1255.04 1487.79 1256.9 1489.17 1258.36C1490.55 1259.82 1493.61 1274.31 1492.63 1275.86C1492.42 1276.26 1492.12 1276.62 1491.77 1276.91C1486.93 1280.18 1481.82 1283.11 1477.26 1286.74C1469.9 1292.58 1462.47 1298.46 1455.9 1305.14C1451.9 1309.14 1453.36 1312.3 1458.81 1312.72C1476.98 1314.1 1495.17 1315.41 1513.37 1316.09C1519.37 1316.32 1525.37 1313.98 1531.37 1313.85C1540.27 1313.67 1549.2 1314.43 1558.12 1314.72C1559.46 1314.65 1560.8 1314.48 1562.12 1314.22C1567.95 1313.52 1573.81 1312.1 1579.62 1312.28C1591.1 1312.64 1602.56 1314.53 1614.03 1314.59C1627.62 1314.65 1641.2 1312.38 1654.85 1314.59C1657.59 1315.04 1660.62 1313.59 1663.53 1313.15C1665.96 1312.76 1668.4 1312.49 1670.84 1312.15C1670.84 1312.54 1670.95 1312.93 1671 1313.32L1656.39 1316.85ZM800.281 1263.44L797.901 1262.65C797.441 1267.37 795.571 1272.54 796.901 1276.71C798.741 1282.56 796.651 1286.47 792.901 1289.25C788.901 1292.25 783.711 1293.69 779.061 1295.85C775.821 1297.37 772.121 1298.43 769.601 1300.75C768.541 1301.75 769.371 1307.23 770.411 1307.6C777.201 1309.97 784.191 1312.37 791.281 1313.1C802.821 1314.31 814.491 1314.43 826.111 1314.6C829.591 1314.6 833.061 1312.97 836.591 1312.7C842.801 1312.21 849.041 1312.19 855.271 1311.98C860.871 1311.8 866.481 1311.38 872.071 1311.51C880.141 1311.71 888.211 1312.2 896.261 1312.79C899.351 1313.02 902.441 1314.5 905.471 1314.34C913.601 1313.91 921.741 1311.97 929.801 1312.34C943.141 1312.91 956.431 1314.79 969.731 1316.11C983.571 1317.49 997.401 1318.9 1011.23 1320.24C1017.91 1320.89 1025.32 1328.1 1025.23 1333.96C1025.09 1342.62 1019.4 1348.53 1011.01 1348.83C1004.4 1349.07 997.751 1349.03 991.211 1349.83C982.711 1350.83 974.311 1352.6 965.841 1353.88C959.376 1355.01 952.858 1355.82 946.311 1356.31C938.831 1356.69 930.421 1358.38 924.001 1355.69C913.871 1351.45 905.071 1344.04 895.001 1337.51C892.511 1339.31 885.881 1341.07 889.931 1347.04C893.376 1352.02 898.117 1355.97 903.641 1358.47C920.641 1365.76 939.021 1364.14 956.921 1363.92C974.391 1363.72 991.841 1362 1009.3 1360.79C1012.21 1360.52 1015.08 1359.9 1017.85 1358.96C1022.85 1357.37 1027.58 1355.05 1032.62 1353.82C1047.28 1350.25 1052.43 1340.24 1046.31 1326.61C1044.72 1323.08 1043.77 1319.17 1041.7 1315.97C1039.46 1312.5 1036.7 1308.88 1033.36 1306.67C1025.57 1301.6 1017.57 1296.6 1009.06 1292.95C997.561 1288.03 985.651 1283.88 972.671 1285.17C963.381 1286.1 954.081 1287.25 944.771 1287.46C928.621 1287.82 912.461 1287.58 896.311 1287.46C887.851 1287.41 881.411 1283.94 876.211 1276.95C871.761 1270.95 868.541 1263.13 859.531 1261.86C858.531 1261.72 857.671 1260.03 857.011 1258.91C850.011 1247 838.381 1242.13 825.871 1238.7C824.821 1238.43 823.721 1238.43 822.671 1238.7C814.521 1240.89 807.271 1244.3 804.951 1251.23L808.131 1262.76L800.281 1263.44ZM1108.27 1391C1102.97 1392.79 1097.64 1393.76 1093.2 1396.29C1085.21 1400.97 1077.47 1406.09 1070.03 1411.61C1066.03 1414.54 1064.2 1433.37 1068.1 1436.1C1074.1 1440.35 1080.8 1444.58 1087.81 1446.36C1097.81 1448.91 1108.49 1448.87 1118.76 1450.61C1129.67 1452.47 1140.52 1454.83 1151.26 1457.52C1158.51 1459.33 1165.36 1463.17 1172.67 1464.21C1187.73 1466.35 1196.34 1475.87 1199.43 1489.04C1203.3 1505.52 1204.74 1522.6 1206.64 1539.49C1208.33 1554.49 1209.22 1569.62 1210.54 1585.63L1245.04 1580.97C1241.54 1564.37 1238.19 1549.39 1235.29 1534.32C1233.62 1525.69 1232.73 1516.92 1231.39 1508.22C1230.67 1503.51 1230.62 1498.44 1228.74 1494.22C1222.28 1479.66 1216.31 1465.06 1214.87 1448.96C1213.5 1433.65 1204.08 1422.32 1195.35 1410.7C1194.24 1409.24 1192.84 1408.02 1191.24 1407.13C1183.3 1402.77 1175.44 1398.2 1167.17 1394.53C1164.17 1393.22 1159.51 1392.95 1156.82 1394.42C1146.9 1399.85 1136.37 1400.42 1125.64 1399.71C1119.17 1399.25 1112.31 1398.71 1108.27 1391ZM1245.27 1539.24C1245.34 1538.86 1244.99 1539.56 1245.11 1540.16C1247.82 1553.21 1250.52 1566.27 1253.47 1579.28C1253.77 1579.95 1254.22 1580.55 1254.81 1581.01C1255.39 1581.47 1256.07 1581.78 1256.8 1581.91C1269.06 1582.12 1281.32 1582.2 1293.57 1582.04C1301.74 1581.93 1310.06 1580.21 1318.03 1581.28C1338.62 1584.02 1359.19 1586.57 1379.88 1583.79C1398.48 1581.29 1416.95 1577.72 1435.88 1574.55C1436.94 1563.33 1438.03 1551.75 1439.22 1539.12C1423.48 1539.12 1408.33 1537.12 1393.94 1539.57C1370.31 1543.57 1347.14 1537.79 1323.76 1539.26C1312.41 1539.97 1300.97 1539.26 1289.57 1539.26C1274.98 1539.22 1260.48 1539.24 1245.22 1539.24H1245.27ZM1114.83 1386.62L1115.33 1388.52C1118.81 1389.12 1122.26 1389.93 1125.76 1390.28C1136.67 1391.37 1146.88 1388.99 1157.06 1384.91C1166.68 1381.06 1174.13 1375.02 1175.92 1365.04C1178.26 1350.98 1179.75 1336.81 1180.38 1322.58C1180.79 1315.44 1179.12 1308.19 1178.43 1300.98C1177.93 1295.78 1178.12 1290.43 1176.91 1285.4C1173.98 1273 1165.98 1262.09 1151.14 1261.32C1148.14 1261.17 1145.26 1258.67 1141.72 1256.96L1131.42 1262.3C1131.29 1262.8 1131.2 1263.32 1131.15 1263.85C1130.49 1295.98 1129.7 1328.11 1129.28 1360.25C1129.13 1371.67 1126.69 1381.46 1114.83 1386.62ZM1447.83 1491.94C1441.83 1494.06 1437.11 1495.04 1433.13 1497.26C1428.37 1499.91 1424.26 1501.07 1419.13 1498.07C1417.35 1497.02 1414.41 1497.61 1412.06 1497.92C1407.65 1498.49 1403.29 1499.43 1398.91 1500.17C1393.42 1501.1 1387.91 1502.05 1382.44 1502.86C1380.44 1503.15 1378.16 1503.77 1376.56 1503.03C1369.79 1499.89 1363.49 1501.47 1356.69 1503.18C1351.2 1504.55 1344.56 1505.44 1339.52 1503.57C1331.62 1500.65 1324.6 1501.71 1316.86 1503.09C1310.14 1504.29 1303.08 1503.65 1296.16 1503.62C1293.25 1503.62 1290.16 1502.19 1287.46 1502.89C1275.72 1506.16 1263.22 1505.37 1251.98 1500.67C1250.47 1500.13 1248.85 1499.95 1247.26 1500.15C1243.97 1500.48 1240.93 1501.15 1241.26 1505.71C1241.8 1514.29 1242.12 1522.89 1242.52 1531.18C1246.22 1530.18 1248.35 1529.07 1250.44 1529.12C1255.44 1529.25 1260.34 1530.27 1265.29 1530.3C1298.99 1530.51 1332.73 1528.06 1366.37 1532.3C1371.97 1533.01 1377.76 1532.3 1383.45 1532.05C1397.07 1531.38 1410.67 1530.31 1424.29 1529.92C1429.06 1529.79 1433.88 1531.16 1437.89 1531.73C1441.2 1518.31 1444.26 1506.08 1447.79 1491.94H1447.83ZM1752.21 1580.39C1743.9 1570.56 1743.9 1570.56 1731.45 1566.96C1731.02 1566.84 1730.62 1566.59 1730.2 1566.43C1714.29 1560.02 1697.35 1556.59 1680.2 1556.31C1674.42 1556.23 1668.63 1554.18 1662.87 1554.31C1655.87 1554.43 1648.87 1556.31 1641.87 1556.64C1619.28 1557.57 1603.67 1569.75 1589.87 1587.87C1600.64 1587.87 1610.15 1587.69 1619.66 1587.94C1625.29 1588.08 1631.59 1587.43 1636.4 1589.69C1649.4 1595.8 1663.19 1593.69 1676.65 1594.93C1678.3 1595.08 1680.06 1593.86 1681.8 1593.45C1685.47 1592.4 1689.21 1591.58 1692.98 1591C1712.98 1588.79 1733.19 1588.45 1752.17 1580.39H1752.21ZM1778.54 1266.52C1783.2 1266.52 1786.4 1266.73 1789.54 1266.52C1804.06 1265.39 1819.34 1251.52 1821.66 1237.43C1822.04 1235.86 1822.02 1234.23 1821.59 1232.68C1818.19 1223.93 1815.65 1215.3 1806.1 1209.78C1799.24 1205.78 1792.74 1204.43 1785.34 1203.37C1769.19 1201.05 1766.52 1201.82 1757.8 1215.28C1756.46 1217.12 1755.33 1219.11 1754.42 1221.2C1750.69 1231.2 1747.59 1242.38 1753.29 1251.44C1758.81 1260.2 1765.74 1271.06 1778.5 1266.52H1778.54ZM1125.34 1185.75C1125.34 1185.47 1125.27 1185.19 1125.23 1184.91C1118.05 1185.81 1110.8 1186.31 1103.72 1187.71C1094.89 1189.46 1094.78 1198.28 1091.29 1204.35C1090.29 1206.12 1089.02 1207.77 1088.05 1209.57C1080.76 1223.1 1084.64 1238.12 1097.14 1246.47C1108.79 1254.26 1121.58 1252.25 1134.14 1250.96C1136.88 1250.69 1139.95 1247.48 1141.7 1244.85C1148.23 1235.02 1154.77 1224.98 1150.6 1212.19C1148.46 1205.64 1146.12 1199.19 1143.87 1192.64C1140.64 1183.29 1132.59 1186.41 1126.01 1185.76C1125.79 1185.74 1125.56 1185.73 1125.34 1185.75V1185.75ZM1000.6 1251.87C1019.6 1251.7 1017.24 1249.62 1024.87 1238.8C1026.56 1236.4 1028.57 1234.22 1030.41 1231.91C1035.41 1225.62 1037.21 1212.76 1032.95 1209.08C1027.36 1204.19 1021.35 1199.81 1014.98 1196C1012.46 1194.5 1008.43 1194.54 1005.37 1195.2C1000.87 1196.2 996.561 1199.8 992.301 1199.59C986.651 1199.32 984.391 1202.22 982.431 1206C980.242 1210.23 978.418 1214.64 976.981 1219.18C975.757 1222.91 975.434 1226.89 976.04 1230.77C976.645 1234.66 978.162 1238.35 980.465 1241.54C982.769 1244.72 985.794 1247.32 989.294 1249.12C992.793 1250.91 996.668 1251.85 1000.6 1251.87V1251.87ZM1561.31 1550.14L1563.24 1549.81C1562.73 1546.16 1562.43 1542.47 1561.66 1538.88C1560.66 1534.02 1558.74 1529.31 1558.13 1524.42C1557.65 1520.54 1558.54 1516.49 1558.82 1512.51C1562.22 1514.68 1566 1516.44 1568.93 1519.12C1574.69 1524.41 1579.93 1530.21 1585.45 1535.79C1581.55 1526.86 1576.69 1519.04 1572.57 1510.84C1571.57 1508.84 1572.93 1505.61 1573.21 1502.95C1575.55 1503.69 1578.13 1504.01 1580.21 1505.23C1586.42 1508.93 1592.34 1513.13 1598.59 1516.77C1599.93 1517.55 1602.19 1516.77 1604.02 1516.69C1603.68 1515.02 1603.82 1513 1602.91 1511.69C1597.76 1504.48 1592.23 1497.55 1587.08 1490.35C1583.75 1485.68 1579.31 1485.2 1574.38 1486.27C1571.25 1486.89 1568.19 1487.82 1565.24 1489.05C1554.24 1493.89 1544.87 1500.5 1541.49 1512.81C1539.31 1520.75 1544.41 1526.91 1548.07 1532.97C1551.73 1539.03 1556.83 1544.46 1561.31 1550.14ZM1792.91 1565.39L1794.99 1566.53C1795.8 1566.21 1796.86 1566.11 1797.37 1565.53C1805.67 1556.14 1814.06 1546.83 1821.98 1537.14C1823.38 1535.42 1823.98 1531 1822.85 1529.61C1817.47 1523.12 1811.6 1517.05 1805.31 1511.45C1803.98 1510.26 1800.23 1511.73 1797.61 1512.05C1795.61 1512.29 1793.61 1513.16 1791.76 1512.89C1774.36 1510.43 1755.4 1519.73 1747.76 1534.8C1747.33 1535.64 1747.7 1536.89 1747.7 1539.36C1755.29 1535.31 1762.12 1531.92 1768.7 1528.08C1772.57 1525.81 1775.78 1522.31 1779.78 1520.38C1781.95 1519.38 1787.22 1519.74 1787.5 1520.63C1788.42 1523.53 1787.99 1527.01 1787.44 1530.15C1787.21 1531.46 1785.33 1532.44 1784.29 1533.64C1779.43 1539.26 1774.58 1544.88 1769.75 1550.52L1770.93 1551.79C1774.03 1549.64 1777.36 1547.79 1780.2 1545.28C1785.09 1541.04 1789.42 1536.1 1794.53 1532.18C1796.84 1530.42 1800.53 1530.41 1803.53 1529.6C1803.96 1532.81 1805.53 1536.38 1804.53 1539.16C1802.92 1544.05 1799.62 1548.37 1797.44 1553.16C1795.6 1557.07 1794.39 1561.29 1792.91 1565.39V1565.39ZM987.111 1326.87C976.111 1325.48 966.041 1324.05 955.921 1323.07C954.121 1322.89 950.721 1324.25 950.471 1325.42C949.041 1332.1 948.341 1338.93 947.551 1344.6C957.941 1344.6 967.281 1344.7 976.631 1344.6C985.981 1344.5 987.681 1342.6 987.411 1333.75C987.341 1331.48 987.211 1329.23 987.111 1326.87ZM941.981 1321.76C929.131 1320.88 918.501 1321.14 909.291 1329.4C905.291 1333 906.231 1334.97 909.831 1337.15C914.461 1339.96 919.091 1342.91 924.061 1344.99C928.171 1346.72 932.781 1347.26 937.351 1348.38C939.061 1338.77 940.451 1330.8 941.981 1321.76ZM1786.75 1500.63C1782.75 1498.92 1779.99 1497.43 1777.05 1496.56C1770.37 1494.56 1763.2 1493.86 1758.82 1487.17C1758.28 1486.35 1755.01 1486.27 1753.82 1487.07C1747.94 1491.07 1748.46 1497.95 1755.23 1500.88C1765.1 1505.11 1775.28 1506.05 1786.79 1500.63H1786.75ZM1604.02 1498.63C1606.82 1497.42 1608.77 1496.71 1610.59 1495.76C1614.44 1493.76 1618.52 1491.94 1621.9 1489.27C1623.35 1488.13 1624.34 1483.57 1623.73 1483.13C1621.65 1481.67 1618.37 1480.13 1616.26 1480.84C1610.26 1482.78 1604.7 1485.84 1598.43 1488.63L1604.02 1498.63ZM995.021 1328.25C995.881 1332.45 996.631 1336.06 997.311 1339.39H1014.08C1017.7 1330.6 1011.84 1328 995.071 1328.28L995.021 1328.25Z" fill="#194B3F"/>
<path d="M1360.1 906.746C1327.2 905.216 1294.31 903.486 1261.39 902.306C1253.27 902.016 1245.1 903.736 1236.93 904.156C1220.54 904.996 1204.13 905.656 1187.73 906.266C1171.8 906.856 1155.86 907.406 1139.92 907.746C1113.71 908.306 1087.49 908.746 1061.28 909.126C1043.81 909.416 1026.74 906.806 1009.88 902.386C1007.31 901.706 1004.41 902.026 1001.69 902.236C987.851 903.306 974.021 904.536 960.181 905.636C948.891 906.526 937.581 907.826 926.271 907.966C918.161 908.066 910.001 905.676 901.911 905.966C891.281 906.356 880.731 908.456 870.101 909.426C867.681 909.646 864.291 908.936 862.881 907.316C861.691 905.966 862.051 902.316 863.021 900.316C863.801 898.736 866.521 897.316 868.421 897.246C875.251 897.026 882.111 897.476 888.961 897.556C895.811 897.636 902.571 896.966 909.261 897.666C923.341 899.156 937.151 899.876 951.321 897.076C961.041 895.156 971.321 896.276 981.401 896.076C982.771 896.076 984.241 896.396 985.501 896.006C1003.19 890.526 1020.12 896.476 1037.38 898.926C1048.18 900.466 1059.25 900.556 1070.19 900.506C1091.87 900.413 1113.54 900.003 1135.19 899.276C1150.19 898.756 1165.19 897.116 1180.14 896.556C1199.48 895.826 1218.84 895.556 1238.19 895.296C1253.6 895.096 1269.09 894.186 1284.4 895.416C1302.1 896.946 1319.89 896.986 1337.59 895.536C1346.9 894.726 1356.59 897.186 1365.95 898.666C1367.37 898.886 1368.37 901.796 1369.56 903.466C1368.01 904.416 1366.56 905.686 1364.87 906.216C1363.42 906.686 1361.7 906.316 1360.1 906.316V906.746Z" fill="#194B3F"/>
<path d="M1736.4 896.906C1726.3 898.296 1716.23 900.226 1706.07 900.956C1684.14 902.546 1662.17 904.236 1640.2 904.416C1630.89 904.486 1621.33 901.586 1612.27 898.766C1601.92 895.546 1591.84 892.266 1580.89 895.096C1580.44 895.156 1579.98 895.156 1579.53 895.096C1563.53 894.796 1547.84 896.416 1532.69 902.466C1522.38 906.586 1511.8 904.846 1501.12 902.256C1481.76 897.576 1461.92 894.376 1442.3 899.426C1431.87 902.106 1422 901.266 1411.88 900.006C1410 899.776 1408.4 897.296 1406.67 895.846C1408.4 894.456 1410.04 891.976 1411.87 891.846C1430.15 890.416 1448.46 888.406 1466.75 888.546C1478.87 888.646 1491.09 891.416 1503.04 894.006C1514.04 896.386 1524.77 897.186 1535.19 892.576C1554.71 883.936 1575.55 885.396 1595.88 885.486C1607.18 885.486 1618.55 890.106 1629.7 893.316C1642.56 897.016 1655.26 896.426 1668.21 894.196C1675.32 892.966 1682.61 892.926 1689.81 892.196C1701.28 891.046 1712.71 889.196 1724.2 888.716C1734.39 888.326 1744.62 889.596 1754.84 889.896C1767.37 890.256 1779.96 891.206 1792.41 890.316C1804.29 889.476 1815.14 889.786 1825.81 896.316C1831.81 899.986 1839.52 900.686 1846.31 903.126C1848.71 903.986 1850.68 906.066 1852.84 907.586C1850.37 908.916 1847.61 911.706 1845.48 911.286C1838.48 909.896 1830.84 908.596 1824.86 904.956C1815.16 899.076 1805.05 899.106 1794.52 898.956C1778.36 898.776 1762.22 898.106 1746.06 897.676C1742.87 897.586 1739.67 897.676 1736.48 897.676C1736.45 897.466 1736.43 897.186 1736.4 896.906Z" fill="#194B3F"/>
<path d="M2126.12 1555L2120.63 1548.83C2122.44 1547.54 2124.35 1545.1 2126.02 1545.25C2128.02 1545.43 2129.82 1547.82 2131.71 1549.25L2126.12 1555Z" fill="#194B3F"/>
<path d="M1410.66 1168.07C1394.33 1166.85 1378.01 1165.3 1361.66 1164.54C1352.57 1164.12 1343.42 1165.18 1334.29 1165.28C1329.53 1165.33 1324.7 1164.17 1320 1164.62C1315 1165.1 1310.17 1166.97 1305.22 1168.01C1297.94 1169.55 1290.52 1170.48 1283.34 1172.39C1263.53 1177.66 1243.34 1175.13 1223.34 1175.01C1216.34 1175.01 1209.51 1170.14 1202.4 1169.35C1193.29 1168.35 1183.75 1167.98 1174.79 1169.59C1162.56 1171.78 1151.24 1169.31 1139.79 1166.31C1138.03 1165.73 1136.56 1164.48 1135.72 1162.83C1134.22 1159.41 1131.37 1153.71 1132.61 1152.47C1136.61 1148.47 1138.91 1154.15 1141.95 1155.98C1151.37 1161.66 1161.69 1162.23 1172.16 1160.56C1186.16 1158.33 1199.9 1157.56 1213.36 1163.56C1217.38 1165.16 1221.65 1166.03 1225.98 1166.14C1233.28 1166.64 1240.61 1166.64 1247.91 1166.14C1264.41 1164.81 1280.91 1163.3 1297.34 1161.14C1304.34 1160.21 1311.01 1156.32 1317.99 1155.75C1329.32 1154.82 1340.79 1155.27 1352.19 1155.59C1375.66 1156.25 1399.11 1157.25 1422.58 1158.03C1430.72 1158.31 1438.9 1158.03 1447.01 1158.69C1449.35 1158.89 1451.48 1161.51 1453.71 1163.03C1451.49 1164.33 1449.3 1166.7 1447.04 1166.77C1434.96 1167.14 1422.86 1166.94 1410.77 1166.94C1410.71 1167.33 1410.69 1167.7 1410.66 1168.07Z" fill="#194B3F"/>
<path d="M885.741 1155.76C875.741 1155.29 865.741 1155.19 855.741 1154.21C849.004 1153.44 842.357 1152.03 835.891 1150C834.311 1149.52 833.651 1146 832.561 1143.87C834.631 1142.94 837.221 1140.69 838.691 1141.27C854.691 1147.62 871.511 1145.14 887.981 1146.09C891.501 1146.29 895.121 1144.38 898.691 1144.38C900.691 1144.38 902.621 1146.38 904.591 1147.38C903.331 1148.96 902.341 1150.97 900.721 1152.03C898.721 1153.34 896.191 1153.86 893.501 1154.87C894 1155.1 894.519 1155.3 895.051 1155.45C898.641 1155.89 904.051 1154.07 904.341 1159.6C904.581 1164.74 899.271 1163.43 895.911 1164.11C886.341 1166.11 876.851 1168.59 867.191 1169.95C862.441 1170.61 857.311 1169.54 852.521 1168.5C851.151 1168.2 850.351 1165.26 849.291 1163.5C851.081 1162.56 852.951 1160.68 854.661 1160.82C865.431 1161.81 875.881 1161.13 885.741 1155.76Z" fill="#194B3F"/>
<path d="M867.751 1220.43C863.681 1219.98 860.851 1220.49 859.811 1219.36C857.911 1217.28 857.071 1214.24 855.811 1211.59C858.071 1211 860.311 1210.22 862.611 1209.86C868.481 1208.96 874.381 1208.26 880.271 1207.47C883.921 1206.98 888.691 1202.36 890.871 1207.93C892.991 1213.34 886.721 1214.21 883.371 1215.6C877.781 1217.9 871.801 1219.22 867.751 1220.43Z" fill="#194B3F"/>
<path d="M1533.4 1191.45C1533.66 1184.02 1534.62 1183.45 1541.08 1185.01C1543.96 1185.7 1547.2 1184.8 1550.27 1184.7C1553.6 1184.59 1556.99 1184.2 1560.27 1184.7C1561.39 1184.88 1562.74 1187.3 1562.9 1188.81C1563.02 1190.01 1561.52 1192.5 1560.69 1192.52C1551.56 1192.74 1542.1 1198.83 1533.32 1191.32L1533.4 1191.45Z" fill="#194B3F"/>
<path d="M1130.98 1519C1132.12 1525.35 1134.39 1533.33 1134.81 1541.41C1135.24 1552.72 1135.02 1564.05 1134.17 1575.34C1134.05 1577.23 1130.73 1578.92 1128.88 1580.7C1127.88 1578.39 1125.79 1575.86 1126.18 1573.81C1128.92 1559.68 1127.86 1545.75 1124.33 1532.03C1123.19 1527.61 1120.11 1523.68 1117.86 1519.56C1117.09 1518.17 1115.77 1517 1115.34 1515.56C1114.69 1512.95 1114.19 1510.31 1113.83 1507.65C1116.11 1507.31 1118.41 1507.11 1120.72 1507.05C1130.06 1507.32 1130.98 1508.28 1130.98 1519Z" fill="#194B3F"/>
<path d="M864.291 1561.24C865.921 1547.79 867.641 1534.35 869.131 1520.89C869.521 1517.35 868.791 1513.67 869.341 1510.17C869.691 1507.98 871.451 1506.02 872.581 1503.95C874.511 1505.6 878.091 1507.26 878.091 1508.95C878.091 1516.59 876.901 1524.22 876.511 1531.87C875.761 1546.47 875.351 1561.09 874.511 1575.69C874.411 1577.45 872.581 1579.11 871.511 1580.83C869.511 1579.58 865.901 1578.56 865.691 1577.05C864.951 1571.93 865.411 1566.63 865.411 1561.4L864.291 1561.24Z" fill="#194B3F"/>
<path d="M1066.19 1554.8C1073.71 1556.71 1076.11 1551.1 1079.43 1546.61C1080.81 1544.75 1083.05 1543.53 1084.9 1542.02C1085.79 1544.36 1087.64 1546.8 1087.41 1549.02C1086.41 1558.96 1071.41 1567.17 1062.46 1563.02C1058.61 1561.22 1053.38 1548.69 1055.16 1544.89C1055.74 1543.65 1057.46 1542.1 1058.58 1542.16C1059.4 1542.27 1060.19 1542.57 1060.88 1543.02C1061.57 1543.48 1062.15 1544.08 1062.58 1544.79C1064.09 1547.78 1064.92 1551.1 1066.19 1554.8Z" fill="#194B3F"/>
<path d="M937.661 1558.88L940.561 1565.38C937.681 1566.14 934.701 1567.8 931.941 1567.5C922.701 1566.5 918.621 1559.92 922.321 1551.66C923.411 1549.22 927.121 1546.88 929.881 1546.55C932.641 1546.22 937.071 1547.55 938.561 1549.68C939.861 1551.54 938.101 1555.54 937.661 1558.88Z" fill="#194B3F"/>
<path d="M1664.72 1197.08C1679.39 1198.27 1697.17 1211.27 1701.1 1224.63C1704.48 1236.12 1697.7 1255.09 1687.79 1262.37C1684.53 1264.8 1681.42 1267.44 1678.49 1270.28C1672.49 1276 1665.36 1274.52 1658.49 1273.4C1631.88 1269.1 1623.07 1240.55 1634.36 1219.12C1637.98 1212.36 1642.94 1206.42 1648.94 1201.67C1652.91 1198.53 1659.37 1198.5 1664.72 1197.08ZM1668.34 1265.32C1669.03 1265.07 1671.48 1264.79 1673.13 1263.5C1678.12 1259.61 1682.89 1255.45 1687.43 1251.05C1694.18 1244.4 1691.43 1235.45 1692.37 1227.44C1692.52 1226.16 1691.06 1224.59 1690.12 1223.32C1687.82 1220.21 1685.52 1217.09 1682.99 1214.17C1677.99 1208.41 1659.13 1205.17 1652.52 1208.86C1645.91 1212.55 1636.32 1234.26 1637.93 1241.99C1640.83 1255.88 1652.73 1265.52 1668.34 1265.32Z" fill="#194B3F"/>
<path d="M1512.78 1274.5C1509.87 1277.78 1506.79 1280.9 1503.55 1283.86C1503.33 1284.05 1498.85 1280.44 1499.13 1279.8C1500.87 1275.8 1503.4 1272.07 1505.67 1268.25L1512.78 1274.5Z" fill="#194B3F"/>
<path d="M1533.48 1285.47C1530.57 1287.95 1528.48 1290.58 1527.69 1290.24C1525.48 1289.11 1523.63 1287.37 1522.37 1285.24C1522.1 1284.81 1524.95 1281.24 1526.18 1281.29C1528.25 1281.49 1530.18 1283.46 1533.48 1285.47Z" fill="#194B3F"/>
<path d="M834.151 1270.81C833.311 1272.26 832.821 1274.27 831.721 1274.71C830.311 1275.26 827.441 1275.15 826.871 1274.26C824.105 1269.88 821.675 1265.29 819.601 1260.55C819.261 1259.8 820.891 1257.23 821.911 1257.03C823.671 1256.69 826.631 1256.9 827.381 1258.03C829.981 1261.93 831.861 1266.33 834.151 1270.81Z" fill="#194B3F"/>
<path d="M845.161 1272.9C848.851 1270 851.251 1268.13 853.641 1266.26C854.641 1268.26 856.971 1270.63 856.511 1272.17C855.721 1274.75 853.181 1276.8 851.381 1279.07L845.161 1272.9Z" fill="#194B3F"/>
<path d="M809.651 1290.82C807.981 1287.62 806.251 1285.82 806.461 1284.31C806.691 1282.63 808.711 1281.19 809.941 1279.65C811.381 1281.33 813.601 1282.86 814.001 1284.76C814.261 1286 811.921 1287.82 809.651 1290.82Z" fill="#194B3F"/>
<defs>
<radialGradient id="paint0_radial_3_65" cx="0" cy="0" r="1" gradientUnits="userSpaceOnUse" gradientTransform="translate(1330 1330) rotate(90) scale(1330)">
<stop stop-color="#D9A1C0"/>
<stop offset="1" stop-color="#D9A1C0" stop-opacity="0"/>
</radialGradient>
</defs>
</svg>
