<svg width="1920" height="1726" viewBox="0 0 1920 1726" fill="none" xmlns="http://www.w3.org/2000/svg">
<circle cx="960" cy="863" r="863" fill="url(#paint0_radial_6_341)" style="mix-blend-mode:darken"/>
<path d="M208.36 1081.94C209.36 1076.81 210.7 1071.72 211.48 1066.55C214.093 1049.33 216.593 1032.09 218.98 1014.82C219.98 1007.2 220.58 999.52 221.41 991.82C223.26 974.93 224.77 957.99 227.1 941.16C231.708 908.51 239.375 876.365 250 845.15C256.41 826.15 258.43 806.77 261.25 787.28C262.44 779.09 266.51 771.35 268 763.16C270.17 751.16 270.82 738.95 272.79 726.94C274.79 715.11 277.55 703.44 279.94 691.68C281.88 682.13 283.18 672.41 285.78 663.04C290.28 646.83 295.41 630.79 300.57 614.78C304.33 603.11 308.17 591.44 312.67 580.05C319.43 562.97 327.61 546.41 333.67 529.11C340.57 509.48 345.94 489.3 351.74 469.28C354.17 460.89 356.92 453 363.36 446.49C370.64 439.13 376.46 430.25 384.1 423.34C389.776 418.2 396.486 414.333 403.78 412C429 404.28 454.53 397.56 480 390.67C497.43 386 514.84 381 532.48 377.14C553.713 372.49 575.754 373.018 596.74 378.68C607.83 381.6 619.74 381.99 631.26 382.68C653.133 384.013 675.027 384.973 696.94 385.56C704.62 385.77 712.34 384.29 720.05 383.96C728.47 383.61 736.91 383.57 745.34 383.61C758.5 383.67 771.65 384.05 784.81 384.01C791.86 384.01 798.91 383.19 805.97 383.01C831.52 382.35 857.08 381.92 882.63 381.14C888.52 380.96 894.36 379.45 900.26 379.08C913.26 378.28 926.2 377.4 939.17 377.3C984.41 376.97 1029.65 376.61 1074.88 376.99C1093.3 377.15 1111.7 379.18 1130.11 380.34C1135.78 380.7 1141.46 381.11 1147.11 381.28C1165.11 381.8 1183.11 382.71 1201.11 382.52C1214.5 382.38 1227.86 380.43 1241.25 379.91C1257.25 379.28 1273.25 379.18 1289.17 379.08C1327.31 378.84 1365.45 378.68 1403.59 378.6C1419.59 378.6 1432.86 385.65 1444.97 395.49C1458.17 406.2 1472.71 414.26 1489.36 418.59C1496.1 420.34 1502.36 423.82 1508.9 426.49C1514.99 428.98 1520.9 432.41 1527.23 433.74C1543.44 437.14 1557.1 445.42 1571.23 453.5C1591.8 465.29 1602.23 484.29 1610.23 504.92C1618.38 525.92 1625.82 547.19 1632.12 568.77C1636.54 583.92 1638.48 599.77 1641.62 615.32C1642.47 619.53 1643.99 623.63 1644.62 627.87C1646.62 642.23 1647.56 656.78 1650.39 670.97C1652.68 682.46 1657.28 693.48 1660.55 704.79C1664.3 717.79 1668.55 730.79 1671.1 744C1674.94 763.78 1677.22 783.86 1680.71 803.72C1684.15 823.32 1688.37 842.78 1692.05 862.33C1693.44 869.67 1693.43 877.33 1695.56 884.44C1698.94 895.97 1703.1 907.259 1708 918.23C1715.4 934.43 1718.11 951.61 1720.68 968.91C1722.74 982.823 1724.86 996.723 1727.05 1010.61C1728.13 1017.55 1729.52 1024.45 1730.56 1031.4C1732.95 1047.32 1735.27 1063.25 1737.5 1079.19C1738.22 1084.42 1740.7 1087.61 1746.19 1087.75C1754.19 1087.96 1762.19 1088.67 1770.12 1087.9C1773.07 1087.62 1775.72 1083.9 1778.43 1081.58C1784.08 1076.82 1789.7 1072.03 1795.29 1067.2C1799.72 1063.36 1804.52 1059.82 1808.37 1055.45C1826.17 1035.27 1848.45 1031.02 1873.62 1036.33L1890.32 1039.89C1904.67 1042.09 1910.91 1048.29 1913.48 1051.51C1926.86 1068.29 1919.75 1103.43 1890.32 1134.51V1119.45C1903.89 1103.36 1908 1088.56 1909.47 1080.62C1911.62 1069.03 1909.65 1063.95 1908.09 1061.17C1903.16 1052.4 1893.09 1050.04 1890.32 1049.5C1879.76 1045.95 1870.66 1045.17 1864.37 1044.25C1845.17 1041.45 1828.27 1045.7 1814.92 1060.95C1810.63 1065.85 1805.8 1070.88 1800.16 1073.83C1792.93 1077.6 1788.34 1083.17 1783.84 1089.46C1780.23 1094.46 1775.84 1098.32 1768.5 1097.67C1760.24 1096.93 1751.86 1097.5 1743.99 1097.5L1751.12 1141.78C1754.97 1141.39 1758.75 1141.15 1762.49 1140.62C1776.64 1138.62 1790.38 1129.78 1805.16 1138.23C1806.23 1138.84 1807.92 1138.23 1809.16 1138.68C1812.73 1139.83 1816.16 1141.34 1819.77 1142.46C1828.29 1145.12 1836.77 1148.77 1845.46 1149.78C1851.1 1150.44 1857.46 1147.68 1863.01 1145.42C1867.88 1143.42 1872.88 1140.76 1876.52 1137.09C1881.73 1131.83 1885.76 1125.39 1890.29 1119.45V1134.54C1888.11 1137.13 1886.29 1140.14 1883.68 1142.2C1878.48 1146.35 1873.25 1150.85 1867.29 1153.57C1861 1156.44 1853.88 1157.57 1847.04 1159.14C1844.48 1159.83 1841.79 1159.86 1839.22 1159.23C1825.68 1154.96 1812.06 1150.84 1798.87 1145.63C1792.87 1143.27 1787.87 1143.63 1782.06 1145.33C1773.87 1147.65 1765.39 1148.97 1756.62 1150.8C1757.73 1153.27 1758.1 1155.25 1759.26 1156.52C1772.89 1171.38 1782.26 1189.83 1798.43 1202.58C1800.28 1204.26 1801.98 1206.1 1803.5 1208.09C1809.5 1214.95 1815.36 1221.87 1821.34 1228.7C1831.99 1240.84 1843.25 1252.49 1853.21 1265.17C1866.1 1281.56 1877.97 1298.76 1890.29 1315.61V1329.32C1882.51 1319.23 1874.68 1309.17 1866.96 1299.03C1855.8 1284.39 1845.07 1269.41 1833.49 1255.12C1823.49 1242.75 1812.7 1230.98 1801.93 1219.26C1795.2 1211.92 1787.05 1205.78 1780.93 1198.01C1768.31 1182.01 1755.72 1165.82 1744.99 1148.55C1740.5 1141.33 1740.67 1131.18 1738.89 1122.32C1737.69 1116.32 1737.08 1110.24 1735.73 1104.32C1731.43 1085.32 1726.1 1066.59 1722.73 1047.47C1719.48 1029.23 1718.73 1010.56 1715.81 992.25C1712.48 971.25 1708.49 950.25 1703.74 929.56C1701.84 921.29 1696.56 913.86 1693.9 905.69C1690.12 894.323 1686.97 882.755 1684.46 871.04C1680.34 851.32 1676.9 831.45 1673.46 811.6C1671.35 799.6 1669.81 787.43 1667.86 775.36C1666.05 764.21 1663.25 753.15 1662.28 741.93C1660.47 721.06 1648.84 703.48 1644.03 683.72C1641.79 674.5 1641.17 664.91 1639.59 655.52C1637.94 645.75 1635.95 636.03 1634.24 626.26C1633.24 620.47 1631.64 614.62 1631.71 608.81C1631.92 591.73 1624.64 576.63 1620.24 560.73C1613.96 538.08 1606.49 515.89 1596.3 494.73C1590.74 483.17 1583.3 472.5 1572.47 465.49C1563.62 459.74 1553.27 456.85 1542.29 458.72C1536.91 459.64 1531.47 460.34 1526.19 461.65C1521.52 462.8 1517.19 462.44 1516.68 457.21C1516.17 452.31 1521.11 453.21 1524.31 452.74C1531.01 451.64 1537.7 450.52 1546.44 449.07C1543.03 447.48 1541.44 446.2 1539.71 446C1522.71 444 1508.59 434.64 1493.1 428.77C1487.41 426.62 1481.57 424.84 1475.83 422.82C1462.4 418.12 1451.06 410.01 1439.44 401.95C1425.6 392.36 1410.78 384.83 1392.3 387.88C1380.72 389.78 1368.59 388.36 1356.71 388.38C1339.84 388.38 1322.89 389.46 1306.11 388.19C1266.98 385.25 1228.22 392.88 1189.22 391.49C1161.67 390.49 1134.03 391.49 1106.64 386.28C1096.04 384.28 1084.76 385.83 1073.79 385.91C1030.16 386.19 986.52 387.29 942.92 386.49C925.631 386.019 908.332 386.975 891.2 389.35C884.01 390.41 876.66 390.51 869.37 390.7C843.57 391.39 817.77 391.89 791.97 392.58C787.89 392.69 783.83 393.81 779.76 393.76C767.53 393.58 755.3 392.83 743.06 392.76C735.11 392.7 727.15 393.54 719.19 393.7C707.19 393.95 695.1 394.58 683.11 393.94C654.89 392.447 626.69 390.557 598.51 388.27C586.08 387.27 573.66 382.58 561.45 383.27C542.08 384.37 522.62 385.88 504.02 393.84C491.86 399 478 399.91 465 403.49C447.48 408.33 430.43 415.27 412.67 418.72C393.78 422.4 382.67 434.05 373.42 449.09C369.29 455.8 365 462.42 360.9 469.15C360.37 470.01 360.48 471.27 360.79 472.86C368.19 462.4 380.18 459.57 390.49 454.11C400.14 449 410.25 444.86 420 440C423.22 438.41 425.89 435.74 429.07 434.07C431.551 432.744 434.27 431.925 437.07 431.66C438.14 431.59 439.98 433.79 440.36 435.24C440.63 436.24 439.36 438.24 438.22 439C421.875 449.701 404.353 458.485 386 465.18C370.63 470.76 362.63 484.18 355.2 497.25C350.57 505.43 349.14 515.37 345.11 523.97C337.42 540.4 333.84 558.33 324.71 574.38C317.99 586.21 314.86 600.08 310.16 613.05C307.92 619.24 305.25 625.32 303.63 631.67C299.11 649.46 295.11 667.38 290.74 685.2C288.74 693.57 285.74 701.75 284.13 710.2C282.13 720.63 281.27 731.29 279.55 741.78C277.43 754.68 275.02 767.53 272.55 780.38C270.55 790.81 267.04 801.14 266.55 811.63C265.74 828.63 258.22 843.53 254.5 859.57C249.01 883.22 242.37 906.66 238.17 930.57C234.11 953.71 232.94 977.35 229.68 1000.66C227.24 1018.11 223.21 1035.34 220.43 1052.75C219.05 1061.46 218.72 1070.35 218.23 1079.17C217.88 1085.49 215.54 1091.45 218.87 1098.36C220.4 1101.54 215.68 1107.99 213.29 1112.7C211.22 1116.77 207.89 1120.25 206.09 1124.42C201.81 1134.31 196.58 1143.1 188.23 1150.42C181.34 1156.5 175.99 1164.42 170.43 1171.9C159.43 1186.64 149.22 1201.98 137.85 1216.41C123.05 1235.17 108.14 1253.93 91.9401 1271.41C80.2301 1284.08 66.1501 1294.53 53.5101 1306.41C47.9401 1311.65 43.5101 1318.03 38.2601 1323.69C34.2601 1328 29.6301 1331.69 25.8601 1336.19C21.5101 1341.38 17.8001 1347.11 13.8101 1352.61H4.27006C9.00006 1342.57 14.0001 1332.87 24.0001 1326.59C26.9001 1324.75 28.5701 1321.04 30.9301 1318.3C45.3201 1301.63 60.7301 1286.09 78.2001 1272.49C92.1101 1261.66 102.39 1247.38 112.59 1233.03C122.96 1218.44 134.77 1204.88 145.59 1190.61C154.31 1179.13 162.32 1167.11 171.09 1155.67C174.52 1151.19 179.31 1147.78 183.21 1143.67C186.7 1139.95 189.8 1135.88 194.4 1130.38C186.1 1130.79 180.06 1131 174.04 1131.38C154.72 1132.7 135.38 1135.52 116.1 1135.09C95.2501 1134.63 75.7801 1139.84 56.0001 1144.56C52.9501 1145.28 49.5301 1145.85 46.5301 1145.25C30.7301 1142.07 16.9401 1136.09 8.53006 1120.72C2.24006 1109.25 -1.84994 1097.34 0.88006 1084.72C3.14006 1074.27 3.77006 1062.42 13.8801 1055.05C15.4701 1053.88 16.3001 1051.71 17.7801 1050.31C26.9401 1041.59 35.5201 1032.04 45.6801 1024.66C51.0101 1020.79 59.0901 1020.5 66.0301 1019.18C69.3101 1018.55 72.8701 1019.56 76.2801 1019.38C98.2001 1018.23 117.08 1025.87 133.28 1039.97C144.85 1049.97 155.61 1060.97 166.82 1071.43C168.39 1072.9 170.44 1074.61 172.4 1074.79C181.66 1075.67 190.97 1076.47 200.27 1076.44C204.91 1076.44 206.84 1078.6 208.49 1082.08C206.14 1083.44 203.79 1085.92 201.43 1085.92C191.63 1085.92 181.81 1085.46 172.04 1084.63C168.875 1084.32 165.867 1083.1 163.38 1081.12C158.446 1076.85 153.771 1072.29 149.38 1067.47C142.78 1060.47 137.61 1052.29 129.01 1046.92C117.01 1039.44 105.92 1030.44 91.1301 1029.33C83.8501 1028.78 76.2501 1030.03 69.2701 1028.42C58.8501 1026.01 51.4901 1030.35 44.6001 1036.67C36.9301 1043.67 29.8701 1051.4 22.0701 1058.29C12.7801 1066.56 10.4301 1077.88 9.00006 1089C7.12006 1103.48 14.0001 1116.23 23.7601 1126C32.2601 1134.42 43.6901 1138.37 56.5101 1135.07C70.1501 1131.57 83.9301 1128.62 97.6701 1125.53C99.4778 1125.27 101.307 1125.2 103.13 1125.31C112.43 1125.23 121.74 1125.48 131.02 1125.04C151.967 1124.04 172.91 1122.81 193.85 1121.36C195.95 1121.22 198.99 1119.58 199.77 1117.83C204.8 1106.41 210.06 1095 208.36 1081.94Z" fill="#194B3F"/>
<path d="M1650.53 1142.89L1655.7 1150.48C1653.26 1151.56 1650.84 1152.72 1648.35 1153.68C1647.09 1154.17 1645.4 1153.89 1644.4 1154.68C1632.1 1163.75 1616.6 1163.23 1602.93 1168.42C1591.22 1172.86 1578.06 1174.04 1565.41 1175.28C1550.01 1176.77 1534.55 1177.48 1519.08 1177.42C1495.19 1177.42 1471.3 1176.34 1447.4 1175.91C1428.73 1175.57 1410.05 1175.65 1391.4 1175.29C1369.49 1174.88 1347.56 1174.58 1325.68 1173.48C1315.51 1172.97 1305.47 1170.12 1295.28 1169.34C1275.99 1167.84 1256.66 1166.55 1237.28 1166.17C1221.56 1165.87 1205.8 1166.75 1190.09 1167.58C1160.09 1169.16 1130.09 1171.07 1100.09 1172.86C1098.72 1172.94 1097.09 1172.72 1096.09 1173.34C1082.84 1180.76 1068.65 1178.02 1054.59 1177.63C1037 1177.14 1019.38 1176.79 1001.8 1177.21C986.92 1177.56 972.4 1175.47 958.97 1169.78C939.7 1161.63 919.09 1160.78 899.19 1156.19C878.66 1151.49 858.78 1158.43 838.52 1157.78C830.52 1157.52 822.35 1159.78 814.24 1160.78C802.94 1162.09 791.6 1163.09 780.31 1164.46C769.31 1165.79 758.38 1168.07 747.31 1168.77C732.76 1169.85 718.16 1170.11 703.58 1169.54C684.935 1168.73 666.344 1166.97 647.88 1164.26C621.55 1160.26 595.48 1165.15 569.28 1164.8C564.82 1164.74 560.37 1166.72 555.86 1167.16C548.886 1167.91 541.875 1168.27 534.86 1168.24C527.18 1168.11 519.5 1167.31 511.86 1166.6C504.86 1165.95 497.62 1165.93 490.93 1164.05C473.111 1159.08 454.439 1157.94 436.15 1160.73C426.21 1162.16 416.02 1161.84 405.97 1162.73C401.26 1163.12 396.64 1164.96 391.97 1165.14C376.84 1165.7 361.91 1164.32 347.53 1159.14C346.04 1158.6 344.29 1158.27 343.17 1157.28C328.56 1144.33 314.5 1130.82 310.82 1110.48C309.41 1102.68 309.16 1094.61 308.99 1086.65C308.69 1072.72 308.25 1058.74 308.99 1044.83C310.05 1024.69 312.06 1004.59 313.75 984.47C314.81 971.85 316 959.23 317.24 946.62C317.406 944.559 317.885 942.536 318.66 940.62C326.79 921.19 328.08 900.42 330.46 879.91C332.36 863.46 333.57 846.91 335.37 830.48C335.76 826.92 337.79 823.55 338.3 819.98C340.15 806.98 341.62 793.98 343.3 780.93C345.4 765.01 347.553 749.097 349.76 733.19C350.96 724.45 351.67 715.59 353.67 707.04C356.35 695.63 360.38 684.53 363.27 673.15C366.89 658.9 369.62 644.42 373.34 630.15C377.34 614.82 381.95 599.64 386.5 584.45C387.67 580.54 389.98 576.97 391.06 573.04C392.99 565.96 395.27 559.58 403.78 558.11C410.33 556.98 416.78 555.23 423.33 554.22C436.09 552.22 448.9 550.66 461.67 548.82C463.44 548.57 465.1 547.6 466.87 547.3C484.64 544.3 502.54 542.5 520.49 540.75C543.02 538.55 565.41 538.8 587.91 539.19C607.5 539.52 627.1 539.58 646.68 539.19C665.51 538.78 684.32 537.31 703.15 536.87C712.92 536.65 722.71 537.78 732.49 538.07C741.11 538.32 749.75 538.02 758.37 538.36C771.81 538.88 785.24 540 798.68 540.36C808.68 540.63 818.68 540.02 828.75 539.93C841.46 539.8 854.18 539.85 866.9 539.74C880.54 539.62 894.19 539.36 907.84 539.22C913.72 539.22 919.6 539.39 925.48 539.28C937.34 539.04 949.19 538.49 961.05 538.42C967.41 538.42 973.76 539.16 980.12 539.42C987.82 539.71 995.54 539.96 1003.25 540C1023.55 540.12 1043.86 539.94 1064.16 540.27C1069.1 540.35 1073.98 542.27 1078.94 542.74C1087.55 543.5 1096.2 543.74 1104.83 544.24C1111.12 544.61 1117.4 545.24 1123.69 545.45C1135.64 545.823 1147.6 546.06 1159.56 546.16C1168.61 546.24 1177.66 546.22 1186.7 545.95C1205.84 545.37 1224.97 544.72 1244.09 543.83C1250.66 543.52 1257.21 542.54 1263.74 541.66C1294.15 537.57 1324.85 539.6 1355.26 537.39C1376.06 535.89 1395.49 539.51 1415.26 543.76C1436.44 548.32 1457.82 547.55 1479.26 546.53C1480.69 546.46 1482.75 545.94 1483.37 544.92C1487.24 538.63 1492.69 539.66 1498.52 540.92C1502.29 541.622 1506.1 542.083 1509.93 542.3C1520.93 543.3 1532.23 543.18 1542.93 545.61C1547.64 546.68 1551.93 552.32 1555.09 556.82C1560.75 564.706 1565.72 573.071 1569.93 581.82C1572.93 588.31 1573.54 595.87 1575.93 602.68C1578.17 608.97 1581.45 614.87 1584.19 620.98C1584.89 622.391 1585.35 623.903 1585.58 625.46C1586.69 636.51 1587.23 647.64 1588.88 658.6C1590.11 666.85 1592.75 674.88 1594.67 683.02C1595.28 684.959 1595.51 686.994 1595.36 689.02C1593.04 702.84 1596.8 715.85 1600.01 729.02C1602.75 740.22 1605.01 751.58 1606.76 762.97C1609.87 782.6 1610.76 802.44 1617.54 821.63C1622.54 835.84 1623.95 851.29 1626.96 866.19C1629.38 878.19 1631.8 890.19 1634.21 902.19C1638.26 922.39 1642.29 942.597 1646.29 962.81C1646.65 964.836 1646.75 966.898 1646.61 968.95C1645.61 988.12 1649.17 1006.45 1655.8 1024.39C1657.56 1029.31 1658.4 1034.51 1658.28 1039.74C1658 1054.03 1656.8 1068.29 1656.44 1082.57C1656.33 1086.78 1657.63 1091.06 1658.55 1095.25C1662.34 1112.7 1659.24 1129 1650.53 1142.89ZM574 921.45C574.92 926.45 573.37 929.55 567.84 930.38C559.34 931.67 550.94 933.6 542.43 934.82C528.63 936.82 514.05 934.06 501.29 942.42C498.91 943.98 495.02 944.2 492.02 943.74C470.45 940.46 461.22 948.86 450.92 965.74C445.65 974.38 443.92 985.22 440.85 995.16C438.8 1001.88 438.43 1009.33 435.33 1015.47C427.19 1031.58 425.6 1048.8 424.33 1066.27C423.79 1073.91 422.33 1081.47 421.56 1089.09C420.61 1098.22 419.93 1107.38 419.11 1116.73L441.36 1118.11C442.54 1100.55 443.17 1084.19 444.84 1067.93C446.9 1047.82 458.45 1031.66 468.57 1015.02C470.139 1012.55 472.082 1010.33 474.33 1008.45C484.42 999.7 497.01 996.63 509.47 993.19C524.33 989.08 540.47 991.66 554.73 984.31C556.66 983.31 559.67 983.9 562.06 984.38C576.15 987.23 586.12 979.19 595.75 971.22C600.41 967.36 598.14 946.06 593.01 940.63C586.83 934.07 580.24 927.9 573.82 921.57C571.17 919.09 568.389 916.753 565.49 914.57C560.57 911.21 555.7 906.34 550.26 905.46C537.09 903.32 525.2 899.93 515.7 889.77C506.2 879.61 509.08 866.07 522.36 861.77L531.03 858.93L531.18 856.39C526.34 855.15 521.55 853.14 516.65 852.79C503.4 851.87 490.11 857.44 476.8 852.68C475.8 852.34 474.54 852.81 473.42 853.01C464.22 854.68 455.04 856.38 444.1 858.4C447.23 884.4 450.6 911.88 453.66 939.4C453.86 941.25 451.75 943.35 450.71 945.34C449 944.23 446.77 943.48 445.71 941.93C444.65 940.38 444.71 938.07 444.43 936.06C442.89 925.17 441.43 914.27 439.69 901.8C429.32 911.1 419.1 919.07 410.35 928.4C398.35 941.19 397.78 941.65 388.48 926.98C381.94 916.67 372.13 909.06 370.39 894.98C367.51 871.56 361.48 848.52 356.68 825.33C355.18 818.1 353.35 810.93 351.68 803.73C350.316 807.027 349.349 810.474 348.8 814C346.5 826.46 343.58 838.85 342.13 851.42C341.13 860.3 341.03 868.54 347.07 877.6C354.96 889.44 358.65 904.15 363.58 917.83C368.36 931.09 372.4 944.62 376.8 958.02C379.5 966.2 382.4 974.32 384.92 982.55C385.66 984.95 386.37 988.18 385.33 990.04C384.52 991.47 380.57 992.44 378.7 991.76C370.83 988.91 365.7 992.28 360.95 997.95C358.65 1000.68 355.52 1002.72 352.76 1005.06C346.23 1010.6 340.85 1016.79 338.71 1025.5C337.748 1029.25 335.919 1032.73 333.37 1035.65C332.01 1037.19 328.14 1038.01 326.23 1037.2C324.32 1036.39 322.39 1033.15 322.37 1030.96C322.37 1029.05 324.85 1026.96 326.49 1025.23C327.74 1023.89 330.02 1023.23 330.74 1021.73C340.14 1002.21 355.64 989 374.74 977.84C363.65 946.54 352.22 914.33 340.8 882.11C338.987 885.842 337.855 889.869 337.46 894C335.46 911.38 332.96 928.66 326.53 945.11C325.997 946.572 325.66 948.099 325.53 949.65C323.27 971.97 320.36 994.25 319.03 1016.65C317.64 1040.07 317.37 1063.59 317.49 1087.06C317.49 1096.06 319.83 1105.06 321.49 1113.94C322.42 1119.04 325.17 1121.26 330.81 1119.03C334.254 1117.84 337.886 1117.28 341.53 1117.38C356.83 1117.24 372.14 1117.38 387.44 1117.38H410.57C411.67 1105.9 412.57 1095.76 413.66 1085.64C414.35 1079.37 415.46 1073.14 416.24 1066.88C417.79 1054.29 418.55 1041.55 420.98 1029.13C422.56 1021.03 426.78 1013.48 429.32 1005.53C433.44 992.62 437.11 979.53 441.06 966.6C446.71 948.11 469.25 929.94 492 934.51C493.82 934.87 495.78 934.51 499.56 934.51C497.15 932.66 496.43 931.72 495.5 931.45C483.76 928.05 480.63 917.55 479.5 908.07C477.81 893.32 478.88 878.23 479.13 863.29C479.13 861.8 481.62 860.36 482.96 858.89C484.38 860.38 486.77 861.72 487.03 863.39C487.5 866.45 486.86 869.72 486.42 872.86C484.221 888.207 486.133 903.863 491.96 918.23C492.96 920.76 498.07 922.98 501.3 923C506.22 923 511.88 918.34 514.18 927C514.29 927.42 516.74 927.38 518.08 927.27C534.14 925.98 550.5 927.51 566.08 921.91C568.47 921 571.36 921.53 574 921.45ZM1163.44 724.45L1163.32 724.31C1165.95 741.06 1155.84 753.6 1148.38 767.7L1159.69 774.76C1163.89 771.43 1167.33 767.94 1171.47 765.76C1173.27 764.82 1176.47 766.61 1179.08 767.16C1177.98 769.36 1177.31 771.99 1175.67 773.68C1173.17 776.25 1170 778.16 1167.14 780.34C1170.32 784.13 1172.72 787 1175.14 789.87L1175.44 788.23H1185.51C1184.25 791.71 1182.99 795.23 1181.13 800.32C1184.13 804.44 1189.03 809.2 1196.13 809.27V749.12C1190.13 749.78 1184.96 750.84 1179.8 750.69C1177.57 750.63 1175.42 748.08 1173.23 746.69C1175.15 744.98 1176.91 742.06 1179.02 741.79C1184.54 741.1 1190.21 741.56 1195.79 741.56V696.56C1186.33 703.9 1176.98 701.3 1167.89 697.97C1165.97 697.26 1165 693.97 1163.59 691.87C1165.89 691.08 1168.22 689.58 1170.49 689.65C1176.11 689.82 1181.69 690.89 1187.31 691.26C1190.1 691.44 1192.93 690.89 1196.31 690.63C1196.31 676.28 1196.31 661.21 1196.31 646.15C1196.31 645.25 1195.99 644.36 1195.9 643.46C1195.02 634.46 1193.23 625.39 1193.64 616.46C1193.89 610.97 1197.2 605.46 1199.89 600.39C1200.47 599.31 1205.73 598.98 1206.49 600.02C1211.56 607.02 1216.78 614.02 1220.49 621.78C1227.91 637.36 1234.16 653.49 1241.32 669.2C1245.06 677.4 1249 678.83 1257.73 677.81C1267.22 676.69 1276.74 675.827 1286.29 675.22C1297.66 674.51 1309.05 673.84 1320.42 673.84C1331.79 673.84 1343.18 674.95 1354.56 675.12C1364.49 675.26 1365.45 673.99 1368.17 664.63C1369.42 660.32 1371.75 656.33 1373.61 652.2C1375.95 647.02 1379.06 642.05 1380.53 636.63C1384.81 620.8 1390.32 605.63 1400.12 592.28C1401.31 590.66 1403.94 588.66 1405.38 589.01C1407.38 589.48 1409.44 591.76 1410.28 593.77C1411.2 595.95 1410.76 598.71 1410.87 601.21C1411.44 614.21 1411.66 627.21 1412.66 640.12C1413.84 655.45 1416.1 670.69 1417.13 686.02C1417.87 697.09 1417.3 708.25 1417.43 719.37C1417.49 724.7 1419.31 728.57 1425.67 728.21C1430.47 727.94 1434.67 728.87 1437.2 733.72C1437.94 735.09 1440.09 735.91 1441.76 736.57C1450.12 739.85 1454.69 746.28 1457.26 754.57C1457.84 756.43 1458.75 758.19 1460.39 762.09C1462.39 755.92 1464.2 751.83 1464.96 747.54C1466.39 739.54 1467.53 731.45 1468.22 723.35C1470.11 701.41 1471.6 679.43 1473.51 657.48C1473.88 653.26 1475.45 649.14 1476.45 644.97C1478.71 635.56 1481.63 626.25 1483.08 616.71C1485.53 600.57 1487.08 584.28 1488.96 568.05C1489.41 564.12 1489.66 560.17 1489.96 556.95H1443.9C1446.07 581.56 1448.18 605.01 1450.14 628.46C1450.4 631.419 1450.18 634.401 1449.49 637.29C1445.11 654.7 1440.98 672.09 1441.82 690.29C1442.15 697.22 1435.95 701.62 1429.34 699.79C1428 699.33 1426 698 1426 697C1425.94 695.5 1427 692.88 1428.11 692.61C1434.63 690.98 1434.11 686.99 1432.49 682.08C1431.97 680.47 1432.37 678.45 1432.72 676.7C1435.72 662.04 1438.72 647.41 1441.72 632.75C1442 630.944 1442.05 629.109 1441.87 627.29C1441.5 620.73 1440.78 614.18 1440.64 607.62C1440.17 590.333 1437.27 573.197 1432.02 556.72C1431.75 556.145 1431.35 555.638 1430.86 555.235C1430.36 554.833 1429.79 554.544 1429.17 554.39C1416.43 551.92 1403.74 548.77 1390.87 547.51C1378.5 546.3 1365.94 547 1353.47 547.05C1322.7 547.15 1291.85 546.43 1261.29 550.78C1238.26 554.1 1214.99 555.478 1191.73 554.9C1181.27 554.62 1170.73 554.77 1160.32 555.03C1150.32 555.29 1139.93 557.89 1130.43 555.96C1116.33 553.11 1102.37 553.4 1088.27 552.96C1076.09 552.55 1064.43 548.53 1051.75 549.66C1036.4 551.02 1020.75 549.23 1005.26 549C1000.76 548.94 996.26 550 991.74 549.76C982.89 549.28 974.09 547.76 965.26 547.56C948.17 547.2 931.07 547.44 913.97 547.49C911.97 547.49 909.97 548.04 907.9 548.1C895.43 548.45 882.97 548.91 870.5 549.01C856.88 549.12 843.25 548.73 829.63 548.86C820.29 548.95 810.95 550.06 801.63 549.86C785.93 549.46 770.25 548.2 754.56 547.57C744.1 547.15 733.63 547.26 723.16 547C715.89 546.81 708.6 545.94 701.35 546.17C685.24 546.68 669.15 548.26 653.04 548.36C626.63 548.53 600.21 547.3 573.81 547.74C550.88 548.12 527.97 549.96 505.06 551.25C497.26 551.68 489.13 550.33 482.06 555.25C481.42 555.7 480.27 555.37 479.38 555.53C468.29 557.48 457.2 559.46 447.54 561.17C447.54 571.67 447.76 580.92 447.49 590.17C447.16 601.08 446.41 611.97 445.84 622.87C444.97 639.25 449.74 653.87 459.68 666.87C461.4 669.12 464.19 672.32 460.07 674.12C458.07 675.02 453.55 673.78 452.07 671.97C448.679 667.396 445.808 662.459 443.51 657.25C433.83 636.87 437.37 615.1 438.18 593.9C438.57 583.65 439.6 573.7 436.91 563.79C416.16 561.88 410.15 562.91 406.52 568.91C412.98 571.8 412.86 571.75 410.14 578.27C409.615 579.981 409.615 581.809 410.14 583.52C415.57 603.92 423.14 623.82 423.42 645.36C423.42 649.05 426.47 653.77 420.81 654.85C415.15 655.93 416.46 649.67 414.63 646.72C414.32 646.2 414.57 645.36 414.46 644.72C412.63 633.07 411.3 621.31 408.79 609.81C406.47 599.24 402.87 588.95 399.37 576.91C397.51 582.5 397.01 587.82 394.28 591.49C384.9 604.09 385.45 619.49 381.59 633.54C377.84 647.23 375.42 661.29 371.87 675.04C368.81 686.87 364.47 698.37 361.66 710.24C359.32 720.15 358.15 730.37 356.88 740.5C355.61 750.63 353.83 760.8 354.21 770.88C354.56 780.19 357.44 789.42 359.21 798.67C364.35 824.8 369.39 850.95 374.73 877.05C376.6 886.18 377.81 895.85 381.88 904.05C386.12 912.54 393.44 919.5 398.8 926.34C404.36 921.39 409.44 916.84 414.55 912.34C421.73 906.02 429.01 899.82 436.06 893.34C437.44 892.07 438.85 889.85 438.78 888.13C438.36 877.55 437.52 866.99 436.78 856.44C430.78 855.92 424.32 855.72 418.03 854.73C411.74 853.74 405.74 851.92 399.59 850.52C396.885 850 394.385 848.719 392.384 846.827C390.382 844.935 388.962 842.511 388.29 839.84C386.7 834.12 389.44 829.12 394.04 826.23C398.64 823.34 403.9 821.72 409.04 820.1C416.94 817.62 418.09 816.1 416.73 809.01C408.63 807.01 400.91 805.37 393.43 803.01C391.86 802.51 391.17 799.24 390.07 797.25C392.41 796.77 394.8 795.72 397.07 795.92C402.89 796.45 408.67 798.17 414.44 798.08C416.52 798.08 419.1 794.5 420.32 792C420.79 791 418.44 788.12 416.81 786.81C411.31 782.41 405.39 778.52 400.01 773.98C398.85 772.98 399.32 770.09 399.01 768.08C401.22 768.19 403.94 767.52 405.53 768.56C411.92 772.77 417.96 777.56 424.06 782.01C428.88 777.01 427.6 774.92 422.59 768.01C416.69 759.87 410.59 751.06 407.92 741.59C404.57 729.77 404.72 716.97 403.13 704.59C401.65 693.14 410.46 687.08 415.95 679.27C422.61 669.81 444.56 666.59 454.95 678.55C461.11 685.65 467.47 692.55 473.05 700.15C478.63 707.75 481.53 716.15 478.96 725.68C475.72 737.68 472.54 749.8 469.29 761.85C468.44 764.98 467.79 767.85 472.44 768.24C476.06 768.57 479.67 769.03 484.61 769.57C486.01 767.99 488.1 764.92 490.86 762.68C492.94 760.99 495.86 760.37 498.41 759.27C498.19 761.94 498.81 765.14 497.55 767.15C494.84 771.5 491.15 775.24 487.88 779.21C491.77 784.12 495.23 786.1 499.76 780.74C500.94 779.34 503.76 777.89 505.16 778.35C510.59 780.11 512.7 776.17 515.82 773.43C517.82 771.72 520.5 769.92 522.82 769.97C524.51 769.97 526.13 773.03 527.82 774.72C523.58 777.93 518.87 784.25 515.19 783.72C507.91 782.63 506.51 788.72 501.69 790.19C506.63 796.29 511.42 801.73 515.69 807.58C519.06 812.25 523.87 811.76 528.03 810.9C529.88 810.53 531.27 806.32 532.22 803.63C533.055 801.262 533.352 798.737 533.09 796.24C529.16 764.48 539.72 734.06 541.57 702.85C542.44 688.13 544.24 673.44 544.45 658.72C544.71 641.64 543.6 624.54 543.3 607.45C543.306 604.305 543.861 601.184 544.94 598.23C545.341 597.477 545.923 596.836 546.633 596.365C547.344 595.893 548.161 595.606 549.01 595.53C550.34 595.62 552.07 597.33 552.73 598.75C558.59 611.28 564.49 623.75 569.88 636.53C574.151 646.237 577.864 656.18 581 666.31C583.14 673.65 583.55 674.15 591.05 672.97C609.2 670.13 627.39 667.23 645.67 665.63C659.67 664.4 673.97 665.63 686.91 658.19C688.019 657.647 689.224 657.328 690.456 657.253C691.688 657.177 692.923 657.346 694.09 657.75C698.89 659.69 700.18 657.15 701.26 653.47C701.936 650.606 702.866 647.808 704.04 645.11C712.94 627.23 721.89 609.37 731.15 591.68C731.95 590.14 735.67 588.5 736.96 589.13C741.4 591.27 745.32 593.96 746.14 599.96C747.58 610.5 750.04 620.9 751.92 631.4C752.459 634.777 752.793 638.183 752.92 641.6C753.92 659.77 754.84 677.96 755.92 696.13C756.5 705.86 759.21 708.33 769.03 709.69C771.82 710.07 774.46 711.63 775.82 712.15C779.39 711.15 781.92 709.71 784.4 709.79C808.79 710.58 833.17 711.92 857.57 712.41C867.1 712.6 876.38 718.05 886.21 713.65C887.56 713.04 889.98 714.77 891.9 715.46C893.57 716.05 895.22 717.23 896.9 717.23C918.15 717.23 939.41 717.43 960.66 717C980.27 716.61 999.87 715.44 1019.48 714.89C1025.61 714.71 1031.85 716.25 1037.87 715.53C1046.51 714.53 1054.62 713.46 1062.82 718.15C1065.74 719.82 1070.38 718.54 1074.24 718.51C1075.81 718.51 1077.66 717.67 1078.89 718.25C1080.71 719.12 1082.1 720.92 1083.67 722.32C1082.39 723.67 1081.28 725.93 1079.79 726.21C1073.42 727.43 1066.93 728.07 1061.45 728.79C1063.6 732.27 1066.59 736.48 1068.92 741.04C1073.48 749.93 1076.34 759.04 1072.92 769.29C1069.74 778.76 1067.4 788.52 1064.52 798.1C1059.27 815.49 1054.2 832.94 1048.44 850.16C1045.44 859.16 1039.66 867.41 1037.69 876.55C1033.63 895.32 1031.3 914.46 1028.31 933.13C1039.15 938.01 1048.98 943.87 1060.88 940.96C1066.88 939.5 1072.88 938.18 1078.88 936.96C1081.74 936.38 1084.79 935.45 1087.56 935.89C1100.29 937.95 1112.9 940.59 1125.21 933.89C1126.52 933.18 1129.55 934.23 1130.83 935.45C1131.52 936.11 1130.67 940.12 1129.68 940.5C1123.28 942.99 1116.75 946.17 1110.07 946.69C1100.46 947.43 1090.35 944.32 1081.07 946.04C1065.47 948.93 1050.34 954.46 1034.96 946.04C1042.62 957.04 1050.51 967.2 1057.13 978.16C1062.46 986.99 1066.5 996.65 1070.49 1006.16C1071.17 1007.77 1068.73 1010.68 1067.74 1013C1065.96 1011.69 1063.47 1010.77 1062.56 1009C1060.32 1004.7 1059.24 999.8 1056.92 995.57C1053.78 989.87 1049.92 984.57 1046.35 979.1C1038.62 967.31 1030.86 955.55 1023 943.58C1013.17 950.11 1003.85 947.81 996.68 942.14C992.96 939.2 990.12 938.39 986.2 938.46C964.31 938.88 942.43 939.52 920.54 939.65C915.25 939.65 911.94 941.18 909.86 946.04C904.59 958.38 898.72 970.49 893.86 983.04C889.23 995.04 885.52 1007.42 881.71 1019.73C881.3 1021.07 882.62 1024.25 883.71 1024.55C892.33 1026.96 900.61 1030.89 910.23 1027.91C915.23 1026.37 920.96 1027.29 926.37 1027.19C933.44 1027.07 940.57 1027.56 947.57 1026.81C954.78 1026.04 961.5 1024.56 969.02 1027.02C974.57 1028.84 981.28 1027.25 987.45 1026.96C993.03 1026.7 998.58 1026.02 1004.16 1025.78C1006.83 1025.67 1010.4 1027.35 1012.05 1026.15C1017.84 1021.93 1023.76 1023.65 1029.85 1024.15C1032.43 1024.35 1035.61 1024.15 1037.62 1022.85C1042.26 1019.77 1046.45 1020.73 1051.29 1022.02C1054.46 1022.86 1058.96 1023.02 1061.43 1021.32C1067.03 1017.54 1072.09 1017 1078.43 1021.32C1086.69 971.51 1115.7 942.7 1164.95 934.26C1162.1 930.73 1159.95 927.92 1157.63 925.26C1151.63 918.26 1151.41 910.05 1151.75 901.41C1152.15 891.33 1151.75 881.21 1151.69 871.1C1151.69 866.65 1151.69 862.2 1151.69 857.51C1148.64 857.91 1145.93 858.68 1143.26 858.51C1123.67 857.51 1104.06 856.61 1084.52 854.93C1081.52 854.66 1077.58 851.17 1076.15 848.17C1072.49 840.54 1077.71 828.58 1085.04 824.17C1091.11 820.5 1096.73 816.07 1102.59 811.96C1097.21 810.34 1091.99 809.71 1087.93 807.21C1085.3 805.59 1083.1 801.26 1083.01 798.08C1082.92 794.53 1087.44 792.94 1089.26 796.08C1093.45 803.39 1099.33 801.42 1107.55 800.77C1104.96 797.86 1103.78 795.59 1101.92 794.62C1096.87 792 1091.25 790.41 1086.41 787.5C1081.2 784.37 1075.85 780.6 1075.96 773.5C1075.96 771.78 1078.17 770.09 1079.37 768.39C1080.86 769.47 1083.03 770.23 1083.73 771.69C1088.33 781.34 1096.35 785.21 1105.83 786.37L1112.25 774.07C1111.05 772.67 1109.72 771.15 1108.4 769.61C1095.73 754.92 1089.18 737.68 1089.45 718.49C1089.56 711.19 1091.24 702.23 1095.7 697.01C1107.47 683.23 1132.04 681.09 1147.21 691.01C1150.37 693.172 1152.88 696.17 1154.44 699.67C1157.87 707.68 1160.47 716.14 1163.42 724.45H1163.44ZM1651.35 1105.17C1651.23 1103.54 1651.21 1102.23 1651.03 1100.94C1650.03 1093.77 1648.03 1086.6 1648.12 1079.45C1648.19 1066.29 1649.59 1053.15 1650.12 1039.99C1650.1 1036.6 1649.48 1033.24 1648.3 1030.06C1642.24 1011.85 1637.48 993.55 1638.13 974C1638.43 965.07 1638.38 954.79 1634.28 947.49C1631.46 942.651 1629.93 937.169 1629.84 931.57C1629.63 926.67 1627.84 921.86 1626.94 916.97C1623.17 895.97 1619.54 874.97 1615.76 854.03C1614.08 844.67 1612.49 835.28 1610.25 826.03C1608.51 818.89 1605.83 811.98 1603.16 803.71C1599.92 820.94 1597.25 836.71 1593.93 852.38C1591.57 863.44 1587.82 874.21 1585.62 885.29C1582.92 898.85 1580.62 912.55 1579.17 926.29C1577.66 940.4 1570.73 955.37 1583.72 968C1583.87 968.14 1583.83 968.45 1583.95 968.64C1588.67 976.49 1592.38 985.26 1598.4 991.94C1605.58 999.94 1614.71 1006.14 1623.05 1013.05C1628.67 1017.71 1635.05 1021.88 1635.38 1030.17C1635.48 1032.66 1634.38 1035.17 1633.82 1037.72C1631.57 1035.93 1628.94 1034.46 1627.15 1032.29C1623.96 1028.43 1621.74 1023.69 1618.27 1020.15C1612.77 1014.53 1606.58 1009.59 1600.66 1004.39C1599.88 1003.58 1598.93 1002.94 1597.88 1002.53C1592.08 1001.04 1589.66 996.63 1587.75 991.53C1587.08 989.72 1585.63 988.2 1584.54 986.53C1579.01 978.17 1573.37 969.87 1568.05 961.38C1567.2 960.03 1567.45 957.78 1567.65 956C1569.16 942.72 1569.85 929.26 1572.65 916.25C1576 900.6 1576.46 884.64 1581.42 869C1587.7 849.23 1590.16 828.18 1593.42 807.55C1594.35 801.66 1595.21 798.04 1602.6 799.84C1601.18 788.9 1600.24 778.74 1598.47 768.72C1595.76 753.35 1592.3 738.11 1589.47 722.72C1587.78 713.45 1585.47 704 1585.84 694.72C1586.11 687.66 1584.78 681.46 1582.92 674.97C1581.79 670.574 1580.99 666.102 1580.51 661.59C1579.51 653.77 1579.43 645.72 1577.51 638.12C1574.42 625.61 1569.26 613.56 1566.69 600.97C1564.01 588.069 1558.38 575.961 1550.25 565.59C1546.25 560.36 1543.25 554.78 1535.13 552.35C1521.73 548.35 1510.85 555.73 1498.13 555.59C1498.13 560.51 1498.54 564.65 1498.06 568.68C1495.94 586.49 1493.82 604.31 1491.17 622.05C1489.97 630.05 1487.57 637.94 1485.66 645.86C1484.35 651.3 1482.25 656.64 1481.74 662.14C1480.74 673.22 1480.82 684.4 1479.96 695.5C1479.31 703.82 1477.82 712.08 1476.8 720.38C1475.6 730.03 1475.31 739.89 1473.12 749.3C1471.17 757.902 1468.02 766.187 1463.76 773.91C1460.42 779.85 1454.57 784.38 1448.87 790.58C1453.81 792.79 1457.16 794.04 1460.28 795.72C1470.65 801.29 1482.28 805.91 1484.28 819.62C1486.48 834.44 1489.7 849.36 1489.53 864.2C1489.39 876.5 1495.06 882.2 1504.73 886.01C1513.27 889.42 1521.04 893.65 1527.73 900.24C1533.46 905.92 1542.4 904.73 1545.36 898.16C1547.17 893.787 1548.4 889.194 1549.01 884.5C1550.21 876.89 1550.88 869.19 1551.72 861.5C1553.09 849.12 1554.28 836.71 1555.83 824.34C1556.53 818.081 1557.67 811.879 1559.24 805.78C1563.33 790.89 1569.06 776.33 1571.9 761.22C1574.98 744.88 1575.4 728.05 1577.33 711.47C1577.58 709.34 1579.92 707.47 1581.33 705.47C1582.7 707.47 1585.25 709.47 1585.27 711.47C1585.36 722.31 1587.27 733.47 1581.15 743.59C1580.41 744.81 1580.47 746.73 1580.64 748.27C1582.35 763.22 1576.98 776.98 1573.44 791.02C1570.89 801.13 1567.22 810.97 1564.92 821.12C1563.53 827.25 1564.08 833.79 1563.27 840.12C1561.42 854.49 1558.07 868.79 1557.62 883.19C1557.24 895.6 1552.72 904.99 1544.5 913.44C1541.8 916.22 1539.5 916.79 1536.3 914.12C1534.47 912.62 1531.86 912.12 1529.6 911.12C1527.12 910.12 1523.6 909.73 1522.3 907.86C1514 896.28 1499.45 895.76 1487.72 886.32C1488.09 899.79 1490.14 911.83 1481 921.56C1483.94 923.25 1486 925.43 1488.23 925.56C1495.33 925.93 1498.66 930.28 1501.23 936.02C1501.84 936.977 1502.57 937.854 1503.4 938.63C1514.28 952.13 1527.68 963.53 1533.34 981.11C1537.74 994.77 1545.34 1007.38 1550.34 1020.88C1553.12 1028.39 1554 1036.72 1554.93 1044.78C1556.62 1059.37 1559.04 1074.07 1558.49 1088.63C1558.24 1095.09 1559.24 1101.55 1561.44 1107.63L1651.35 1105.17ZM328.35 1127.27C337.88 1146.89 367.04 1160.09 388.82 1156.13C396.56 1154.72 404.55 1154.7 412.42 1154.06C417.84 1153.62 423.35 1153.69 428.66 1152.68C445.16 1149.54 461.59 1148.57 478.21 1151.8C489.56 1154.01 500.97 1156 512.43 1157.52C519.639 1158.39 526.899 1158.78 534.16 1158.67C542.07 1158.67 549.99 1158.13 557.88 1157.46C561.48 1157.15 564.98 1155.38 568.56 1155.23C586.12 1154.49 603.7 1153.43 621.25 1153.7C638.8 1153.97 656.25 1155.7 673.75 1156.8C678.31 1157.1 682.99 1156.97 687.37 1158.06C705.64 1162.61 724.18 1160.65 742.63 1160.76C745.28 1160.76 747.92 1159.44 750.63 1158.86C756.63 1157.57 762.53 1155.5 768.54 1155.29C786.77 1154.64 804.75 1152.43 822.85 1150.36C850.85 1147.15 879.37 1141.92 907.8 1148.36C923.05 1151.83 938.5 1154.79 953.41 1159.41C969.23 1164.33 984.97 1167.98 1001.67 1167.7C1015.58 1167.48 1029.53 1168.81 1043.44 1168.54C1061.22 1168.19 1079.55 1172.9 1096.52 1163.54C1097.4 1163.28 1098.32 1163.2 1099.23 1163.3C1138.6 1161.47 1177.96 1159.5 1217.34 1157.88C1230.74 1157.33 1244.25 1156.81 1257.6 1157.77C1280.51 1159.4 1303.28 1163.37 1326.2 1164.26C1365.83 1165.82 1405.53 1165.66 1445.2 1166.44C1473.87 1167.01 1502.53 1167.93 1531.2 1168.69C1534.62 1168.78 1538.08 1169.26 1541.44 1168.86C1557.94 1166.86 1574.56 1165.45 1590.85 1162.3C1602.77 1159.99 1614.1 1154.73 1625.96 1151.9C1634.27 1149.9 1640.06 1145.9 1643.12 1138.17C1646.46 1129.71 1652.94 1122.17 1651.37 1113.41C1639.11 1114.16 1627.37 1115.1 1615.68 1115.54C1601.33 1116.07 1586.95 1116.02 1572.6 1116.54C1567.48 1116.74 1561.53 1116 1559.6 1123.3C1559.33 1124.3 1554.6 1125.53 1553.78 1124.73C1547.95 1119.18 1542.28 1123.91 1536.57 1124.37C1534.19 1124.57 1530.36 1125.29 1529.57 1124.16C1526.57 1119.7 1522.49 1120.75 1518.57 1120.77C1508.97 1120.77 1499.37 1121.02 1489.78 1121.17C1481.14 1121.31 1472.5 1121.53 1463.86 1121.57C1459.6 1121.57 1455.34 1121.27 1451.08 1121.14C1440.08 1120.8 1429.13 1120.14 1418.17 1120.32C1414.27 1120.39 1408.17 1121.4 1406.96 1123.9C1403.74 1130.35 1398.69 1133.3 1394.42 1128.07C1388.29 1120.55 1381.84 1123.19 1374.77 1125.24C1369.12 1126.8 1363.4 1128.06 1357.62 1129.03C1354.05 1129.68 1350.12 1129.03 1346.79 1130.21C1334.25 1134.62 1320.86 1133.66 1307.98 1136.09C1293.73 1138.77 1277.5 1138.71 1263.29 1130.74C1260.91 1129.41 1257.54 1129.59 1254.62 1129.56C1229.41 1129.25 1204.2 1129.05 1178.99 1128.8C1177.85 1128.85 1176.71 1128.69 1175.63 1128.33C1163.55 1123.42 1150.97 1124.46 1138.43 1125.1C1127.63 1125.66 1116.83 1126.52 1106.01 1126.85C1096.34 1127.15 1086.66 1126.91 1077.01 1126.91L1078.12 1128.91C1076.73 1131.01 1075.52 1134.7 1073.91 1134.91C1070.33 1135.32 1066.91 1133.97 1067.31 1128.71C1067.41 1127.24 1064.77 1125.11 1062.94 1124.12C1060.39 1122.75 1057.44 1122.12 1054.63 1121.28C1052.15 1120.55 1049.48 1119.11 1047.13 1119.49C1036.82 1121.14 1026.59 1123.28 1016.35 1125.34C1011.27 1126.34 1006.23 1128.47 1001.16 1128.49C996.25 1128.49 991.37 1125.81 986.4 1125.49C970.48 1124.49 954.53 1123.49 938.58 1123.34C923.35 1123.19 908.1 1124.04 892.86 1124.53C879.02 1124.98 865.15 1125.24 851.35 1126.27C847.54 1126.55 844 1129.56 840.16 1130.76C838.44 1131.29 834.66 1130.69 834.59 1130.18C833.92 1125.88 830.93 1126.26 827.95 1126.18C815.2 1125.75 802.45 1125.08 789.69 1124.88C785.69 1124.81 781.57 1125.95 777.51 1126.47C774.13 1126.9 770.73 1127.6 767.36 1127.53C763.3 1127.44 759.26 1126.23 755.22 1126.27C747.22 1126.35 739.28 1127.27 731.32 1127.27C716.5 1127.19 701.68 1126.5 686.86 1126.35C669.55 1126.17 652.24 1126.07 634.94 1126.35C612.82 1126.73 590.71 1127.53 568.6 1128.14C565.91 1128.21 563.21 1128.35 560.53 1128.14C556.17 1127.86 551.82 1126.96 547.46 1126.99C532.25 1127.09 517.03 1127.92 501.83 1127.62C489.36 1127.38 476.92 1125.35 464.46 1125.18C454.73 1125.04 444.98 1126.5 435.25 1127.29C429.8 1127.74 424.35 1128.29 418.9 1128.73C417.767 1128.72 416.638 1128.58 415.54 1128.3C411.81 1127.63 408.1 1126.39 404.36 1126.3C384.71 1126.1 365.05 1126.14 345.36 1126.3C340 1126.38 334.56 1126.92 328.37 1127.27H328.35ZM601 978.9C598.49 980.749 595.879 982.458 593.18 984.02C586.79 987.26 580.51 992.02 573.75 992.94C563.29 994.37 552.33 992.22 542.67 998.43C542 998.86 540.87 998.53 539.96 998.65C529.58 1000.03 518.96 1000.41 508.91 1003.09C498.86 1005.77 487.59 1008.55 480.68 1015.25C472.01 1023.65 466.96 1035.92 460.89 1046.82C454.13 1058.97 452.58 1072.74 451.04 1086.19C449.84 1096.64 450.8 1107.33 450.8 1116.8C463.65 1116.8 474.95 1116.43 486.2 1116.93C494.13 1117.28 501.99 1119.65 509.89 1119.68C532.1 1119.77 554.31 1119.22 576.51 1118.68C594.75 1118.26 612.99 1117.11 631.23 1117.1C657.65 1117.1 684.07 1117.77 710.49 1118.17C729.49 1118.45 748.59 1118.78 767.64 1119C769.453 1118.87 771.249 1118.57 773 1118.08C789.347 1114.92 806.094 1114.38 822.61 1116.49C825.85 1116.88 829.17 1116.55 832.76 1116.55C831.25 1108.28 828.94 1100.74 828.67 1093.12C828.09 1076.74 829.27 1060.26 825.03 1044.17C822.56 1034.79 820.48 1025.26 817.14 1016.17C815.91 1012.82 812.02 1009.41 808.55 1008.11C796.9 1003.73 785.11 999.23 772.96 996.74C755.87 993.24 738.36 991.83 721.15 988.82C714.63 987.68 708.4 984.73 702.15 982.29C698.57 980.89 695.23 978.85 690.89 976.64C689.89 982.33 689.48 986.64 688.28 990.7C687.5 993.31 686.06 996.91 684.02 997.7C681.61 998.6 677.56 997.81 675.41 996.18C670.32 992.32 665.93 987.54 660.79 982.68C659.87 986.18 659.36 990.03 657.79 993.41C656.61 996.02 654.14 998.04 652.25 1000.32C650.15 998.52 647.43 997.11 646.06 994.87C640.96 986.57 640.17 986.39 634.31 993.87C633.532 994.998 632.544 995.966 631.4 996.72C629.17 997.98 626.04 1000.36 624.59 999.64C622.17 998.42 620.18 995.39 619.12 992.64C618.23 990.39 618.94 987.52 618.94 984.57C607.29 988.79 607.29 988.79 601 978.9ZM1206.9 809.21C1208.73 809.33 1210.29 809.53 1211.85 809.53C1220.97 809.53 1230.26 808.24 1239.15 809.62C1252.25 811.62 1266.15 809.62 1278.39 816.37C1278.75 816.56 1279.31 816.37 1279.75 816.45L1300.39 820.87C1304.39 821.72 1308.46 822.18 1312.28 823.47C1320.18 826.15 1328.62 828.16 1335.55 832.47C1342.48 836.78 1348.25 843.15 1346.55 852.94C1346.46 854.717 1347.04 856.463 1348.18 857.83C1353.93 864.97 1352.33 878.59 1344.24 882.97C1336.66 887.07 1328.88 891.84 1319.38 889.37C1317.81 889.132 1316.2 889.159 1314.64 889.45C1296.51 891.1 1278.41 893.1 1260.25 894.33C1250.15 895.02 1239.96 894.46 1227.66 894.46L1265.21 932.61C1266.21 932.23 1266.87 932.02 1267.48 931.76C1275.22 928.48 1276.7 929.41 1276.69 937.52V953.2C1283.02 951.14 1284.99 954.04 1285.56 959.78C1286.28 965.394 1287.47 970.939 1289.1 976.36C1289.54 977.99 1291.21 979.29 1292.32 980.75C1293.86 979.697 1295.32 978.527 1296.68 977.25C1297.57 976.25 1297.94 974.85 1298.59 973.64C1304.08 963.38 1307.59 962.98 1314.68 971.9C1315.12 971.138 1315.63 970.424 1316.22 969.77C1318.31 967.88 1320.48 966.09 1322.62 964.25C1324.33 966.432 1325.89 968.724 1327.29 971.11C1329 974.43 1330.29 977.99 1331.7 981.45L1333.81 981.22C1335.62 969.52 1337.44 957.82 1338.93 948.22C1336.33 944.92 1333.6 942.96 1333.75 941.22C1333.92 939.17 1336.29 937 1338.18 935.46C1340.07 933.92 1342.86 933.46 1344.69 931.91C1357.6 920.76 1370.82 910.18 1386.78 903.43C1393.78 900.43 1400.39 896.43 1406.99 892.61C1407.85 892.094 1408.59 891.409 1409.17 890.598C1409.76 889.787 1410.17 888.866 1410.39 887.89C1411.24 879.8 1411.96 871.65 1412.01 863.53C1412.01 856.04 1410.95 848.53 1410.79 841.06C1410.56 830.62 1410.73 820.18 1410.73 809.44C1408.73 809.24 1407.18 808.78 1405.73 808.96C1388.25 811.11 1382.84 795.78 1373.23 786.55C1372.86 785.952 1372.71 785.246 1372.8 784.55C1372.8 773.19 1371 761.4 1376.13 750.85C1382.13 738.49 1389.13 726.55 1404.8 723.96C1406.43 723.69 1408.64 720.34 1408.72 718.35C1409.29 707.979 1409.32 697.585 1408.81 687.21C1407.56 668.21 1405.59 649.28 1403.81 630.33C1403.13 622.83 1402.28 615.33 1401.51 607.87L1399.85 607.46C1397.97 611.94 1395.85 616.33 1394.28 620.93C1391.92 628 1390.77 635.58 1387.68 642.29C1382.28 654.04 1375.96 665.29 1374.35 678.5C1374.13 680.25 1371.92 682.84 1370.28 683.13C1364.75 684.148 1359.14 684.663 1353.52 684.67C1331.17 684.67 1308.82 683.98 1286.52 684.28C1273.35 684.46 1260.19 685.99 1247.02 686.95C1243.02 687.24 1240.4 686.24 1238.53 682C1230.11 662.86 1221.42 643.843 1212.46 624.95C1210.46 620.77 1207.28 617.18 1204.64 613.32L1202.89 613.59C1202.42 616.07 1201.37 618.59 1201.59 621.01C1202.33 629.34 1204.23 637.62 1204.39 645.95C1204.81 667.42 1204.54 688.95 1204.53 710.39C1204.53 725.47 1205.53 740.65 1204.22 755.61C1202.59 773.5 1202.07 791 1206.9 809.21ZM1046.3 725.05C1025.21 725.05 1003.82 724.92 982.42 725.05C952.29 725.27 922.15 725.77 892.01 726.05C885.01 726.11 877.92 727.18 875.6 734.4C871.73 746.4 866.9 758.9 866.76 771.23C866.56 788.97 869.45 806.88 872.45 824.47C874.77 838.05 878.67 851.47 883.04 864.56C885.96 873.33 888.59 882.09 895.71 889.56C902.98 897.22 905.83 908.31 904.28 919.56C903.45 925.56 906.64 928.56 911.74 929.91C914.85 930.673 918.049 931.01 921.25 930.91C944.02 930.48 966.78 929.83 989.55 929.45C992.66 929.45 995.79 930.45 998.92 930.96C1005.52 932.04 1012.12 933.09 1018.64 934.14C1021.39 921.03 1025.11 909.46 1025.99 897.67C1027.14 882.22 1029.99 867.67 1037.48 854C1039.7 850.089 1041.5 845.961 1042.87 841.68C1049.53 819.77 1056.1 797.82 1062.38 775.79C1064.1 769.74 1066.83 762.79 1065.38 757.29C1063.25 749.29 1057.88 742.05 1053.58 734.68C1051.59 731.3 1048.86 728.39 1046.3 725.05V725.05ZM1550.44 1112.5C1550.44 1102.5 1550.44 1094.63 1550.44 1086.71C1550.44 1086.26 1550.28 1085.82 1550.24 1085.37C1548.83 1071.19 1547.76 1056.98 1545.91 1042.86C1544.78 1035.29 1543.06 1027.82 1540.78 1020.51C1539.04 1015.11 1536.9 1009.84 1534.39 1004.75C1528.89 992.84 1524.13 980.45 1517.27 969.36C1511.27 959.61 1502.84 951.36 1495.37 942.49C1493.1 939.8 1490.59 935.42 1487.99 935.27C1479.99 934.81 1471.16 934.27 1463.85 936.94C1447.38 943.01 1429.69 945.02 1412.28 942.8C1405.97 942.05 1399.54 942.36 1393.21 941.8C1390.91 941.59 1388.73 940.22 1386.49 939.37C1388.18 937.31 1389.64 933.78 1391.6 933.48C1397.22 932.495 1402.95 932.4 1408.6 933.2C1427.52 936.41 1445.68 935.01 1463.29 926.93C1470.36 923.69 1480.23 909.21 1480.03 901.66C1479.86 895.21 1479.9 888.74 1480.18 882.3C1480.4 877.3 1481.91 872.3 1481.47 867.47C1480.12 852.86 1478.22 838.3 1476.28 823.75C1475.47 817.67 1472.8 812.62 1466.79 809.75C1459.5 806.29 1452.37 802.49 1447.14 799.84C1439.09 802.84 1432.45 804.9 1426.14 807.77C1423.44 809 1419.57 811.83 1419.52 814.01C1419.18 828.58 1420.06 843.17 1419.91 857.74C1419.78 869.98 1419.17 882.24 1417.91 894.41C1417.52 898.34 1414.35 901.17 1409.32 901.84C1405.27 902.38 1401.41 904.84 1397.66 906.84C1392.9 909.35 1388.58 912.84 1383.66 914.84C1371.54 919.69 1362.25 927.84 1352.66 938.63C1358.25 938.15 1362.08 937.55 1365.91 937.63C1369.3 937.5 1372.69 937.974 1375.91 939.03C1377.32 939.57 1378.23 942.62 1378.38 944.61C1378.44 945.4 1375.87 947.13 1374.46 947.17C1365.87 947.41 1357.26 947.29 1347.46 947.29C1346.46 954.6 1345.59 962.21 1344.52 969.79C1343.6 976.26 1346.92 977.87 1352.74 978.44C1364.51 979.58 1376.2 981.54 1387.94 983.04C1393.1 983.7 1398.3 983.97 1403.47 984.57C1408.64 985.17 1414.06 985.74 1419.26 986.81C1423.26 987.63 1426.96 989.81 1430.94 990.38C1444.94 992.33 1455.39 1001.38 1465.87 1009.26C1473.62 1015.07 1478.95 1024.26 1484.8 1032.4C1488.54 1037.52 1491.67 1043.05 1494.13 1048.89C1500.25 1063.72 1503.63 1079.15 1503.26 1095.37C1503.13 1100.89 1504.66 1106.44 1505.51 1112.55L1550.44 1112.5ZM873.19 722.94C863.96 722.11 856.27 721.17 848.55 720.79C838.55 720.29 828.41 720.74 818.41 719.88C806.41 718.88 794.58 717.08 783.14 722.41C792.57 752.62 795.37 758.22 778.04 785.36C802.49 788.61 813.48 798.82 816.41 822.36C817.857 834.783 818.644 847.274 818.77 859.78C818.91 867.88 817.13 876 817.07 884.11C816.96 897.68 813.18 909.61 802.81 920.11C806.28 922.32 809.37 924.48 812.63 926.33C818.17 929.47 824.97 931.33 829.21 935.66C842.97 949.77 852.84 966.43 854.68 986.5C855.83 999.08 861.36 1009.74 867.16 1021.41C871.31 1017.07 875.47 1012.73 877.44 1007.57C881.38 997.21 883.7 986.25 887.44 975.82C891.44 964.82 896.44 954.1 901.36 942.24C896.72 942.86 892.76 943.41 888.79 943.93C883.85 944.58 878.92 945.56 873.97 945.74C865.97 946.02 857.97 946.34 850.05 945.39C847.66 945.1 845.78 940.65 843.67 938.1C845.49 936.89 847.36 934.56 849.13 934.63C859.07 935.03 868.99 936.63 878.91 936.58C885.57 936.58 892.22 934.58 898.32 933.52C897.32 928.96 895.83 925.46 896.01 922.05C896.66 909.54 893.44 898.66 884.24 889.84C883.375 889.097 882.691 888.167 882.24 887.12C876.9 871.25 870.96 855.54 866.6 839.41C863.55 828.09 862.71 816.19 860.86 804.55C858.48 789.55 855.93 774.55 860.18 759.55C863.61 747.56 863.36 734.25 873.19 722.94ZM1226.57 911.72C1226.83 911.19 1227.57 910.43 1227.45 909.81C1226.17 902.38 1213.56 890.55 1205.9 889.02C1200.55 888.051 1195.29 886.657 1190.17 884.85C1177.97 880.3 1175.51 873.96 1180.75 862.08C1182.86 857.3 1181.09 854.33 1176 854.86C1170.23 855.45 1164.52 856.64 1160.63 857.28C1160.63 862.18 1160.91 866.47 1160.57 870.7C1160.04 877.22 1158.67 883.7 1158.48 890.22C1158.35 894.69 1159.98 899.22 1160.16 903.69C1160.73 918.1 1166.34 925.21 1180.47 928.83C1184.65 929.9 1189.76 929.91 1192.78 932.41C1202.32 940.33 1212.26 938.9 1223.04 936.41C1228.68 935.11 1234.85 935.56 1240.72 936.04C1242.44 936.18 1243.93 939.12 1245.53 940.79C1243.77 941.84 1242.11 943.54 1240.23 943.79C1232.13 945.04 1223.98 945.9 1215.84 946.86C1207.31 947.86 1199.29 947.64 1191.84 941.86C1184.21 935.97 1177.23 936.42 1169.32 941.62C1168.04 942.57 1166.57 943.25 1165.02 943.62C1151.34 945.88 1138.94 950 1126.65 957.62C1111.31 967.1 1100.53 979.23 1095.08 995.42C1088.65 1014.52 1084.38 1034.35 1079.39 1053.92C1078.37 1058.34 1077.75 1062.85 1077.53 1067.38C1076.73 1078.49 1076.24 1089.61 1075.53 1100.72C1075.29 1104.21 1071.98 1107.97 1077.53 1110.56C1080.85 1112.1 1083.53 1116.31 1086.7 1116.63C1095.45 1117.5 1104.34 1116.93 1113.98 1116.93C1113.59 1113.69 1113.35 1111.75 1113.13 1109.82C1112.31 1102.82 1110.19 1095.72 1110.97 1088.93C1112.44 1076.18 1115.69 1063.65 1117.97 1050.99C1119.36 1043.34 1121.35 1036.31 1126.12 1029.68C1134.38 1018.23 1146.2 1011.42 1157.12 1003.49C1163.32 999 1169.95 994.71 1177.02 991.93C1188.96 987.24 1201.33 983.58 1213.67 979.99C1218.44 978.6 1223.67 978.73 1228.59 977.85C1231.39 977.403 1234.11 976.537 1236.66 975.28C1241.24 972.88 1245.26 969.01 1250.07 967.52C1265.46 962.76 1267.81 960.25 1267.99 945.58C1264.2 942.85 1259.81 941.06 1257.56 937.8C1249.61 926.34 1238.57 918.74 1226.57 911.72V911.72ZM1494.81 1108.85C1494.81 1100.95 1495.64 1093.85 1494.64 1087.02C1492.56 1072.68 1490.64 1058.1 1482.43 1045.55C1472.43 1030.27 1462.23 1015.05 1445.51 1006.04C1441.38 1003.8 1437.09 1001.85 1432.69 1000.21C1427.8 998.4 1422.69 997.1 1417.69 995.61C1414.69 994.69 1411.69 993.33 1408.55 993.01C1386.47 990.75 1364.37 988.7 1341.28 986.49C1339.47 988.83 1340.16 996.98 1333.08 994.75C1328.84 993.42 1325.66 988.75 1323.23 986.59C1320.16 987.68 1316.42 990.39 1314.29 989.45C1310.96 987.97 1308.72 984.03 1305.99 981.09C1297.72 992.34 1294.99 994.43 1289.86 990.54C1284.73 986.65 1281.18 980.74 1277.18 976C1276 976.5 1273.18 978.82 1271.25 978.21C1269.01 977.49 1267.6 974.21 1265.8 972.01C1259.1 974.76 1251.98 977.46 1245.07 980.63C1241.49 982.27 1238.23 986.57 1234.91 986.49C1225.09 986.23 1216.21 989.13 1206.91 991.49C1191.49 995.49 1176.83 1000.88 1163.63 1009.85C1146.23 1021.67 1128.5 1033.06 1125.55 1056.85C1124.05 1068.95 1120.13 1080.85 1119.3 1092.9C1118.58 1101.63 1121.35 1110.29 1127 1116.98C1129.94 1113.42 1133.17 1111.04 1134.3 1107.89C1139.3 1093.95 1146.3 1081.68 1159.49 1073.89C1162.37 1072.19 1165.01 1070.06 1167.87 1068.06C1158.68 1064.01 1156.63 1062.69 1158.47 1056.17C1161.06 1047 1164.59 1037.64 1169.85 1029.79C1177.09 1018.99 1188.46 1013.53 1201.48 1011.3C1208.09 1010.16 1214.48 1006.19 1219.89 1012.97C1222.21 1011.46 1224.65 1008.78 1225.89 1009.25C1232.78 1011.91 1237.58 1007.12 1243.08 1005.14C1249.22 1002.93 1254.52 1003.27 1259.44 1008.03C1264.36 1012.79 1265.5 1018.2 1261.77 1023.88C1298.56 1016.76 1334.62 1019.52 1369.77 1029.43C1371.24 1024.83 1371.87 1021.13 1373.53 1017.99C1379.43 1006.88 1387.17 1006.16 1396.35 1014.61C1400.02 1017.99 1405.04 1020.98 1409.86 1021.84C1421.69 1023.97 1428.43 1036.25 1440.92 1036.56C1441.62 1036.56 1442.29 1037.68 1442.92 1038.29C1446.48 1041.49 1450.53 1044.29 1453.48 1047.98C1458.72 1054.52 1465.28 1060.46 1462.3 1070.85C1461.45 1073.85 1464.6 1080.15 1467.53 1081.54C1478.12 1086.54 1484.31 1095.1 1489.92 1104.61C1491.05 1106.31 1493.08 1107.36 1494.81 1108.85V1108.85ZM1286.41 849.85C1286.41 850.12 1286.48 850.38 1286.52 850.65C1298.08 849.65 1309.64 848.43 1321.23 847.73C1323.9 847.58 1326.67 849.19 1329.4 849.99C1327.4 851.99 1325.68 855.49 1323.5 855.78C1309.5 857.61 1295.5 860.18 1281.5 859.78C1259.19 859.11 1236.97 855.57 1214.66 854.78C1206.07 854.47 1195.19 851.44 1189.8 863.78C1186.92 870.35 1185.99 873.28 1192.63 875.53C1203.27 879.13 1214.27 882.26 1225.36 883.8C1252.42 887.55 1279.68 886.25 1306.43 881.72C1316.13 880.08 1326.56 883.56 1335.88 876.92C1342.21 872.41 1344.27 867.54 1339.08 861.81C1337.92 860.53 1336.37 858.21 1336.82 857.1C1338.97 851.81 1338.82 847.38 1333.94 843.76C1329.94 840.76 1326.42 836.69 1321.94 835.2C1312.94 832.2 1303.49 830.62 1294.2 828.52C1290.02 827.58 1285.73 827.02 1281.6 825.89C1268.28 822.26 1254.92 819.34 1240.94 819.67C1234.19 819.83 1227.42 818.18 1220.65 818.07C1212.93 817.94 1205.16 819.2 1197.46 818.77C1191.53 818.44 1185.87 817.21 1180.63 812.69C1176.15 808.82 1173.09 800.78 1164.46 803.2C1164.26 803.26 1162.33 799.75 1162.58 798.12C1162.83 796.49 1164.75 794.9 1166.17 792.98L1160.8 787.93C1158.96 790.63 1157.85 793.44 1155.8 794.93C1153.97 796.24 1151.07 796.07 1148.64 796.55C1148.4 794.55 1147.39 792.15 1148.1 790.55C1149.42 787.55 1151.74 785.03 1153.48 782.55C1148.11 778.22 1143.19 773.94 1137.9 770.18C1135.95 769.049 1133.67 768.628 1131.45 768.99C1125.45 769.84 1115.86 780.41 1115.81 786.36C1115.81 788.04 1117.81 789.9 1119.19 791.36C1120.57 792.82 1123.63 807.31 1122.65 808.86C1122.44 809.264 1122.14 809.621 1121.79 809.91C1116.95 813.18 1111.84 816.11 1107.28 819.74C1099.92 825.58 1092.49 831.46 1085.92 838.14C1081.92 842.14 1083.38 845.3 1088.83 845.72C1107 847.1 1125.19 848.41 1143.39 849.09C1149.39 849.32 1155.39 846.98 1161.39 846.85C1170.29 846.67 1179.22 847.43 1188.14 847.72C1189.48 847.649 1190.82 847.482 1192.14 847.22C1197.97 846.52 1203.83 845.1 1209.64 845.28C1221.12 845.64 1232.58 847.53 1244.05 847.59C1257.64 847.65 1271.22 845.38 1284.87 847.59C1287.61 848.04 1290.64 846.59 1293.55 846.15C1295.98 845.76 1298.42 845.49 1300.86 845.15C1300.86 845.54 1300.97 845.93 1301.02 846.32L1286.41 849.85ZM430.3 796.44L427.92 795.65C427.46 800.37 425.59 805.54 426.92 809.71C428.76 815.56 426.67 819.47 422.92 822.25C418.92 825.25 413.73 826.69 409.08 828.85C405.84 830.37 402.14 831.43 399.62 833.75C398.56 834.75 399.39 840.23 400.43 840.6C407.22 842.97 414.21 845.37 421.3 846.1C432.84 847.31 444.51 847.43 456.13 847.6C459.61 847.6 463.08 845.97 466.61 845.7C472.82 845.21 479.06 845.19 485.29 844.98C490.89 844.8 496.5 844.38 502.09 844.51C510.16 844.71 518.23 845.2 526.28 845.79C529.37 846.02 532.46 847.5 535.49 847.34C543.62 846.91 551.76 844.97 559.82 845.34C573.16 845.91 586.45 847.79 599.75 849.11C613.59 850.49 627.42 851.9 641.25 853.24C647.93 853.89 655.34 861.1 655.25 866.96C655.11 875.62 649.42 881.53 641.03 881.83C634.42 882.07 627.77 882.03 621.23 882.83C612.73 883.83 604.33 885.6 595.86 886.88C589.395 888.018 582.877 888.829 576.33 889.31C568.85 889.69 560.44 891.38 554.02 888.69C543.89 884.45 535.09 877.04 525.02 870.51C522.53 872.31 515.9 874.07 519.95 880.04C523.396 885.026 528.136 888.978 533.66 891.47C550.66 898.76 569.04 897.14 586.94 896.92C604.41 896.72 621.86 895 639.32 893.79C642.233 893.523 645.103 892.909 647.87 891.96C652.87 890.37 657.6 888.05 662.64 886.82C677.3 883.25 682.45 873.24 676.33 859.61C674.74 856.08 673.79 852.17 671.72 848.97C669.48 845.5 666.72 841.88 663.38 839.67C655.59 834.6 647.59 829.6 639.08 825.95C627.58 821.03 615.67 816.88 602.69 818.17C593.4 819.1 584.1 820.25 574.79 820.46C558.64 820.82 542.48 820.58 526.33 820.46C517.87 820.41 511.43 816.94 506.23 809.95C501.78 803.95 498.56 796.13 489.55 794.86C488.55 794.72 487.69 793.03 487.03 791.91C480.03 780 468.4 775.13 455.89 771.7C454.84 771.435 453.74 771.435 452.69 771.7C444.54 773.89 437.29 777.3 434.97 784.23L438.15 795.76L430.3 796.44ZM738.29 924C732.99 925.79 727.66 926.76 723.22 929.29C715.228 933.979 707.494 939.093 700.05 944.61C696.05 947.54 694.22 966.37 698.12 969.1C704.12 973.35 710.82 977.58 717.83 979.36C727.83 981.91 738.51 981.87 748.78 983.61C759.69 985.47 770.54 987.83 781.28 990.52C788.53 992.33 795.38 996.17 802.69 997.21C817.75 999.35 826.36 1008.87 829.45 1022.04C833.32 1038.52 834.76 1055.6 836.66 1072.49C838.35 1087.49 839.24 1102.62 840.56 1118.63L875.06 1113.97C871.56 1097.37 868.21 1082.39 865.31 1067.32C863.64 1058.69 862.75 1049.92 861.41 1041.22C860.69 1036.51 860.64 1031.44 858.76 1027.22C852.3 1012.66 846.33 998.06 844.89 981.96C843.52 966.65 834.1 955.32 825.37 943.7C824.258 942.242 822.86 941.027 821.26 940.13C813.32 935.77 805.46 931.2 797.19 927.53C794.19 926.22 789.53 925.95 786.84 927.42C776.92 932.85 766.39 933.42 755.66 932.71C749.19 932.25 742.33 931.71 738.29 924ZM875.29 1072.24C875.36 1071.86 875.01 1072.56 875.13 1073.16C877.84 1086.21 880.54 1099.27 883.49 1112.28C883.785 1112.96 884.244 1113.55 884.825 1114.01C885.406 1114.47 886.091 1114.78 886.82 1114.91C899.08 1115.12 911.34 1115.2 923.59 1115.04C931.76 1114.93 940.08 1113.21 948.05 1114.28C968.64 1117.02 989.21 1119.57 1009.9 1116.79C1028.5 1114.29 1046.97 1110.72 1065.9 1107.55C1066.96 1096.33 1068.05 1084.75 1069.24 1072.12C1053.5 1072.12 1038.35 1070.12 1023.96 1072.57C1000.33 1076.57 977.16 1070.79 953.78 1072.26C942.43 1072.97 930.99 1072.26 919.59 1072.26C905 1072.22 890.5 1072.24 875.24 1072.24H875.29ZM744.85 919.62L745.35 921.52C748.83 922.12 752.28 922.93 755.78 923.28C766.69 924.37 776.9 921.99 787.08 917.91C796.7 914.06 804.15 908.02 805.94 898.04C808.278 883.989 809.767 869.81 810.4 855.58C810.81 848.44 809.14 841.19 808.45 833.98C807.95 828.78 808.14 823.43 806.93 818.4C804 806 796 795.09 781.16 794.32C778.16 794.17 775.28 791.67 771.74 789.96L761.44 795.3C761.31 795.809 761.22 796.327 761.17 796.85C760.51 828.98 759.72 861.11 759.3 893.25C759.15 904.67 756.71 914.46 744.85 919.62ZM1077.85 1024.94C1071.85 1027.06 1067.13 1028.04 1063.15 1030.26C1058.39 1032.91 1054.28 1034.07 1049.15 1031.07C1047.37 1030.02 1044.43 1030.61 1042.08 1030.92C1037.67 1031.49 1033.31 1032.43 1028.93 1033.17C1023.44 1034.1 1017.93 1035.05 1012.46 1035.86C1010.46 1036.15 1008.18 1036.77 1006.58 1036.03C999.81 1032.89 993.51 1034.47 986.71 1036.18C981.22 1037.55 974.58 1038.44 969.54 1036.57C961.64 1033.65 954.62 1034.71 946.88 1036.09C940.16 1037.29 933.1 1036.65 926.18 1036.62C923.27 1036.62 920.18 1035.19 917.48 1035.89C905.74 1039.16 893.241 1038.38 882 1033.67C880.489 1033.13 878.872 1032.95 877.28 1033.15C873.99 1033.48 870.95 1034.15 871.28 1038.71C871.82 1047.29 872.14 1055.89 872.54 1064.18C876.24 1063.18 878.37 1062.07 880.46 1062.12C885.46 1062.25 890.36 1063.27 895.31 1063.3C929.01 1063.51 962.75 1061.06 996.39 1065.3C1001.99 1066.01 1007.78 1065.3 1013.47 1065.05C1027.09 1064.38 1040.69 1063.31 1054.31 1062.92C1059.08 1062.79 1063.9 1064.16 1067.91 1064.73C1071.22 1051.31 1074.28 1039.08 1077.81 1024.94H1077.85ZM1382.23 1113.39C1373.92 1103.56 1373.92 1103.56 1361.47 1099.96C1361.04 1099.84 1360.64 1099.59 1360.22 1099.43C1344.31 1093.03 1327.37 1089.6 1310.22 1089.31C1304.44 1089.23 1298.65 1087.18 1292.89 1087.31C1285.89 1087.43 1278.89 1089.31 1271.89 1089.64C1249.3 1090.57 1233.69 1102.75 1219.89 1120.87C1230.66 1120.87 1240.17 1120.69 1249.68 1120.94C1255.31 1121.08 1261.61 1120.43 1266.42 1122.69C1279.42 1128.8 1293.21 1126.69 1306.67 1127.93C1308.32 1128.08 1310.08 1126.86 1311.82 1126.45C1315.49 1125.4 1319.23 1124.59 1323 1124C1343 1121.79 1363.21 1121.45 1382.19 1113.39H1382.23ZM1408.56 799.52C1413.22 799.52 1416.42 799.73 1419.56 799.52C1434.08 798.39 1449.36 784.52 1451.68 770.43C1452.06 768.866 1452.03 767.232 1451.61 765.68C1448.21 756.93 1445.67 748.3 1436.12 742.78C1429.26 738.78 1422.76 737.43 1415.36 736.37C1399.21 734.05 1396.54 734.82 1387.82 748.28C1386.48 750.125 1385.35 752.11 1384.44 754.2C1380.71 764.2 1377.61 775.38 1383.31 784.44C1388.83 793.2 1395.76 804.06 1408.52 799.52H1408.56ZM755.36 718.75C755.36 718.47 755.29 718.19 755.25 717.91C748.07 718.81 740.82 719.31 733.74 720.71C724.91 722.46 724.8 731.28 721.31 737.35C720.31 739.12 719.04 740.77 718.07 742.57C710.78 756.1 714.66 771.12 727.16 779.47C738.81 787.26 751.6 785.25 764.16 783.96C766.9 783.69 769.97 780.48 771.72 777.85C778.25 768.02 784.79 757.98 780.62 745.19C778.48 738.64 776.14 732.19 773.89 725.64C770.66 716.29 762.61 719.41 756.03 718.76C755.807 718.742 755.583 718.739 755.36 718.75V718.75ZM630.62 784.87C649.62 784.7 647.26 782.62 654.89 771.8C656.58 769.4 658.59 767.22 660.43 764.91C665.43 758.62 667.23 745.76 662.97 742.08C657.38 737.196 651.366 732.819 645 729C642.48 727.5 638.45 727.54 635.39 728.2C630.89 729.2 626.58 732.8 622.32 732.59C616.67 732.32 614.41 735.22 612.45 739C610.261 743.23 608.437 747.639 607 752.18C605.776 755.918 605.453 759.892 606.059 763.778C606.664 767.665 608.181 771.353 610.484 774.541C612.788 777.729 615.813 780.327 619.313 782.122C622.812 783.917 626.687 784.859 630.62 784.87V784.87ZM1191.33 1083.14L1193.26 1082.81C1192.75 1079.16 1192.45 1075.47 1191.68 1071.88C1190.68 1067.02 1188.76 1062.31 1188.15 1057.42C1187.67 1053.54 1188.56 1049.49 1188.84 1045.51C1192.24 1047.68 1196.02 1049.44 1198.95 1052.12C1204.71 1057.41 1209.95 1063.21 1215.47 1068.79C1211.57 1059.86 1206.71 1052.04 1202.59 1043.84C1201.59 1041.84 1202.95 1038.61 1203.23 1035.95C1205.57 1036.69 1208.15 1037.01 1210.23 1038.23C1216.44 1041.93 1222.36 1046.13 1228.61 1049.77C1229.95 1050.55 1232.21 1049.77 1234.04 1049.69C1233.7 1048.02 1233.84 1046 1232.93 1044.69C1227.78 1037.48 1222.25 1030.55 1217.1 1023.35C1213.77 1018.68 1209.33 1018.2 1204.4 1019.27C1201.27 1019.89 1198.21 1020.82 1195.26 1022.05C1184.26 1026.89 1174.89 1033.5 1171.51 1045.81C1169.33 1053.75 1174.43 1059.91 1178.09 1065.97C1181.75 1072.03 1186.85 1077.46 1191.33 1083.14ZM1422.93 1098.39L1425.01 1099.53C1425.82 1099.21 1426.88 1099.11 1427.39 1098.53C1435.69 1089.14 1444.08 1079.83 1452 1070.14C1453.4 1068.42 1454 1064 1452.87 1062.61C1447.49 1056.13 1441.62 1050.06 1435.33 1044.45C1434 1043.26 1430.25 1044.73 1427.63 1045.05C1425.63 1045.29 1423.63 1046.16 1421.78 1045.89C1404.38 1043.43 1385.42 1052.73 1377.78 1067.8C1377.35 1068.64 1377.72 1069.89 1377.72 1072.36C1385.31 1068.31 1392.14 1064.92 1398.72 1061.08C1402.59 1058.81 1405.8 1055.31 1409.8 1053.38C1411.97 1052.38 1417.24 1052.74 1417.52 1053.63C1418.44 1056.53 1418.01 1060.01 1417.46 1063.15C1417.23 1064.46 1415.35 1065.44 1414.31 1066.64C1409.45 1072.26 1404.6 1077.89 1399.77 1083.52L1400.95 1084.79C1404.05 1082.64 1407.38 1080.79 1410.22 1078.28C1415.11 1074.04 1419.44 1069.1 1424.55 1065.18C1426.86 1063.42 1430.55 1063.41 1433.55 1062.6C1433.98 1065.81 1435.55 1069.38 1434.55 1072.16C1432.94 1077.05 1429.64 1081.37 1427.46 1086.16C1425.62 1090.07 1424.41 1094.29 1422.93 1098.39V1098.39ZM617.13 859.87C606.13 858.48 596.06 857.05 585.94 856.07C584.14 855.89 580.74 857.25 580.49 858.42C579.06 865.1 578.36 871.93 577.57 877.6C587.96 877.6 597.3 877.7 606.65 877.6C616 877.5 617.7 875.6 617.43 866.75C617.36 864.48 617.23 862.23 617.13 859.87ZM572 854.76C559.15 853.88 548.52 854.14 539.31 862.4C535.31 866 536.25 867.97 539.85 870.15C544.48 872.96 549.11 875.91 554.08 877.99C558.19 879.72 562.8 880.26 567.37 881.38C569.08 871.77 570.47 863.8 572 854.76ZM1416.77 1033.63C1412.77 1031.92 1410.01 1030.43 1407.07 1029.56C1400.39 1027.56 1393.22 1026.86 1388.84 1020.17C1388.3 1019.35 1385.03 1019.27 1383.84 1020.07C1377.96 1024.07 1378.48 1030.95 1385.25 1033.88C1395.12 1038.11 1405.3 1039.05 1416.81 1033.63H1416.77ZM1234.04 1031.63C1236.84 1030.42 1238.79 1029.71 1240.61 1028.76C1244.46 1026.76 1248.54 1024.94 1251.92 1022.27C1253.37 1021.13 1254.36 1016.57 1253.75 1016.13C1251.67 1014.67 1248.39 1013.13 1246.28 1013.84C1240.28 1015.78 1234.72 1018.84 1228.45 1021.63L1234.04 1031.63ZM625.04 861.25C625.9 865.45 626.65 869.06 627.33 872.39H644.1C647.72 863.6 641.86 861 625.09 861.28L625.04 861.25Z" fill="#194B3F"/>
<path d="M990.12 439.75C957.22 438.22 924.33 436.49 891.41 435.31C883.29 435.02 875.12 436.74 866.95 437.16C850.56 438 834.15 438.66 817.75 439.27C801.82 439.86 785.88 440.41 769.94 440.75C743.73 441.31 717.51 441.75 691.3 442.13C673.83 442.42 656.76 439.81 639.9 435.39C637.33 434.71 634.43 435.03 631.71 435.24C617.87 436.31 604.04 437.54 590.2 438.64C578.91 439.53 567.6 440.83 556.29 440.97C548.18 441.07 540.02 438.68 531.93 438.97C521.3 439.36 510.75 441.46 500.12 442.43C497.7 442.65 494.31 441.94 492.9 440.32C491.71 438.97 492.07 435.32 493.04 433.32C493.82 431.74 496.54 430.32 498.44 430.25C505.27 430.03 512.13 430.48 518.98 430.56C525.83 430.64 532.59 429.97 539.28 430.67C553.36 432.16 567.17 432.88 581.34 430.08C591.06 428.16 601.34 429.28 611.42 429.08C612.79 429.08 614.26 429.4 615.52 429.01C633.21 423.53 650.14 429.48 667.4 431.93C678.2 433.47 689.27 433.56 700.21 433.51C721.89 433.417 743.557 433.007 765.21 432.28C780.21 431.76 795.21 430.12 810.16 429.56C829.5 428.83 848.86 428.56 868.21 428.3C883.62 428.1 899.11 427.19 914.42 428.42C932.115 429.95 949.908 429.99 967.61 428.54C976.92 427.73 986.61 430.19 995.97 431.67C997.39 431.89 998.39 434.8 999.58 436.47C998.03 437.42 996.58 438.69 994.89 439.22C993.44 439.69 991.72 439.32 990.12 439.32V439.75Z" fill="#194B3F"/>
<path d="M1366.42 429.91C1356.32 431.3 1346.25 433.23 1336.09 433.96C1314.16 435.55 1292.19 437.24 1270.22 437.42C1260.91 437.49 1251.35 434.59 1242.29 431.77C1231.94 428.55 1221.86 425.27 1210.91 428.1C1210.46 428.16 1210 428.16 1209.55 428.1C1193.55 427.8 1177.86 429.42 1162.71 435.47C1152.4 439.59 1141.82 437.85 1131.14 435.26C1111.78 430.58 1091.94 427.38 1072.32 432.43C1061.89 435.11 1052.02 434.27 1041.9 433.01C1040.02 432.78 1038.42 430.3 1036.69 428.85C1038.42 427.46 1040.06 424.98 1041.89 424.85C1060.17 423.42 1078.48 421.41 1096.77 421.55C1108.89 421.65 1121.11 424.42 1133.06 427.01C1144.06 429.39 1154.79 430.19 1165.21 425.58C1184.73 416.94 1205.57 418.4 1225.9 418.49C1237.2 418.49 1248.57 423.11 1259.72 426.32C1272.58 430.02 1285.28 429.43 1298.23 427.2C1305.34 425.97 1312.63 425.93 1319.83 425.2C1331.3 424.05 1342.73 422.2 1354.22 421.72C1364.41 421.33 1374.64 422.6 1384.86 422.9C1397.39 423.26 1409.98 424.21 1422.43 423.32C1434.31 422.48 1445.16 422.79 1455.83 429.32C1461.83 432.99 1469.54 433.69 1476.33 436.13C1478.73 436.99 1480.7 439.07 1482.86 440.59C1480.39 441.92 1477.63 444.71 1475.5 444.29C1468.5 442.9 1460.86 441.6 1454.88 437.96C1445.18 432.08 1435.07 432.11 1424.54 431.96C1408.38 431.78 1392.24 431.11 1376.08 430.68C1372.89 430.59 1369.69 430.68 1366.5 430.68C1366.47 430.47 1366.45 430.19 1366.42 429.91Z" fill="#194B3F"/>
<path d="M1756.14 1088L1750.65 1081.83C1752.46 1080.54 1754.37 1078.1 1756.04 1078.25C1758.04 1078.43 1759.84 1080.82 1761.73 1082.25L1756.14 1088Z" fill="#194B3F"/>
<path d="M1040.68 701.07C1024.35 699.85 1008.03 698.3 991.68 697.54C982.59 697.12 973.44 698.18 964.31 698.28C959.55 698.33 954.72 697.17 950.02 697.62C945.02 698.1 940.19 699.97 935.24 701.01C927.96 702.55 920.54 703.48 913.36 705.39C893.55 710.66 873.36 708.13 853.36 708.01C846.36 708.01 839.53 703.14 832.42 702.35C823.31 701.35 813.77 700.98 804.81 702.59C792.58 704.78 781.26 702.31 769.81 699.31C768.046 698.735 766.582 697.484 765.74 695.83C764.24 692.41 761.39 686.71 762.63 685.47C766.63 681.47 768.93 687.15 771.97 688.98C781.39 694.66 791.71 695.23 802.18 693.56C816.18 691.33 829.92 690.56 843.38 696.56C847.4 698.165 851.673 699.038 856 699.14C863.301 699.64 870.629 699.64 877.93 699.14C894.43 697.81 910.93 696.3 927.36 694.14C934.36 693.21 941.03 689.32 948.01 688.75C959.34 687.82 970.81 688.27 982.21 688.59C1005.68 689.25 1029.13 690.25 1052.6 691.03C1060.74 691.31 1068.92 691.03 1077.03 691.69C1079.37 691.89 1081.5 694.51 1083.73 696.03C1081.51 697.33 1079.32 699.7 1077.06 699.77C1064.98 700.14 1052.88 699.94 1040.79 699.94C1040.73 700.33 1040.71 700.7 1040.68 701.07Z" fill="#194B3F"/>
<path d="M515.76 688.76C505.76 688.29 495.76 688.19 485.76 687.21C479.023 686.448 472.376 685.038 465.91 683C464.33 682.52 463.67 679 462.58 676.87C464.65 675.94 467.24 673.69 468.71 674.27C484.71 680.62 501.53 678.14 518 679.09C521.52 679.29 525.14 677.38 528.71 677.38C530.71 677.38 532.64 679.38 534.61 680.38C533.35 681.96 532.36 683.97 530.74 685.03C528.74 686.34 526.21 686.86 523.52 687.87C524.019 688.107 524.538 688.301 525.07 688.45C528.66 688.89 534.07 687.07 534.36 692.6C534.6 697.74 529.29 696.43 525.93 697.11C516.36 699.11 506.87 701.59 497.21 702.95C492.46 703.61 487.33 702.54 482.54 701.5C481.17 701.2 480.37 698.26 479.31 696.5C481.1 695.56 482.97 693.68 484.68 693.82C495.45 694.81 505.9 694.13 515.76 688.76Z" fill="#194B3F"/>
<path d="M497.77 753.43C493.7 752.98 490.87 753.49 489.83 752.36C487.93 750.28 487.09 747.24 485.83 744.59C488.09 744 490.33 743.22 492.63 742.86C498.5 741.96 504.4 741.26 510.29 740.47C513.94 739.98 518.71 735.36 520.89 740.93C523.01 746.34 516.74 747.21 513.39 748.6C507.8 750.9 501.82 752.22 497.77 753.43Z" fill="#194B3F"/>
<path d="M1163.42 724.45C1163.68 717.02 1164.64 716.45 1171.1 718.01C1173.98 718.7 1177.22 717.8 1180.29 717.7C1183.62 717.59 1187.01 717.2 1190.29 717.7C1191.41 717.88 1192.76 720.3 1192.92 721.81C1193.04 723.01 1191.54 725.5 1190.71 725.52C1181.58 725.74 1172.12 731.83 1163.34 724.32L1163.42 724.45Z" fill="#194B3F"/>
<path d="M761 1052C762.14 1058.35 764.41 1066.33 764.83 1074.41C765.257 1085.72 765.043 1097.05 764.19 1108.34C764.07 1110.23 760.75 1111.92 758.9 1113.7C757.9 1111.39 755.81 1108.86 756.2 1106.81C758.94 1092.68 757.88 1078.75 754.35 1065.03C753.21 1060.61 750.13 1056.68 747.88 1052.56C747.11 1051.17 745.79 1050 745.36 1048.56C744.709 1045.95 744.205 1043.31 743.85 1040.65C746.133 1040.31 748.433 1040.11 750.74 1040.05C760.08 1040.32 761 1041.28 761 1052Z" fill="#194B3F"/>
<path d="M494.31 1094.24C495.94 1080.79 497.66 1067.35 499.15 1053.89C499.54 1050.35 498.81 1046.67 499.36 1043.17C499.71 1040.98 501.47 1039.02 502.6 1036.95C504.53 1038.6 508.11 1040.26 508.11 1041.95C508.11 1049.59 506.92 1057.22 506.53 1064.87C505.78 1079.47 505.37 1094.09 504.53 1108.69C504.43 1110.45 502.6 1112.11 501.53 1113.83C499.53 1112.58 495.92 1111.56 495.71 1110.05C494.97 1104.93 495.43 1099.63 495.43 1094.4L494.31 1094.24Z" fill="#194B3F"/>
<path d="M696.21 1087.8C703.73 1089.71 706.13 1084.1 709.45 1079.61C710.83 1077.75 713.07 1076.53 714.92 1075.02C715.81 1077.36 717.66 1079.8 717.43 1082.02C716.43 1091.96 701.43 1100.17 692.48 1096.02C688.63 1094.22 683.4 1081.69 685.18 1077.89C685.76 1076.65 687.48 1075.1 688.6 1075.16C689.42 1075.27 690.205 1075.57 690.896 1076.02C691.588 1076.48 692.17 1077.08 692.6 1077.79C694.11 1080.78 694.94 1084.1 696.21 1087.8Z" fill="#194B3F"/>
<path d="M567.68 1091.88L570.58 1098.38C567.7 1099.14 564.72 1100.8 561.96 1100.5C552.72 1099.5 548.64 1092.92 552.34 1084.66C553.43 1082.22 557.14 1079.88 559.9 1079.55C562.66 1079.22 567.09 1080.55 568.58 1082.68C569.88 1084.54 568.12 1088.54 567.68 1091.88Z" fill="#194B3F"/>
<path d="M1294.74 730.08C1309.41 731.27 1327.19 744.27 1331.12 757.63C1334.5 769.12 1327.72 788.09 1317.81 795.37C1314.55 797.806 1311.44 800.448 1308.51 803.28C1302.51 809 1295.38 807.52 1288.51 806.4C1261.9 802.1 1253.09 773.55 1264.38 752.12C1268 745.367 1272.96 739.428 1278.96 734.67C1282.93 731.53 1289.39 731.5 1294.74 730.08ZM1298.36 798.32C1299.05 798.07 1301.5 797.79 1303.15 796.5C1308.14 792.609 1312.91 788.453 1317.45 784.05C1324.2 777.4 1321.45 768.45 1322.39 760.44C1322.54 759.16 1321.08 757.59 1320.14 756.32C1317.84 753.21 1315.54 750.09 1313.01 747.17C1308.01 741.41 1289.15 738.17 1282.54 741.86C1275.93 745.55 1266.34 767.26 1267.95 774.99C1270.85 788.88 1282.75 798.52 1298.36 798.32Z" fill="#194B3F"/>
<path d="M1142.8 807.5C1139.89 810.782 1136.81 813.906 1133.57 816.86C1133.35 817.05 1128.87 813.44 1129.15 812.8C1130.89 808.8 1133.42 805.07 1135.69 801.25L1142.8 807.5Z" fill="#194B3F"/>
<path d="M1163.5 818.47C1160.59 820.95 1158.5 823.58 1157.71 823.24C1155.5 822.112 1153.65 820.377 1152.39 818.24C1152.12 817.81 1154.97 814.24 1156.2 814.29C1158.27 814.49 1160.2 816.46 1163.5 818.47Z" fill="#194B3F"/>
<path d="M464.17 803.81C463.33 805.26 462.84 807.27 461.74 807.71C460.33 808.26 457.46 808.15 456.89 807.26C454.124 802.88 451.694 798.297 449.62 793.55C449.28 792.8 450.91 790.23 451.93 790.03C453.69 789.69 456.65 789.9 457.4 791.03C460 794.93 461.88 799.33 464.17 803.81Z" fill="#194B3F"/>
<path d="M475.18 805.9C478.87 803 481.27 801.13 483.66 799.26C484.66 801.26 486.99 803.63 486.53 805.17C485.74 807.75 483.2 809.8 481.4 812.07L475.18 805.9Z" fill="#194B3F"/>
<path d="M439.67 823.82C438 820.62 436.27 818.82 436.48 817.31C436.71 815.63 438.73 814.19 439.96 812.65C441.4 814.33 443.62 815.86 444.02 817.76C444.28 819 441.94 820.82 439.67 823.82Z" fill="#194B3F"/>
<path d="M1412.18 776.92C1408.42 774.98 1402.69 773.92 1401.34 770.92C1398.84 765.32 1402.98 760.44 1407.23 756.28C1411.48 752.12 1415.94 750.41 1421.64 753.74C1426.78 756.74 1427.73 761.33 1427.28 766.58C1426.75 772.73 1421.91 775.69 1412.18 776.92Z" fill="#194B3F"/>
<path d="M1306.42 763.71C1306.36 769.5 1301.26 776.36 1294.98 777.48C1289.07 778.54 1283.74 777.15 1281.2 770.4C1279.96 767.12 1275.61 762.08 1276.2 761.54C1279.72 758.199 1283.82 755.528 1288.3 753.66C1296.23 750.42 1306.5 756.44 1306.42 763.71Z" fill="#194B3F"/>
<defs>
<radialGradient id="paint0_radial_6_341" cx="0" cy="0" r="1" gradientUnits="userSpaceOnUse" gradientTransform="translate(960 863) rotate(90) scale(863)">
<stop stop-color="#D9A1C0"/>
<stop offset="0.744792" stop-color="#D9A1C0" stop-opacity="0"/>
<stop offset="1" stop-color="#D9A1C0" stop-opacity="0"/>
</radialGradient>
</defs>
</svg>
