<svg width="1920" height="1726" viewBox="0 0 1920 1726" fill="none" xmlns="http://www.w3.org/2000/svg">
<circle cx="960" cy="863" r="863" fill="url(#paint0_radial_3_65)" style="mix-blend-mode:darken"/>
<path d="M208.341 1081.94C209.341 1076.81 210.681 1071.72 211.461 1066.55C214.074 1049.33 216.574 1032.08 218.961 1014.82C219.961 1007.2 220.561 999.516 221.391 991.816C223.241 974.926 224.751 957.986 227.081 941.156C231.689 908.506 239.356 876.361 249.981 845.146C256.391 826.146 258.411 806.766 261.231 787.276C262.421 779.086 266.491 771.346 267.981 763.156C270.151 751.156 270.801 738.946 272.771 726.936C274.771 715.106 277.531 703.436 279.921 691.676C281.861 682.126 283.161 672.406 285.761 663.036C290.261 646.826 295.391 630.786 300.551 614.776C304.311 603.106 308.151 591.436 312.651 580.046C319.411 562.966 327.591 546.406 333.651 529.106C340.551 509.476 345.921 489.296 351.721 469.276C354.151 460.886 356.901 452.996 363.341 446.486C370.621 439.126 376.441 430.246 384.081 423.336C389.757 418.196 396.467 414.329 403.761 411.996C428.981 404.276 454.511 397.556 479.981 390.666C497.411 385.996 514.821 380.996 532.461 377.136C553.694 372.486 575.735 373.014 596.721 378.676C607.811 381.596 619.721 381.986 631.241 382.676C653.114 384.009 675.008 384.969 696.921 385.556C704.601 385.766 712.321 384.286 720.031 383.956C728.451 383.606 736.891 383.566 745.321 383.606C758.481 383.666 771.631 384.046 784.791 384.006C791.841 384.006 798.891 383.186 805.951 383.006C831.501 382.346 857.061 381.916 882.611 381.136C888.501 380.956 894.341 379.446 900.241 379.076C913.241 378.276 926.181 377.396 939.151 377.296C984.391 376.966 1029.63 376.606 1074.86 376.986C1093.28 377.146 1111.68 379.176 1130.09 380.336C1135.76 380.696 1141.44 381.106 1147.09 381.276C1165.09 381.796 1183.09 382.706 1201.09 382.516C1214.48 382.376 1227.84 380.426 1241.23 379.906C1257.23 379.276 1273.23 379.176 1289.15 379.076C1327.29 378.836 1365.43 378.676 1403.57 378.596C1419.57 378.596 1432.84 385.646 1444.95 395.486C1458.15 406.196 1472.69 414.256 1489.34 418.586C1496.08 420.336 1502.34 423.816 1508.88 426.486C1514.97 428.976 1520.88 432.406 1527.21 433.736C1543.42 437.136 1557.08 445.416 1571.21 453.496C1591.78 465.286 1602.21 484.286 1610.21 504.916C1618.36 525.916 1625.8 547.186 1632.1 568.766C1636.52 583.916 1638.46 599.766 1641.6 615.316C1642.45 619.526 1643.97 623.626 1644.6 627.866C1646.6 642.226 1647.54 656.776 1650.37 670.966C1652.66 682.456 1657.26 693.476 1660.53 704.786C1664.28 717.786 1668.53 730.786 1671.08 743.996C1674.92 763.776 1677.2 783.856 1680.69 803.716C1684.13 823.316 1688.35 842.776 1692.03 862.326C1693.42 869.666 1693.41 877.326 1695.54 884.436C1698.92 895.966 1703.08 907.255 1707.98 918.226C1715.38 934.426 1718.09 951.606 1720.66 968.906C1722.72 982.819 1724.84 996.719 1727.03 1010.61C1728.11 1017.55 1729.5 1024.45 1730.54 1031.4C1732.93 1047.32 1735.25 1063.25 1737.48 1079.19C1738.2 1084.42 1740.68 1087.61 1746.17 1087.75C1754.17 1087.96 1762.17 1088.67 1770.1 1087.9C1773.05 1087.62 1775.7 1083.9 1778.41 1081.58C1784.06 1076.82 1789.68 1072.02 1795.27 1067.2C1799.7 1063.36 1804.5 1059.82 1808.35 1055.45C1826.15 1035.27 1848.43 1031.02 1873.6 1036.33L1890.3 1039.89C1904.65 1042.09 1910.89 1048.29 1913.46 1051.51C1926.84 1068.29 1919.73 1103.43 1890.3 1134.51V1119.45C1903.87 1103.36 1907.98 1088.56 1909.45 1080.62C1911.6 1069.03 1909.63 1063.95 1908.07 1061.17C1903.14 1052.4 1893.07 1050.04 1890.3 1049.5C1879.74 1045.95 1870.64 1045.17 1864.35 1044.25C1845.15 1041.45 1828.25 1045.7 1814.9 1060.95C1810.61 1065.85 1805.78 1070.88 1800.14 1073.83C1792.91 1077.6 1788.32 1083.17 1783.82 1089.46C1780.21 1094.46 1775.82 1098.32 1768.48 1097.67C1760.22 1096.93 1751.84 1097.5 1743.97 1097.5L1751.1 1141.78C1754.95 1141.39 1758.73 1141.15 1762.47 1140.62C1776.62 1138.62 1790.36 1129.78 1805.14 1138.23C1806.21 1138.84 1807.9 1138.23 1809.14 1138.68C1812.71 1139.83 1816.14 1141.34 1819.75 1142.46C1828.27 1145.12 1836.75 1148.77 1845.44 1149.78C1851.08 1150.44 1857.44 1147.68 1862.99 1145.42C1867.86 1143.42 1872.86 1140.76 1876.5 1137.09C1881.71 1131.83 1885.74 1125.39 1890.27 1119.45V1134.54C1888.09 1137.13 1886.27 1140.14 1883.66 1142.2C1878.46 1146.35 1873.23 1150.85 1867.27 1153.57C1860.98 1156.44 1853.86 1157.57 1847.02 1159.14C1844.46 1159.82 1841.77 1159.86 1839.2 1159.23C1825.66 1154.96 1812.04 1150.84 1798.85 1145.63C1792.85 1143.27 1787.85 1143.63 1782.04 1145.33C1773.85 1147.65 1765.37 1148.97 1756.6 1150.8C1757.71 1153.27 1758.08 1155.25 1759.24 1156.52C1772.87 1171.38 1782.24 1189.83 1798.41 1202.58C1800.27 1204.25 1801.96 1206.1 1803.48 1208.09C1809.48 1214.95 1815.34 1221.87 1821.32 1228.7C1831.97 1240.84 1843.23 1252.49 1853.19 1265.17C1866.08 1281.56 1877.95 1298.76 1890.27 1315.61V1329.32C1882.49 1319.23 1874.66 1309.17 1866.94 1299.03C1855.78 1284.39 1845.05 1269.41 1833.47 1255.12C1823.47 1242.75 1812.68 1230.98 1801.91 1219.26C1795.18 1211.92 1787.03 1205.78 1780.91 1198.01C1768.29 1182.01 1755.7 1165.82 1744.97 1148.55C1740.48 1141.33 1740.65 1131.18 1738.87 1122.32C1737.67 1116.32 1737.06 1110.24 1735.71 1104.32C1731.41 1085.32 1726.08 1066.59 1722.71 1047.47C1719.46 1029.23 1718.71 1010.56 1715.79 992.246C1712.46 971.246 1708.47 950.246 1703.72 929.556C1701.82 921.286 1696.54 913.856 1693.88 905.686C1690.1 894.318 1686.95 882.751 1684.44 871.036C1680.32 851.316 1676.88 831.446 1673.44 811.596C1671.33 799.596 1669.79 787.426 1667.84 775.356C1666.03 764.206 1663.23 753.146 1662.26 741.926C1660.45 721.056 1648.82 703.476 1644.01 683.716C1641.77 674.496 1641.15 664.906 1639.57 655.516C1637.92 645.746 1635.93 636.026 1634.22 626.256C1633.22 620.466 1631.62 614.616 1631.69 608.806C1631.9 591.726 1624.62 576.626 1620.22 560.726C1613.94 538.076 1606.47 515.886 1596.28 494.726C1590.72 483.166 1583.28 472.496 1572.45 465.486C1563.6 459.736 1553.25 456.846 1542.27 458.716C1536.89 459.636 1531.45 460.336 1526.17 461.646C1521.5 462.796 1517.17 462.436 1516.66 457.206C1516.15 452.306 1521.09 453.206 1524.29 452.736C1530.99 451.636 1537.68 450.516 1546.42 449.066C1543.01 447.476 1541.42 446.196 1539.69 445.996C1522.69 443.996 1508.57 434.636 1493.08 428.766C1487.39 426.616 1481.55 424.836 1475.81 422.816C1462.38 418.116 1451.04 410.006 1439.42 401.946C1425.58 392.356 1410.76 384.826 1392.28 387.876C1380.7 389.776 1368.57 388.356 1356.69 388.376C1339.82 388.376 1322.87 389.456 1306.09 388.186C1266.96 385.246 1228.2 392.876 1189.2 391.486C1161.65 390.486 1134.01 391.486 1106.62 386.276C1096.02 384.276 1084.74 385.826 1073.77 385.906C1030.14 386.186 986.501 387.286 942.901 386.486C925.612 386.015 908.313 386.971 891.181 389.346C883.991 390.406 876.641 390.506 869.351 390.696C843.551 391.386 817.751 391.886 791.951 392.576C787.871 392.686 783.811 393.806 779.741 393.756C767.511 393.576 755.281 392.826 743.041 392.756C735.091 392.696 727.131 393.536 719.171 393.696C707.171 393.946 695.081 394.576 683.091 393.936C654.871 392.443 626.671 390.553 598.491 388.266C586.061 387.266 573.641 382.576 561.431 383.266C542.061 384.366 522.601 385.876 504.001 393.836C491.841 398.996 477.981 399.906 464.981 403.486C447.461 408.326 430.411 415.266 412.651 418.716C393.761 422.396 382.651 434.046 373.401 449.086C369.271 455.796 364.981 462.416 360.881 469.146C360.351 470.006 360.461 471.266 360.771 472.856C368.171 462.396 380.161 459.566 390.471 454.106C400.121 448.996 410.231 444.856 419.981 439.996C423.201 438.406 425.871 435.736 429.051 434.066C431.532 432.74 434.251 431.921 437.051 431.656C438.121 431.586 439.961 433.786 440.341 435.236C440.611 436.236 439.341 438.236 438.201 438.996C421.856 449.697 404.334 458.481 385.981 465.176C370.611 470.756 362.611 484.176 355.181 497.246C350.551 505.426 349.121 515.366 345.091 523.966C337.401 540.396 333.821 558.326 324.691 574.376C317.971 586.206 314.841 600.076 310.141 613.046C307.901 619.236 305.231 625.316 303.611 631.666C299.091 649.456 295.091 667.376 290.721 685.196C288.721 693.566 285.721 701.746 284.111 710.196C282.111 720.626 281.251 731.286 279.531 741.776C277.411 754.676 275.001 767.526 272.531 780.376C270.531 790.806 267.021 801.136 266.531 811.626C265.721 828.626 258.201 843.526 254.481 859.566C248.991 883.216 242.351 906.656 238.151 930.566C234.091 953.706 232.921 977.346 229.661 1000.66C227.221 1018.11 223.191 1035.34 220.411 1052.75C219.031 1061.46 218.701 1070.35 218.211 1079.17C217.861 1085.49 215.521 1091.45 218.851 1098.36C220.381 1101.54 215.661 1107.99 213.271 1112.7C211.201 1116.77 207.871 1120.25 206.071 1124.42C201.791 1134.31 196.561 1143.1 188.211 1150.42C181.321 1156.5 175.971 1164.42 170.411 1171.9C159.411 1186.64 149.201 1201.98 137.831 1216.41C123.031 1235.17 108.121 1253.93 91.921 1271.41C80.211 1284.08 66.131 1294.53 53.491 1306.41C47.921 1311.65 43.491 1318.03 38.241 1323.69C34.241 1328 29.611 1331.69 25.841 1336.19C21.491 1341.38 17.781 1347.11 13.791 1352.61H4.25102C8.98102 1342.57 13.981 1332.87 23.981 1326.59C26.881 1324.75 28.551 1321.04 30.911 1318.3C45.301 1301.63 60.711 1286.09 78.181 1272.49C92.091 1261.66 102.371 1247.38 112.571 1233.03C122.941 1218.44 134.751 1204.88 145.571 1190.61C154.291 1179.13 162.301 1167.11 171.071 1155.67C174.501 1151.19 179.291 1147.78 183.191 1143.67C186.681 1139.95 189.781 1135.88 194.381 1130.38C186.081 1130.79 180.041 1131 174.021 1131.38C154.701 1132.7 135.361 1135.52 116.081 1135.09C95.231 1134.63 75.761 1139.84 55.981 1144.56C52.931 1145.28 49.511 1145.85 46.511 1145.25C30.711 1142.07 16.921 1136.09 8.51102 1120.72C2.22102 1109.25 -1.86898 1097.34 0.861017 1084.72C3.12102 1074.27 3.75102 1062.42 13.861 1055.05C15.451 1053.88 16.281 1051.71 17.761 1050.31C26.921 1041.59 35.501 1032.04 45.661 1024.66C50.991 1020.79 59.071 1020.5 66.011 1019.18C69.291 1018.55 72.851 1019.56 76.261 1019.38C98.181 1018.23 117.061 1025.87 133.261 1039.97C144.831 1049.97 155.591 1060.97 166.801 1071.43C168.371 1072.9 170.421 1074.61 172.381 1074.79C181.641 1075.67 190.951 1076.47 200.251 1076.44C204.891 1076.44 206.821 1078.6 208.471 1082.08C206.121 1083.44 203.771 1085.92 201.411 1085.92C191.611 1085.92 181.791 1085.46 172.021 1084.63C168.856 1084.32 165.848 1083.1 163.361 1081.12C158.426 1076.85 153.751 1072.29 149.361 1067.47C142.761 1060.47 137.591 1052.29 128.991 1046.92C116.991 1039.44 105.901 1030.44 91.111 1029.33C83.831 1028.78 76.231 1030.03 69.251 1028.42C58.831 1026.01 51.471 1030.35 44.581 1036.67C36.911 1043.67 29.851 1051.4 22.051 1058.29C12.761 1066.56 10.411 1077.88 8.98102 1089C7.10102 1103.48 13.981 1116.23 23.741 1126C32.241 1134.42 43.671 1138.37 56.491 1135.07C70.131 1131.57 83.911 1128.62 97.651 1125.53C99.4587 1125.27 101.288 1125.19 103.111 1125.31C112.411 1125.23 121.721 1125.48 131.001 1125.04C151.948 1124.04 172.891 1122.81 193.831 1121.36C195.931 1121.22 198.971 1119.58 199.751 1117.83C204.781 1106.41 210.041 1095 208.341 1081.94Z" fill="#194B3F"/>
<path d="M1650.51 1142.89L1655.68 1150.48C1653.24 1151.56 1650.82 1152.72 1648.33 1153.68C1647.07 1154.17 1645.38 1153.89 1644.38 1154.68C1632.08 1163.75 1616.58 1163.23 1602.91 1168.42C1591.2 1172.86 1578.04 1174.04 1565.39 1175.28C1549.99 1176.76 1534.53 1177.48 1519.06 1177.42C1495.17 1177.42 1471.28 1176.34 1447.38 1175.91C1428.71 1175.57 1410.03 1175.65 1391.38 1175.29C1369.47 1174.88 1347.54 1174.58 1325.66 1173.48C1315.49 1172.97 1305.45 1170.12 1295.26 1169.34C1275.97 1167.84 1256.64 1166.55 1237.26 1166.17C1221.54 1165.87 1205.78 1166.75 1190.07 1167.58C1160.07 1169.16 1130.07 1171.07 1100.07 1172.86C1098.7 1172.94 1097.07 1172.72 1096.07 1173.34C1082.82 1180.76 1068.63 1178.02 1054.57 1177.63C1036.98 1177.14 1019.36 1176.79 1001.78 1177.21C986.901 1177.56 972.381 1175.47 958.951 1169.78C939.681 1161.63 919.071 1160.78 899.171 1156.19C878.641 1151.49 858.761 1158.43 838.501 1157.78C830.501 1157.52 822.331 1159.78 814.221 1160.78C802.921 1162.09 791.581 1163.09 780.291 1164.46C769.291 1165.79 758.361 1168.07 747.291 1168.77C732.741 1169.85 718.141 1170.1 703.561 1169.54C684.916 1168.73 666.325 1166.97 647.861 1164.26C621.531 1160.26 595.461 1165.15 569.261 1164.8C564.801 1164.74 560.351 1166.72 555.841 1167.16C548.867 1167.91 541.856 1168.27 534.841 1168.24C527.161 1168.11 519.481 1167.31 511.841 1166.6C504.841 1165.95 497.601 1165.93 490.911 1164.05C473.092 1159.07 454.42 1157.94 436.131 1160.73C426.191 1162.16 416.001 1161.84 405.951 1162.73C401.241 1163.12 396.621 1164.96 391.951 1165.14C376.821 1165.7 361.891 1164.32 347.511 1159.14C346.021 1158.6 344.271 1158.27 343.151 1157.28C328.541 1144.33 314.481 1130.82 310.801 1110.48C309.391 1102.68 309.141 1094.61 308.971 1086.65C308.671 1072.72 308.231 1058.74 308.971 1044.83C310.031 1024.69 312.041 1004.59 313.731 984.466C314.791 971.846 315.981 959.226 317.221 946.616C317.387 944.555 317.866 942.532 318.641 940.616C326.771 921.186 328.061 900.416 330.441 879.906C332.341 863.456 333.551 846.906 335.351 830.476C335.741 826.916 337.771 823.546 338.281 819.976C340.131 806.976 341.601 793.976 343.281 780.926C345.381 765.006 347.534 749.093 349.741 733.186C350.941 724.446 351.651 715.586 353.651 707.036C356.331 695.626 360.361 684.526 363.251 673.146C366.871 658.896 369.601 644.416 373.321 630.146C377.321 614.816 381.931 599.636 386.481 584.446C387.651 580.536 389.961 576.966 391.041 573.036C392.971 565.956 395.251 559.576 403.761 558.106C410.311 556.976 416.761 555.226 423.311 554.216C436.071 552.216 448.881 550.656 461.651 548.816C463.421 548.566 465.081 547.596 466.851 547.296C484.621 544.296 502.521 542.496 520.471 540.746C543.001 538.546 565.391 538.796 587.891 539.186C607.481 539.516 627.081 539.576 646.661 539.186C665.491 538.776 684.301 537.306 703.131 536.866C712.901 536.646 722.691 537.776 732.471 538.066C741.091 538.316 749.731 538.016 758.351 538.356C771.791 538.876 785.221 539.996 798.661 540.356C808.661 540.626 818.661 540.016 828.731 539.926C841.441 539.796 854.161 539.846 866.881 539.736C880.521 539.616 894.171 539.356 907.821 539.216C913.701 539.216 919.581 539.386 925.461 539.276C937.321 539.036 949.171 538.486 961.031 538.416C967.391 538.416 973.741 539.156 980.101 539.416C987.801 539.706 995.521 539.956 1003.23 539.996C1023.53 540.116 1043.84 539.936 1064.14 540.266C1069.08 540.346 1073.96 542.266 1078.92 542.736C1087.53 543.496 1096.18 543.736 1104.81 544.236C1111.1 544.606 1117.38 545.236 1123.67 545.446C1135.62 545.819 1147.58 546.056 1159.54 546.156C1168.59 546.236 1177.64 546.216 1186.68 545.946C1205.82 545.366 1224.95 544.716 1244.07 543.826C1250.64 543.516 1257.19 542.536 1263.72 541.656C1294.13 537.566 1324.83 539.596 1355.24 537.386C1376.04 535.886 1395.47 539.506 1415.24 543.756C1436.42 548.316 1457.8 547.546 1479.24 546.526C1480.67 546.456 1482.73 545.936 1483.35 544.916C1487.22 538.626 1492.67 539.656 1498.5 540.916C1502.27 541.618 1506.08 542.079 1509.91 542.296C1520.91 543.296 1532.21 543.176 1542.91 545.606C1547.62 546.676 1551.91 552.316 1555.07 556.816C1560.73 564.702 1565.7 573.067 1569.91 581.816C1572.91 588.306 1573.52 595.866 1575.91 602.676C1578.15 608.966 1581.43 614.866 1584.17 620.976C1584.87 622.387 1585.34 623.899 1585.56 625.456C1586.67 636.506 1587.21 647.636 1588.86 658.596C1590.09 666.846 1592.73 674.876 1594.65 683.016C1595.26 684.955 1595.49 686.99 1595.34 689.016C1593.02 702.836 1596.78 715.846 1599.99 729.016C1602.73 740.216 1604.99 751.576 1606.74 762.966C1609.85 782.596 1610.74 802.436 1617.52 821.626C1622.52 835.836 1623.93 851.286 1626.94 866.186C1629.36 878.186 1631.78 890.186 1634.19 902.186C1638.24 922.386 1642.27 942.593 1646.27 962.806C1646.63 964.832 1646.74 966.894 1646.59 968.946C1645.59 988.116 1649.15 1006.45 1655.78 1024.39C1657.54 1029.31 1658.38 1034.51 1658.26 1039.74C1657.98 1054.03 1656.78 1068.29 1656.42 1082.57C1656.31 1086.78 1657.61 1091.06 1658.53 1095.25C1662.32 1112.7 1659.22 1129 1650.51 1142.89ZM573.981 921.446C574.901 926.446 573.351 929.546 567.821 930.376C559.321 931.666 550.921 933.596 542.411 934.816C528.611 936.816 514.031 934.056 501.271 942.416C498.891 943.976 495.001 944.196 492.001 943.736C470.431 940.456 461.201 948.856 450.901 965.736C445.631 974.376 443.901 985.216 440.831 995.156C438.781 1001.88 438.411 1009.33 435.311 1015.47C427.171 1031.58 425.581 1048.8 424.311 1066.27C423.771 1073.91 422.311 1081.47 421.541 1089.09C420.591 1098.22 419.911 1107.38 419.091 1116.73L441.341 1118.11C442.521 1100.55 443.151 1084.19 444.821 1067.93C446.881 1047.82 458.431 1031.66 468.551 1015.02C470.12 1012.54 472.063 1010.33 474.311 1008.45C484.401 999.696 496.991 996.626 509.451 993.186C524.311 989.076 540.451 991.656 554.711 984.306C556.641 983.306 559.651 983.896 562.041 984.376C576.131 987.226 586.101 979.186 595.731 971.216C600.391 967.356 598.121 946.056 592.991 940.626C586.811 934.066 580.221 927.896 573.801 921.566C571.151 919.086 568.37 916.749 565.471 914.566C560.551 911.206 555.681 906.336 550.241 905.456C537.071 903.316 525.181 899.926 515.681 889.766C506.181 879.606 509.061 866.066 522.341 861.766L531.011 858.926L531.161 856.386C526.321 855.146 521.531 853.136 516.631 852.786C503.381 851.866 490.091 857.436 476.781 852.676C475.781 852.336 474.521 852.806 473.401 853.006C464.201 854.676 455.021 856.376 444.081 858.396C447.211 884.396 450.581 911.876 453.641 939.396C453.841 941.246 451.731 943.346 450.691 945.336C448.981 944.226 446.751 943.476 445.691 941.926C444.631 940.376 444.691 938.066 444.411 936.056C442.871 925.166 441.411 914.266 439.671 901.796C429.301 911.096 419.081 919.066 410.331 928.396C398.331 941.186 397.761 941.646 388.461 926.976C381.921 916.666 372.111 909.056 370.371 894.976C367.491 871.556 361.461 848.516 356.661 825.326C355.161 818.096 353.331 810.926 351.661 803.726C350.297 807.023 349.33 810.47 348.781 813.996C346.481 826.456 343.561 838.846 342.111 851.416C341.111 860.296 341.011 868.536 347.051 877.596C354.941 889.436 358.631 904.146 363.561 917.826C368.341 931.086 372.381 944.616 376.781 958.016C379.481 966.196 382.381 974.316 384.901 982.546C385.641 984.946 386.351 988.176 385.311 990.036C384.501 991.466 380.551 992.436 378.681 991.756C370.811 988.906 365.681 992.276 360.931 997.946C358.631 1000.68 355.501 1002.72 352.741 1005.06C346.211 1010.6 340.831 1016.79 338.691 1025.5C337.729 1029.25 335.9 1032.73 333.351 1035.65C331.991 1037.19 328.121 1038.01 326.211 1037.2C324.301 1036.39 322.371 1033.15 322.351 1030.96C322.351 1029.05 324.831 1026.96 326.471 1025.23C327.721 1023.89 330.001 1023.23 330.721 1021.73C340.121 1002.21 355.621 988.996 374.721 977.836C363.631 946.536 352.201 914.326 340.781 882.106C338.967 885.838 337.836 889.865 337.441 893.996C335.441 911.376 332.941 928.656 326.511 945.106C325.978 946.568 325.641 948.095 325.511 949.646C323.251 971.966 320.341 994.246 319.011 1016.65C317.621 1040.07 317.351 1063.59 317.471 1087.06C317.471 1096.06 319.811 1105.06 321.471 1113.94C322.401 1119.04 325.151 1121.26 330.791 1119.03C334.235 1117.83 337.867 1117.27 341.511 1117.38C356.811 1117.24 372.121 1117.38 387.421 1117.38H410.551C411.651 1105.9 412.551 1095.76 413.641 1085.64C414.331 1079.37 415.441 1073.14 416.221 1066.88C417.771 1054.29 418.531 1041.55 420.961 1029.13C422.541 1021.03 426.761 1013.48 429.301 1005.53C433.421 992.616 437.091 979.526 441.041 966.596C446.691 948.106 469.231 929.936 491.981 934.506C493.801 934.866 495.761 934.506 499.541 934.506C497.131 932.656 496.411 931.716 495.481 931.446C483.741 928.046 480.611 917.546 479.481 908.066C477.791 893.316 478.861 878.226 479.111 863.286C479.111 861.796 481.601 860.356 482.941 858.886C484.361 860.376 486.751 861.716 487.011 863.386C487.481 866.446 486.841 869.716 486.401 872.856C484.202 888.203 486.114 903.859 491.941 918.226C492.941 920.756 498.051 922.976 501.281 922.996C506.201 922.996 511.861 918.336 514.161 926.996C514.271 927.416 516.721 927.376 518.061 927.266C534.121 925.976 550.481 927.506 566.061 921.906C568.451 920.996 571.341 921.526 573.981 921.446ZM1163.42 724.446L1163.3 724.306C1165.93 741.056 1155.82 753.596 1148.36 767.696L1159.67 774.756C1163.87 771.426 1167.31 767.936 1171.45 765.756C1173.25 764.816 1176.45 766.606 1179.06 767.156C1177.96 769.356 1177.29 771.986 1175.65 773.676C1173.15 776.246 1169.98 778.156 1167.12 780.336C1170.3 784.126 1172.7 786.996 1175.12 789.866L1175.42 788.226H1185.49C1184.23 791.706 1182.97 795.226 1181.11 800.316C1184.11 804.436 1189.01 809.196 1196.11 809.266V749.116C1190.11 749.776 1184.94 750.836 1179.78 750.686C1177.55 750.626 1175.4 748.076 1173.21 746.686C1175.13 744.976 1176.89 742.056 1179 741.786C1184.52 741.096 1190.19 741.556 1195.77 741.556V696.556C1186.31 703.896 1176.96 701.296 1167.87 697.966C1165.95 697.256 1164.98 693.966 1163.57 691.866C1165.87 691.076 1168.2 689.576 1170.47 689.646C1176.09 689.816 1181.67 690.886 1187.29 691.256C1190.08 691.436 1192.91 690.886 1196.29 690.626C1196.29 676.276 1196.29 661.206 1196.29 646.146C1196.29 645.246 1195.97 644.356 1195.88 643.456C1195 634.456 1193.21 625.386 1193.62 616.456C1193.87 610.966 1197.18 605.456 1199.87 600.386C1200.45 599.306 1205.71 598.976 1206.47 600.016C1211.54 607.016 1216.76 614.016 1220.47 621.776C1227.89 637.356 1234.14 653.486 1241.3 669.196C1245.04 677.396 1248.98 678.826 1257.71 677.806C1267.2 676.686 1276.72 675.823 1286.27 675.216C1297.64 674.506 1309.03 673.836 1320.4 673.836C1331.77 673.836 1343.16 674.946 1354.54 675.116C1364.47 675.256 1365.43 673.986 1368.15 664.626C1369.4 660.316 1371.73 656.326 1373.59 652.196C1375.93 647.016 1379.04 642.046 1380.51 636.626C1384.79 620.796 1390.3 605.626 1400.1 592.276C1401.29 590.656 1403.92 588.656 1405.36 589.006C1407.36 589.476 1409.42 591.756 1410.26 593.766C1411.18 595.946 1410.74 598.706 1410.85 601.206C1411.42 614.206 1411.64 627.206 1412.64 640.116C1413.82 655.446 1416.08 670.686 1417.11 686.016C1417.85 697.086 1417.28 708.246 1417.41 719.366C1417.47 724.696 1419.29 728.566 1425.65 728.206C1430.45 727.936 1434.65 728.866 1437.18 733.716C1437.92 735.086 1440.07 735.906 1441.74 736.566C1450.1 739.846 1454.67 746.276 1457.24 754.566C1457.82 756.426 1458.73 758.186 1460.37 762.086C1462.37 755.916 1464.18 751.826 1464.94 747.536C1466.37 739.536 1467.51 731.446 1468.2 723.346C1470.09 701.406 1471.58 679.426 1473.49 657.476C1473.86 653.256 1475.43 649.136 1476.43 644.966C1478.69 635.556 1481.61 626.246 1483.06 616.706C1485.51 600.566 1487.06 584.276 1488.94 568.046C1489.39 564.116 1489.64 560.166 1489.94 556.946H1443.88C1446.05 581.556 1448.16 605.006 1450.12 628.456C1450.38 631.415 1450.16 634.397 1449.47 637.286C1445.09 654.696 1440.96 672.086 1441.8 690.286C1442.13 697.216 1435.93 701.616 1429.32 699.786C1427.98 699.326 1425.98 697.996 1425.98 696.996C1425.92 695.496 1426.98 692.876 1428.09 692.606C1434.61 690.976 1434.09 686.986 1432.47 682.076C1431.95 680.466 1432.35 678.446 1432.7 676.696C1435.7 662.036 1438.7 647.406 1441.7 632.746C1441.98 630.94 1442.03 629.105 1441.85 627.286C1441.48 620.726 1440.76 614.176 1440.62 607.616C1440.15 590.328 1437.25 573.193 1432 556.716C1431.73 556.141 1431.33 555.634 1430.84 555.231C1430.34 554.829 1429.77 554.54 1429.15 554.386C1416.41 551.916 1403.72 548.766 1390.85 547.506C1378.48 546.296 1365.92 546.996 1353.45 547.046C1322.68 547.146 1291.83 546.426 1261.27 550.776C1238.24 554.096 1214.97 555.474 1191.71 554.896C1181.25 554.616 1170.71 554.766 1160.3 555.026C1150.3 555.286 1139.91 557.886 1130.41 555.956C1116.31 553.106 1102.35 553.396 1088.25 552.956C1076.07 552.546 1064.41 548.526 1051.73 549.656C1036.38 551.016 1020.73 549.226 1005.24 548.996C1000.74 548.936 996.241 549.996 991.721 549.756C982.871 549.276 974.071 547.756 965.241 547.556C948.151 547.196 931.051 547.436 913.951 547.486C911.951 547.486 909.951 548.036 907.881 548.096C895.411 548.446 882.951 548.906 870.481 549.006C856.861 549.116 843.231 548.726 829.611 548.856C820.271 548.946 810.931 550.056 801.611 549.856C785.911 549.456 770.231 548.196 754.541 547.566C744.081 547.146 733.611 547.256 723.141 546.996C715.871 546.806 708.581 545.936 701.331 546.166C685.221 546.676 669.131 548.256 653.021 548.356C626.611 548.526 600.191 547.296 573.791 547.736C550.861 548.116 527.951 549.956 505.041 551.246C497.241 551.676 489.111 550.326 482.041 555.246C481.401 555.696 480.251 555.366 479.361 555.526C468.271 557.476 457.181 559.456 447.521 561.166C447.521 571.666 447.741 580.916 447.471 590.166C447.141 601.076 446.391 611.966 445.821 622.866C444.951 639.246 449.721 653.866 459.661 666.866C461.381 669.116 464.171 672.316 460.051 674.116C458.051 675.016 453.531 673.776 452.051 671.966C448.66 667.392 445.789 662.455 443.491 657.246C433.811 636.866 437.351 615.096 438.161 593.896C438.551 583.646 439.581 573.696 436.891 563.786C416.141 561.876 410.131 562.906 406.501 568.906C412.961 571.796 412.841 571.746 410.121 578.266C409.596 579.977 409.596 581.805 410.121 583.516C415.551 603.916 423.121 623.816 423.401 645.356C423.401 649.046 426.451 653.766 420.791 654.846C415.131 655.926 416.441 649.666 414.611 646.716C414.301 646.196 414.551 645.356 414.441 644.716C412.611 633.066 411.281 621.306 408.771 609.806C406.451 599.236 402.851 588.946 399.351 576.906C397.491 582.496 396.991 587.816 394.261 591.486C384.881 604.086 385.431 619.486 381.571 633.536C377.821 647.226 375.401 661.286 371.851 675.036C368.791 686.866 364.451 698.366 361.641 710.236C359.301 720.146 358.131 730.366 356.861 740.496C355.591 750.626 353.811 760.796 354.191 770.876C354.541 780.186 357.421 789.416 359.191 798.666C364.331 824.796 369.371 850.946 374.711 877.046C376.581 886.176 377.791 895.846 381.861 904.046C386.101 912.536 393.421 919.496 398.781 926.336C404.341 921.386 409.421 916.836 414.531 912.336C421.711 906.016 428.991 899.816 436.041 893.336C437.421 892.066 438.831 889.846 438.761 888.126C438.341 877.546 437.501 866.986 436.761 856.436C430.761 855.916 424.301 855.716 418.011 854.726C411.721 853.736 405.721 851.916 399.571 850.516C396.866 849.996 394.366 848.714 392.365 846.823C390.363 844.931 388.943 842.507 388.271 839.836C386.681 834.116 389.421 829.116 394.021 826.226C398.621 823.336 403.881 821.716 409.021 820.096C416.921 817.616 418.071 816.096 416.711 809.006C408.611 807.006 400.891 805.366 393.411 803.006C391.841 802.506 391.151 799.236 390.051 797.246C392.391 796.766 394.781 795.716 397.051 795.916C402.871 796.446 408.651 798.166 414.421 798.076C416.501 798.076 419.081 794.496 420.301 791.996C420.771 790.996 418.421 788.116 416.791 786.806C411.291 782.406 405.371 778.516 399.991 773.976C398.831 772.976 399.301 770.086 398.991 768.076C401.201 768.186 403.921 767.516 405.511 768.556C411.901 772.766 417.941 777.556 424.041 782.006C428.861 777.006 427.581 774.916 422.571 768.006C416.671 759.866 410.571 751.056 407.901 741.586C404.551 729.766 404.701 716.966 403.111 704.586C401.631 693.136 410.441 687.076 415.931 679.266C422.591 669.806 444.541 666.586 454.931 678.546C461.091 685.646 467.451 692.546 473.031 700.146C478.611 707.746 481.511 716.146 478.941 725.676C475.701 737.676 472.521 749.796 469.271 761.846C468.421 764.976 467.771 767.846 472.421 768.236C476.041 768.566 479.651 769.026 484.591 769.566C485.991 767.986 488.081 764.916 490.841 762.676C492.921 760.986 495.841 760.366 498.391 759.266C498.171 761.936 498.791 765.136 497.531 767.146C494.821 771.496 491.131 775.236 487.861 779.206C491.751 784.116 495.211 786.096 499.741 780.736C500.921 779.336 503.741 777.886 505.141 778.346C510.571 780.106 512.681 776.166 515.801 773.426C517.801 771.716 520.481 769.916 522.801 769.966C524.491 769.966 526.111 773.026 527.801 774.716C523.561 777.926 518.851 784.246 515.171 783.716C507.891 782.626 506.491 788.716 501.671 790.186C506.611 796.286 511.401 801.726 515.671 807.576C519.041 812.246 523.851 811.756 528.011 810.896C529.861 810.526 531.251 806.316 532.201 803.626C533.036 801.258 533.333 798.733 533.071 796.236C529.141 764.476 539.701 734.056 541.551 702.846C542.421 688.126 544.221 673.436 544.431 658.716C544.691 641.636 543.581 624.536 543.281 607.446C543.286 604.301 543.841 601.18 544.921 598.226C545.322 597.473 545.903 596.832 546.614 596.361C547.325 595.889 548.142 595.602 548.991 595.526C550.321 595.616 552.051 597.326 552.711 598.746C558.571 611.276 564.471 623.746 569.861 636.526C574.132 646.233 577.845 656.175 580.981 666.306C583.121 673.646 583.531 674.146 591.031 672.966C609.181 670.126 627.371 667.226 645.651 665.626C659.651 664.396 673.951 665.626 686.891 658.186C688 657.643 689.205 657.324 690.437 657.249C691.669 657.173 692.904 657.342 694.071 657.746C698.871 659.686 700.161 657.146 701.241 653.466C701.917 650.602 702.847 647.804 704.021 645.106C712.921 627.226 721.871 609.366 731.131 591.676C731.931 590.136 735.651 588.496 736.941 589.126C741.381 591.266 745.301 593.956 746.121 599.956C747.561 610.496 750.021 620.896 751.901 631.396C752.44 634.773 752.774 638.179 752.901 641.596C753.901 659.766 754.821 677.956 755.901 696.126C756.481 705.856 759.191 708.326 769.011 709.686C771.801 710.066 774.441 711.626 775.801 712.146C779.371 711.146 781.901 709.706 784.381 709.786C808.771 710.576 833.151 711.916 857.551 712.406C867.081 712.596 876.361 718.046 886.191 713.646C887.541 713.036 889.961 714.766 891.881 715.456C893.551 716.046 895.201 717.226 896.881 717.226C918.131 717.226 939.391 717.426 960.641 716.996C980.251 716.606 999.851 715.436 1019.46 714.886C1025.59 714.706 1031.83 716.246 1037.85 715.526C1046.49 714.526 1054.6 713.456 1062.8 718.146C1065.72 719.816 1070.36 718.536 1074.22 718.506C1075.79 718.506 1077.64 717.666 1078.87 718.246C1080.69 719.116 1082.08 720.916 1083.65 722.316C1082.37 723.666 1081.26 725.926 1079.77 726.206C1073.4 727.426 1066.91 728.066 1061.43 728.786C1063.58 732.266 1066.57 736.476 1068.9 741.036C1073.46 749.926 1076.32 759.036 1072.9 769.286C1069.72 778.756 1067.38 788.516 1064.5 798.096C1059.25 815.486 1054.18 832.936 1048.42 850.156C1045.42 859.156 1039.64 867.406 1037.67 876.546C1033.61 895.316 1031.28 914.456 1028.29 933.126C1039.13 938.006 1048.96 943.866 1060.86 940.956C1066.86 939.496 1072.86 938.176 1078.86 936.956C1081.72 936.376 1084.77 935.446 1087.54 935.886C1100.27 937.946 1112.88 940.586 1125.19 933.886C1126.5 933.176 1129.53 934.226 1130.81 935.446C1131.5 936.106 1130.65 940.116 1129.66 940.496C1123.26 942.986 1116.73 946.166 1110.05 946.686C1100.44 947.426 1090.33 944.316 1081.05 946.036C1065.45 948.926 1050.32 954.456 1034.94 946.036C1042.6 957.036 1050.49 967.196 1057.11 978.156C1062.44 986.986 1066.48 996.646 1070.47 1006.16C1071.15 1007.77 1068.71 1010.68 1067.72 1013C1065.94 1011.69 1063.45 1010.77 1062.54 1009C1060.3 1004.7 1059.22 999.796 1056.9 995.566C1053.76 989.866 1049.9 984.566 1046.33 979.096C1038.6 967.306 1030.84 955.546 1022.98 943.576C1013.15 950.106 1003.83 947.806 996.661 942.136C992.941 939.196 990.101 938.386 986.181 938.456C964.291 938.876 942.411 939.516 920.521 939.646C915.231 939.646 911.921 941.176 909.841 946.036C904.571 958.376 898.701 970.486 893.841 983.036C889.211 995.036 885.501 1007.42 881.691 1019.73C881.281 1021.07 882.601 1024.25 883.691 1024.55C892.311 1026.96 900.591 1030.89 910.211 1027.91C915.211 1026.37 920.941 1027.29 926.351 1027.19C933.421 1027.07 940.551 1027.56 947.551 1026.81C954.761 1026.04 961.481 1024.56 969.001 1027.02C974.551 1028.84 981.261 1027.25 987.431 1026.96C993.011 1026.7 998.561 1026.02 1004.14 1025.78C1006.81 1025.67 1010.38 1027.35 1012.03 1026.15C1017.82 1021.93 1023.74 1023.65 1029.83 1024.15C1032.41 1024.35 1035.59 1024.15 1037.6 1022.85C1042.24 1019.77 1046.43 1020.73 1051.27 1022.02C1054.44 1022.86 1058.94 1023.02 1061.41 1021.32C1067.01 1017.54 1072.07 1017 1078.41 1021.32C1086.67 971.506 1115.68 942.696 1164.93 934.256C1162.08 930.726 1159.93 927.916 1157.61 925.256C1151.61 918.256 1151.39 910.046 1151.73 901.406C1152.13 891.326 1151.73 881.206 1151.67 871.096C1151.67 866.646 1151.67 862.196 1151.67 857.506C1148.62 857.906 1145.91 858.676 1143.24 858.506C1123.65 857.506 1104.04 856.606 1084.5 854.926C1081.5 854.656 1077.56 851.166 1076.13 848.166C1072.47 840.536 1077.69 828.576 1085.02 824.166C1091.09 820.496 1096.71 816.066 1102.57 811.956C1097.19 810.336 1091.97 809.706 1087.91 807.206C1085.28 805.586 1083.08 801.256 1082.99 798.076C1082.9 794.526 1087.42 792.936 1089.24 796.076C1093.43 803.386 1099.31 801.416 1107.53 800.766C1104.94 797.856 1103.76 795.586 1101.9 794.616C1096.85 791.996 1091.23 790.406 1086.39 787.496C1081.18 784.366 1075.83 780.596 1075.94 773.496C1075.94 771.776 1078.15 770.086 1079.35 768.386C1080.84 769.466 1083.01 770.226 1083.71 771.686C1088.31 781.336 1096.33 785.206 1105.81 786.366L1112.23 774.066C1111.03 772.666 1109.7 771.146 1108.38 769.606C1095.71 754.916 1089.16 737.676 1089.43 718.486C1089.54 711.186 1091.22 702.226 1095.68 697.006C1107.45 683.226 1132.02 681.086 1147.19 691.006C1150.36 693.168 1152.86 696.166 1154.42 699.666C1157.85 707.676 1160.45 716.136 1163.4 724.446H1163.42ZM1651.33 1105.17C1651.21 1103.54 1651.19 1102.23 1651.01 1100.94C1650.01 1093.77 1648.01 1086.6 1648.1 1079.45C1648.17 1066.29 1649.57 1053.15 1650.1 1039.99C1650.08 1036.59 1649.46 1033.23 1648.28 1030.06C1642.22 1011.85 1637.46 993.546 1638.11 973.996C1638.41 965.066 1638.36 954.786 1634.26 947.486C1631.44 942.647 1629.91 937.165 1629.82 931.566C1629.61 926.666 1627.82 921.856 1626.92 916.966C1623.15 895.966 1619.52 874.966 1615.74 854.026C1614.06 844.666 1612.47 835.276 1610.23 826.026C1608.49 818.886 1605.81 811.976 1603.14 803.706C1599.9 820.936 1597.23 836.706 1593.91 852.376C1591.55 863.436 1587.8 874.206 1585.6 885.286C1582.9 898.846 1580.6 912.546 1579.15 926.286C1577.64 940.396 1570.71 955.366 1583.7 967.996C1583.85 968.136 1583.81 968.446 1583.93 968.636C1588.65 976.486 1592.36 985.256 1598.38 991.936C1605.56 999.936 1614.69 1006.14 1623.03 1013.05C1628.65 1017.71 1635.03 1021.88 1635.36 1030.17C1635.46 1032.66 1634.36 1035.17 1633.8 1037.72C1631.55 1035.93 1628.92 1034.46 1627.13 1032.29C1623.94 1028.43 1621.72 1023.69 1618.25 1020.15C1612.75 1014.53 1606.56 1009.59 1600.64 1004.39C1599.86 1003.57 1598.91 1002.94 1597.86 1002.53C1592.06 1001.04 1589.64 996.626 1587.73 991.526C1587.06 989.716 1585.61 988.196 1584.52 986.526C1578.99 978.166 1573.35 969.866 1568.03 961.376C1567.18 960.026 1567.43 957.776 1567.63 955.996C1569.14 942.716 1569.83 929.256 1572.63 916.246C1575.98 900.596 1576.44 884.636 1581.4 868.996C1587.68 849.226 1590.14 828.176 1593.4 807.546C1594.33 801.656 1595.19 798.036 1602.58 799.836C1601.16 788.896 1600.22 778.736 1598.45 768.716C1595.74 753.346 1592.28 738.106 1589.45 722.716C1587.76 713.446 1585.45 703.996 1585.82 694.716C1586.09 687.656 1584.76 681.456 1582.9 674.966C1581.77 670.57 1580.97 666.098 1580.49 661.586C1579.49 653.766 1579.41 645.716 1577.49 638.116C1574.4 625.606 1569.24 613.556 1566.67 600.966C1563.99 588.065 1558.36 575.957 1550.23 565.586C1546.23 560.356 1543.23 554.776 1535.11 552.346C1521.71 548.346 1510.83 555.726 1498.11 555.586C1498.11 560.506 1498.52 564.646 1498.04 568.676C1495.92 586.486 1493.8 604.306 1491.15 622.046C1489.95 630.046 1487.55 637.936 1485.64 645.856C1484.33 651.296 1482.23 656.636 1481.72 662.136C1480.72 673.216 1480.8 684.396 1479.94 695.496C1479.29 703.816 1477.8 712.076 1476.78 720.376C1475.58 730.026 1475.29 739.886 1473.1 749.296C1471.15 757.898 1468 766.183 1463.74 773.906C1460.4 779.846 1454.55 784.376 1448.85 790.576C1453.79 792.786 1457.14 794.036 1460.26 795.716C1470.63 801.286 1482.26 805.906 1484.26 819.616C1486.46 834.436 1489.68 849.356 1489.51 864.196C1489.37 876.496 1495.04 882.196 1504.71 886.006C1513.25 889.416 1521.02 893.646 1527.71 900.236C1533.44 905.916 1542.38 904.726 1545.34 898.156C1547.15 893.782 1548.38 889.19 1548.99 884.496C1550.19 876.886 1550.86 869.186 1551.7 861.496C1553.07 849.116 1554.26 836.706 1555.81 824.336C1556.51 818.077 1557.65 811.875 1559.22 805.776C1563.31 790.886 1569.04 776.326 1571.88 761.216C1574.96 744.876 1575.38 728.046 1577.31 711.466C1577.56 709.336 1579.9 707.466 1581.31 705.466C1582.68 707.466 1585.23 709.466 1585.25 711.466C1585.34 722.306 1587.25 733.466 1581.13 743.586C1580.39 744.806 1580.45 746.726 1580.62 748.266C1582.33 763.216 1576.96 776.976 1573.42 791.016C1570.87 801.126 1567.2 810.966 1564.9 821.116C1563.51 827.246 1564.06 833.786 1563.25 840.116C1561.4 854.486 1558.05 868.786 1557.6 883.186C1557.22 895.596 1552.7 904.986 1544.48 913.436C1541.78 916.216 1539.48 916.786 1536.28 914.116C1534.45 912.616 1531.84 912.116 1529.58 911.116C1527.1 910.116 1523.58 909.726 1522.28 907.856C1513.98 896.276 1499.43 895.756 1487.7 886.316C1488.07 899.786 1490.12 911.826 1480.98 921.556C1483.92 923.246 1485.98 925.426 1488.21 925.556C1495.31 925.926 1498.64 930.276 1501.21 936.016C1501.82 936.973 1502.55 937.85 1503.38 938.626C1514.26 952.126 1527.66 963.526 1533.32 981.106C1537.72 994.766 1545.32 1007.38 1550.32 1020.88C1553.1 1028.39 1553.98 1036.72 1554.91 1044.78C1556.6 1059.37 1559.02 1074.07 1558.47 1088.63C1558.22 1095.09 1559.22 1101.54 1561.42 1107.63L1651.33 1105.17ZM328.331 1127.27C337.861 1146.89 367.021 1160.09 388.801 1156.13C396.541 1154.72 404.531 1154.7 412.401 1154.06C417.821 1153.62 423.331 1153.69 428.641 1152.68C445.141 1149.54 461.571 1148.57 478.191 1151.8C489.541 1154.01 500.951 1156 512.411 1157.52C519.62 1158.39 526.88 1158.77 534.141 1158.67C542.051 1158.67 549.971 1158.13 557.861 1157.46C561.461 1157.15 564.961 1155.38 568.541 1155.23C586.101 1154.49 603.681 1153.43 621.231 1153.7C638.781 1153.97 656.231 1155.7 673.731 1156.8C678.291 1157.1 682.971 1156.97 687.351 1158.06C705.621 1162.61 724.161 1160.65 742.611 1160.76C745.261 1160.76 747.901 1159.44 750.611 1158.86C756.611 1157.57 762.511 1155.5 768.521 1155.29C786.751 1154.64 804.731 1152.43 822.831 1150.36C850.831 1147.15 879.351 1141.92 907.781 1148.36C923.031 1151.83 938.481 1154.79 953.391 1159.41C969.211 1164.33 984.951 1167.98 1001.65 1167.7C1015.56 1167.48 1029.51 1168.81 1043.42 1168.54C1061.2 1168.19 1079.53 1172.9 1096.5 1163.54C1097.38 1163.27 1098.3 1163.19 1099.21 1163.3C1138.58 1161.47 1177.94 1159.5 1217.32 1157.88C1230.72 1157.33 1244.23 1156.81 1257.58 1157.77C1280.49 1159.4 1303.26 1163.37 1326.18 1164.26C1365.81 1165.82 1405.51 1165.66 1445.18 1166.44C1473.85 1167.01 1502.51 1167.93 1531.18 1168.69C1534.6 1168.78 1538.06 1169.26 1541.42 1168.86C1557.92 1166.86 1574.54 1165.45 1590.83 1162.3C1602.75 1159.99 1614.08 1154.73 1625.94 1151.9C1634.25 1149.9 1640.04 1145.9 1643.1 1138.17C1646.44 1129.71 1652.92 1122.17 1651.35 1113.41C1639.09 1114.16 1627.35 1115.1 1615.66 1115.54C1601.31 1116.07 1586.93 1116.02 1572.58 1116.54C1567.46 1116.74 1561.51 1116 1559.58 1123.3C1559.31 1124.3 1554.58 1125.53 1553.76 1124.73C1547.93 1119.18 1542.26 1123.91 1536.55 1124.37C1534.17 1124.57 1530.34 1125.29 1529.55 1124.16C1526.55 1119.7 1522.47 1120.75 1518.55 1120.77C1508.95 1120.77 1499.35 1121.02 1489.76 1121.17C1481.12 1121.31 1472.48 1121.53 1463.84 1121.57C1459.58 1121.57 1455.32 1121.27 1451.06 1121.14C1440.06 1120.8 1429.11 1120.14 1418.15 1120.32C1414.25 1120.39 1408.15 1121.4 1406.94 1123.9C1403.72 1130.35 1398.67 1133.3 1394.4 1128.07C1388.27 1120.55 1381.82 1123.19 1374.75 1125.24C1369.1 1126.8 1363.38 1128.06 1357.6 1129.03C1354.03 1129.68 1350.1 1129.03 1346.77 1130.21C1334.23 1134.62 1320.84 1133.66 1307.96 1136.09C1293.71 1138.77 1277.48 1138.71 1263.27 1130.74C1260.89 1129.41 1257.52 1129.59 1254.6 1129.56C1229.39 1129.25 1204.18 1129.05 1178.97 1128.8C1177.83 1128.85 1176.69 1128.69 1175.61 1128.33C1163.53 1123.42 1150.95 1124.46 1138.41 1125.1C1127.61 1125.66 1116.81 1126.52 1105.99 1126.85C1096.32 1127.15 1086.64 1126.91 1076.99 1126.91L1078.1 1128.91C1076.71 1131.01 1075.5 1134.7 1073.89 1134.91C1070.31 1135.32 1066.89 1133.97 1067.29 1128.71C1067.39 1127.24 1064.75 1125.11 1062.92 1124.12C1060.37 1122.75 1057.42 1122.12 1054.61 1121.28C1052.13 1120.55 1049.46 1119.11 1047.11 1119.49C1036.8 1121.14 1026.57 1123.28 1016.33 1125.34C1011.25 1126.34 1006.21 1128.47 1001.14 1128.49C996.231 1128.49 991.351 1125.81 986.381 1125.49C970.461 1124.49 954.511 1123.49 938.561 1123.34C923.331 1123.19 908.081 1124.04 892.841 1124.53C879.001 1124.98 865.131 1125.24 851.331 1126.27C847.521 1126.55 843.981 1129.56 840.141 1130.76C838.421 1131.29 834.641 1130.69 834.571 1130.18C833.901 1125.88 830.911 1126.26 827.931 1126.18C815.181 1125.75 802.431 1125.08 789.671 1124.88C785.671 1124.81 781.551 1125.95 777.491 1126.47C774.111 1126.9 770.711 1127.6 767.341 1127.53C763.281 1127.44 759.241 1126.23 755.201 1126.27C747.201 1126.35 739.261 1127.27 731.301 1127.27C716.481 1127.19 701.661 1126.5 686.841 1126.35C669.531 1126.17 652.221 1126.07 634.921 1126.35C612.801 1126.73 590.691 1127.53 568.581 1128.14C565.891 1128.21 563.191 1128.35 560.511 1128.14C556.151 1127.86 551.801 1126.96 547.441 1126.99C532.231 1127.09 517.011 1127.92 501.811 1127.62C489.341 1127.38 476.901 1125.35 464.441 1125.18C454.711 1125.04 444.961 1126.5 435.231 1127.29C429.781 1127.74 424.331 1128.29 418.881 1128.73C417.748 1128.72 416.619 1128.58 415.521 1128.3C411.791 1127.63 408.081 1126.39 404.341 1126.3C384.691 1126.1 365.031 1126.14 345.341 1126.3C339.981 1126.38 334.541 1126.92 328.351 1127.27H328.331ZM600.981 978.896C598.471 980.745 595.86 982.454 593.161 984.016C586.771 987.256 580.491 992.016 573.731 992.936C563.271 994.366 552.311 992.216 542.651 998.426C541.981 998.856 540.851 998.526 539.941 998.646C529.561 1000.03 518.941 1000.41 508.891 1003.09C498.841 1005.77 487.571 1008.55 480.661 1015.25C471.991 1023.65 466.941 1035.92 460.871 1046.82C454.111 1058.97 452.561 1072.74 451.021 1086.19C449.821 1096.64 450.781 1107.33 450.781 1116.8C463.631 1116.8 474.931 1116.43 486.181 1116.93C494.111 1117.28 501.971 1119.65 509.871 1119.68C532.081 1119.77 554.291 1119.22 576.491 1118.68C594.731 1118.26 612.971 1117.11 631.211 1117.1C657.631 1117.1 684.051 1117.77 710.471 1118.17C729.471 1118.45 748.571 1118.78 767.621 1119C769.434 1118.87 771.23 1118.56 772.981 1118.08C789.328 1114.91 806.075 1114.38 822.591 1116.49C825.831 1116.88 829.151 1116.55 832.741 1116.55C831.231 1108.28 828.921 1100.74 828.651 1093.12C828.071 1076.74 829.251 1060.26 825.011 1044.17C822.541 1034.79 820.461 1025.26 817.121 1016.17C815.891 1012.82 812.001 1009.41 808.531 1008.11C796.881 1003.73 785.091 999.226 772.941 996.736C755.851 993.236 738.341 991.826 721.131 988.816C714.611 987.676 708.381 984.726 702.131 982.286C698.551 980.886 695.211 978.846 690.871 976.636C689.871 982.326 689.461 986.636 688.261 990.696C687.481 993.306 686.041 996.906 684.001 997.696C681.591 998.596 677.541 997.806 675.391 996.176C670.301 992.316 665.911 987.536 660.771 982.676C659.851 986.176 659.341 990.026 657.771 993.406C656.591 996.016 654.121 998.036 652.231 1000.32C650.131 998.516 647.411 997.106 646.041 994.866C640.941 986.566 640.151 986.386 634.291 993.866C633.513 994.994 632.525 995.962 631.381 996.716C629.151 997.976 626.021 1000.36 624.571 999.636C622.151 998.416 620.161 995.386 619.101 992.636C618.211 990.386 618.921 987.516 618.921 984.566C607.271 988.786 607.271 988.786 600.981 978.896ZM1206.88 809.206C1208.71 809.326 1210.27 809.526 1211.83 809.526C1220.95 809.526 1230.24 808.236 1239.13 809.616C1252.23 811.616 1266.13 809.616 1278.37 816.366C1278.73 816.556 1279.29 816.366 1279.73 816.446L1300.37 820.866C1304.37 821.716 1308.44 822.176 1312.26 823.466C1320.16 826.146 1328.6 828.156 1335.53 832.466C1342.46 836.776 1348.23 843.146 1346.53 852.936C1346.44 854.713 1347.02 856.459 1348.16 857.826C1353.91 864.966 1352.31 878.586 1344.22 882.966C1336.64 887.066 1328.86 891.836 1319.36 889.366C1317.79 889.128 1316.19 889.155 1314.62 889.446C1296.49 891.096 1278.39 893.096 1260.23 894.326C1250.13 895.016 1239.94 894.456 1227.64 894.456L1265.19 932.606C1266.19 932.226 1266.85 932.016 1267.46 931.756C1275.2 928.476 1276.68 929.406 1276.67 937.516V953.196C1283 951.136 1284.97 954.036 1285.54 959.776C1286.27 965.39 1287.45 970.935 1289.08 976.356C1289.52 977.986 1291.19 979.286 1292.3 980.746C1293.84 979.693 1295.3 978.523 1296.66 977.246C1297.55 976.246 1297.92 974.846 1298.57 973.636C1304.06 963.376 1307.57 962.976 1314.66 971.896C1315.1 971.134 1315.61 970.42 1316.2 969.766C1318.29 967.876 1320.46 966.086 1322.6 964.246C1324.31 966.428 1325.87 968.72 1327.27 971.106C1328.98 974.426 1330.27 977.986 1331.68 981.446L1333.79 981.216C1335.6 969.516 1337.42 957.816 1338.91 948.216C1336.31 944.916 1333.58 942.956 1333.73 941.216C1333.9 939.166 1336.27 936.996 1338.16 935.456C1340.05 933.916 1342.84 933.456 1344.67 931.906C1357.58 920.756 1370.8 910.176 1386.76 903.426C1393.76 900.426 1400.37 896.426 1406.97 892.606C1407.83 892.09 1408.57 891.405 1409.15 890.594C1409.74 889.783 1410.15 888.862 1410.37 887.886C1411.22 879.796 1411.94 871.646 1411.99 863.526C1411.99 856.036 1410.93 848.526 1410.77 841.056C1410.54 830.616 1410.71 820.176 1410.71 809.436C1408.71 809.236 1407.16 808.776 1405.71 808.956C1388.23 811.106 1382.82 795.776 1373.21 786.546C1372.84 785.948 1372.69 785.242 1372.78 784.546C1372.78 773.186 1370.98 761.396 1376.11 750.846C1382.11 738.486 1389.11 726.546 1404.78 723.956C1406.41 723.686 1408.62 720.336 1408.7 718.346C1409.27 707.975 1409.3 697.58 1408.79 687.206C1407.54 668.206 1405.57 649.276 1403.79 630.326C1403.11 622.826 1402.26 615.326 1401.49 607.866L1399.83 607.456C1397.95 611.936 1395.83 616.326 1394.26 620.926C1391.9 627.996 1390.75 635.576 1387.66 642.286C1382.26 654.036 1375.94 665.286 1374.33 678.496C1374.11 680.246 1371.9 682.836 1370.26 683.126C1364.73 684.144 1359.12 684.659 1353.5 684.666C1331.15 684.666 1308.8 683.976 1286.5 684.276C1273.33 684.456 1260.17 685.986 1247 686.946C1243 687.236 1240.38 686.236 1238.51 681.996C1230.09 662.856 1221.4 643.839 1212.44 624.946C1210.44 620.766 1207.26 617.176 1204.62 613.316L1202.87 613.586C1202.4 616.066 1201.35 618.586 1201.57 621.006C1202.31 629.336 1204.21 637.616 1204.37 645.946C1204.79 667.416 1204.52 688.946 1204.51 710.386C1204.51 725.466 1205.51 740.646 1204.2 755.606C1202.57 773.496 1202.05 790.996 1206.88 809.206ZM1046.28 725.046C1025.19 725.046 1003.8 724.916 982.401 725.046C952.271 725.266 922.131 725.766 891.991 726.046C884.991 726.106 877.901 727.176 875.581 734.396C871.711 746.396 866.881 758.896 866.741 771.226C866.541 788.966 869.431 806.876 872.431 824.466C874.751 838.046 878.651 851.466 883.021 864.556C885.941 873.326 888.571 882.086 895.691 889.556C902.961 897.216 905.811 908.306 904.261 919.556C903.431 925.556 906.621 928.556 911.721 929.906C914.831 930.669 918.03 931.006 921.231 930.906C944.001 930.476 966.761 929.826 989.531 929.446C992.641 929.446 995.771 930.446 998.901 930.956C1005.5 932.036 1012.1 933.086 1018.62 934.136C1021.37 921.026 1025.09 909.456 1025.97 897.666C1027.12 882.216 1029.97 867.666 1037.46 853.996C1039.68 850.085 1041.48 845.957 1042.85 841.676C1049.51 819.766 1056.08 797.816 1062.36 775.786C1064.08 769.736 1066.81 762.786 1065.36 757.286C1063.23 749.286 1057.86 742.046 1053.56 734.676C1051.57 731.296 1048.84 728.386 1046.28 725.046V725.046ZM1550.42 1112.5C1550.42 1102.5 1550.42 1094.63 1550.42 1086.71C1550.42 1086.26 1550.26 1085.82 1550.22 1085.37C1548.81 1071.19 1547.74 1056.98 1545.89 1042.86C1544.76 1035.28 1543.04 1027.81 1540.76 1020.51C1539.02 1015.1 1536.88 1009.84 1534.37 1004.75C1528.87 992.836 1524.11 980.446 1517.25 969.356C1511.25 959.606 1502.82 951.356 1495.35 942.486C1493.08 939.796 1490.57 935.416 1487.97 935.266C1479.97 934.806 1471.14 934.266 1463.83 936.936C1447.36 943.006 1429.67 945.016 1412.26 942.796C1405.95 942.046 1399.52 942.356 1393.19 941.796C1390.89 941.586 1388.71 940.216 1386.47 939.366C1388.16 937.306 1389.62 933.776 1391.58 933.476C1397.2 932.491 1402.93 932.396 1408.58 933.196C1427.5 936.406 1445.66 935.006 1463.27 926.926C1470.34 923.686 1480.21 909.206 1480.01 901.656C1479.84 895.206 1479.88 888.736 1480.16 882.296C1480.38 877.296 1481.89 872.296 1481.45 867.466C1480.1 852.856 1478.2 838.296 1476.26 823.746C1475.45 817.666 1472.78 812.616 1466.77 809.746C1459.48 806.286 1452.35 802.486 1447.12 799.836C1439.07 802.836 1432.43 804.896 1426.12 807.766C1423.42 808.996 1419.55 811.826 1419.5 814.006C1419.16 828.576 1420.04 843.166 1419.89 857.736C1419.76 869.976 1419.15 882.236 1417.89 894.406C1417.5 898.336 1414.33 901.166 1409.3 901.836C1405.25 902.376 1401.39 904.836 1397.64 906.836C1392.88 909.346 1388.56 912.836 1383.64 914.836C1371.52 919.686 1362.23 927.836 1352.64 938.626C1358.23 938.146 1362.06 937.546 1365.89 937.626C1369.28 937.496 1372.67 937.97 1375.89 939.026C1377.3 939.566 1378.21 942.616 1378.36 944.606C1378.42 945.396 1375.85 947.126 1374.44 947.166C1365.85 947.406 1357.24 947.286 1347.44 947.286C1346.44 954.596 1345.57 962.206 1344.5 969.786C1343.58 976.256 1346.9 977.866 1352.72 978.436C1364.49 979.576 1376.18 981.536 1387.92 983.036C1393.08 983.696 1398.28 983.966 1403.45 984.566C1408.62 985.166 1414.04 985.736 1419.24 986.806C1423.24 987.626 1426.94 989.806 1430.92 990.376C1444.92 992.326 1455.37 1001.38 1465.85 1009.26C1473.6 1015.07 1478.93 1024.26 1484.78 1032.4C1488.52 1037.51 1491.65 1043.05 1494.11 1048.89C1500.23 1063.72 1503.61 1079.15 1503.24 1095.37C1503.11 1100.89 1504.64 1106.44 1505.49 1112.55L1550.42 1112.5ZM873.171 722.936C863.941 722.106 856.251 721.166 848.531 720.786C838.531 720.286 828.391 720.736 818.391 719.876C806.391 718.876 794.561 717.076 783.121 722.406C792.551 752.616 795.351 758.216 778.021 785.356C802.471 788.606 813.461 798.816 816.391 822.356C817.838 834.779 818.625 847.27 818.751 859.776C818.891 867.876 817.111 875.996 817.051 884.106C816.941 897.676 813.161 909.606 802.791 920.106C806.261 922.316 809.351 924.476 812.611 926.326C818.151 929.466 824.951 931.326 829.191 935.656C842.951 949.766 852.821 966.426 854.661 986.496C855.811 999.076 861.341 1009.74 867.141 1021.41C871.291 1017.07 875.451 1012.73 877.421 1007.57C881.361 997.206 883.681 986.246 887.421 975.816C891.421 964.816 896.421 954.096 901.341 942.236C896.701 942.856 892.741 943.406 888.771 943.926C883.831 944.576 878.901 945.556 873.951 945.736C865.951 946.016 857.951 946.336 850.031 945.386C847.641 945.096 845.761 940.646 843.651 938.096C845.471 936.886 847.341 934.556 849.111 934.626C859.051 935.026 868.971 936.626 878.891 936.576C885.551 936.576 892.201 934.576 898.301 933.516C897.301 928.956 895.811 925.456 895.991 922.046C896.641 909.536 893.421 898.656 884.221 889.836C883.356 889.093 882.672 888.163 882.221 887.116C876.881 871.246 870.941 855.536 866.581 839.406C863.531 828.086 862.691 816.186 860.841 804.546C858.461 789.546 855.911 774.546 860.161 759.546C863.591 747.556 863.341 734.246 873.171 722.936ZM1226.55 911.716C1226.81 911.186 1227.55 910.426 1227.43 909.806C1226.15 902.376 1213.54 890.546 1205.88 889.016C1200.54 888.047 1195.28 886.652 1190.15 884.846C1177.95 880.296 1175.49 873.956 1180.73 862.076C1182.84 857.296 1181.07 854.326 1175.98 854.856C1170.21 855.446 1164.5 856.636 1160.61 857.276C1160.61 862.176 1160.89 866.466 1160.55 870.696C1160.02 877.216 1158.65 883.696 1158.46 890.216C1158.33 894.686 1159.96 899.216 1160.14 903.686C1160.71 918.096 1166.32 925.206 1180.45 928.826C1184.63 929.896 1189.74 929.906 1192.76 932.406C1202.3 940.326 1212.24 938.896 1223.02 936.406C1228.66 935.106 1234.83 935.556 1240.7 936.036C1242.42 936.176 1243.91 939.116 1245.51 940.786C1243.75 941.836 1242.09 943.536 1240.21 943.786C1232.11 945.036 1223.96 945.896 1215.82 946.856C1207.29 947.856 1199.27 947.636 1191.82 941.856C1184.19 935.966 1177.21 936.416 1169.3 941.616C1168.02 942.566 1166.55 943.246 1165 943.616C1151.32 945.876 1138.92 949.996 1126.63 957.616C1111.29 967.096 1100.51 979.226 1095.06 995.416C1088.63 1014.52 1084.36 1034.35 1079.37 1053.92C1078.35 1058.34 1077.73 1062.84 1077.51 1067.38C1076.71 1078.49 1076.22 1089.61 1075.51 1100.72C1075.27 1104.21 1071.96 1107.97 1077.51 1110.56C1080.83 1112.1 1083.51 1116.31 1086.68 1116.63C1095.43 1117.5 1104.32 1116.93 1113.96 1116.93C1113.57 1113.69 1113.33 1111.75 1113.11 1109.82C1112.29 1102.82 1110.17 1095.72 1110.95 1088.93C1112.42 1076.18 1115.67 1063.65 1117.95 1050.99C1119.34 1043.34 1121.33 1036.31 1126.1 1029.68C1134.36 1018.23 1146.18 1011.42 1157.1 1003.49C1163.3 998.996 1169.93 994.706 1177 991.926C1188.94 987.236 1201.31 983.576 1213.65 979.986C1218.42 978.596 1223.65 978.726 1228.57 977.846C1231.37 977.399 1234.1 976.533 1236.64 975.276C1241.22 972.876 1245.24 969.006 1250.05 967.516C1265.44 962.756 1267.79 960.246 1267.97 945.576C1264.18 942.846 1259.79 941.056 1257.54 937.796C1249.59 926.336 1238.55 918.736 1226.55 911.716V911.716ZM1494.79 1108.85C1494.79 1100.95 1495.62 1093.85 1494.62 1087.02C1492.54 1072.68 1490.62 1058.1 1482.41 1045.55C1472.41 1030.27 1462.21 1015.05 1445.49 1006.04C1441.36 1003.8 1437.07 1001.85 1432.67 1000.21C1427.78 998.396 1422.67 997.096 1417.67 995.606C1414.67 994.686 1411.67 993.326 1408.53 993.006C1386.45 990.746 1364.35 988.696 1341.26 986.486C1339.45 988.826 1340.14 996.976 1333.06 994.746C1328.82 993.416 1325.64 988.746 1323.21 986.586C1320.14 987.676 1316.4 990.386 1314.27 989.446C1310.94 987.966 1308.7 984.026 1305.97 981.086C1297.7 992.336 1294.97 994.426 1289.84 990.536C1284.71 986.646 1281.16 980.736 1277.16 975.996C1275.98 976.496 1273.16 978.816 1271.23 978.206C1268.99 977.486 1267.58 974.206 1265.78 972.006C1259.08 974.756 1251.96 977.456 1245.05 980.626C1241.47 982.266 1238.21 986.566 1234.89 986.486C1225.07 986.226 1216.19 989.126 1206.89 991.486C1191.47 995.486 1176.81 1000.88 1163.61 1009.85C1146.21 1021.67 1128.48 1033.06 1125.53 1056.85C1124.03 1068.95 1120.11 1080.85 1119.28 1092.9C1118.56 1101.63 1121.33 1110.29 1126.98 1116.98C1129.92 1113.42 1133.15 1111.04 1134.28 1107.89C1139.28 1093.95 1146.28 1081.68 1159.47 1073.89C1162.35 1072.19 1164.99 1070.06 1167.85 1068.06C1158.66 1064.01 1156.61 1062.69 1158.45 1056.17C1161.04 1047 1164.57 1037.64 1169.83 1029.79C1177.07 1018.99 1188.44 1013.53 1201.46 1011.3C1208.07 1010.16 1214.46 1006.19 1219.87 1012.97C1222.19 1011.46 1224.63 1008.78 1225.87 1009.25C1232.76 1011.91 1237.56 1007.12 1243.06 1005.14C1249.2 1002.93 1254.5 1003.27 1259.42 1008.03C1264.34 1012.79 1265.48 1018.2 1261.75 1023.88C1298.54 1016.76 1334.6 1019.52 1369.75 1029.43C1371.22 1024.83 1371.85 1021.13 1373.51 1017.99C1379.41 1006.88 1387.15 1006.16 1396.33 1014.61C1400 1017.99 1405.02 1020.98 1409.84 1021.84C1421.67 1023.97 1428.41 1036.25 1440.9 1036.56C1441.6 1036.56 1442.27 1037.68 1442.9 1038.29C1446.46 1041.49 1450.51 1044.29 1453.46 1047.98C1458.7 1054.52 1465.26 1060.46 1462.28 1070.85C1461.43 1073.85 1464.58 1080.15 1467.51 1081.54C1478.1 1086.54 1484.29 1095.1 1489.9 1104.61C1491.03 1106.31 1493.06 1107.36 1494.79 1108.85V1108.85ZM1286.39 849.846C1286.39 850.116 1286.46 850.376 1286.5 850.646C1298.06 849.646 1309.62 848.426 1321.21 847.726C1323.88 847.576 1326.65 849.186 1329.38 849.986C1327.38 851.986 1325.66 855.486 1323.48 855.776C1309.48 857.606 1295.48 860.176 1281.48 859.776C1259.17 859.106 1236.95 855.566 1214.64 854.776C1206.05 854.466 1195.17 851.436 1189.78 863.776C1186.9 870.346 1185.97 873.276 1192.61 875.526C1203.25 879.126 1214.25 882.256 1225.34 883.796C1252.4 887.546 1279.66 886.246 1306.41 881.716C1316.11 880.076 1326.54 883.556 1335.86 876.916C1342.19 872.406 1344.25 867.536 1339.06 861.806C1337.9 860.526 1336.35 858.206 1336.8 857.096C1338.95 851.806 1338.8 847.376 1333.92 843.756C1329.92 840.756 1326.4 836.686 1321.92 835.196C1312.92 832.196 1303.47 830.616 1294.18 828.516C1290 827.576 1285.71 827.016 1281.58 825.886C1268.26 822.256 1254.9 819.336 1240.92 819.666C1234.17 819.826 1227.4 818.176 1220.63 818.066C1212.91 817.936 1205.14 819.196 1197.44 818.766C1191.51 818.436 1185.85 817.206 1180.61 812.686C1176.13 808.816 1173.07 800.776 1164.44 803.196C1164.24 803.256 1162.31 799.746 1162.56 798.116C1162.81 796.486 1164.73 794.896 1166.15 792.976L1160.78 787.926C1158.94 790.626 1157.83 793.436 1155.78 794.926C1153.95 796.236 1151.05 796.066 1148.62 796.546C1148.38 794.546 1147.37 792.146 1148.08 790.546C1149.4 787.546 1151.72 785.026 1153.46 782.546C1148.09 778.216 1143.17 773.936 1137.88 770.176C1135.93 769.045 1133.65 768.624 1131.43 768.986C1125.43 769.836 1115.84 780.406 1115.79 786.356C1115.79 788.036 1117.79 789.896 1119.17 791.356C1120.55 792.816 1123.61 807.306 1122.63 808.856C1122.42 809.26 1122.12 809.617 1121.77 809.906C1116.93 813.176 1111.82 816.106 1107.26 819.736C1099.9 825.576 1092.47 831.456 1085.9 838.136C1081.9 842.136 1083.36 845.296 1088.81 845.716C1106.98 847.096 1125.17 848.406 1143.37 849.086C1149.37 849.316 1155.37 846.976 1161.37 846.846C1170.27 846.666 1179.2 847.426 1188.12 847.716C1189.46 847.645 1190.8 847.478 1192.12 847.216C1197.95 846.516 1203.81 845.096 1209.62 845.276C1221.1 845.636 1232.56 847.526 1244.03 847.586C1257.62 847.646 1271.2 845.376 1284.85 847.586C1287.59 848.036 1290.62 846.586 1293.53 846.146C1295.96 845.756 1298.4 845.486 1300.84 845.146C1300.84 845.536 1300.95 845.926 1301 846.316L1286.39 849.846ZM430.281 796.436L427.901 795.646C427.441 800.366 425.571 805.536 426.901 809.706C428.741 815.556 426.651 819.466 422.901 822.246C418.901 825.246 413.711 826.686 409.061 828.846C405.821 830.366 402.121 831.426 399.601 833.746C398.541 834.746 399.371 840.226 400.411 840.596C407.201 842.966 414.191 845.366 421.281 846.096C432.821 847.306 444.491 847.426 456.111 847.596C459.591 847.596 463.061 845.966 466.591 845.696C472.801 845.206 479.041 845.186 485.271 844.976C490.871 844.796 496.481 844.376 502.071 844.506C510.141 844.706 518.211 845.196 526.261 845.786C529.351 846.016 532.441 847.496 535.471 847.336C543.601 846.906 551.741 844.966 559.801 845.336C573.141 845.906 586.431 847.786 599.731 849.106C613.571 850.486 627.401 851.896 641.231 853.236C647.911 853.886 655.321 861.096 655.231 866.956C655.091 875.616 649.401 881.526 641.011 881.826C634.401 882.066 627.751 882.026 621.211 882.826C612.711 883.826 604.311 885.596 595.841 886.876C589.376 888.013 582.858 888.824 576.311 889.306C568.831 889.686 560.421 891.376 554.001 888.686C543.871 884.446 535.071 877.036 525.001 870.506C522.511 872.306 515.881 874.066 519.931 880.036C523.376 885.022 528.117 888.974 533.641 891.466C550.641 898.756 569.021 897.136 586.921 896.916C604.391 896.716 621.841 894.996 639.301 893.786C642.214 893.519 645.084 892.905 647.851 891.956C652.851 890.366 657.581 888.046 662.621 886.816C677.281 883.246 682.431 873.236 676.311 859.606C674.721 856.076 673.771 852.166 671.701 848.966C669.461 845.496 666.701 841.876 663.361 839.666C655.571 834.596 647.571 829.596 639.061 825.946C627.561 821.026 615.651 816.876 602.671 818.166C593.381 819.096 584.081 820.246 574.771 820.456C558.621 820.816 542.461 820.576 526.311 820.456C517.851 820.406 511.411 816.936 506.211 809.946C501.761 803.946 498.541 796.126 489.531 794.856C488.531 794.716 487.671 793.026 487.011 791.906C480.011 779.996 468.381 775.126 455.871 771.696C454.821 771.431 453.721 771.431 452.671 771.696C444.521 773.886 437.271 777.296 434.951 784.226L438.131 795.756L430.281 796.436ZM738.271 923.996C732.971 925.786 727.641 926.756 723.201 929.286C715.209 933.975 707.475 939.089 700.031 944.606C696.031 947.536 694.201 966.366 698.101 969.096C704.101 973.346 710.801 977.576 717.811 979.356C727.811 981.906 738.491 981.866 748.761 983.606C759.671 985.466 770.521 987.826 781.261 990.516C788.511 992.326 795.361 996.166 802.671 997.206C817.731 999.346 826.341 1008.87 829.431 1022.04C833.301 1038.52 834.741 1055.6 836.641 1072.49C838.331 1087.49 839.221 1102.62 840.541 1118.63L875.041 1113.97C871.541 1097.37 868.191 1082.39 865.291 1067.32C863.621 1058.69 862.731 1049.92 861.391 1041.22C860.671 1036.51 860.621 1031.44 858.741 1027.22C852.281 1012.66 846.311 998.056 844.871 981.956C843.501 966.646 834.081 955.316 825.351 943.696C824.239 942.238 822.841 941.023 821.241 940.126C813.301 935.766 805.441 931.196 797.171 927.526C794.171 926.216 789.511 925.946 786.821 927.416C776.901 932.846 766.371 933.416 755.641 932.706C749.171 932.246 742.311 931.706 738.271 923.996ZM875.271 1072.24C875.341 1071.86 874.991 1072.56 875.111 1073.16C877.821 1086.21 880.521 1099.27 883.471 1112.28C883.766 1112.95 884.225 1113.55 884.806 1114.01C885.387 1114.47 886.072 1114.78 886.801 1114.91C899.061 1115.12 911.321 1115.2 923.571 1115.04C931.741 1114.93 940.061 1113.21 948.031 1114.28C968.621 1117.02 989.191 1119.57 1009.88 1116.79C1028.48 1114.29 1046.95 1110.72 1065.88 1107.55C1066.94 1096.33 1068.03 1084.75 1069.22 1072.12C1053.48 1072.12 1038.33 1070.12 1023.94 1072.57C1000.31 1076.57 977.141 1070.79 953.761 1072.26C942.411 1072.97 930.971 1072.26 919.571 1072.26C904.981 1072.22 890.481 1072.24 875.221 1072.24H875.271ZM744.831 919.616L745.331 921.516C748.811 922.116 752.261 922.926 755.761 923.276C766.671 924.366 776.881 921.986 787.061 917.906C796.681 914.056 804.131 908.016 805.921 898.036C808.259 883.985 809.748 869.806 810.381 855.576C810.791 848.436 809.121 841.186 808.431 833.976C807.931 828.776 808.121 823.426 806.911 818.396C803.981 805.996 795.981 795.086 781.141 794.316C778.141 794.166 775.261 791.666 771.721 789.956L761.421 795.296C761.291 795.805 761.201 796.323 761.151 796.846C760.491 828.976 759.701 861.106 759.281 893.246C759.131 904.666 756.691 914.456 744.831 919.616ZM1077.83 1024.94C1071.83 1027.06 1067.11 1028.04 1063.13 1030.26C1058.37 1032.91 1054.26 1034.07 1049.13 1031.07C1047.35 1030.02 1044.41 1030.61 1042.06 1030.92C1037.65 1031.49 1033.29 1032.43 1028.91 1033.17C1023.42 1034.1 1017.91 1035.05 1012.44 1035.86C1010.44 1036.15 1008.16 1036.77 1006.56 1036.03C999.791 1032.89 993.491 1034.47 986.691 1036.18C981.201 1037.55 974.561 1038.44 969.521 1036.57C961.621 1033.65 954.601 1034.71 946.861 1036.09C940.141 1037.29 933.081 1036.65 926.161 1036.62C923.251 1036.62 920.161 1035.19 917.461 1035.89C905.721 1039.16 893.222 1038.37 881.981 1033.67C880.47 1033.13 878.853 1032.95 877.261 1033.15C873.971 1033.48 870.931 1034.15 871.261 1038.71C871.801 1047.29 872.121 1055.89 872.521 1064.18C876.221 1063.18 878.351 1062.07 880.441 1062.12C885.441 1062.25 890.341 1063.27 895.291 1063.3C928.991 1063.51 962.731 1061.06 996.371 1065.3C1001.97 1066.01 1007.76 1065.3 1013.45 1065.05C1027.07 1064.38 1040.67 1063.31 1054.29 1062.92C1059.06 1062.79 1063.88 1064.16 1067.89 1064.73C1071.2 1051.31 1074.26 1039.08 1077.79 1024.94H1077.83ZM1382.21 1113.39C1373.9 1103.56 1373.9 1103.56 1361.45 1099.96C1361.02 1099.84 1360.62 1099.59 1360.2 1099.43C1344.29 1093.02 1327.35 1089.59 1310.2 1089.31C1304.42 1089.23 1298.63 1087.18 1292.87 1087.31C1285.87 1087.43 1278.87 1089.31 1271.87 1089.64C1249.28 1090.57 1233.67 1102.75 1219.87 1120.87C1230.64 1120.87 1240.15 1120.69 1249.66 1120.94C1255.29 1121.08 1261.59 1120.43 1266.4 1122.69C1279.4 1128.8 1293.19 1126.69 1306.65 1127.93C1308.3 1128.08 1310.06 1126.86 1311.8 1126.45C1315.47 1125.4 1319.21 1124.58 1322.98 1124C1342.98 1121.79 1363.19 1121.45 1382.17 1113.39H1382.21ZM1408.54 799.516C1413.2 799.516 1416.4 799.726 1419.54 799.516C1434.06 798.386 1449.34 784.516 1451.66 770.426C1452.04 768.862 1452.02 767.228 1451.59 765.676C1448.19 756.926 1445.65 748.296 1436.1 742.776C1429.24 738.776 1422.74 737.426 1415.34 736.366C1399.19 734.046 1396.52 734.816 1387.8 748.276C1386.46 750.121 1385.33 752.106 1384.42 754.196C1380.69 764.196 1377.59 775.376 1383.29 784.436C1388.81 793.196 1395.74 804.056 1408.5 799.516H1408.54ZM755.341 718.746C755.341 718.466 755.271 718.186 755.231 717.906C748.051 718.806 740.801 719.306 733.721 720.706C724.891 722.456 724.781 731.276 721.291 737.346C720.291 739.116 719.021 740.766 718.051 742.566C710.761 756.096 714.641 771.116 727.141 779.466C738.791 787.256 751.581 785.246 764.141 783.956C766.881 783.686 769.951 780.476 771.701 777.846C778.231 768.016 784.771 757.976 780.601 745.186C778.461 738.636 776.121 732.186 773.871 725.636C770.641 716.286 762.591 719.406 756.011 718.756C755.788 718.738 755.564 718.735 755.341 718.746V718.746ZM630.601 784.866C649.601 784.696 647.241 782.616 654.871 771.796C656.561 769.396 658.571 767.216 660.411 764.906C665.411 758.616 667.211 745.756 662.951 742.076C657.361 737.192 651.347 732.815 644.981 728.996C642.461 727.496 638.431 727.536 635.371 728.196C630.871 729.196 626.561 732.796 622.301 732.586C616.651 732.316 614.391 735.216 612.431 738.996C610.242 743.226 608.418 747.635 606.981 752.176C605.757 755.914 605.434 759.888 606.04 763.774C606.645 767.661 608.162 771.349 610.465 774.537C612.769 777.725 615.794 780.322 619.294 782.118C622.793 783.913 626.668 784.855 630.601 784.866V784.866ZM1191.31 1083.14L1193.24 1082.81C1192.73 1079.16 1192.43 1075.47 1191.66 1071.88C1190.66 1067.02 1188.74 1062.31 1188.13 1057.42C1187.65 1053.54 1188.54 1049.49 1188.82 1045.51C1192.22 1047.68 1196 1049.44 1198.93 1052.12C1204.69 1057.41 1209.93 1063.21 1215.45 1068.79C1211.55 1059.86 1206.69 1052.04 1202.57 1043.84C1201.57 1041.84 1202.93 1038.61 1203.21 1035.95C1205.55 1036.69 1208.13 1037.01 1210.21 1038.23C1216.42 1041.93 1222.34 1046.13 1228.59 1049.77C1229.93 1050.55 1232.19 1049.77 1234.02 1049.69C1233.68 1048.02 1233.82 1046 1232.91 1044.69C1227.76 1037.48 1222.23 1030.55 1217.08 1023.35C1213.75 1018.68 1209.31 1018.2 1204.38 1019.27C1201.25 1019.89 1198.19 1020.82 1195.24 1022.05C1184.24 1026.89 1174.87 1033.5 1171.49 1045.81C1169.31 1053.75 1174.41 1059.91 1178.07 1065.97C1181.73 1072.03 1186.83 1077.46 1191.31 1083.14ZM1422.91 1098.39L1424.99 1099.53C1425.8 1099.21 1426.86 1099.11 1427.37 1098.53C1435.67 1089.14 1444.06 1079.83 1451.98 1070.14C1453.38 1068.42 1453.98 1064 1452.85 1062.61C1447.47 1056.12 1441.6 1050.05 1435.31 1044.45C1433.98 1043.26 1430.23 1044.73 1427.61 1045.05C1425.61 1045.29 1423.61 1046.16 1421.76 1045.89C1404.36 1043.43 1385.4 1052.73 1377.76 1067.8C1377.33 1068.64 1377.7 1069.89 1377.7 1072.36C1385.29 1068.31 1392.12 1064.92 1398.7 1061.08C1402.57 1058.81 1405.78 1055.31 1409.78 1053.38C1411.95 1052.38 1417.22 1052.74 1417.5 1053.63C1418.42 1056.53 1417.99 1060.01 1417.44 1063.15C1417.21 1064.46 1415.33 1065.44 1414.29 1066.64C1409.43 1072.26 1404.58 1077.88 1399.75 1083.52L1400.93 1084.79C1404.03 1082.64 1407.36 1080.79 1410.2 1078.28C1415.09 1074.04 1419.42 1069.1 1424.53 1065.18C1426.84 1063.42 1430.53 1063.41 1433.53 1062.6C1433.96 1065.81 1435.53 1069.38 1434.53 1072.16C1432.92 1077.05 1429.62 1081.37 1427.44 1086.16C1425.6 1090.07 1424.39 1094.29 1422.91 1098.39V1098.39ZM617.111 859.866C606.111 858.476 596.041 857.046 585.921 856.066C584.121 855.886 580.721 857.246 580.471 858.416C579.041 865.096 578.341 871.926 577.551 877.596C587.941 877.596 597.281 877.696 606.631 877.596C615.981 877.496 617.681 875.596 617.411 866.746C617.341 864.476 617.211 862.226 617.111 859.866ZM571.981 854.756C559.131 853.876 548.501 854.136 539.291 862.396C535.291 865.996 536.231 867.966 539.831 870.146C544.461 872.956 549.091 875.906 554.061 877.986C558.171 879.716 562.781 880.256 567.351 881.376C569.061 871.766 570.451 863.796 571.981 854.756ZM1416.75 1033.63C1412.75 1031.92 1409.99 1030.43 1407.05 1029.56C1400.37 1027.56 1393.2 1026.86 1388.82 1020.17C1388.28 1019.35 1385.01 1019.27 1383.82 1020.07C1377.94 1024.07 1378.46 1030.95 1385.23 1033.88C1395.1 1038.11 1405.28 1039.05 1416.79 1033.63H1416.75ZM1234.02 1031.63C1236.82 1030.42 1238.77 1029.71 1240.59 1028.76C1244.44 1026.76 1248.52 1024.94 1251.9 1022.27C1253.35 1021.13 1254.34 1016.57 1253.73 1016.13C1251.65 1014.67 1248.37 1013.13 1246.26 1013.84C1240.26 1015.78 1234.7 1018.84 1228.43 1021.63L1234.02 1031.63ZM625.021 861.246C625.881 865.446 626.631 869.056 627.311 872.386H644.081C647.701 863.596 641.841 860.996 625.071 861.276L625.021 861.246Z" fill="#194B3F"/>
<path d="M990.101 439.746C957.201 438.216 924.311 436.486 891.391 435.306C883.271 435.016 875.101 436.736 866.931 437.156C850.541 437.996 834.131 438.656 817.731 439.266C801.801 439.856 785.861 440.406 769.921 440.746C743.711 441.306 717.491 441.746 691.281 442.126C673.811 442.416 656.741 439.806 639.881 435.386C637.311 434.706 634.411 435.026 631.691 435.236C617.851 436.306 604.021 437.536 590.181 438.636C578.891 439.526 567.581 440.826 556.271 440.966C548.161 441.066 540.001 438.676 531.911 438.966C521.281 439.356 510.731 441.456 500.101 442.426C497.681 442.646 494.291 441.936 492.881 440.316C491.691 438.966 492.051 435.316 493.021 433.316C493.801 431.736 496.521 430.316 498.421 430.246C505.251 430.026 512.111 430.476 518.961 430.556C525.811 430.636 532.571 429.966 539.261 430.666C553.341 432.156 567.151 432.876 581.321 430.076C591.041 428.156 601.321 429.276 611.401 429.076C612.771 429.076 614.241 429.396 615.501 429.006C633.191 423.526 650.121 429.476 667.381 431.926C678.181 433.466 689.251 433.556 700.191 433.506C721.871 433.413 743.538 433.003 765.191 432.276C780.191 431.756 795.191 430.116 810.141 429.556C829.481 428.826 848.841 428.556 868.191 428.296C883.601 428.096 899.091 427.186 914.401 428.416C932.096 429.946 949.889 429.986 967.591 428.536C976.901 427.726 986.591 430.186 995.951 431.666C997.371 431.886 998.371 434.796 999.561 436.466C998.011 437.416 996.561 438.686 994.871 439.216C993.421 439.686 991.701 439.316 990.101 439.316V439.746Z" fill="#194B3F"/>
<path d="M1366.4 429.906C1356.3 431.296 1346.23 433.226 1336.07 433.956C1314.14 435.546 1292.17 437.236 1270.2 437.416C1260.89 437.486 1251.33 434.586 1242.27 431.766C1231.92 428.546 1221.84 425.266 1210.89 428.096C1210.44 428.156 1209.98 428.156 1209.53 428.096C1193.53 427.796 1177.84 429.416 1162.69 435.466C1152.38 439.586 1141.8 437.846 1131.12 435.256C1111.76 430.576 1091.92 427.376 1072.3 432.426C1061.87 435.106 1052 434.266 1041.88 433.006C1040 432.776 1038.4 430.296 1036.67 428.846C1038.4 427.456 1040.04 424.976 1041.87 424.846C1060.15 423.416 1078.46 421.406 1096.75 421.546C1108.87 421.646 1121.09 424.416 1133.04 427.006C1144.04 429.386 1154.77 430.186 1165.19 425.576C1184.71 416.936 1205.55 418.396 1225.88 418.486C1237.18 418.486 1248.55 423.106 1259.7 426.316C1272.56 430.016 1285.26 429.426 1298.21 427.196C1305.32 425.966 1312.61 425.926 1319.81 425.196C1331.28 424.046 1342.71 422.196 1354.2 421.716C1364.39 421.326 1374.62 422.596 1384.84 422.896C1397.37 423.256 1409.96 424.206 1422.41 423.316C1434.29 422.476 1445.14 422.786 1455.81 429.316C1461.81 432.986 1469.52 433.686 1476.31 436.126C1478.71 436.986 1480.68 439.066 1482.84 440.586C1480.37 441.916 1477.61 444.706 1475.48 444.286C1468.48 442.896 1460.84 441.596 1454.86 437.956C1445.16 432.076 1435.05 432.106 1424.52 431.956C1408.36 431.776 1392.22 431.106 1376.06 430.676C1372.87 430.586 1369.67 430.676 1366.48 430.676C1366.45 430.466 1366.43 430.186 1366.4 429.906Z" fill="#194B3F"/>
<path d="M1756.12 1088L1750.63 1081.83C1752.44 1080.54 1754.35 1078.1 1756.02 1078.25C1758.02 1078.43 1759.82 1080.82 1761.71 1082.25L1756.12 1088Z" fill="#194B3F"/>
<path d="M1040.66 701.066C1024.33 699.846 1008.01 698.296 991.661 697.536C982.571 697.116 973.421 698.176 964.291 698.276C959.531 698.326 954.701 697.166 950.001 697.616C945.001 698.096 940.171 699.966 935.221 701.006C927.941 702.546 920.521 703.476 913.341 705.386C893.531 710.656 873.341 708.126 853.341 708.006C846.341 708.006 839.511 703.136 832.401 702.346C823.291 701.346 813.751 700.976 804.791 702.586C792.561 704.776 781.241 702.306 769.791 699.306C768.027 698.731 766.563 697.479 765.721 695.826C764.221 692.406 761.371 686.706 762.611 685.466C766.611 681.466 768.911 687.146 771.951 688.976C781.371 694.656 791.691 695.226 802.161 693.556C816.161 691.326 829.901 690.556 843.361 696.556C847.38 698.161 851.654 699.034 855.981 699.136C863.282 699.636 870.61 699.636 877.911 699.136C894.411 697.806 910.911 696.296 927.341 694.136C934.341 693.206 941.011 689.316 947.991 688.746C959.321 687.816 970.791 688.266 982.191 688.586C1005.66 689.246 1029.11 690.246 1052.58 691.026C1060.72 691.306 1068.9 691.026 1077.01 691.686C1079.35 691.886 1081.48 694.506 1083.71 696.026C1081.49 697.326 1079.3 699.696 1077.04 699.766C1064.96 700.136 1052.86 699.936 1040.77 699.936C1040.71 700.326 1040.69 700.696 1040.66 701.066Z" fill="#194B3F"/>
<path d="M515.741 688.756C505.741 688.286 495.741 688.186 485.741 687.206C479.004 686.444 472.357 685.034 465.891 682.996C464.311 682.516 463.651 678.996 462.561 676.866C464.631 675.936 467.221 673.686 468.691 674.266C484.691 680.616 501.511 678.136 517.981 679.086C521.501 679.286 525.121 677.376 528.691 677.376C530.691 677.376 532.621 679.376 534.591 680.376C533.331 681.956 532.341 683.966 530.721 685.026C528.721 686.336 526.191 686.856 523.501 687.866C524 688.103 524.519 688.297 525.051 688.446C528.641 688.886 534.051 687.066 534.341 692.596C534.581 697.736 529.271 696.426 525.911 697.106C516.341 699.106 506.851 701.586 497.191 702.946C492.441 703.606 487.311 702.536 482.521 701.496C481.151 701.196 480.351 698.256 479.291 696.496C481.081 695.556 482.951 693.676 484.661 693.816C495.431 694.806 505.881 694.126 515.741 688.756Z" fill="#194B3F"/>
<path d="M497.751 753.426C493.681 752.976 490.851 753.486 489.811 752.356C487.911 750.276 487.071 747.236 485.811 744.586C488.071 743.996 490.311 743.216 492.611 742.856C498.481 741.956 504.381 741.256 510.271 740.466C513.921 739.976 518.691 735.356 520.871 740.926C522.991 746.336 516.721 747.206 513.371 748.596C507.781 750.896 501.801 752.216 497.751 753.426Z" fill="#194B3F"/>
<path d="M1163.4 724.446C1163.66 717.016 1164.62 716.446 1171.08 718.006C1173.96 718.696 1177.2 717.796 1180.27 717.696C1183.6 717.586 1186.99 717.196 1190.27 717.696C1191.39 717.876 1192.74 720.296 1192.9 721.806C1193.02 723.006 1191.52 725.496 1190.69 725.516C1181.56 725.736 1172.1 731.826 1163.32 724.316L1163.4 724.446Z" fill="#194B3F"/>
<path d="M760.981 1052C762.121 1058.35 764.391 1066.33 764.811 1074.41C765.238 1085.72 765.024 1097.05 764.171 1108.34C764.051 1110.23 760.731 1111.92 758.881 1113.7C757.881 1111.39 755.791 1108.86 756.181 1106.81C758.921 1092.68 757.861 1078.75 754.331 1065.03C753.191 1060.61 750.111 1056.68 747.861 1052.56C747.091 1051.17 745.771 1050 745.341 1048.56C744.69 1045.95 744.186 1043.31 743.831 1040.65C746.114 1040.31 748.414 1040.11 750.721 1040.05C760.061 1040.32 760.981 1041.28 760.981 1052Z" fill="#194B3F"/>
<path d="M494.291 1094.24C495.921 1080.79 497.641 1067.35 499.131 1053.89C499.521 1050.35 498.791 1046.67 499.341 1043.17C499.691 1040.98 501.451 1039.02 502.581 1036.95C504.511 1038.6 508.091 1040.26 508.091 1041.95C508.091 1049.59 506.901 1057.22 506.511 1064.87C505.761 1079.47 505.351 1094.09 504.511 1108.69C504.411 1110.45 502.581 1112.11 501.511 1113.83C499.511 1112.58 495.901 1111.56 495.691 1110.05C494.951 1104.93 495.411 1099.63 495.411 1094.4L494.291 1094.24Z" fill="#194B3F"/>
<path d="M696.191 1087.8C703.711 1089.71 706.111 1084.1 709.431 1079.61C710.811 1077.75 713.051 1076.53 714.901 1075.02C715.791 1077.36 717.641 1079.8 717.411 1082.02C716.411 1091.96 701.411 1100.17 692.461 1096.02C688.611 1094.22 683.381 1081.69 685.161 1077.89C685.741 1076.65 687.461 1075.1 688.581 1075.16C689.401 1075.27 690.186 1075.57 690.877 1076.02C691.569 1076.48 692.151 1077.08 692.581 1077.79C694.091 1080.78 694.921 1084.1 696.191 1087.8Z" fill="#194B3F"/>
<path d="M567.661 1091.88L570.561 1098.38C567.681 1099.14 564.701 1100.8 561.941 1100.5C552.701 1099.5 548.621 1092.92 552.321 1084.66C553.411 1082.22 557.121 1079.88 559.881 1079.55C562.641 1079.22 567.071 1080.55 568.561 1082.68C569.861 1084.54 568.101 1088.54 567.661 1091.88Z" fill="#194B3F"/>
<path d="M1294.72 730.076C1309.39 731.266 1327.17 744.266 1331.1 757.626C1334.48 769.116 1327.7 788.086 1317.79 795.366C1314.53 797.802 1311.42 800.444 1308.49 803.276C1302.49 808.996 1295.36 807.516 1288.49 806.396C1261.88 802.096 1253.07 773.546 1264.36 752.116C1267.98 745.363 1272.94 739.424 1278.94 734.666C1282.91 731.526 1289.37 731.496 1294.72 730.076ZM1298.34 798.316C1299.03 798.066 1301.48 797.786 1303.13 796.496C1308.12 792.605 1312.89 788.449 1317.43 784.046C1324.18 777.396 1321.43 768.446 1322.37 760.436C1322.52 759.156 1321.06 757.586 1320.12 756.316C1317.82 753.206 1315.52 750.086 1312.99 747.166C1307.99 741.406 1289.13 738.166 1282.52 741.856C1275.91 745.546 1266.32 767.256 1267.93 774.986C1270.83 788.876 1282.73 798.516 1298.34 798.316Z" fill="#194B3F"/>
<path d="M1142.78 807.496C1139.87 810.778 1136.79 813.902 1133.55 816.856C1133.33 817.046 1128.85 813.436 1129.13 812.796C1130.87 808.796 1133.4 805.066 1135.67 801.246L1142.78 807.496Z" fill="#194B3F"/>
<path d="M1163.48 818.466C1160.57 820.946 1158.48 823.576 1157.69 823.236C1155.48 822.108 1153.63 820.373 1152.37 818.236C1152.1 817.806 1154.95 814.236 1156.18 814.286C1158.25 814.486 1160.18 816.456 1163.48 818.466Z" fill="#194B3F"/>
<path d="M464.151 803.806C463.311 805.256 462.821 807.266 461.721 807.706C460.311 808.256 457.441 808.146 456.871 807.256C454.105 802.876 451.675 798.293 449.601 793.546C449.261 792.796 450.891 790.226 451.911 790.026C453.671 789.686 456.631 789.896 457.381 791.026C459.981 794.926 461.861 799.326 464.151 803.806Z" fill="#194B3F"/>
<path d="M475.161 805.896C478.851 802.996 481.251 801.126 483.641 799.256C484.641 801.256 486.971 803.626 486.511 805.166C485.721 807.746 483.181 809.796 481.381 812.066L475.161 805.896Z" fill="#194B3F"/>
<path d="M439.651 823.816C437.981 820.616 436.251 818.816 436.461 817.306C436.691 815.626 438.711 814.186 439.941 812.646C441.381 814.326 443.601 815.856 444.001 817.756C444.261 818.996 441.921 820.816 439.651 823.816Z" fill="#194B3F"/>
<defs>
<radialGradient id="paint0_radial_3_65" cx="0" cy="0" r="1" gradientUnits="userSpaceOnUse" gradientTransform="translate(960 863) rotate(90) scale(863)">
<stop stop-color="#D9A1C0"/>
<stop offset="0.744792" stop-color="#D9A1C0" stop-opacity="0"/>
<stop offset="1" stop-color="#D9A1C0" stop-opacity="0"/>
</radialGradient>
</defs>
</svg>
