<svg xmlns="http://www.w3.org/2000/svg" viewBox="0 0 386.06 397.7"><defs><style>.cls-1{fill:#006500;}</style></defs><g id="Layer_2" data-name="Layer 2"><g id="Layer_1-2" data-name="Layer 1"><path id="path2" class="cls-1" d="M253.16,2.34c-8.7,4.5-15,13.7-20.6,30.5-5.5,16.4-7,26.6-7,48.5.1,24.7,2.6,46,8,67.7,2.6,10.5,8.1,26.5,9.3,27.3.4.2,5.6-.7,11.5-2,35.5-8,70.8-26.4,92.6-48.4,10.7-10.8,15.3-17.4,19.7-28.1,8.2-20.4,3.3-47.2-11.4-61.9-13.4-13.3-29.3-14.6-42.9-3.5-3.1,2.5-5.9,4.2-6.3,3.7s-3.4-4.5-6.6-9.1c-7.2-10.2-18.4-21-25.1-24.2C267-.76,259.66-1,253.16,2.34Z"/><path id="path4" class="cls-1" d="M61.16,17.84c-20.1,5.3-33.6,19.7-33.6,35.9,0,7.5,2.1,13,7.6,20.1l3.5,4.4-9,6c-24.3,16-34.1,32.3-27.8,46.1,5.2,11.5,24.3,22.2,49.6,27.7,11.8,2.6,46,3.6,64.2,1.9,22-2.1,52.7-8.8,59.1-13,1.1-.7,1.1-2.3-.3-9.7-1.8-10.1-6-26.4-8-30.9-.7-1.7-2.5-6.4-4-10.5-6.9-18.5-20.5-41.2-32.9-54.6-11.6-12.6-25.8-21.6-38.4-24.3C83.16,15.24,69.46,15.64,61.16,17.84Z"/><path id="path16" class="cls-1" d="M137,223.44c-12.3,4.1-33.1,13.9-44.7,21.2-33.2,20.6-54.9,46.4-59.9,71.1-1.4,7.1-1.5,9.7-.5,17.3,2.1,16.1,7.6,27.4,18.2,37.2,14,13,31.6,12.8,44.7-.4l4.7-4.7,7.5,8.6c34.3,39,61.5,29.8,68.9-23.4,3.7-26-2.7-69.3-15.5-105-3-8.5-11.2-25.5-12.2-25.5C147.76,219.84,142.76,221.44,137,223.44Z"/><path id="path18" class="cls-1" d="M273,232.44c-29.3,2-62,9-62,13.3,0,3.9,4.1,24.2,7,34.3,12.7,45.2,39.2,82.6,66.2,93.5,26,10.6,58.4,1.3,69.4-19.8,2.4-4.5,2.9-6.6,2.9-12.9,0-8.6-2.1-14.2-7.6-20.5-2.1-2.3-2.9-4-2.2-4.2,3.8-1.3,23.4-15.4,28.3-20.4,10.6-10.7,13.7-21.7,8.9-31.6-6.2-12.7-29.1-24.6-56.9-29.4C315.66,232.84,285.86,231.54,273,232.44Z"/></g></g></svg>