<svg xmlns="http://www.w3.org/2000/svg" xmlns:xlink="http://www.w3.org/1999/xlink" version="1.1" width="1000" height="1000" viewBox="0 0 1000 1000" xml:space="preserve">
<desc>Created with Fabric.js 3.5.0</desc>
<defs>
</defs>
<rect x="0" y="0" width="100%" height="100%" fill="rgba(255,255,255,0)"/>
<g transform="matrix(0.4 0 0 0.4 500 500)" id="796776">
<g style="" vector-effect="non-scaling-stroke">
		<g transform="matrix(1 0 0 1 -141 1019.5)" id="Layer_1">
<path style="stroke: none; stroke-width: 1; stroke-dasharray: none; stroke-linecap: butt; stroke-dashoffset: 0; stroke-linejoin: miter; stroke-miterlimit: 4; is-custom-font: none; font-file-url: none; fill: rgb(0,0,0); fill-rule: evenodd; opacity: 1;" transform=" translate(-1109, -2269.5)" d="M 1634.8 2148.8 c 1.9 5.1 0 0 -5.8 -15.2 l -26.2 2.8 l 0 0 c -29.5 62 -189.9 59 -254.9 60.1 c -259.6 4.4 -472.2 -48.1 -637.7 -157.5 C 580.8 2055.6 354 2296.9 300 2500 h 1618 C 1826.9 2320.1 1699.3 2185.6 1634.8 2148.8 z" stroke-linecap="round"/>
</g>
		<g transform="matrix(1 0 0 1 -55 1043.5)" id="Layer_1">
<path style="stroke: none; stroke-width: 1; stroke-dasharray: none; stroke-linecap: butt; stroke-dashoffset: 0; stroke-linejoin: miter; stroke-miterlimit: 4; is-custom-font: none; font-file-url: none; fill: rgb(255,255,255); fill-rule: evenodd; opacity: 1;" transform=" translate(-1195, -2293.5)" d="M 801 2087 l 634 413 h 23 h 63 h 42 l 26 -362 L 801 2087 z" stroke-linecap="round"/>
</g>
		<g transform="matrix(1 0 0 1 -218 1024.0001)" id="Layer_1">
<path style="stroke: rgb(51,51,51); stroke-width: 8.5039; stroke-dasharray: none; stroke-linecap: round; stroke-dashoffset: 0; stroke-linejoin: round; stroke-miterlimit: 2.6131; is-custom-font: none; font-file-url: none; fill: none; fill-rule: nonzero; opacity: 1;" transform=" translate(-1032, -2274)" d="M 751 2073 v 288 l 562 114" stroke-linecap="round"/>
</g>
		<g transform="matrix(1 0 0 1 428.5 1070.0001)" id="Layer_1">
<path style="stroke: rgb(51,51,51); stroke-width: 8.5039; stroke-dasharray: none; stroke-linecap: round; stroke-dashoffset: 0; stroke-linejoin: round; stroke-miterlimit: 2.6131; is-custom-font: none; font-file-url: none; fill: none; fill-rule: nonzero; opacity: 1;" transform=" translate(-1678.5, -2320)" d="M 1611 2165 l 157 200 l -179 110" stroke-linecap="round"/>
</g>
		<g transform="matrix(1 0 0 1 -118.5001 1082.5001)" id="Layer_1">
<path style="stroke: rgb(51,51,51); stroke-width: 8.5039; stroke-dasharray: none; stroke-linecap: round; stroke-dashoffset: 0; stroke-linejoin: round; stroke-miterlimit: 2.6131; is-custom-font: none; font-file-url: none; fill: none; fill-rule: nonzero; opacity: 1;" transform=" translate(-1131.5, -2332.5)" d="M 1131.5 2332.5" stroke-linecap="round"/>
</g>
		<g transform="matrix(1 0 0 1 160.4999 1029.65)" id="Layer_1">
<path style="stroke: rgb(25,75,63); stroke-width: 8.5039; stroke-dasharray: none; stroke-linecap: round; stroke-dashoffset: 0; stroke-linejoin: round; stroke-miterlimit: 2.6131; is-custom-font: none; font-file-url: none; fill: none; fill-rule: nonzero; opacity: 1;" transform=" translate(-1410.5, -2279.65)" d="M 1626.5 2302.5 l -250.4 -105.7 l -181.6 165.7" stroke-linecap="round"/>
</g>
		<g transform="matrix(1 0 0 1 173.55 1098.25)" id="Layer_1">
<path style="stroke: none; stroke-width: 1; stroke-dasharray: none; stroke-linecap: butt; stroke-dashoffset: 0; stroke-linejoin: miter; stroke-miterlimit: 4; is-custom-font: none; font-file-url: none; fill: rgb(49,62,62); fill-rule: evenodd; opacity: 1;" transform=" translate(-1423.55, -2348.25)" d="M 1276.1 2288 l 113.4 62.5 L 1432 2500 h 139 l -103.5 -167.5 l 22.8 -87.5 l -113.8 -48.5 L 1276.1 2288 z" stroke-linecap="round"/>
</g>
		<g transform="matrix(1 0 0 1 178.4999 1091.5001)" id="Layer_1">
<path style="stroke: rgb(25,75,63); stroke-width: 8.5039; stroke-dasharray: none; stroke-linecap: round; stroke-dashoffset: 0; stroke-linejoin: round; stroke-miterlimit: 2.6131; is-custom-font: none; font-file-url: none; fill: rgb(49,62,62); fill-rule: evenodd; opacity: 1;" transform=" translate(-1428.5, -2341.5)" d="M 1389.5 2350.5 l 78 -18 L 1389.5 2350.5 z" stroke-linecap="round"/>
</g>
		<g transform="matrix(1 0 0 1 172.8 1096.5001)" id="Layer_1">
<path style="stroke: rgb(25,75,63); stroke-width: 8.5039; stroke-dasharray: none; stroke-linecap: round; stroke-dashoffset: 0; stroke-linejoin: round; stroke-miterlimit: 2.6131; is-custom-font: none; font-file-url: none; fill: none; fill-rule: nonzero; opacity: 1;" transform=" translate(-1422.8, -2346.5)" d="M 1430.5 2496.5 l -41 -146 l -113.4 -62.5 l 100.4 -91.5 l 113.8 48.5 l -22.8 87.5 l 102 164" stroke-linecap="round"/>
</g>
		<g transform="matrix(1 0 0 1 116.2446 301.9013)" id="Layer_1">
<path style="stroke: rgb(25,75,63); stroke-width: 8.5039; stroke-dasharray: none; stroke-linecap: round; stroke-dashoffset: 0; stroke-linejoin: round; stroke-miterlimit: 2.6131; is-custom-font: none; font-file-url: none; fill: rgb(119,165,151); fill-rule: evenodd; opacity: 1;" transform=" translate(-1366.2446, -1551.9013)" d="M 867.6 1293.5 c 135.4 -338.5 331.4 -420.8 588 -247 c 241.6 -117.7 380.3 -75.3 416.1 127.1 c 85.7 16.6 133.4 45 143 85.2 c 38.8 13.2 55.2 33.6 49.1 61.4 c 34.6 16.2 41.1 32.1 19.5 47.7 c 27.7 37.8 20.4 64.8 -21.7 80.9 c 15.7 25.9 -1.7 44 -52 54.2 c -17.8 44.8 -54.6 74.2 -110.5 88.1 c 78.1 53.4 133.4 153.4 109.1 195.8 c -96.7 186.2 -207.2 292.2 -331.6 317.8 c -25.2 2.8 -41.1 12.4 -47.7 28.9 c -84.6 9.9 -201.9 13.7 -351.8 11.6 c -265.7 -14.3 -452.6 -58.1 -560.6 -131.5 C 551.9 1890.9 644.4 1306.5 867.6 1293.5 z" stroke-linecap="round"/>
</g>
		<g transform="matrix(1 0 0 1 -93.514 855.2276)" id="Layer_1">
<path style="stroke: rgb(25,75,63); stroke-width: 8.5039; stroke-dasharray: none; stroke-linecap: round; stroke-dashoffset: 0; stroke-linejoin: round; stroke-miterlimit: 2.6131; is-custom-font: none; font-file-url: none; fill: rgb(119,165,151); fill-rule: evenodd; opacity: 1;" transform=" translate(-1156.486, -2105.2276)" d="M 1602.8 2136.4 L 1602.8 2136.4 c -29.5 62 -189.9 59 -254.9 60.1 c -259.6 4.4 -472.2 -48.1 -637.7 -157.5 c -0.3 -9.5 1.8 -17.9 6.5 -25.3 c 108 73.3 294.8 117.2 560.6 131.5 C 1412.2 2147.1 1520.7 2144.2 1602.8 2136.4 z" stroke-linecap="round"/>
</g>
		<g transform="matrix(1 0 0 1 -390.7 101.65)" id="Layer_1">
<path style="stroke: rgb(25,75,63); stroke-width: 8.5039; stroke-dasharray: none; stroke-linecap: round; stroke-dashoffset: 0; stroke-linejoin: round; stroke-miterlimit: 2.6131; is-custom-font: none; font-file-url: none; fill: none; fill-rule: nonzero; opacity: 1;" transform=" translate(-859.3, -1351.65)" d="M 867.6 1293.5 c -6.7 40.9 -12.2 79.6 -16.6 116.3" stroke-linecap="round"/>
</g>
		<g transform="matrix(1 0 0 1 180.35 350.85)" id="Layer_1">
<path style="stroke: rgb(25,75,63); stroke-width: 8.5039; stroke-dasharray: none; stroke-linecap: round; stroke-dashoffset: 0; stroke-linejoin: round; stroke-miterlimit: 2.6131; is-custom-font: none; font-file-url: none; fill: none; fill-rule: nonzero; opacity: 1;" transform=" translate(-1430.35, -1600.85)" d="M 1525.7 1561.5 c -51.3 27.9 -114.8 54.2 -190.7 78.7" stroke-linecap="round"/>
</g>
		<g transform="matrix(1 0 0 1 464.95 352.75)" id="Layer_1">
<path style="stroke: rgb(25,75,63); stroke-width: 8.5039; stroke-dasharray: none; stroke-linecap: round; stroke-dashoffset: 0; stroke-linejoin: round; stroke-miterlimit: 2.6131; is-custom-font: none; font-file-url: none; fill: none; fill-rule: nonzero; opacity: 1;" transform=" translate(-1714.95, -1602.75)" d="M 1661.5 1576 c 43.2 17.7 78.8 35.5 106.9 53.5" stroke-linecap="round"/>
</g>
		<g transform="matrix(1 0 0 1 565.8999 349.95)" id="Layer_1">
<path style="stroke: rgb(25,75,63); stroke-width: 8.5039; stroke-dasharray: none; stroke-linecap: round; stroke-dashoffset: 0; stroke-linejoin: round; stroke-miterlimit: 2.6131; is-custom-font: none; font-file-url: none; fill: none; fill-rule: nonzero; opacity: 1;" transform=" translate(-1815.9, -1599.95)" d="M 1899.1 1591.1 c -51.7 10.8 -107.2 16.7 -166.4 17.7" stroke-linecap="round"/>
</g>
		<g transform="matrix(1 0 0 1 142.6691 247.2)" id="Layer_1">
<path style="stroke: rgb(25,75,63); stroke-width: 8.5039; stroke-dasharray: none; stroke-linecap: round; stroke-dashoffset: 0; stroke-linejoin: round; stroke-miterlimit: 2.6131; is-custom-font: none; font-file-url: none; fill: none; fill-rule: nonzero; opacity: 1;" transform=" translate(-1392.6692, -1497.2)" d="M 1153.7 1482.8 c 60.1 38.1 137.4 57.9 231.9 59.2 c 39 -0.2 79.2 0 120.6 0.7 c 32.2 -13.8 57.7 -18.9 76.6 -15.2 c 48.2 -23.2 60.7 -48.5 37.6 -75.8" stroke-linecap="round"/>
</g>
		<g transform="matrix(1 0 0 1 40.9534 -137.4)" id="Layer_1">
<path style="stroke: rgb(25,75,63); stroke-width: 8.5039; stroke-dasharray: none; stroke-linecap: round; stroke-dashoffset: 0; stroke-linejoin: round; stroke-miterlimit: 2.6131; is-custom-font: none; font-file-url: none; fill: none; fill-rule: nonzero; opacity: 1;" transform=" translate(-1290.9535, -1112.6)" d="M 1455.6 1046.5 c 34.2 41.9 51 84.5 50.6 127.9 c -162.6 -97.2 -306.1 -95.8 -430.5 4.3" stroke-linecap="round"/>
</g>
		<g transform="matrix(1 0 0 1 211.4487 34.1531)" id="Layer_1">
<path style="stroke: rgb(25,75,63); stroke-width: 8.5039; stroke-dasharray: none; stroke-linecap: round; stroke-dashoffset: 0; stroke-linejoin: round; stroke-miterlimit: 2.6131; is-custom-font: none; font-file-url: none; fill: none; fill-rule: nonzero; opacity: 1;" transform=" translate(-1461.4487, -1284.1531)" d="M 1871.7 1173.6 c -13.5 2.3 -24.3 0.3 -32.5 -5.8 c -3.1 -5 -8.7 -7.1 -16.6 -6.5 c -15 5.6 -26.8 5.8 -35.4 0.7 c -9.8 -4.9 -24 -7.5 -42.6 -7.9 c -88.7 -4.6 -168.1 2.2 -238.4 20.2 c 20.5 29.7 50.6 58.1 90.3 85.2 c 17 10 18.7 25.9 5.1 47.7 c -140.8 -70.8 -280.2 -57.3 -418.2 40.5 c -23.2 12.3 -56.2 17.9 -99 16.6 c -20.7 -3.4 -31.8 4.1 -33.2 22.4 c -0.2 14 10.4 21.5 31.8 22.4 c 26.1 0.2 47.3 2.4 63.6 6.5" stroke-linecap="round"/>
</g>
		<g transform="matrix(1 0 0 1 77.4499 26.2051)" id="Layer_1">
<path style="stroke: rgb(25,75,63); stroke-width: 8.5039; stroke-dasharray: none; stroke-linecap: round; stroke-dashoffset: 0; stroke-linejoin: round; stroke-miterlimit: 2.6131; is-custom-font: none; font-file-url: none; fill: none; fill-rule: nonzero; opacity: 1;" transform=" translate(-1327.45, -1276.2051)" d="M 1559.1 1231.3 c -146.4 -18.6 -254.8 -7 -325.3 34.8 c -40.9 36.8 -86.9 58 -138 63.6" stroke-linecap="round"/>
</g>
		<g transform="matrix(1 0 0 1 561.9499 12.8365)" id="Layer_1">
<path style="stroke: rgb(25,75,63); stroke-width: 8.5039; stroke-dasharray: none; stroke-linecap: round; stroke-dashoffset: 0; stroke-linejoin: round; stroke-miterlimit: 2.6131; is-custom-font: none; font-file-url: none; fill: none; fill-rule: nonzero; opacity: 1;" transform=" translate(-1811.95, -1262.8365)" d="M 1609.2 1290.9 c 119 -61.9 254.2 -72.6 405.5 -32.1" stroke-linecap="round"/>
</g>
		<g transform="matrix(1 0 0 1 590.9499 44.4947)" id="Layer_1">
<path style="stroke: rgb(25,75,63); stroke-width: 8.5039; stroke-dasharray: none; stroke-linecap: round; stroke-dashoffset: 0; stroke-linejoin: round; stroke-miterlimit: 2.6131; is-custom-font: none; font-file-url: none; fill: none; fill-rule: nonzero; opacity: 1;" transform=" translate(-1840.95, -1294.4947)" d="M 1618.1 1315.9 c 160.7 -64.2 309.3 -62.8 445.7 4.3" stroke-linecap="round"/>
</g>
		<g transform="matrix(1 0 0 1 606.1996 148.0951)" id="Layer_1">
<path style="stroke: rgb(25,75,63); stroke-width: 8.5039; stroke-dasharray: none; stroke-linecap: butt; stroke-dashoffset: 0; stroke-linejoin: miter; stroke-miterlimit: 4; is-custom-font: none; font-file-url: none; fill: rgb(255,255,255); fill-rule: nonzero; opacity: 1;" transform=" translate(-1856.1995, -1398.0952)" d="M 1630.5 1393.4 c 0 0 77.5 -68.1 178.2 -88 c 100.6 -19.9 207.9 36.5 207.9 36.5 s 47.9 1.7 66 26.6 c 18.1 24.9 26.4 43.1 3.3 63.1 c -23.1 19.9 -130.3 59.8 -250.8 63.1 c -120.5 3.3 -209.5 -18.3 -209.5 -18.3 l -13.2 -18.3 L 1630.5 1393.4 z" stroke-linecap="round"/>
</g>
		<g transform="matrix(1 0 0 1 132.0448 149.813)" id="Layer_1">
<path style="stroke: rgb(25,75,63); stroke-width: 8.5039; stroke-dasharray: none; stroke-linecap: butt; stroke-dashoffset: 0; stroke-linejoin: miter; stroke-miterlimit: 4; is-custom-font: none; font-file-url: none; fill: rgb(255,255,255); fill-rule: nonzero; opacity: 1;" transform=" translate(-1382.0448, -1399.8131)" d="M 1132.2 1415 c 0 0 89.1 -91.3 209.5 -117.8 c 120.4 -26.6 275.5 26.6 287.1 61.4 c 11.6 34.9 -13.2 91.3 -13.2 91.3 s -99 58.1 -232.6 59.7 C 1249.4 1511.2 1132.2 1415 1132.2 1415 z" stroke-linecap="round"/>
</g>
		<g transform="matrix(1 0 0 1 113.3659 151.5547)" id="Layer_1">
<path style="stroke: none; stroke-width: 1; stroke-dasharray: none; stroke-linecap: butt; stroke-dashoffset: 0; stroke-linejoin: miter; stroke-miterlimit: 4; is-custom-font: none; font-file-url: none; fill: rgb(0,0,0); fill-rule: nonzero; opacity: 1;" transform=" translate(-1363.3659, -1401.5547)" d="M 1429.2 1331.9 c -51 -30.2 -120.4 -21.6 -148.5 33.2 c -28 54.8 -6.6 119.5 49.5 122.8 c 56.1 3.3 113.8 -8.3 123.7 -53.1 C 1463.9 1390 1457.3 1348.5 1429.2 1331.9 z" stroke-linecap="round"/>
</g>
		<g transform="matrix(1 0 0 1 122.3 136.6)" id="Layer_1">
<path style="stroke: none; stroke-width: 1; stroke-dasharray: none; stroke-linecap: butt; stroke-dashoffset: 0; stroke-linejoin: miter; stroke-miterlimit: 4; is-custom-font: none; font-file-url: none; fill: rgb(255,255,255); fill-rule: nonzero; opacity: 1;" transform=" translate(-1372.3, -1386.6)" d="M 1392.9 1386.6 c 0 10.1 -9.2 18.3 -20.6 18.3 c -11.4 0 -20.6 -8.2 -20.6 -18.3 c 0 -10.1 9.2 -18.3 20.6 -18.3 C 1383.7 1368.4 1392.9 1376.6 1392.9 1386.6 z" stroke-linecap="round"/>
</g>
		<g transform="matrix(1 0 0 1 69.5 162.4)" id="Layer_1">
<path style="stroke: none; stroke-width: 1; stroke-dasharray: none; stroke-linecap: butt; stroke-dashoffset: 0; stroke-linejoin: miter; stroke-miterlimit: 4; is-custom-font: none; font-file-url: none; fill: rgb(255,255,255); fill-rule: nonzero; opacity: 1;" transform=" translate(-1319.5, -1412.4)" d="M 1336.8 1412.4 c 0 7.8 -7.8 14.1 -17.3 14.1 c -9.6 0 -17.3 -6.3 -17.3 -14.1 c 0 -7.8 7.8 -14.1 17.3 -14.1 C 1329.1 1398.3 1336.8 1404.6 1336.8 1412.4 z" stroke-linecap="round"/>
</g>
		<g transform="matrix(1 0 0 1 79.4 96)" id="Layer_1">
<path style="stroke: none; stroke-width: 1; stroke-dasharray: none; stroke-linecap: butt; stroke-dashoffset: 0; stroke-linejoin: miter; stroke-miterlimit: 4; is-custom-font: none; font-file-url: none; fill: rgb(255,255,255); fill-rule: nonzero; opacity: 1;" transform=" translate(-1329.4, -1346)" d="M 1340.1 1346 c 0 4.1 -4.8 7.5 -10.7 7.5 c -5.9 0 -10.7 -3.3 -10.7 -7.5 c 0 -4.1 4.8 -7.5 10.7 -7.5 C 1335.3 1338.5 1340.1 1341.9 1340.1 1346 z" stroke-linecap="round"/>
</g>
		<g transform="matrix(1 0 0 1 591.1977 147.2901)" id="Layer_1">
<path style="stroke: none; stroke-width: 1; stroke-dasharray: none; stroke-linecap: butt; stroke-dashoffset: 0; stroke-linejoin: miter; stroke-miterlimit: 4; is-custom-font: none; font-file-url: none; fill: rgb(0,0,0); fill-rule: nonzero; opacity: 1;" transform=" translate(-1841.1977, -1397.29)" d="M 1906.1 1325.2 c -45.9 -20.5 -115.5 -19.9 -138.6 14.9 c -23.1 34.9 -24.8 92.9 -9.9 114.5 c 14.8 21.6 39.6 26.6 75.9 28.2 c 36.3 1.7 80.9 -3.3 94.1 -44.8 C 1940.7 1396.6 1935.7 1338.5 1906.1 1325.2 z" stroke-linecap="round"/>
</g>
		<g transform="matrix(1 0 0 1 604.1 126.7)" id="Layer_1">
<path style="stroke: none; stroke-width: 1; stroke-dasharray: none; stroke-linecap: butt; stroke-dashoffset: 0; stroke-linejoin: miter; stroke-miterlimit: 4; is-custom-font: none; font-file-url: none; fill: rgb(255,255,255); fill-rule: nonzero; opacity: 1;" transform=" translate(-1854.1, -1376.7)" d="M 1874.7 1376.7 c 0 10.1 -9.2 18.3 -20.6 18.3 c -11.4 0 -20.6 -8.2 -20.6 -18.3 c 0 -10.1 9.2 -18.3 20.6 -18.3 C 1865.5 1358.4 1874.7 1366.6 1874.7 1376.7 z" stroke-linecap="round"/>
</g>
		<g transform="matrix(1 0 0 1 551.3 152.4)" id="Layer_1">
<path style="stroke: none; stroke-width: 1; stroke-dasharray: none; stroke-linecap: butt; stroke-dashoffset: 0; stroke-linejoin: miter; stroke-miterlimit: 4; is-custom-font: none; font-file-url: none; fill: rgb(255,255,255); fill-rule: nonzero; opacity: 1;" transform=" translate(-1801.3, -1402.4)" d="M 1818.6 1402.4 c 0 7.8 -7.7 14.1 -17.3 14.1 c -9.6 0 -17.3 -6.3 -17.3 -14.1 c 0 -7.8 7.8 -14.1 17.3 -14.1 C 1810.9 1388.3 1818.6 1394.6 1818.6 1402.4 z" stroke-linecap="round"/>
</g>
		<g transform="matrix(1 0 0 1 561.2 86)" id="Layer_1">
<path style="stroke: none; stroke-width: 1; stroke-dasharray: none; stroke-linecap: butt; stroke-dashoffset: 0; stroke-linejoin: miter; stroke-miterlimit: 4; is-custom-font: none; font-file-url: none; fill: rgb(255,255,255); fill-rule: nonzero; opacity: 1;" transform=" translate(-1811.2, -1336)" d="M 1821.9 1336 c 0 4.1 -4.8 7.5 -10.7 7.5 s -10.7 -3.3 -10.7 -7.5 c 0 -4.1 4.8 -7.5 10.7 -7.5 C 1817.1 1328.6 1821.9 1331.9 1821.9 1336 z" stroke-linecap="round"/>
</g>
		<g transform="matrix(1 0 0 1 138.2523 96.5989)" id="Layer_1">
<path style="stroke: rgb(25,75,63); stroke-width: 8.5039; stroke-dasharray: none; stroke-linecap: butt; stroke-dashoffset: 0; stroke-linejoin: miter; stroke-miterlimit: 4; is-custom-font: none; font-file-url: none; fill: rgb(119,165,151); fill-rule: nonzero; opacity: 1;" transform=" translate(-1388.2524, -1346.5989)" d="M 1631.8 1384.9 c 0.4 -9.3 -0.3 -18.4 -2.9 -26.4 c -11.6 -34.9 -166.6 -88 -287.1 -61.4 c -93.9 20.7 -168.8 80.8 -197.2 106.2 C 1296.2 1330.8 1474.5 1332 1631.8 1384.9 z" stroke-linecap="round"/>
</g>
		<g transform="matrix(1 0 0 1 606.0779 194.2215)" id="Layer_1">
<path style="stroke: rgb(25,75,63); stroke-width: 8.5039; stroke-dasharray: none; stroke-linecap: butt; stroke-dashoffset: 0; stroke-linejoin: miter; stroke-miterlimit: 4; is-custom-font: none; font-file-url: none; fill: rgb(119,165,151); fill-rule: nonzero; opacity: 1;" transform=" translate(-1856.0778, -1444.2215)" d="M 1623.9 1416.9 l -11.6 41.2 l 13.2 18.3 c 0 0 89.1 21.6 209.5 18.3 c 120.4 -3.3 227.7 -43.2 250.8 -63.1 c 14.7 -12.7 16.6 -24.7 11.5 -38.2 C 1942.5 1433.2 1776.2 1479.6 1623.9 1416.9 z" stroke-linecap="round"/>
</g>
		<g transform="matrix(1 0 0 1 612 103.5237)" id="Layer_1">
<path style="stroke: rgb(25,75,63); stroke-width: 8.5039; stroke-dasharray: none; stroke-linecap: butt; stroke-dashoffset: 0; stroke-linejoin: miter; stroke-miterlimit: 4; is-custom-font: none; font-file-url: none; fill: rgb(119,165,151); fill-rule: nonzero; opacity: 1;" transform=" translate(-1862, -1353.5237)" d="M 2097 1392.5 c -3 -7.4 -8.1 -15.3 -14.4 -24 c -18.1 -24.9 -66 -26.6 -66 -26.6 s -107.2 -56.4 -207.9 -36.5 c -100.7 19.9 -178.2 88 -178.2 88 l -3.5 12.5 C 1771.8 1334.8 1940.2 1361 2097 1392.5 z" stroke-linecap="round"/>
</g>
		<g transform="matrix(1 0 0 1 130.0999 210.7612)" id="Layer_1">
<path style="stroke: rgb(25,75,63); stroke-width: 8.5039; stroke-dasharray: none; stroke-linecap: butt; stroke-dashoffset: 0; stroke-linejoin: miter; stroke-miterlimit: 4; is-custom-font: none; font-file-url: none; fill: rgb(119,165,151); fill-rule: nonzero; opacity: 1;" transform=" translate(-1380.1, -1460.7611)" d="M 1135 1412.2 c -1.8 1.7 -2.7 2.7 -2.7 2.7 s 117.1 96.3 250.8 94.6 c 133.6 -1.7 232.6 -59.7 232.6 -59.7 s 7.4 -16.8 12.2 -37.8 C 1465.9 1455.8 1294.8 1455.8 1135 1412.2 z" stroke-linecap="round"/>
</g>
		<g transform="matrix(1 0 0 1 296.6092 640.2302)" id="Layer_1">
<path style="stroke: rgb(25,75,63); stroke-width: 8.5039; stroke-dasharray: none; stroke-linecap: round; stroke-dashoffset: 0; stroke-linejoin: round; stroke-miterlimit: 2.6131; is-custom-font: none; font-file-url: none; fill: rgb(217,161,192); fill-rule: evenodd; opacity: 1;" transform=" translate(-1546.6092, -1890.2303)" d="M 1408.7 1818 c -89.8 -18.3 -157.2 -29.9 -202.3 -34.7 c -88.8 -11.6 -140.6 19.4 -155.3 93.2 c -0.8 35.8 18.5 54.1 57.8 54.9 c 81 -4.7 161.7 3 242 23.1 c 229.5 41.6 419.2 54.4 569.2 38.3 c 63.5 -24.8 79.9 -57.5 49.1 -98.2 c 81.8 -49.9 94.8 -85.8 39 -107.6 C 1850.1 1860.8 1650.2 1871.2 1408.7 1818 z" stroke-linecap="round"/>
</g>
		<g transform="matrix(1 0 0 1 310 636.884)" id="Layer_1">
<path style="stroke: rgb(25,75,63); stroke-width: 8.5039; stroke-dasharray: none; stroke-linecap: round; stroke-dashoffset: 0; stroke-linejoin: round; stroke-miterlimit: 2.6131; is-custom-font: none; font-file-url: none; fill: none; fill-rule: nonzero; opacity: 1;" transform=" translate(-1560, -1886.884)" d="M 1969.2 1894.5 c -127.7 19.2 -249.6 26.1 -365.7 20.7 c -138 -6.5 -347.8 -75.1 -452.7 -54.6" stroke-linecap="round"/>
</g>
		<g transform="matrix(1 0 0 1 -206.9001 711.3499)" id="Layer_1">
<path style="stroke: rgb(25,75,63); stroke-width: 8.5039; stroke-dasharray: none; stroke-linecap: round; stroke-dashoffset: 0; stroke-linejoin: round; stroke-miterlimit: 2.6131; is-custom-font: none; font-file-url: none; fill: none; fill-rule: nonzero; opacity: 1;" transform=" translate(-1043.1, -1961.35)" d="M 994.7 1919.8 c 11.1 52.3 43.4 80 96.8 83.1" stroke-linecap="round"/>
</g>
</g>
</g>
</svg>