<svg xmlns="http://www.w3.org/2000/svg" viewBox="0 0 1806.77 1550.46"><defs><style>.cls-1,.cls-2,.cls-5,.cls-6,.cls-7{fill-rule:evenodd;}.cls-2,.cls-9{fill:#fff;}.cls-3,.cls-4,.cls-7,.cls-8{fill:none;}.cls-3{stroke:#333;}.cls-3,.cls-4,.cls-6,.cls-7{stroke-linecap:round;stroke-linejoin:round;}.cls-3,.cls-4,.cls-6,.cls-7,.cls-8{stroke-width:12px;}.cls-4,.cls-6,.cls-7,.cls-8{stroke:#000;}.cls-5,.cls-6{fill:#313e3e;}</style></defs><g id="Layer_2" data-name="Layer 2"><g id="Layer_1-2" data-name="Layer 1"><path class="cls-1" d="M1334.75,1196.77,1329,1181.6l-26.19,2.76h0c-29.47,62-189.93,59-255,60.11q-389.4,6.67-637.71-157.5C280.82,1103.58,54,1344.85,0,1548H1618C1526.86,1368.09,1399.32,1233.55,1334.75,1196.77Z"/><path class="cls-2" d="M501,1135l634,413h128l26-362Z"/><path class="cls-3" d="M451,1121v288l562,114"/><path class="cls-3" d="M1311,1213l157,200-179,110"/><path class="cls-4" d="M1326.5,1350.46l-250.42-105.73L894.5,1410.46"/><path class="cls-5" d="M976.13,1336l113.37,62.5L1132,1548h139l-103.5-167.5,22.81-87.5-113.81-48.5Z"/><path class="cls-6" d="M1089.5,1398.46l78-18Z"/><path class="cls-4" d="M1130.5,1544.46l-41-146L976.13,1336l100.37-91.5,113.81,48.5-22.81,87.5,102,164"/><path class="cls-7" d="M1557.27,1049.62q-89.26,48.53-180.62,103.08-24.06,14.41-47.68,28.9-126.9,14.81-351.79,11.56-398.58-21.48-560.55-131.47c-164.7-122.8-72.24-707.2,151-720.2q203.11-507.75,588-247Q1518-82.12,1571.69,221.58q128.61,24.88,143,85.24,58.27,19.74,49.12,61.4,51.89,24.27,19.5,47.67,41.49,56.69-21.67,80.91,23.49,38.88-52,54.18-26.7,67.24-110.52,88.12c19.66,12.17,71.12,47.73,95.86,115.27a220.21,220.21,0,0,1,13.22,80.49"/><path class="cls-7" d="M1302.78,1184.36h0c-29.47,62-189.93,59-255,60.11q-389.4,6.67-637.71-157.5a43.18,43.18,0,0,1,6.5-25.28q162,110,560.55,131.47Q1179.73,1196.08,1302.78,1184.36Z"/><path class="cls-4" d="M567.6,341.49q-10,61.32-16.61,116.3"/><path class="cls-4" d="M1225.68,609.49q-76.9,41.91-190.71,78.73"/><path class="cls-4" d="M1361.48,623.93q64.76,26.57,106.91,53.46"/><path class="cls-4" d="M1599.14,639.1q-77.58,16.21-166.36,17.73"/><path class="cls-4" d="M853.66,530.75Q943.84,588,1085.54,590q58.51-.35,120.63.73,48.28-20.72,76.57-15.17,72.26-34.83,37.57-75.85"/><path class="cls-4" d="M1155.61,94.44q51.29,62.9,50.56,127.86Q962.25,76.5,775.64,226.63"/><path class="cls-4" d="M1571.69,221.58q-20.22,3.38-32.51-5.78-4.68-7.47-16.61-6.5-22.56,8.34-35.4.72-14.68-7.28-42.62-8-133-6.85-238.38,20.23,30.72,44.52,90.3,85.24,25.54,15,5.06,47.67-211.18-106.12-418.25,40.46-34.87,18.48-99,16.61-31-5-33.23,22.39-.24,21,31.79,22.4,39.21.31,63.57,6.5"/><path class="cls-4" d="M1259.12,279.27q-219.57-28-325.28,34.77-61.41,55.2-138,63.57"/><path class="cls-4" d="M1309.22,338.89q178.56-92.91,405.5-32.07"/><path class="cls-4" d="M1318.14,363.88q241.08-96.35,445.7,4.34"/><path class="cls-8" d="M1330.51,441.34s77.54-68,178.19-88,207.89,36.52,207.89,36.52,47.86,1.66,66,26.56,26.4,43.14,3.29,63.06-130.33,59.75-250.78,63.07-209.54-18.26-209.54-18.26l-13.2-18.26Z"/><path class="cls-8" d="M832.23,462.91s89.1-91.28,209.54-117.84,275.54,26.56,287.09,61.41-13.2,91.28-13.2,91.28-99,58.1-232.64,59.75S832.23,462.91,832.23,462.91Z"/><path d="M1129.22,403.31c-51-16.42-120.43-11.75-148.49,18.06s-6.6,65.06,49.5,66.87,113.84-4.52,123.74-28.92S1157.27,412.34,1129.22,403.31Z"/><path class="cls-9" d="M1092.92,434.6c0,10.1-9.22,18.27-20.62,18.27s-20.62-8.17-20.62-18.27,9.23-18.25,20.62-18.25S1092.92,424.53,1092.92,434.6Z"/><path class="cls-9" d="M1036.83,460.33c0,7.79-7.76,14.11-17.32,14.11s-17.32-6.32-17.32-14.11,7.75-14.1,17.32-14.1S1036.83,452.54,1036.83,460.33Z"/><path d="M1606.06,415.32c-45.87-10.13-115.51-9.84-138.6,7.38s-24.75,45.91-9.9,56.57,39.59,13.12,75.89,13.94,80.86-1.64,94.06-22.14S1635.75,421.88,1606.06,415.32Z"/><path class="cls-9" d="M1574.7,424.65c0,10.08-9.23,18.26-20.63,18.26s-20.62-8.18-20.62-18.26,9.24-18.26,20.62-18.26S1574.7,414.57,1574.7,424.65Z"/><path class="cls-9" d="M1518.6,450.37c0,7.8-7.75,14.12-17.32,14.12S1484,458.17,1484,450.37s7.76-14.1,17.32-14.1S1518.6,442.58,1518.6,450.37Z"/><path class="cls-8" d="M1331.8,432.88c.43-9.31-.3-18.42-2.94-26.4-11.55-34.85-166.65-88-287.09-61.41C947.83,365.79,873,425.88,844.56,451.32,996.23,378.79,1174.51,380,1331.8,432.88Z"/><path class="cls-8" d="M1323.91,464.89l-11.55,41.17,13.2,18.26s89.09,21.58,209.54,18.26,227.69-43.15,250.78-63.07c14.71-12.69,16.64-24.71,11.47-38.17C1642.5,481.21,1476.19,527.53,1323.91,464.89Z"/><path class="cls-8" d="M1797,440.46c-3-7.43-8.09-15.31-14.43-24-18.14-24.9-66-26.56-66-26.56s-107.25-56.43-207.89-36.52-178.19,88-178.19,88L1327,453.85C1471.77,382.76,1640.24,409,1797,440.46Z"/><path class="cls-8" d="M835,460.21c-1.78,1.72-2.74,2.7-2.74,2.7s117.15,96.26,250.79,94.6,232.64-59.75,232.64-59.75A239.87,239.87,0,0,0,1327.83,460C1165.9,503.71,994.78,503.79,835,460.21Z"/><path class="cls-7" d="M1108.65,865.93q-134.72-27.48-202.26-34.68-133.26-17.44-155.31,93.19-1.14,53.73,57.79,54.9a797.82,797.82,0,0,1,242,23.11q344.27,62.41,569.23,38.29,95.28-37.15,49.12-98.24,122.73-74.93,39-107.64Q1471,945.78,1108.65,865.93Z"/><path class="cls-4" d="M1669.21,942.5q-191.61,28.83-365.71,20.68c-138-6.46-347.82-75.14-452.73-54.63"/><path class="cls-4" d="M694.74,967.78q16.65,78.42,96.8,83.07"/></g></g></svg>