<svg width="62" height="66" viewBox="0 0 62 66" fill="none" xmlns="http://www.w3.org/2000/svg">
<path d="M1.56775 63.4581L4.38488 60.6015C4.39147 60.6081 4.39805 60.6147 4.41122 60.6212L1.59407 63.4778C1.58091 63.4713 1.57433 63.4647 1.56775 63.4581Z" fill="#3E5A4C"/>
<path d="M1.58411 63.4703L4.40125 60.6137C4.41441 60.6268 4.43415 60.64 4.46707 60.6532L1.64993 63.5098C1.6236 63.4966 1.59727 63.4834 1.58411 63.4703Z" fill="#3C574A"/>
<path d="M1.66022 63.5171L4.47735 60.6605C4.50368 60.6736 4.53001 60.6868 4.56292 60.7L1.74579 63.5566C1.7063 63.5434 1.67996 63.5302 1.66022 63.5171Z" fill="#3A5548"/>
<path d="M1.73962 63.5567L4.55676 60.7001C4.58967 60.7132 4.62917 60.7264 4.67524 60.7396L1.85811 63.5962C1.81203 63.583 1.77253 63.5698 1.73962 63.5567Z" fill="#395346"/>
<path d="M1.85797 63.6026L4.6751 60.746C4.72118 60.7591 4.77384 60.7723 4.83966 60.7855L2.02252 63.6421C1.9567 63.6289 1.90405 63.6158 1.85797 63.6026Z" fill="#375044"/>
<path d="M2.02185 63.6423L4.83898 60.7857C4.90481 60.7989 4.98379 60.812 5.06936 60.8252L2.25222 63.6818C2.16665 63.6686 2.08767 63.6555 2.02185 63.6423Z" fill="#354E42"/>
<path d="M2.25262 63.6816L5.06977 60.825C5.17508 60.8381 5.28697 60.8513 5.4252 60.8579L2.60806 63.7145C2.46984 63.7079 2.35794 63.6947 2.25262 63.6816Z" fill="#344C40"/>
<path d="M2.6076 63.7144L5.42474 60.8578C5.53005 60.8644 5.64194 60.8644 5.76042 60.8644L2.94329 63.721C2.81823 63.721 2.70634 63.721 2.6076 63.7144Z" fill="#32493E"/>
<path d="M1.75238 61.6413L4.56952 58.7847C4.47078 58.89 4.38522 58.9953 4.3194 59.1006L1.50226 61.9573C1.56808 61.8454 1.65365 61.7401 1.75238 61.6413Z" fill="#2A3D34"/>
<path d="M1.50194 61.9573L4.31909 59.1007C4.28618 59.1533 4.25326 59.2126 4.23352 59.2652L1.41638 62.1219C1.43613 62.0692 1.46903 62.01 1.50194 61.9573Z" fill="#2C4036"/>
<path d="M1.41637 62.1219L4.2335 59.2653C4.21375 59.3113 4.19401 59.3574 4.18084 59.4035L1.36371 62.2601C1.37687 62.2141 1.39662 62.168 1.41637 62.1219Z" fill="#2D4238"/>
<path d="M1.36433 62.2601L4.18147 59.4034C4.1683 59.4429 4.15514 59.4824 4.14855 59.5285L1.33142 62.3851C1.338 62.339 1.35117 62.2995 1.36433 62.2601Z" fill="#2F443A"/>
<path d="M1.32437 62.3853L4.1415 59.5287C4.13492 59.5681 4.12175 59.6076 4.11517 59.6537L1.29803 62.5104C1.3112 62.4643 1.31779 62.4248 1.32437 62.3853Z" fill="#31473C"/>
<path d="M1.30461 62.5033L4.12174 59.6467C4.11516 59.6862 4.10858 59.7323 4.10858 59.7783L1.29144 62.635C1.29144 62.5889 1.29803 62.5494 1.30461 62.5033Z" fill="#32493E"/>
<path d="M1.2921 62.6352L4.10923 59.7785C4.10923 59.8246 4.10266 59.8707 4.10266 59.9233L1.28552 62.78C1.28552 62.7273 1.28552 62.6813 1.2921 62.6352Z" fill="#344C40"/>
<path d="M1.28552 62.7797L4.10266 59.9231C4.10266 59.9297 4.10266 59.9429 4.10266 59.9494C4.10266 59.9824 4.10265 60.0087 4.10923 60.0416L1.2921 62.8982C1.2921 62.8719 1.28552 62.839 1.28552 62.8061C1.28552 62.7929 1.28552 62.7863 1.28552 62.7797Z" fill="#354E42"/>
<path d="M1.29144 62.8984L4.10858 60.0417C4.11516 60.0747 4.11516 60.1075 4.12174 60.1405L1.30461 62.9971C1.29803 62.9642 1.29802 62.9313 1.29144 62.8984Z" fill="#375044"/>
<path d="M1.30524 62.9908L4.12237 60.1341C4.12895 60.167 4.13554 60.1934 4.14212 60.2197L1.32498 63.0763C1.3184 63.0566 1.31182 63.0237 1.30524 62.9908Z" fill="#395346"/>
<path d="M1.32452 63.0825L4.14166 60.2258C4.14824 60.2587 4.1614 60.2851 4.16798 60.3114L1.35085 63.168C1.34427 63.1417 1.33769 63.1088 1.32452 63.0825Z" fill="#3A5548"/>
<path d="M1.35748 63.1683L4.17462 60.3116C4.18778 60.3445 4.20752 60.3775 4.22069 60.4104L1.40355 63.267C1.38381 63.2341 1.37065 63.2012 1.35748 63.1683Z" fill="#3C574A"/>
<path d="M1.40387 63.2671L4.221 60.4105C4.27366 60.4961 4.3329 60.5619 4.38556 60.6014L1.56842 63.458C1.51577 63.4119 1.45653 63.3527 1.40387 63.2671Z" fill="#3E5A4C"/>
<path d="M1.75214 61.6412L4.56927 58.7846C4.58902 58.7648 4.61535 58.7385 4.6351 58.7188C4.75357 58.6069 4.89838 58.5081 5.06952 58.4357L2.25237 61.2923C2.08124 61.3713 1.93644 61.4635 1.81796 61.5754C1.79821 61.5951 1.77846 61.6149 1.75214 61.6412Z" fill="#6F7776"/>
<path d="M2.25262 61.286L5.06977 58.4294C5.15534 58.3899 5.2409 58.357 5.33963 58.3306L2.52249 61.1873C2.43034 61.2136 2.33819 61.2531 2.25262 61.286Z" fill="#747C7B"/>
<path d="M2.52295 61.1869L5.34008 58.3303C5.43223 58.304 5.52439 58.2777 5.62312 58.2579L2.80598 61.1145C2.70725 61.1343 2.6151 61.1606 2.52295 61.1869Z" fill="#78807F"/>
<path d="M2.52295 61.1869L5.34008 58.3303C5.43223 58.304 5.52439 58.2777 5.62312 58.2579L2.80598 61.1145C2.70725 61.1343 2.6151 61.1606 2.52295 61.1869Z" fill="#78807F"/>
<path d="M2.80518 61.1148L5.62231 58.2582C5.72762 58.2385 5.83952 58.2187 5.95141 58.2055L3.13428 61.0622C3.02238 61.0753 2.91049 61.0951 2.80518 61.1148Z" fill="#7C8584"/>
<path d="M3.14093 61.0622L5.95806 58.2056C6.08971 58.1924 6.22793 58.1793 6.36615 58.1793L3.54902 61.0359C3.40421 61.0359 3.26599 61.0491 3.14093 61.0622Z" fill="#808988"/>
<path d="M3.5495 61.0359L6.36663 58.1793C6.41929 58.1793 6.47854 58.1793 6.53777 58.1793L3.72064 61.0359C3.6614 61.0293 3.60216 61.0359 3.5495 61.0359Z" fill="#858E8D"/>
<path d="M0.817444 60.7067L3.63458 57.85C3.66749 57.8171 3.70039 57.7842 3.7333 57.7513C3.95051 57.5473 4.20722 57.3827 4.49683 57.2445L1.6797 60.1011C1.39008 60.2328 1.13338 60.4039 0.916171 60.6079C0.883261 60.6409 0.850354 60.6737 0.817444 60.7067Z" fill="#2A3D34"/>
<path d="M1.68011 60.1078L4.49725 57.2511C4.62889 57.1919 4.7737 57.1392 4.9185 57.0932L2.10137 59.9498C1.95656 59.9893 1.81176 60.0485 1.68011 60.1078Z" fill="#2C4036"/>
<path d="M2.10126 59.9433L4.91839 57.0866C5.05003 57.0472 5.18826 57.0077 5.33307 56.9814L2.51593 59.838C2.37113 59.8709 2.2329 59.9038 2.10126 59.9433Z" fill="#2D4238"/>
<path d="M2.51617 59.8379L5.33331 56.9812C5.47811 56.9549 5.6295 56.9286 5.78089 56.9088L2.96375 59.7654C2.81236 59.7852 2.66098 59.8115 2.51617 59.8379Z" fill="#2F443A"/>
<path d="M2.96307 59.7655L5.78021 56.9088C5.94476 56.8891 6.1159 56.8759 6.29362 56.8759L3.47648 59.7326C3.29876 59.7391 3.12763 59.7523 2.96307 59.7655Z" fill="#31473C"/>
<path d="M3.47736 59.7326L6.2945 56.8759C6.36032 56.8759 6.42613 56.8759 6.49195 56.8759L3.67482 59.7326C3.609 59.7326 3.54318 59.7326 3.47736 59.7326Z" fill="#32493E"/>
<path d="M2.94403 63.7212L5.75459 60.8646H24.7505L21.9399 63.7212H2.94403Z" fill="#344B40"/>
<path d="M3.72015 61.029L6.5307 58.1724H12.4151L9.60454 61.029H3.72015Z" fill="#889291"/>
<path d="M3.68097 59.7327L6.49151 56.8761H11.3294L8.51222 59.7327H3.68097Z" fill="#344B40"/>
<path d="M24.2039 62.7669L27.021 59.9103C26.9552 60.0157 26.8696 60.121 26.7709 60.2263L23.9537 63.0829C24.059 62.9842 24.138 62.8788 24.2039 62.7669Z" fill="#6F7776"/>
<path d="M12.2709 61.029L15.0815 58.1724H25.5207L22.7101 61.029H12.2709Z" fill="#889291"/>
<path d="M24.0258 61.1873L26.8429 58.3306C26.9153 58.3833 26.9877 58.4623 27.0535 58.561C27.0667 58.5808 27.0798 58.6071 27.093 58.6268L24.2759 61.4835C24.2627 61.4637 24.2496 61.4374 24.2364 61.4176C24.1706 61.3189 24.0982 61.2465 24.0258 61.1873Z" fill="#A3AEAD"/>
<path d="M24.283 61.4899L27.1001 58.6333C27.1264 58.6794 27.1462 58.7189 27.1659 58.765L24.3488 61.6216C24.329 61.5755 24.3093 61.5294 24.283 61.4899Z" fill="#9EA9A8"/>
<path d="M24.3484 61.6216L27.1655 58.765C27.1787 58.7979 27.1919 58.8307 27.1984 58.8571L24.3813 61.7137C24.3681 61.6808 24.3616 61.6545 24.3484 61.6216Z" fill="#9AA5A3"/>
<path d="M24.3815 61.7138L27.1986 58.8571C27.2052 58.8834 27.2118 58.9098 27.2184 58.9427L24.4012 61.7993C24.3946 61.773 24.3881 61.7401 24.3815 61.7138Z" fill="#96A09F"/>
<path d="M24.4014 61.7991L27.2185 58.9424C27.2251 58.9688 27.2251 58.9951 27.2317 59.0214L24.4145 61.8781C24.408 61.8517 24.4014 61.8254 24.4014 61.7991Z" fill="#929C9A"/>
<path d="M24.4079 61.8783L27.225 59.0217C27.225 59.0414 27.2316 59.0678 27.2316 59.0875C27.2316 59.0941 27.2316 59.1073 27.2316 59.1139L24.4145 61.9705C24.4145 61.9639 24.4145 61.9507 24.4145 61.9441C24.4145 61.9244 24.4145 61.9047 24.4079 61.8783Z" fill="#8D9796"/>
<path d="M24.4144 61.9768L27.2316 59.1202C27.2316 59.1663 27.2316 59.2123 27.2316 59.2584L24.4144 62.115C24.4144 62.0689 24.4144 62.0229 24.4144 61.9768Z" fill="#899391"/>
<path d="M24.4145 62.115L27.2317 59.2584C27.2317 59.2979 27.2251 59.344 27.2185 59.3835L24.4014 62.2401C24.4079 62.194 24.408 62.1545 24.4145 62.115Z" fill="#858E8D"/>
<path d="M24.4012 62.2403L27.2184 59.3837C27.2118 59.4232 27.2052 59.4626 27.1986 59.5021L24.3815 62.3587C24.3881 62.3193 24.3946 62.2798 24.4012 62.2403Z" fill="#808988"/>
<path d="M24.3754 62.3589L27.1925 59.5023C27.1859 59.5418 27.1728 59.5813 27.1596 59.6208L24.3425 62.4774C24.3556 62.4379 24.3688 62.3984 24.3754 62.3589Z" fill="#7C8584"/>
<path d="M24.3422 62.477L27.1593 59.6204C27.1462 59.6664 27.1264 59.7059 27.1067 59.752L24.2896 62.6086C24.3093 62.5625 24.329 62.523 24.3422 62.477Z" fill="#78807F"/>
<path d="M24.2892 62.6087L27.1063 59.7521C27.08 59.8048 27.0537 59.864 27.0207 59.9167L24.2036 62.7733C24.2365 62.7141 24.2694 62.6614 24.2892 62.6087Z" fill="#747C7B"/>
<path d="M24.2039 62.7669L27.021 59.9103C26.9552 60.0156 26.8696 60.1209 26.7709 60.2262L23.9537 63.0829C24.059 62.9841 24.138 62.8788 24.2039 62.7669Z" fill="#6F7776"/>
<path d="M22.7098 61.029L25.527 58.1724C25.7771 58.1724 25.9746 58.179 26.1325 58.1855L23.3154 61.0421C23.1508 61.0356 22.9534 61.029 22.7098 61.029Z" fill="#858E8D"/>
<path d="M23.3153 61.0422L26.1325 58.1856C26.297 58.1922 26.4221 58.2053 26.5142 58.2185L23.6971 61.0751C23.6049 61.0685 23.4799 61.0554 23.3153 61.0422Z" fill="#899391"/>
<path d="M23.69 61.0754L26.5071 58.2188C26.5664 58.2254 26.619 58.2385 26.6519 58.2451L23.8348 61.1017C23.8019 61.0952 23.7558 61.0885 23.69 61.0754Z" fill="#8D9796"/>
<path d="M23.8354 61.1015L26.6526 58.2448C26.6789 58.2514 26.6987 58.258 26.7118 58.258L23.8947 61.1146C23.8815 61.1146 23.8618 61.108 23.8354 61.1015Z" fill="#929C9A"/>
<path d="M23.8943 61.1145L26.7114 58.2579C26.7246 58.2579 26.7312 58.2645 26.7312 58.2645L23.914 61.1211C23.914 61.1211 23.9009 61.1211 23.8943 61.1145Z" fill="#96A09F"/>
<path d="M23.9146 61.1277L26.7317 58.2711C26.7448 58.2777 26.758 58.2843 26.7778 58.2908L23.9606 61.1475C23.9475 61.1409 23.9343 61.1277 23.9146 61.1277Z" fill="#9AA5A3"/>
<path d="M23.9603 61.1479L26.7775 58.2912C26.7972 58.3044 26.8235 58.3176 26.8433 58.3373L24.0261 61.194C24.0064 61.1742 23.9801 61.161 23.9603 61.1479Z" fill="#9EA9A8"/>
<path d="M24.0258 61.1873L26.8429 58.3306C26.9153 58.3833 26.9877 58.4623 27.0535 58.561C27.0667 58.5808 27.0798 58.6071 27.093 58.6268L24.2759 61.4835C24.2627 61.4637 24.2496 61.4374 24.2364 61.4176C24.1706 61.3189 24.0982 61.2465 24.0258 61.1873Z" fill="#A3AEAD"/>
<path d="M13.8308 59.7327L16.6414 56.8761H25.4811L22.6706 59.7327H13.8308Z" fill="#344B40"/>
<path d="M22.6707 59.7327L25.4878 56.8761C25.7313 56.8761 25.942 56.8827 26.1263 56.8892L23.3091 59.7459C23.1248 59.7393 22.9142 59.7327 22.6707 59.7327Z" fill="#32493E"/>
<path d="M23.3026 59.7458L26.1197 56.8892C26.3172 56.9024 26.4752 56.9155 26.6134 56.9353L23.7963 59.7919C23.6646 59.7722 23.5001 59.759 23.3026 59.7458Z" fill="#344C40"/>
<path d="M23.7959 59.7916L26.613 56.9349C26.7183 56.9481 26.8039 56.9613 26.8763 56.981L24.0592 59.8377C23.9868 59.8179 23.9012 59.8047 23.7959 59.7916Z" fill="#354E42"/>
<path d="M24.0594 59.8312L26.8766 56.9745C26.9424 56.9877 27.0016 57.0075 27.0543 57.0206L24.2372 59.8773C24.1911 59.8641 24.1319 59.8509 24.0594 59.8312Z" fill="#375044"/>
<path d="M24.2373 59.8771L27.0544 57.0205C27.1005 57.0336 27.1466 57.0468 27.1795 57.0666C27.1861 57.0666 27.1927 57.0731 27.1927 57.0731L24.3755 59.9298C24.3689 59.9298 24.3624 59.9232 24.3624 59.9232C24.3295 59.91 24.29 59.8969 24.2373 59.8771Z" fill="#395346"/>
<path d="M24.3815 59.9298L27.1986 57.0732C27.2578 57.0995 27.3171 57.1258 27.3697 57.1522L24.5526 60.0088C24.4934 59.9824 24.4407 59.9561 24.3815 59.9298Z" fill="#3A5548"/>
<path d="M24.5527 60.0089L27.3699 57.1523C27.4489 57.1918 27.5278 57.2445 27.6002 57.2971L24.7831 60.1538C24.7107 60.1011 24.6317 60.055 24.5527 60.0089Z" fill="#3C574A"/>
<path d="M24.7829 60.1604L27.6 57.3037C27.7975 57.4485 27.9686 57.6328 28.1266 57.8632C28.1595 57.9093 28.1924 57.9619 28.2187 58.008L25.4016 60.8646C25.3753 60.812 25.3424 60.7659 25.3095 60.7198C25.1515 60.4894 24.9738 60.3052 24.7829 60.1604Z" fill="#3E5A4C"/>
<path d="M25.3955 60.8644L28.2126 58.0078C28.2719 58.1065 28.3245 58.2118 28.364 58.3171L25.5469 61.1737C25.5074 61.0684 25.4547 60.9631 25.3955 60.8644Z" fill="#3C574A"/>
<path d="M25.5535 61.174L28.3706 58.3174C28.4035 58.3898 28.4233 58.4687 28.4496 58.5412L25.6324 61.3978C25.6061 61.3254 25.5798 61.2464 25.5535 61.174Z" fill="#3A5548"/>
<path d="M25.6261 61.4042L28.4432 58.5475C28.463 58.6134 28.4761 58.6792 28.4893 58.745L25.6722 61.6016C25.659 61.5358 25.6458 61.47 25.6261 61.4042Z" fill="#395346"/>
<path d="M25.6718 61.602L28.4889 58.7453C28.5021 58.8112 28.5086 58.8704 28.5152 58.9362L25.6981 61.7928C25.6915 61.727 25.6849 61.6612 25.6718 61.602Z" fill="#375044"/>
<path d="M25.6982 61.7927L28.5154 58.9361C28.522 58.9887 28.522 59.0414 28.5285 59.0941C28.5285 59.1072 28.5285 59.127 28.5285 59.1401L25.7114 61.9968C25.7114 61.9836 25.7114 61.9638 25.7114 61.9507C25.7114 61.898 25.7048 61.8454 25.6982 61.7927Z" fill="#354E42"/>
<path d="M25.7114 61.9968L28.5286 59.1402C28.5286 59.2192 28.5285 59.3048 28.522 59.3838L25.7048 62.2404C25.7114 62.1548 25.7114 62.0758 25.7114 61.9968Z" fill="#344C40"/>
<path d="M25.7047 62.2403L28.5218 59.3837C28.5152 59.4627 28.5086 59.535 28.4955 59.614L25.6783 62.4707C25.6915 62.3917 25.6981 62.3127 25.7047 62.2403Z" fill="#32493E"/>
<path d="M25.6783 62.4642L28.4954 59.6076C28.4823 59.68 28.4691 59.759 28.4559 59.8314L25.6388 62.688C25.6585 62.6156 25.6717 62.5432 25.6783 62.4642Z" fill="#31473C"/>
<path d="M25.6392 62.688L28.4563 59.8314C28.4366 59.9104 28.4168 59.9828 28.3905 60.0617L25.5734 62.9184C25.5997 62.846 25.6194 62.767 25.6392 62.688Z" fill="#2F443A"/>
<path d="M25.5735 62.9183L28.3906 60.0617C28.3643 60.1472 28.3314 60.2262 28.2919 60.3118L25.4747 63.1684C25.5142 63.0829 25.5471 63.0039 25.5735 62.9183Z" fill="#2D4238"/>
<path d="M25.4813 63.1683L28.2985 60.3116C28.2524 60.4169 28.1997 60.5157 28.1405 60.6144L25.3234 63.471C25.376 63.3723 25.4353 63.267 25.4813 63.1683Z" fill="#2C4036"/>
<path d="M25.3163 63.4645L28.1334 60.6078C28.0149 60.7987 27.8767 60.9764 27.7122 61.141L24.895 63.9976C25.0596 63.833 25.2044 63.6553 25.3163 63.4645Z" fill="#2A3D34"/>
<path d="M17.1088 34.5231L19.9259 31.6665L15.0815 58.1726L12.2709 61.0292L17.1088 34.5231Z" fill="#838D8B"/>
<path d="M17.7866 38.0905L20.6038 35.2339L16.6414 56.8758L13.8308 59.7324L17.7866 38.0905Z" fill="#32483D"/>
<path d="M17.1083 34.5231L19.9255 31.6665L20.8141 33.1869L17.9969 36.0436L17.1083 34.5231Z" fill="#405D4F"/>
<path d="M20.5972 34.4903L23.4143 31.6336C24.0857 32.7789 24.9282 33.8386 25.9418 34.7996C26.3631 35.2011 26.8041 35.5697 27.2582 35.9054L24.4411 38.7621C23.9869 38.4198 23.5459 38.0512 23.1247 37.6563C22.111 36.6887 21.2685 35.6356 20.5972 34.4903Z" fill="#A3AEAD"/>
<path d="M17.9972 36.0437L20.8143 33.187L17.9972 36.0437Z" fill="#3C574A"/>
<path d="M17.9972 36.0437L20.8143 33.187C22.0649 35.3328 23.5591 37.0573 25.3165 38.3737L22.4993 41.2304C20.7419 39.9205 19.2478 38.196 17.9972 36.0437Z" fill="#3E5A4C"/>
<path d="M22.4996 41.2301L25.3167 38.3734C25.8959 38.8079 26.5015 39.1962 27.1399 39.5385L24.3228 42.3951C23.6844 42.0529 23.0788 41.6645 22.4996 41.2301Z" fill="#3C574A"/>
<path d="M24.322 42.3954L27.1391 39.5388C27.6064 39.7955 28.0935 40.0192 28.5937 40.2299L25.7766 43.0865C25.2764 42.8825 24.7893 42.6521 24.322 42.3954Z" fill="#3A5548"/>
<path d="M25.7775 43.0862L28.5946 40.2296C29.0422 40.4139 29.5029 40.5784 29.9703 40.7232L27.1531 43.5799C26.6792 43.4285 26.225 43.2705 25.7775 43.0862Z" fill="#395346"/>
<path d="M27.1525 43.5736L29.9696 40.717C30.4303 40.8552 30.9043 40.9803 31.3848 41.0856L28.5676 43.9422C28.0871 43.8369 27.6132 43.7184 27.1525 43.5736Z" fill="#375044"/>
<path d="M28.5677 43.9419L31.3849 41.0853C31.8785 41.1906 32.3919 41.2828 32.9119 41.3486L30.0948 44.2052C29.5748 44.1394 29.068 44.0538 28.5677 43.9419Z" fill="#354E42"/>
<path d="M30.0952 44.2056L32.9123 41.3489C33.4718 41.4213 34.0511 41.474 34.6434 41.5069L31.8263 44.3635C31.2339 44.3372 30.6613 44.2846 30.0952 44.2056Z" fill="#344C40"/>
<path d="M31.8259 44.3633L34.6431 41.5067C35.0643 41.5264 35.4922 41.5396 35.9332 41.5396C36.1767 41.5396 36.4202 41.533 36.6638 41.5264L33.8466 44.3831C33.6031 44.3896 33.3596 44.3962 33.116 44.3962C32.6816 44.3962 32.2538 44.3897 31.8259 44.3633Z" fill="#32493E"/>
<path d="M33.8533 44.3895L36.6704 41.5329C37.3747 41.5131 38.0724 41.467 38.7569 41.3881L35.9398 44.2447C35.2487 44.3237 34.5576 44.3697 33.8533 44.3895Z" fill="#31473C"/>
<path d="M35.9394 44.2449L38.7565 41.3883C39.474 41.3093 40.1783 41.1974 40.876 41.0526L38.0588 43.9092C37.3611 44.054 36.6568 44.1659 35.9394 44.2449Z" fill="#2F443A"/>
<path d="M38.0598 43.9094L40.8769 41.0527C41.6536 40.8948 42.4171 40.6973 43.1609 40.4604L40.3437 43.317C39.5934 43.5539 38.8299 43.7514 38.0598 43.9094Z" fill="#2D4238"/>
<path d="M40.3431 43.3168L43.1603 40.4602C44.0949 40.1706 45.0098 39.8151 45.8984 39.407L43.0813 42.2637C42.1927 42.6717 41.2778 43.0272 40.3431 43.3168Z" fill="#2C4036"/>
<path d="M43.0817 42.2637L45.8989 39.407C48.6304 38.1498 51.1711 36.3398 53.5012 33.99L50.6841 36.8466C48.354 39.1964 45.8133 41.0065 43.0817 42.2637Z" fill="#2A3D34"/>
<path d="M18.9584 30.0275L21.7755 27.1709C21.8545 27.6119 21.9598 28.0463 22.0783 28.4741L19.2612 31.3308C19.1427 30.9029 19.0439 30.4685 18.9584 30.0275Z" fill="#96A09F"/>
<path d="M19.2611 31.3307L22.0782 28.474C22.2099 28.9479 22.3679 29.4153 22.5522 29.8694L19.735 32.7261C19.5573 32.2719 19.3993 31.8046 19.2611 31.3307Z" fill="#9AA5A3"/>
<path d="M19.7345 32.7195L22.5516 29.8628C22.7952 30.475 23.0848 31.0608 23.4139 31.6268L20.5967 34.4835C20.2676 33.924 19.978 33.3316 19.7345 32.7195Z" fill="#9EA9A8"/>
<path d="M20.5972 34.4903L23.4143 31.6336C24.0857 32.7789 24.9282 33.8386 25.9418 34.7996C26.3631 35.2011 26.8041 35.5697 27.2582 35.9054L24.4411 38.7621C23.9869 38.4198 23.5459 38.0512 23.1247 37.6563C22.111 36.6887 21.2685 35.6356 20.5972 34.4903Z" fill="#A3AEAD"/>
<path d="M18.9584 30.0275L21.7755 27.1709C21.8545 27.6119 21.9598 28.0463 22.0783 28.4741L19.2612 31.3308C19.1427 30.9029 19.0439 30.4685 18.9584 30.0275Z" fill="#96A09F"/>
<path d="M18.7013 27.3485L21.5184 24.4919C21.5184 24.584 21.525 24.6762 21.525 24.7683C21.5382 25.1435 21.5579 25.5121 21.5974 25.8741L18.7803 28.7307C18.7474 28.3687 18.721 28.0001 18.7079 27.625C18.7079 27.5328 18.7013 27.4406 18.7013 27.3485Z" fill="#8D9796"/>
<path d="M18.7805 28.7245L21.5977 25.8679C21.6437 26.3089 21.703 26.7433 21.782 27.1712L18.9648 30.0278C18.8858 29.5999 18.82 29.1721 18.7805 28.7245Z" fill="#929C9A"/>
<path d="M18.9584 30.0275L21.7755 27.1709C21.8545 27.6119 21.9598 28.0463 22.0783 28.4741L19.2612 31.3308C19.1427 30.9029 19.0439 30.4685 18.9584 30.0275Z" fill="#96A09F"/>
<path d="M20.5972 34.4903L23.4143 31.6336C24.0857 32.7789 24.9282 33.8386 25.9418 34.7996C26.3631 35.2011 26.8041 35.5697 27.2582 35.9054L24.4411 38.7621C23.9869 38.4198 23.5459 38.0512 23.1247 37.6563C22.111 36.6887 21.2685 35.6356 20.5972 34.4903Z" fill="#A3AEAD"/>
<path d="M24.4409 38.762L27.2581 35.9054C27.8044 36.3135 28.3836 36.6821 28.9826 37.0046L26.1654 39.8612C25.5665 39.5387 24.9938 39.1701 24.4409 38.762Z" fill="#9EA9A8"/>
<path d="M26.1649 39.8613L28.982 37.0047C29.423 37.2417 29.8772 37.4589 30.3379 37.6497L27.5208 40.5063C27.06 40.3155 26.6059 40.0983 26.1649 39.8613Z" fill="#9AA5A3"/>
<path d="M27.5212 40.5061L30.3384 37.6494C30.7465 37.814 31.1677 37.9654 31.5955 38.097L28.7784 40.9537C28.3506 40.822 27.9359 40.6706 27.5212 40.5061Z" fill="#96A09F"/>
<path d="M28.7786 40.9538L31.5957 38.0971C32.0038 38.2222 32.4185 38.3275 32.8463 38.4197L30.0292 41.2763C29.6013 41.1841 29.1867 41.0788 28.7786 40.9538Z" fill="#929C9A"/>
<path d="M30.0289 41.2762L32.846 38.4195C33.2738 38.5117 33.7017 38.5841 34.1427 38.6433L31.3255 41.4999C30.8845 41.4407 30.4567 41.3683 30.0289 41.2762Z" fill="#8D9796"/>
<path d="M31.3254 41.5001L34.1426 38.6435C34.6033 38.7027 35.0706 38.7488 35.5511 38.7751L32.734 41.6317C32.2601 41.6054 31.7862 41.5659 31.3254 41.5001Z" fill="#899391"/>
<path d="M32.7407 41.6317L35.5579 38.7751C35.887 38.7948 36.2292 38.8014 36.5649 38.8014C36.7821 38.8014 36.9993 38.8014 37.2165 38.7948L34.3994 41.6514C34.1822 41.658 33.965 41.658 33.7478 41.658C33.4055 41.658 33.0698 41.6514 32.7407 41.6317Z" fill="#858E8D"/>
<path d="M34.3992 41.6513L37.2164 38.7947C37.8417 38.775 38.4604 38.7355 39.0659 38.6631L36.2488 41.5197C35.6432 41.5855 35.0245 41.6316 34.3992 41.6513Z" fill="#808988"/>
<path d="M36.2489 41.52L39.066 38.6634C39.6979 38.591 40.3232 38.4922 40.9354 38.3672L38.1182 41.2238C37.5061 41.3489 36.8808 41.4476 36.2489 41.52Z" fill="#7C8584"/>
<path d="M38.118 41.2236L40.9352 38.367C41.6131 38.2288 42.2779 38.0577 42.9361 37.8536L40.119 40.7103C39.4608 40.9143 38.796 41.0854 38.118 41.2236Z" fill="#78807F"/>
<path d="M24.7171 13.4802L27.5342 10.6235C26.2244 11.9531 25.1252 13.3419 24.2366 14.7834L21.4194 17.64C22.308 16.1986 23.4072 14.8097 24.7171 13.4802Z" fill="#6F7776"/>
<path d="M21.4194 17.64L24.2365 14.7834C23.7955 15.5008 23.4072 16.2314 23.0715 16.9686L20.2543 19.8253C20.59 19.0815 20.9784 18.3575 21.4194 17.64Z" fill="#747C7B"/>
<path d="M20.2617 19.825L23.0788 16.9684C22.8221 17.5344 22.5983 18.1071 22.4075 18.6929L19.5903 21.5495C19.7812 20.9637 20.005 20.3911 20.2617 19.825Z" fill="#78807F"/>
<path d="M19.5832 21.5499L22.4004 18.6933C22.2358 19.1935 22.091 19.7004 21.9725 20.2072L19.1554 23.0638C19.2739 22.557 19.4187 22.0502 19.5832 21.5499Z" fill="#7C8584"/>
<path d="M19.1556 23.0636L21.9727 20.207C21.8608 20.6809 21.7687 21.1548 21.7029 21.6353L18.8857 24.4919C18.9581 24.0114 19.0437 23.5375 19.1556 23.0636Z" fill="#808988"/>
<path d="M18.8858 24.4984L21.7029 21.6417C21.6371 22.1091 21.5844 22.5764 21.5515 23.0503L18.7344 25.9069C18.7673 25.433 18.8199 24.9591 18.8858 24.4984Z" fill="#858E8D"/>
<path d="M18.7345 25.9072L21.5517 23.0506C21.5188 23.5311 21.5122 24.0116 21.5188 24.492L18.7016 27.3487C18.695 26.8616 18.7082 26.3811 18.7345 25.9072Z" fill="#899391"/>
<path d="M25.6585 14.3951L28.4756 11.5385C27.2316 12.8022 26.1916 14.1186 25.3491 15.4745L22.532 18.3312C23.3745 16.9753 24.4145 15.6588 25.6585 14.3951Z" fill="#2A3D34"/>
<path d="M22.5386 18.3377L25.3557 15.4811C24.941 16.1525 24.579 16.837 24.2631 17.5347L21.4459 20.3913C21.7619 19.6936 22.1239 19.0091 22.5386 18.3377Z" fill="#2C4036"/>
<path d="M21.4459 20.3849L24.263 17.5283C24.026 18.0548 23.8154 18.5946 23.6377 19.1343L20.8206 21.9909C20.9983 21.4512 21.2089 20.918 21.4459 20.3849Z" fill="#2D4238"/>
<path d="M20.8208 21.9971L23.638 19.1405C23.48 19.6078 23.3483 20.0751 23.2364 20.5491L20.4193 23.4057C20.5312 22.9318 20.6628 22.4579 20.8208 21.9971Z" fill="#2F443A"/>
<path d="M20.4194 23.4061L23.2366 20.5494C23.1313 20.9904 23.0523 21.4314 22.9864 21.879L20.1693 24.7357C20.2351 24.2881 20.3141 23.8471 20.4194 23.4061Z" fill="#31473C"/>
<path d="M20.1689 24.7354L22.9861 21.8787C22.9202 22.3066 22.8742 22.7476 22.8478 23.182L20.0307 26.0386C20.057 25.5976 20.1031 25.1632 20.1689 24.7354Z" fill="#32493E"/>
<path d="M20.0305 26.0386L22.8476 23.182C22.8213 23.623 22.8081 24.064 22.8147 24.5116L19.9976 27.3682C19.991 26.9206 20.0042 26.4796 20.0305 26.0386Z" fill="#344C40"/>
<path d="M19.9982 27.3685L22.8154 24.5118C22.8154 24.5974 22.8154 24.6829 22.8219 24.7619C22.8351 25.1042 22.8549 25.4399 22.8878 25.769L20.0706 28.6256C20.0377 28.2965 20.018 27.9608 20.0048 27.6186C19.9982 27.5396 19.9982 27.454 19.9982 27.3685Z" fill="#354E42"/>
<path d="M20.0702 28.6322L22.8873 25.7756C22.9268 26.1771 22.9795 26.572 23.0519 26.9604L20.2347 29.817C20.1623 29.4286 20.1097 29.0337 20.0702 28.6322Z" fill="#375044"/>
<path d="M20.235 29.8169L23.0522 26.9603C23.1246 27.3618 23.2167 27.7567 23.3286 28.1451L20.5115 31.0017C20.3996 30.6134 20.3074 30.2184 20.235 29.8169Z" fill="#395346"/>
<path d="M20.505 31.0015L23.3221 28.1448C23.4472 28.5792 23.5854 29.0005 23.75 29.4151L20.9328 32.2718C20.7749 31.8571 20.6301 31.4359 20.505 31.0015Z" fill="#3A5548"/>
<path d="M20.939 32.2654L23.7561 29.4087C23.9799 29.9616 24.2366 30.4948 24.5394 31.0082L21.7222 33.8648C21.4194 33.3514 21.1628 32.8183 20.939 32.2654Z" fill="#3C574A"/>
<path d="M21.7222 33.8716L24.5393 31.0149C25.1449 32.0483 25.9084 33.0027 26.8233 33.8716C27.1985 34.227 27.5934 34.5627 28.0081 34.8655L25.1909 37.7221C24.7828 37.4193 24.3879 37.0836 24.0062 36.7282C23.0847 35.8593 22.3277 34.905 21.7222 33.8716Z" fill="#3E5A4C"/>
<path d="M25.1847 37.7221L28.0018 34.8654C28.5021 35.234 29.022 35.5697 29.5618 35.8593L26.7446 38.716C26.2049 38.4263 25.6849 38.0972 25.1847 37.7221Z" fill="#3C574A"/>
<path d="M26.7451 38.7225L29.5623 35.8659C29.9638 36.0831 30.3784 36.2806 30.7997 36.4517L27.9826 39.3083C27.5613 39.1306 27.1466 38.9331 26.7451 38.7225Z" fill="#3A5548"/>
<path d="M27.9816 39.3019L30.7988 36.4452C31.1739 36.5966 31.5557 36.7348 31.944 36.8533L29.1269 39.71C28.7386 39.5915 28.3568 39.4598 27.9816 39.3019Z" fill="#395346"/>
<path d="M29.1343 39.7164L31.9514 36.8597C32.3266 36.9716 32.7083 37.0703 33.0967 37.1559L30.2796 40.0125C29.8912 39.927 29.5095 39.8283 29.1343 39.7164Z" fill="#375044"/>
<path d="M30.2795 40.0127L33.0967 37.1561C33.485 37.2416 33.8865 37.3075 34.2946 37.3601L31.4775 40.2168C31.0694 40.1641 30.6679 40.0982 30.2795 40.0127Z" fill="#354E42"/>
<path d="M31.4702 40.2164L34.2873 37.3598C34.7152 37.419 35.143 37.4585 35.5906 37.4783L32.7735 40.3349C32.3325 40.3152 31.8981 40.2757 31.4702 40.2164Z" fill="#344C40"/>
<path d="M32.7737 40.3351L35.5908 37.4784C35.9002 37.4916 36.2095 37.5047 36.5255 37.5047C36.7295 37.5047 36.9336 37.5048 37.1376 37.4982L34.3205 40.3548C34.1164 40.3614 33.9124 40.3614 33.7083 40.3614C33.3924 40.3614 33.083 40.3548 32.7737 40.3351Z" fill="#32493E"/>
<path d="M34.321 40.355L37.1381 37.4984C37.7239 37.4786 38.3032 37.4391 38.8758 37.3799L36.0587 40.2365C35.486 40.2958 34.9068 40.3353 34.321 40.355Z" fill="#31473C"/>
<path d="M36.0583 40.2295L38.8755 37.3729C39.4679 37.3071 40.0537 37.2149 40.6263 37.0964L37.8092 39.953C37.2365 40.0715 36.6507 40.1637 36.0583 40.2295Z" fill="#2F443A"/>
<path d="M37.8088 39.9534L40.6259 37.0967C41.2644 36.9651 41.8897 36.8071 42.5018 36.6097L39.6847 39.4663C39.0725 39.6638 38.4472 39.8283 37.8088 39.9534Z" fill="#2D4238"/>
<path d="M39.6847 39.4729L42.5018 36.6163C43.2653 36.3793 44.0091 36.0897 44.7398 35.754L41.9226 38.6107C41.192 38.9464 40.4482 39.2294 39.6847 39.4729Z" fill="#2C4036"/>
<path d="M41.9225 38.6107L44.7396 35.7541C46.9183 34.7536 48.939 33.3187 50.7951 31.4691L47.978 34.3258C46.1218 36.1754 44.1012 37.6103 41.9225 38.6107Z" fill="#2A3D34"/>
<path d="M18.7345 25.9072L21.5517 23.0506C21.5188 23.5311 21.5122 24.0116 21.5188 24.492L18.7016 27.3487C18.695 26.8616 18.7082 26.3811 18.7345 25.9072Z" fill="#899391"/>
<path d="M18.7013 27.3485L21.5184 24.4919C21.5184 24.584 21.525 24.6762 21.525 24.7683C21.5382 25.1435 21.5579 25.5121 21.5974 25.8741L18.7803 28.7307C18.7474 28.3687 18.721 28.0001 18.7079 27.625C18.7079 27.5328 18.7013 27.4406 18.7013 27.3485Z" fill="#8D9796"/>
<path d="M11.645 8.05626L14.4622 5.19962C14.4687 5.2062 14.4753 5.21278 14.4885 5.21936L11.6714 8.07601C11.6582 8.06942 11.6516 8.06284 11.645 8.05626Z" fill="#3E5A4C"/>
<path d="M11.6614 8.06862L14.4785 5.21198C14.4917 5.22514 14.5114 5.23832 14.5443 5.25149L11.7272 8.10811C11.6943 8.09495 11.6745 8.08178 11.6614 8.06862Z" fill="#3C574A"/>
<path d="M11.7309 8.1159L14.548 5.25928C14.5744 5.27244 14.6007 5.2856 14.6336 5.29877L11.8165 8.15539C11.7836 8.14223 11.7572 8.12907 11.7309 8.1159Z" fill="#3A5548"/>
<path d="M11.8168 8.15503L14.634 5.2984C14.6669 5.31157 14.7064 5.32473 14.7524 5.33789L11.9353 8.19452C11.8892 8.18135 11.8497 8.16819 11.8168 8.15503Z" fill="#395346"/>
<path d="M11.9352 8.19473L14.7524 5.3381C14.7984 5.35127 14.8511 5.36443 14.9169 5.3776L12.0998 8.23422C12.034 8.22106 11.9813 8.20789 11.9352 8.19473Z" fill="#375044"/>
<path d="M12.0932 8.2341L14.9103 5.37747C14.9762 5.39064 15.0551 5.4038 15.1473 5.41696L12.3302 8.27359C12.238 8.26701 12.1656 8.25384 12.0932 8.2341Z" fill="#354E42"/>
<path d="M12.3299 8.27371L15.147 5.41708C15.2523 5.43025 15.3708 5.4434 15.5025 5.44999L12.6853 8.30661C12.5471 8.30003 12.4352 8.29345 12.3299 8.27371Z" fill="#344C40"/>
<path d="M12.6849 8.30639L15.502 5.44977C15.6073 5.45635 15.7192 5.45636 15.8443 5.45636L13.0271 8.31298C12.9021 8.31956 12.7902 8.31298 12.6849 8.30639Z" fill="#32493E"/>
<path d="M11.8626 6.18072L14.6797 3.3241C14.5678 3.43599 14.4757 3.55447 14.4033 3.67295L11.5861 6.52957C11.6519 6.41109 11.7507 6.2992 11.8626 6.18072Z" fill="#2A3D34"/>
<path d="M11.5798 6.53619L14.3969 3.67957C14.364 3.7388 14.3311 3.79806 14.3047 3.85729L11.4876 6.71392C11.5139 6.6481 11.5468 6.58885 11.5798 6.53619Z" fill="#2C4036"/>
<path d="M11.4874 6.71386L14.3045 3.85724C14.2848 3.90331 14.2651 3.94938 14.2519 3.99546L11.4348 6.85208C11.4479 6.79942 11.4677 6.75336 11.4874 6.71386Z" fill="#2D4238"/>
<path d="M11.4346 6.85217L14.2518 3.99554C14.2386 4.03504 14.2254 4.07453 14.2189 4.12061L11.4017 6.97723C11.4083 6.93116 11.4215 6.89166 11.4346 6.85217Z" fill="#2F443A"/>
<path d="M11.3951 6.97018L14.2122 4.11356C14.2056 4.15305 14.199 4.19254 14.1924 4.23203L11.3753 7.08867C11.3819 7.04918 11.3885 7.00967 11.3951 6.97018Z" fill="#31473C"/>
<path d="M11.3756 7.08907L14.1927 4.23242C14.1861 4.27191 14.1861 4.31142 14.1796 4.35091L11.3624 7.20754C11.369 7.16805 11.369 7.12856 11.3756 7.08907Z" fill="#32493E"/>
<path d="M11.3624 7.20724L14.1796 4.35062C14.1796 4.39011 14.173 4.4296 14.1796 4.46909L11.3624 7.32572C11.3624 7.28622 11.3624 7.24673 11.3624 7.20724Z" fill="#344C40"/>
<path d="M11.3624 7.32577L14.1796 4.46915C14.1796 4.47573 14.1796 4.48232 14.1796 4.49548C14.1796 4.53497 14.1861 4.56789 14.1861 4.6008L11.369 7.45742C11.3624 7.42451 11.3624 7.38502 11.3624 7.35211C11.3624 7.33894 11.3624 7.33235 11.3624 7.32577Z" fill="#354E42"/>
<path d="M11.3687 7.45767L14.1858 4.60104C14.1924 4.64054 14.1924 4.68002 14.199 4.71293L11.3819 7.56955C11.3753 7.53664 11.3753 7.49716 11.3687 7.45767Z" fill="#375044"/>
<path d="M11.3824 7.56964L14.1996 4.71301C14.2062 4.74592 14.2127 4.77883 14.2193 4.81174L11.4022 7.66836C11.3956 7.64204 11.389 7.60255 11.3824 7.56964Z" fill="#395346"/>
<path d="M11.4083 7.66818L14.2254 4.81155C14.232 4.84446 14.2451 4.87738 14.2583 4.90371L11.4412 7.76034C11.428 7.73401 11.4148 7.70109 11.4083 7.66818Z" fill="#3A5548"/>
<path d="M11.441 7.76675L14.2581 4.91013C14.2713 4.94962 14.291 4.98251 14.3108 5.01542L11.4936 7.87207C11.4739 7.83916 11.4541 7.79966 11.441 7.76675Z" fill="#3C574A"/>
<path d="M11.4876 7.86551L14.3047 5.00888C14.3574 5.09445 14.4101 5.15369 14.4627 5.19318L11.6456 8.0498C11.5995 8.01031 11.5403 7.95107 11.4876 7.86551Z" fill="#3E5A4C"/>
<path d="M11.8624 6.18081L14.6795 3.32418C14.6927 3.31102 14.7058 3.29786 14.719 3.28469C14.844 3.15963 14.9954 3.06089 15.1732 2.9819L12.356 5.83853C12.1783 5.91751 12.0269 6.02284 11.9019 6.14132C11.8887 6.15448 11.8755 6.16764 11.8624 6.18081Z" fill="#6F7776"/>
<path d="M12.3557 5.83172L15.1728 2.9751C15.2584 2.9356 15.3439 2.90269 15.4427 2.86978L12.6255 5.72641C12.5334 5.75932 12.4412 5.79881 12.3557 5.83172Z" fill="#747C7B"/>
<path d="M12.6254 5.73308L15.4426 2.87644C15.5347 2.85011 15.6269 2.82379 15.7256 2.80405L12.9085 5.66067C12.8097 5.68042 12.7176 5.70676 12.6254 5.73308Z" fill="#78807F"/>
<path d="M12.9089 5.66042L15.726 2.8038C15.8313 2.78405 15.9366 2.76429 16.0485 2.75113L13.2314 5.60777C13.1195 5.62094 13.0076 5.64068 12.9089 5.66042Z" fill="#7C8584"/>
<path d="M13.2318 5.60772L16.0489 2.75108C16.174 2.73791 16.3057 2.72476 16.4439 2.72476L13.6267 5.58139C13.4951 5.58797 13.3569 5.59456 13.2318 5.60772Z" fill="#808988"/>
<path d="M13.6333 5.58139L16.4504 2.72476C16.5031 2.72476 16.5558 2.72476 16.6084 2.72476L13.7913 5.58139C13.7386 5.58139 13.686 5.58139 13.6333 5.58139Z" fill="#858E8D"/>
<path d="M10.9212 5.25884L13.7383 2.4022C13.7581 2.38245 13.7844 2.35614 13.8042 2.33639C14.0345 2.1126 14.3044 1.93488 14.6072 1.79007L11.79 4.64669C11.4807 4.78492 11.2108 4.96923 10.987 5.19302C10.9607 5.21935 10.9409 5.2391 10.9212 5.25884Z" fill="#2A3D34"/>
<path d="M11.7903 4.65329L14.6075 1.79667C14.7391 1.73743 14.8773 1.68478 15.0287 1.6387L12.2116 4.49533C12.0668 4.53482 11.922 4.58747 11.7903 4.65329Z" fill="#2C4036"/>
<path d="M12.2115 4.48889L15.0286 1.63226C15.1603 1.59277 15.2985 1.55328 15.4367 1.52695L12.6196 4.38357C12.4813 4.41648 12.3431 4.4494 12.2115 4.48889Z" fill="#2D4238"/>
<path d="M12.6254 4.38366L15.4426 1.52704C15.5808 1.50071 15.7322 1.47438 15.8836 1.46121L13.0664 4.31784C12.9085 4.331 12.7637 4.35733 12.6254 4.38366Z" fill="#2F443A"/>
<path d="M13.0602 4.31802L15.8774 1.4614C16.0353 1.44165 16.2065 1.43508 16.3776 1.4285L13.5605 4.28512C13.3893 4.28512 13.2248 4.29828 13.0602 4.31802Z" fill="#31473C"/>
<path d="M13.561 4.28512L16.3782 1.4285C16.444 1.4285 16.5032 1.4285 16.569 1.4285L13.7519 4.28512C13.6861 4.27854 13.6269 4.27854 13.561 4.28512Z" fill="#32493E"/>
<path d="M20.8206 14.1253L23.6377 11.2686L25.1055 9.80084L22.2949 12.6575L20.8206 14.1253Z" fill="#6B7372"/>
<path d="M19.1881 8.31997L21.9986 5.45676L12.4151 58.1727L9.60455 61.0294L19.1881 8.31997Z" fill="#32483D"/>
<path d="M13.0278 8.31997L15.8383 5.45676H21.9992L19.1886 8.31997H13.0278Z" fill="#344B40"/>
<path d="M38.118 41.2236L40.9352 38.367C41.6131 38.2288 42.2779 38.0577 42.9361 37.8536L40.119 40.7103C39.4608 40.9143 38.796 41.0854 38.118 41.2236Z" fill="#78807F"/>
<path d="M40.1198 40.7103L42.9369 37.8536C43.7465 37.5969 44.5429 37.2941 45.3196 36.9387L42.5025 39.7953C41.7258 40.1508 40.9293 40.4536 40.1198 40.7103Z" fill="#747C7B"/>
<path d="M42.4959 39.7954L45.313 36.9388C47.6234 35.8791 49.7625 34.3652 51.724 32.4037L48.9069 35.2604C46.952 37.2152 44.8062 38.7291 42.4959 39.7954Z" fill="#6F7776"/>
<path d="M50.6576 10.8471L53.4747 7.99045C54.5213 8.97118 55.3835 10.0375 56.0615 11.2025L53.2443 14.0591C52.5664 12.9007 51.7041 11.8278 50.6576 10.8471Z" fill="#3E5A4C"/>
<path d="M53.2372 14.0595L56.0543 11.2029C56.3768 11.7624 56.6599 12.335 56.8968 12.934L54.0797 15.7906C53.8427 15.1916 53.5663 14.6124 53.2372 14.0595Z" fill="#3C574A"/>
<path d="M54.0869 15.7839L56.904 12.9272C57.0817 13.3617 57.2331 13.8092 57.3582 14.27L54.541 17.1266C54.4094 16.6725 54.258 16.2249 54.0869 15.7839Z" fill="#3A5548"/>
<path d="M54.541 17.1267L57.3581 14.2701C57.47 14.6782 57.5687 15.0929 57.6477 15.5141L54.8306 18.3707C54.7516 17.9495 54.6529 17.5348 54.541 17.1267Z" fill="#395346"/>
<path d="M54.83 18.3704L57.6472 15.5138C57.7196 15.9153 57.7788 16.3299 57.8183 16.7446L55.0012 19.6012C54.9617 19.1866 54.9024 18.7719 54.83 18.3704Z" fill="#375044"/>
<path d="M55.0018 19.6016L57.819 16.7449C57.8519 17.0872 57.8716 17.4361 57.8848 17.7849C57.8848 17.8836 57.8914 17.9824 57.8914 18.0811L55.0742 20.9377C55.0742 20.839 55.0677 20.7403 55.0677 20.6415C55.0545 20.2927 55.0347 19.9438 55.0018 19.6016Z" fill="#354E42"/>
<path d="M55.0738 20.9374L57.8909 18.0808C57.8975 18.6008 57.8843 19.1142 57.8514 19.6276L55.0343 22.4843C55.0672 21.9774 55.0804 21.4574 55.0738 20.9374Z" fill="#344C40"/>
<path d="M55.0346 22.4846L57.8517 19.628C57.8188 20.1282 57.7662 20.6284 57.6938 21.1221L54.8766 23.9787C54.9556 23.4851 55.0083 22.9914 55.0346 22.4846Z" fill="#32493E"/>
<path d="M54.8825 23.9785L57.6997 21.1219C57.6273 21.6287 57.5285 22.1289 57.4166 22.6226L54.5995 25.4792C54.7114 24.9856 54.8035 24.4853 54.8825 23.9785Z" fill="#31473C"/>
<path d="M54.593 25.4791L57.4101 22.6225C57.2851 23.1556 57.1402 23.6822 56.9625 24.1956L54.1454 27.0523C54.3231 26.5389 54.4679 26.0123 54.593 25.4791Z" fill="#2F443A"/>
<path d="M54.1528 27.0588L56.9699 24.2022C56.7725 24.7946 56.5421 25.387 56.2788 25.9662L53.4617 28.8228C53.725 28.2436 53.9553 27.6512 54.1528 27.0588Z" fill="#2D4238"/>
<path d="M53.4613 28.8162L56.2784 25.9596C55.9427 26.71 55.5478 27.4471 55.1068 28.1646L52.2897 31.0212C52.7307 30.3038 53.1256 29.5666 53.4613 28.8162Z" fill="#2C4036"/>
<path d="M52.2892 31.0215L55.1063 28.1649C54.2309 29.5866 53.1514 30.9557 51.8679 32.259L49.0508 35.1156C50.3343 33.8124 51.4138 32.4498 52.2892 31.0215Z" fill="#2A3D34"/>
<path d="M48.9132 35.2601L51.7303 32.4035C51.7764 32.3574 51.8225 32.3114 51.8686 32.2587L49.0514 35.1153C49.0054 35.1614 48.9593 35.2075 48.9132 35.2601Z" fill="#6F7776"/>
<path d="M47.9785 34.3257L50.7956 31.4691C50.8417 31.423 50.8878 31.377 50.9339 31.3309L48.1167 34.1875C48.0707 34.2336 48.0246 34.2797 47.9785 34.3257Z" fill="#2A3D34"/>
<path d="M13.7906 5.58139L16.6078 2.72476H25.1645L22.3474 5.58139H13.7906Z" fill="#889291"/>
<path d="M22.3476 5.58139L25.1647 2.72476L23.6377 11.2683L20.8206 14.1249L22.3476 5.58139Z" fill="#848D8C"/>
<path d="M13.7516 4.27813L16.5688 1.42151H26.7184L23.9012 4.27813H13.7516Z" fill="#344B40"/>
<path d="M23.9015 4.27813L26.7186 1.42151L25.6392 7.47704L22.822 10.3337L23.9015 4.27813Z" fill="#32493E"/>
<path d="M24.7172 13.4803L27.5343 10.6236C27.5935 10.5644 27.6594 10.4986 27.7186 10.4393C29.6801 8.48446 31.8258 6.97057 34.1361 5.91086L31.319 8.76748C29.0087 9.8272 26.8695 11.3411 24.9015 13.296C24.8422 13.3552 24.7764 13.4144 24.7172 13.4803Z" fill="#2A3D34"/>
<path d="M31.3188 8.76053L34.136 5.90391C34.9127 5.54848 35.7091 5.23912 36.5253 4.98242L33.7081 7.83905C32.892 8.09575 32.0955 8.4051 31.3188 8.76053Z" fill="#2C4036"/>
<path d="M33.7084 7.84576L36.5255 4.98914C37.1837 4.78509 37.8485 4.61395 38.5265 4.46915L35.7093 7.32577C35.0314 7.46399 34.36 7.63513 33.7084 7.84576Z" fill="#2D4238"/>
<path d="M35.7089 7.32604L38.526 4.46942C39.1381 4.34436 39.7634 4.24562 40.3953 4.17322L37.5782 7.02984C36.9463 7.10225 36.321 7.20099 35.7089 7.32604Z" fill="#2F443A"/>
<path d="M37.5782 7.02973L40.3954 4.1731C41.0075 4.10728 41.6197 4.06122 42.2515 4.04147L39.4344 6.8981C38.8091 6.91784 38.1904 6.96391 37.5782 7.02973Z" fill="#31473C"/>
<path d="M39.4349 6.90469L42.252 4.04804C42.4692 4.04146 42.6864 4.04147 42.9036 4.04147C43.2459 4.04147 43.5816 4.04804 43.9107 4.06779L41.0936 6.92443C40.7645 6.90469 40.4288 6.8981 40.0865 6.8981C39.8693 6.89152 39.6521 6.8981 39.4349 6.90469Z" fill="#32493E"/>
<path d="M41.0934 6.9176L43.9105 4.06097C44.391 4.0873 44.8583 4.12678 45.3191 4.1926L42.5019 7.04925C42.0412 6.99001 41.5673 6.94393 41.0934 6.9176Z" fill="#344C40"/>
<path d="M42.4959 7.04949L45.313 4.19284C45.754 4.25208 46.1885 4.3245 46.6097 4.41665L43.7926 7.27328C43.3713 7.18113 42.9369 7.10873 42.4959 7.04949Z" fill="#354E42"/>
<path d="M43.7983 7.27328L46.6155 4.41666C47.0433 4.50881 47.458 4.61411 47.8661 4.73917L45.049 7.5958C44.6409 7.47074 44.2196 7.36543 43.7983 7.27328Z" fill="#375044"/>
<path d="M45.0496 7.59579L47.8667 4.73917C48.2945 4.87081 48.7158 5.02219 49.1239 5.18674L46.3067 8.04337C45.8986 7.87882 45.4774 7.72743 45.0496 7.59579Z" fill="#395346"/>
<path d="M46.3069 8.04989L49.124 5.19327C49.5914 5.38415 50.0455 5.60134 50.4865 5.8383L47.6694 8.69494C47.2284 8.45141 46.7742 8.24077 46.3069 8.04989Z" fill="#3A5548"/>
<path d="M47.6692 8.69511L50.4863 5.83847C51.0853 6.16099 51.6645 6.52961 52.2174 6.94428L49.4003 9.8009C48.8474 9.38623 48.2682 9.01764 47.6692 8.69511Z" fill="#3C574A"/>
<path d="M49.3997 9.80062L52.2169 6.944C52.6513 7.26652 53.0659 7.61536 53.474 7.99712L50.6569 10.8538C50.2488 10.472 49.8341 10.1231 49.3997 9.80062Z" fill="#3E5A4C"/>
<path d="M50.6578 10.8474C53.4683 13.4802 54.9493 16.7778 55.0678 20.6415C55.2323 26.0849 53.1655 31.0017 48.9135 35.2537C44.6615 39.4992 39.5604 41.6516 33.7484 41.6516C29.5095 41.6516 25.9354 40.3022 23.1315 37.6496C20.3209 34.9839 18.8334 31.6139 18.7083 27.6185C18.5503 22.366 20.6368 17.5413 24.902 13.2893C29.1672 9.04385 34.2749 6.89151 40.0869 6.89151C44.2929 6.89151 47.8472 8.2211 50.6578 10.8474ZM47.9788 34.3257C51.9742 30.3304 53.9291 25.7294 53.7711 20.6481C53.6658 17.1464 52.3164 14.1647 49.7758 11.7886C47.2285 9.39929 43.9835 8.19477 40.1198 8.19477C34.6567 8.19477 29.8518 10.222 25.8235 14.2305C21.8085 18.2324 19.847 22.7346 19.9984 27.6251C20.1103 31.2584 21.4596 34.3257 24.0003 36.7347C26.5476 39.1438 29.8123 40.368 33.7023 40.368C39.172 40.3615 43.9703 38.3342 47.9788 34.3257Z" fill="#405D4F"/>
<path d="M56.6797 13.8949L59.4968 11.0383C59.7074 11.5583 59.8852 12.0914 60.0431 12.6443L57.226 15.5009C57.068 14.948 56.8903 14.4149 56.6797 13.8949Z" fill="#9AA5A3"/>
<path d="M57.2257 15.5009L60.0428 12.6443C60.1811 13.1379 60.2995 13.6513 60.3983 14.1713L57.5811 17.0279C57.4824 16.508 57.3639 15.9946 57.2257 15.5009Z" fill="#96A09F"/>
<path d="M57.5751 17.0278L60.3923 14.1712C60.4844 14.678 60.5568 15.198 60.6095 15.7312L57.7923 18.5878C57.7463 18.0547 57.6739 17.5346 57.5751 17.0278Z" fill="#929C9A"/>
<path d="M57.7991 18.5876L60.6163 15.731C60.6623 16.172 60.6887 16.6196 60.7018 17.0803C60.7084 17.1922 60.7084 17.2975 60.7084 17.4094L57.8913 20.266C57.8913 20.1541 57.8847 20.0488 57.8847 19.9369C57.865 19.4762 57.8386 19.0286 57.7991 18.5876Z" fill="#8D9796"/>
<path d="M57.8909 20.2599L60.708 17.4033C60.7146 17.9891 60.7014 18.5683 60.6685 19.1409L57.8514 21.9975C57.8843 21.4249 57.8975 20.8457 57.8909 20.2599Z" fill="#899391"/>
<path d="M57.8448 21.9971L60.6619 19.1405C60.6224 19.7066 60.5632 20.2726 60.4842 20.8321L57.6671 23.6887C57.7526 23.1292 57.8119 22.5632 57.8448 21.9971Z" fill="#858E8D"/>
<path d="M57.6675 23.6888L60.4847 20.8322C60.3991 21.4048 60.2938 21.9774 60.1622 22.5435L57.345 25.4001C57.4767 24.8341 57.582 24.268 57.6675 23.6888Z" fill="#808988"/>
<path d="M57.3445 25.4003L60.1616 22.5437C60.0168 23.1558 59.8457 23.7614 59.6482 24.3604L56.8311 27.217C57.0285 26.618 57.1997 26.0125 57.3445 25.4003Z" fill="#7C8584"/>
<path d="M56.8314 27.2171L59.6485 24.3604C59.4182 25.0516 59.1549 25.7361 58.8455 26.4075L56.0284 29.2641C56.3377 28.5927 56.601 27.9082 56.8314 27.2171Z" fill="#78807F"/>
<path d="M56.0281 29.264L58.8453 26.4073C58.4503 27.2893 57.9896 28.1516 57.4696 29.0007L54.6525 31.8573C55.1725 31.0082 55.6332 30.146 56.0281 29.264Z" fill="#747C7B"/>
<path d="M54.6525 31.8572L57.4696 29.0005C56.4099 30.725 55.0869 32.3903 53.5072 33.9832L50.6901 36.8398C52.2632 35.2535 53.5862 33.5883 54.6525 31.8572Z" fill="#6F7776"/>
<path d="M50.6841 36.8468C55.647 31.8444 58.0692 26.1443 57.8783 19.9374C57.7335 15.297 56.1011 11.4728 53.0273 8.55694L55.8444 5.70032C58.9183 8.61618 60.5572 12.447 60.6954 17.0808C60.8863 23.2943 58.4641 28.9878 53.5012 33.9902L50.6841 36.8468Z" fill="#CACFD6"/>
<path d="M50.6841 36.8468C55.647 31.8444 58.0692 26.1443 57.8783 19.9374C57.7335 15.297 56.1011 11.4728 53.0273 8.55694L55.8444 5.70032C58.9183 8.61618 60.5572 12.447 60.6954 17.0808C60.8863 23.2943 58.4641 28.9878 53.5012 33.9902L50.6841 36.8468ZM50.6841 36.8468L53.5012 33.9902C58.4641 28.9878 60.8863 23.2877 60.6954 17.0808C60.5506 12.4404 58.9183 8.61618 55.8444 5.70032L53.0273 8.55694C56.1011 11.4728 57.7401 15.3036 57.8783 19.9374C58.0692 26.1443 55.647 31.8378 50.6841 36.8468Z" fill="#BFBFBF"/>
<path d="M22.2953 12.6575L25.1124 9.80087C28.002 6.9245 30.931 4.75898 33.8337 3.37016C33.9258 3.32408 34.018 3.2846 34.1167 3.23853L31.2996 6.09515C31.2074 6.14122 31.1153 6.18072 31.0166 6.2268C28.1139 7.61562 25.1782 9.78112 22.2953 12.6575Z" fill="#6F7776"/>
<path d="M31.2992 6.09473L34.1163 3.23811C34.8864 2.88268 35.6895 2.5799 36.5122 2.31662L33.6951 5.17324C32.8657 5.43653 32.0693 5.7393 31.2992 6.09473Z" fill="#747C7B"/>
<path d="M33.6882 5.18012L36.5053 2.3235C37.1964 2.10629 37.9007 1.92858 38.6247 1.77719L35.8076 4.63382C35.0902 4.77862 34.3793 4.96291 33.6882 5.18012Z" fill="#78807F"/>
<path d="M35.8085 4.63401L38.6257 1.77738C39.297 1.63916 39.9882 1.53385 40.6859 1.45486L37.8687 4.31149C37.171 4.38389 36.4865 4.49578 35.8085 4.63401Z" fill="#7C8584"/>
<path d="M37.8683 4.30493L40.6854 1.4483C41.37 1.36932 42.0742 1.32324 42.7851 1.3035L39.968 4.16012C39.2571 4.17987 38.5594 4.23253 37.8683 4.30493Z" fill="#808988"/>
<path d="M39.9684 4.16003L42.7855 1.30341C43.0356 1.29683 43.2857 1.29025 43.5359 1.29025C43.9769 1.29025 44.4113 1.30341 44.8391 1.32316L42.022 4.17978C41.5942 4.16003 41.1597 4.14688 40.7187 4.14688C40.4686 4.15346 40.2185 4.15345 39.9684 4.16003Z" fill="#858E8D"/>
<path d="M42.0218 4.18624L44.8389 1.32962C45.4445 1.36253 46.0369 1.41519 46.6161 1.49417L43.7989 4.3508C43.2197 4.27181 42.6273 4.21916 42.0218 4.18624Z" fill="#899391"/>
<path d="M43.7983 4.34396L46.6155 1.48734C47.1618 1.55974 47.6884 1.65188 48.2083 1.76377L45.3912 4.62042C44.8712 4.50852 44.3381 4.41636 43.7983 4.34396Z" fill="#8D9796"/>
<path d="M45.3915 4.62059L48.2086 1.76395C48.7154 1.87584 49.2091 2.00092 49.6896 2.15231L46.8724 5.00893C46.392 4.85755 45.8983 4.73249 45.3915 4.62059Z" fill="#929C9A"/>
<path d="M46.8722 5.00909L49.6893 2.15247C50.183 2.30385 50.6701 2.47499 51.1374 2.66587L48.3203 5.52249C47.8529 5.33161 47.3658 5.16048 46.8722 5.00909Z" fill="#96A09F"/>
<path d="M48.3204 5.52255L51.1376 2.66592C51.6576 2.88313 52.1644 3.12009 52.6514 3.38337L49.8343 6.23999C49.3472 5.97671 48.847 5.73976 48.3204 5.52255Z" fill="#9AA5A3"/>
<path d="M49.8344 6.23971L52.6515 3.38309C53.3031 3.73194 53.9152 4.12686 54.5011 4.56786L51.6839 7.42448C51.1047 6.98348 50.486 6.58856 49.8344 6.23971Z" fill="#9EA9A8"/>
<path d="M51.6907 7.42465L54.5079 4.56802C54.9752 4.91687 55.4228 5.29205 55.844 5.69356L53.0269 8.5502C52.6056 8.14869 52.1581 7.7735 51.6907 7.42465Z" fill="#A3AEAD"/>
<path d="M53.0273 8.54997L55.8444 5.69333C56.9173 6.71355 57.819 7.8391 58.5365 9.07653L55.7194 11.9332C55.0019 10.6957 54.1067 9.5702 53.0273 8.54997Z" fill="#A3AEAD"/>
<path d="M55.7185 11.9331L58.5356 9.07651C58.9042 9.70181 59.2202 10.36 59.4966 11.038L56.6795 13.8946C56.4096 13.2166 56.0871 12.5584 55.7185 11.9331Z" fill="#9EA9A8"/>
<path d="M56.6797 13.8949L59.4968 11.0383C59.7074 11.5583 59.8852 12.0914 60.0431 12.6443L57.226 15.5009C57.068 14.948 56.8903 14.4149 56.6797 13.8949Z" fill="#9AA5A3"/>
<path d="M50.6841 36.8459C55.647 31.8435 58.0692 26.1434 57.8783 19.9365C57.7335 15.2961 56.1011 11.4719 53.0273 8.55606L55.8444 5.69943C58.9183 8.6153 60.5572 12.4461 60.6954 17.0799C60.8863 23.2934 58.4641 28.9869 53.5012 33.9893L50.6841 36.8459Z" fill="#CACFD6"/>
<path d="M50.6841 36.8459C55.647 31.8435 58.0692 26.1434 57.8783 19.9365C57.7335 15.2961 56.1011 11.4719 53.0273 8.55606L55.8444 5.69943C58.9183 8.6153 60.5572 12.4461 60.6954 17.0799C60.8863 23.2934 58.4641 28.9869 53.5012 33.9893L50.6841 36.8459ZM50.6841 36.8459L53.5012 33.9893C58.4641 28.9869 60.8863 23.2868 60.6954 17.0799C60.5506 12.4395 58.9183 8.6153 55.8444 5.69943L53.0273 8.55606C56.1011 11.4719 57.7401 15.3027 57.8783 19.9365C58.0692 26.1434 55.647 31.8369 50.6841 36.8459Z" fill="#BFBFBF"/>
<path d="M53.0271 8.55033C56.101 11.4662 57.7399 15.297 57.8781 19.9307C58.069 26.1442 55.6468 31.8378 50.6839 36.8402C45.721 41.8491 39.8103 44.3964 33.1163 44.3964C26.2117 44.3964 21.2685 41.6648 17.9972 36.0437L17.1087 34.5232L12.2642 61.0293H22.7034C23.6249 61.0293 23.875 61.1083 23.9145 61.1215C24.0264 61.1675 24.1318 61.2663 24.2371 61.4177C24.349 61.5822 24.4016 61.7533 24.4082 61.9442C24.4214 62.4313 24.2502 62.8131 23.8553 63.1685C23.4538 63.5305 22.8022 63.7148 21.9268 63.7148H2.93084C1.93036 63.7148 1.621 63.5174 1.55518 63.4515C1.4367 63.3528 1.28532 63.1751 1.27215 62.7999C1.25899 62.3128 1.42354 61.9245 1.8053 61.569C2.19364 61.207 2.82553 61.0293 3.70095 61.0293H9.58534L19.1689 8.31337H13.008C12.0075 8.31337 11.6982 8.11591 11.6258 8.05009C11.5139 7.95135 11.3559 7.76705 11.3428 7.3458C11.3296 6.89822 11.5073 6.49672 11.8825 6.14128C12.2708 5.7661 12.9027 5.5818 13.7715 5.5818H22.3283L20.8012 14.1254L22.2756 12.6575C25.1651 9.78118 28.0942 7.61567 30.9969 6.22685C33.8732 4.8512 37.138 4.14691 40.6989 4.14691C45.8 4.15349 49.9467 5.63447 53.0271 8.55033ZM48.9133 35.2604C53.1654 31.0084 55.2387 26.0916 55.0676 20.6482C54.9491 16.7779 53.4681 13.4869 50.6576 10.8541C47.8536 8.22781 44.2927 6.89822 40.0867 6.89822C34.2748 6.89822 29.167 9.05056 24.9019 13.296C20.6301 17.548 18.5436 22.3727 18.7081 27.6252C18.8332 31.6206 20.3141 34.9906 23.1313 37.6563C25.9352 40.3089 29.5093 41.6582 33.7482 41.6582C39.5602 41.6582 44.6613 39.5059 48.9133 35.2604Z" fill="#A9B4B3"/>
<path d="M22.822 10.3338L25.6392 7.47716C28.1535 5.18001 30.7074 3.40942 33.2415 2.19831C33.3336 2.15224 33.4324 2.10617 33.5245 2.06668L30.7074 4.92331C30.6152 4.96938 30.5165 5.00886 30.4243 5.05494C27.8902 6.26604 25.3364 8.03663 22.822 10.3338Z" fill="#2A3D34"/>
<path d="M30.7072 4.9234L33.5243 2.06677C34.347 1.68501 35.2027 1.36248 36.0847 1.08603L33.2676 3.94267C32.3856 4.21912 31.5365 4.54164 30.7072 4.9234Z" fill="#2C4036"/>
<path d="M33.267 3.9429L36.0841 1.08626C36.8147 0.855883 37.5651 0.66502 38.3286 0.50705L35.5115 3.36367C34.7479 3.52164 33.9976 3.71253 33.267 3.9429Z" fill="#2D4238"/>
<path d="M35.5117 3.36349L38.3289 0.506863C39.0397 0.362057 39.7638 0.250148 40.501 0.164581L37.6838 3.02121C36.9466 3.10019 36.2226 3.21868 35.5117 3.36349Z" fill="#2F443A"/>
<path d="M37.6838 3.02121L40.501 0.164589C41.225 0.0856042 41.9622 0.0329604 42.706 0.0132141L39.8888 2.86984C39.145 2.88958 38.4079 2.94223 37.6838 3.02121Z" fill="#31473C"/>
<path d="M39.8955 2.8698L42.7126 0.013177C42.9759 0.00659495 43.2326 0 43.4959 0C43.9632 0 44.424 0.0131762 44.8716 0.0329225L42.0544 2.88955C41.6003 2.86322 41.1461 2.85663 40.6788 2.85663C40.4155 2.85663 40.1522 2.85664 39.8955 2.8698Z" fill="#32493E"/>
<path d="M42.0546 2.88934L44.8717 0.0327148C45.5167 0.0656253 46.1421 0.12485 46.7542 0.203836L43.9371 3.06046C43.3249 2.98147 42.6996 2.92225 42.0546 2.88934Z" fill="#344C40"/>
<path d="M43.9432 3.06717L46.7604 0.210541C47.3396 0.289526 47.9057 0.388265 48.4586 0.506743L45.6414 3.36337C45.082 3.23831 44.5159 3.13957 43.9432 3.06717Z" fill="#354E42"/>
<path d="M45.6357 3.35669L48.4528 0.500061C48.9925 0.618539 49.5257 0.756766 50.0391 0.914736L47.222 3.77136C46.7086 3.61339 46.182 3.47516 45.6357 3.35669Z" fill="#375044"/>
<path d="M47.2217 3.77166L50.0388 0.915039C50.572 1.07959 51.0919 1.26389 51.5988 1.46793L48.7816 4.32456C48.2748 4.12051 47.7614 3.93622 47.2217 3.77166Z" fill="#395346"/>
<path d="M48.7817 4.32437L51.5989 1.46774C52.1649 1.69812 52.7113 1.95481 53.2378 2.24442L50.4207 5.10105C49.8941 4.81144 49.3478 4.55474 48.7817 4.32437Z" fill="#3A5548"/>
<path d="M50.4204 5.10116L53.2376 2.24454C53.9418 2.6263 54.6132 3.05414 55.2517 3.52805L52.4345 6.38468C51.7961 5.91077 51.1247 5.48292 50.4204 5.10116Z" fill="#3C574A"/>
<path d="M52.4346 6.38482L55.2517 3.5282C55.7651 3.90996 56.2522 4.32463 56.7195 4.76563L53.9024 7.62226C53.435 7.18126 52.948 6.76658 52.4346 6.38482Z" fill="#3E5A4C"/>
<path d="M53.9023 7.62213C57.246 10.7881 59.0232 14.9348 59.1745 19.9306C59.3786 26.5061 56.8379 32.509 51.6249 37.7681C46.4119 43.0272 40.1984 45.6929 33.1555 45.6929C26.4484 45.6929 21.288 43.1391 17.7864 38.0906L13.8305 59.726H22.6703C23.7497 59.726 24.1447 59.8313 24.3684 59.9169C24.737 60.0617 25.053 60.3315 25.3097 60.7133C25.5664 61.095 25.7046 61.5031 25.7178 61.9441C25.7441 62.7998 25.4216 63.537 24.7568 64.136C24.1183 64.7218 23.1837 65.0114 21.9857 65.0114H2.98982C1.93669 65.0114 1.19291 64.8205 0.73875 64.419C0.278004 64.0109 0.0212954 63.4514 0.0015491 62.7998C-0.0247793 61.9507 0.284585 61.2069 0.923048 60.608C1.55493 60.0222 2.47642 59.726 3.68752 59.726H8.52536L17.635 9.60992H13.0736C12.0073 9.60992 11.2701 9.41904 10.8159 9.01753C10.3486 8.60944 10.0985 8.04996 10.0787 7.35226C10.0524 6.54267 10.3618 5.81204 11.0002 5.19991C11.6321 4.59435 12.5602 4.28501 13.7647 4.28501H23.9143L22.8348 10.3405C25.3492 8.04339 27.903 6.27279 30.4371 5.06169C33.4912 3.60046 36.9402 2.86327 40.692 2.86327C46.1091 2.85669 50.5652 4.46273 53.9023 7.62213ZM50.6836 36.8466C55.6465 31.8442 58.0687 26.1441 57.8779 19.9372C57.7331 15.2968 56.1007 11.4726 53.0269 8.55678C49.9465 5.64091 45.7997 4.15994 40.7184 4.15994C37.1574 4.15994 33.8927 4.85765 31.0164 6.23989C28.1137 7.62871 25.178 9.79421 22.2951 12.6706L20.8207 14.1384L22.3478 5.59484H13.791C12.9222 5.59484 12.2837 5.77914 11.902 6.15432C11.5268 6.51633 11.3491 6.91125 11.3622 7.35883C11.3754 7.78667 11.5334 7.96439 11.6453 8.06312C11.7111 8.12894 12.0205 8.3264 13.0275 8.3264H19.1883L9.60483 61.0292H3.72044C2.84502 61.0292 2.20655 61.2069 1.82479 61.5689C1.44303 61.9244 1.27848 62.3127 1.29164 62.7998C1.30481 63.1816 1.45619 63.3527 1.57467 63.4514C1.64049 63.5173 1.94985 63.7147 2.95033 63.7147H21.9462C22.8217 63.7147 23.4667 63.5304 23.8748 63.1684C24.2697 62.813 24.4408 62.4246 24.4277 61.9441C24.4211 61.7532 24.3619 61.5821 24.2566 61.4176C24.1512 61.2662 24.0459 61.1674 23.934 61.1214C23.8945 61.1016 23.6444 61.0292 22.7229 61.0292H12.2837L17.1281 34.5231L18.0167 36.0436C21.2946 41.6647 26.2378 44.3963 33.1358 44.3963C39.81 44.3963 45.7208 41.8556 50.6836 36.8466Z" fill="#405D4F"/>
<path d="M53.9021 7.62225L56.7192 4.76562C57.8908 5.878 58.8716 7.10884 59.6614 8.45817L56.8443 11.3148C56.061 9.96546 55.0803 8.73462 53.9021 7.62225Z" fill="#3E5A4C"/>
<path d="M56.8448 11.3144L59.6619 8.45779C60.0568 9.13575 60.4057 9.84662 60.7019 10.5838L57.8848 13.4404C57.5886 12.7032 57.2397 11.9924 56.8448 11.3144Z" fill="#3C574A"/>
<path d="M57.8842 13.4408L60.7013 10.5842C60.9251 11.1436 61.1225 11.7229 61.2871 12.3153L58.47 15.1719C58.3054 14.5729 58.1079 14.0003 57.8842 13.4408Z" fill="#3A5548"/>
<path d="M58.4703 15.1717L61.2874 12.3151C61.4388 12.8482 61.5639 13.3945 61.6692 13.9606L58.852 16.8172C58.7467 16.2512 58.6217 15.7048 58.4703 15.1717Z" fill="#395346"/>
<path d="M58.8518 16.8107L61.6689 13.9541C61.7677 14.5004 61.8466 15.0599 61.9059 15.626L59.0888 18.4826C59.0295 17.9165 58.9505 17.357 58.8518 16.8107Z" fill="#375044"/>
<path d="M59.0823 18.4891L61.8995 15.6324C61.9455 16.1064 61.9785 16.5869 61.9916 17.0739C61.9982 17.1924 61.9982 17.3109 61.9982 17.4228L59.1811 20.2794C59.1811 20.1609 59.1745 20.0424 59.1745 19.9306C59.1613 19.4435 59.1284 18.963 59.0823 18.4891Z" fill="#354E42"/>
<path d="M59.1813 20.286L61.9984 17.4294C62.005 18.0481 61.9918 18.6668 61.9523 19.2789L59.1352 22.1356C59.1813 21.5234 59.1944 20.9047 59.1813 20.286Z" fill="#344C40"/>
<path d="M59.1417 22.1356L61.9589 19.279C61.9194 19.8845 61.8536 20.4835 61.768 21.0759L58.9509 23.9325C59.0364 23.3401 59.1022 22.7346 59.1417 22.1356Z" fill="#32493E"/>
<path d="M58.9512 23.9325L61.7684 21.0759C61.6762 21.6881 61.5643 22.2936 61.4261 22.8926L58.6089 25.7492C58.7472 25.1502 58.8591 24.5447 58.9512 23.9325Z" fill="#31473C"/>
<path d="M58.6082 25.749L61.4253 22.8924C61.2739 23.5374 61.0962 24.1825 60.8856 24.8144L58.0685 27.671C58.2725 27.0325 58.4568 26.394 58.6082 25.749Z" fill="#2F443A"/>
<path d="M58.0627 27.6644L60.8798 24.8077C60.6363 25.5383 60.3532 26.2623 60.0373 26.9732L57.2202 29.8298C57.5427 29.119 57.8191 28.395 58.0627 27.6644Z" fill="#2D4238"/>
<path d="M57.2192 29.8302L60.0364 26.9735C59.6217 27.9016 59.1346 28.81 58.5883 29.7051L55.7712 32.5618C56.3175 31.6666 56.798 30.7583 57.2192 29.8302Z" fill="#2C4036"/>
<path d="M55.7649 32.5618L58.582 29.7052C57.4697 31.5153 56.0874 33.2529 54.4419 34.9182L51.6248 37.7749C53.2769 36.1096 54.6525 34.3653 55.7649 32.5618Z" fill="#2A3D34"/>
</svg>
